%TF.GenerationSoftware,KiCad,Pcbnew,9.0.0*%
%TF.CreationDate,2025-04-26T17:32:35+02:00*%
%TF.ProjectId,Differential_Probe,44696666-6572-4656-9e74-69616c5f5072,rev?*%
%TF.SameCoordinates,Original*%
%TF.FileFunction,Soldermask,Bot*%
%TF.FilePolarity,Negative*%
%FSLAX46Y46*%
G04 Gerber Fmt 4.6, Leading zero omitted, Abs format (unit mm)*
G04 Created by KiCad (PCBNEW 9.0.0) date 2025-04-26 17:32:35*
%MOMM*%
%LPD*%
G01*
G04 APERTURE LIST*
G04 Aperture macros list*
%AMRoundRect*
0 Rectangle with rounded corners*
0 $1 Rounding radius*
0 $2 $3 $4 $5 $6 $7 $8 $9 X,Y pos of 4 corners*
0 Add a 4 corners polygon primitive as box body*
4,1,4,$2,$3,$4,$5,$6,$7,$8,$9,$2,$3,0*
0 Add four circle primitives for the rounded corners*
1,1,$1+$1,$2,$3*
1,1,$1+$1,$4,$5*
1,1,$1+$1,$6,$7*
1,1,$1+$1,$8,$9*
0 Add four rect primitives between the rounded corners*
20,1,$1+$1,$2,$3,$4,$5,0*
20,1,$1+$1,$4,$5,$6,$7,0*
20,1,$1+$1,$6,$7,$8,$9,0*
20,1,$1+$1,$8,$9,$2,$3,0*%
G04 Aperture macros list end*
%ADD10C,1.000000*%
%ADD11C,0.800000*%
%ADD12C,6.400000*%
%ADD13C,1.300000*%
%ADD14C,1.440000*%
%ADD15C,0.609600*%
%ADD16C,3.200000*%
%ADD17C,1.800000*%
%ADD18R,1.800000X1.800000*%
%ADD19C,3.300000*%
%ADD20C,1.446000*%
%ADD21C,3.900000*%
%ADD22O,1.700000X1.100000*%
%ADD23RoundRect,0.200000X0.275000X-0.200000X0.275000X0.200000X-0.275000X0.200000X-0.275000X-0.200000X0*%
%ADD24RoundRect,0.200000X-0.275000X0.200000X-0.275000X-0.200000X0.275000X-0.200000X0.275000X0.200000X0*%
%ADD25RoundRect,0.250000X-0.275000X-0.700000X0.275000X-0.700000X0.275000X0.700000X-0.275000X0.700000X0*%
%ADD26RoundRect,0.225000X0.250000X-0.225000X0.250000X0.225000X-0.250000X0.225000X-0.250000X-0.225000X0*%
%ADD27RoundRect,0.250000X0.650000X-0.325000X0.650000X0.325000X-0.650000X0.325000X-0.650000X-0.325000X0*%
%ADD28RoundRect,0.225000X-0.250000X0.225000X-0.250000X-0.225000X0.250000X-0.225000X0.250000X0.225000X0*%
%ADD29RoundRect,0.225000X-0.225000X-0.375000X0.225000X-0.375000X0.225000X0.375000X-0.225000X0.375000X0*%
%ADD30RoundRect,0.250000X-0.325000X-0.650000X0.325000X-0.650000X0.325000X0.650000X-0.325000X0.650000X0*%
%ADD31RoundRect,0.250000X0.275000X0.700000X-0.275000X0.700000X-0.275000X-0.700000X0.275000X-0.700000X0*%
%ADD32RoundRect,0.225000X-0.225000X-0.250000X0.225000X-0.250000X0.225000X0.250000X-0.225000X0.250000X0*%
%ADD33RoundRect,0.200000X-0.200000X-0.275000X0.200000X-0.275000X0.200000X0.275000X-0.200000X0.275000X0*%
%ADD34RoundRect,0.200000X0.200000X0.275000X-0.200000X0.275000X-0.200000X-0.275000X0.200000X-0.275000X0*%
%ADD35RoundRect,0.225000X0.225000X0.250000X-0.225000X0.250000X-0.225000X-0.250000X0.225000X-0.250000X0*%
%ADD36RoundRect,0.225000X0.375000X-0.225000X0.375000X0.225000X-0.375000X0.225000X-0.375000X-0.225000X0*%
%ADD37RoundRect,0.250000X-0.650000X0.325000X-0.650000X-0.325000X0.650000X-0.325000X0.650000X0.325000X0*%
%ADD38RoundRect,0.100000X0.637500X0.100000X-0.637500X0.100000X-0.637500X-0.100000X0.637500X-0.100000X0*%
%ADD39RoundRect,0.250000X0.325000X0.650000X-0.325000X0.650000X-0.325000X-0.650000X0.325000X-0.650000X0*%
%ADD40RoundRect,0.150000X-0.150000X0.512500X-0.150000X-0.512500X0.150000X-0.512500X0.150000X0.512500X0*%
%ADD41RoundRect,0.225000X0.225000X0.375000X-0.225000X0.375000X-0.225000X-0.375000X0.225000X-0.375000X0*%
%ADD42R,0.280000X0.280000*%
%ADD43O,0.280000X0.850000*%
%ADD44C,0.600000*%
%ADD45R,1.050000X0.680000*%
%ADD46R,0.500000X0.260000*%
%ADD47R,0.700000X0.280000*%
%ADD48R,2.400000X1.650000*%
%ADD49RoundRect,0.150000X0.150000X-0.587500X0.150000X0.587500X-0.150000X0.587500X-0.150000X-0.587500X0*%
%ADD50RoundRect,0.150000X-0.587500X-0.150000X0.587500X-0.150000X0.587500X0.150000X-0.587500X0.150000X0*%
G04 APERTURE END LIST*
D10*
%TO.C,TP111*%
X129500000Y-129000000D03*
%TD*%
D11*
%TO.C,REF\u002A\u002A*%
X152600000Y-145000000D03*
X153302944Y-143302944D03*
X153302944Y-146697056D03*
X155000000Y-142600000D03*
D12*
X155000000Y-145000000D03*
D11*
X155000000Y-147400000D03*
X156697056Y-143302944D03*
X156697056Y-146697056D03*
X157400000Y-145000000D03*
%TD*%
D10*
%TO.C,TP107*%
X144750000Y-139500000D03*
%TD*%
%TO.C,TP105*%
X146520000Y-134520000D03*
%TD*%
D13*
%TO.C,SW101*%
X138500000Y-108500000D03*
X141000000Y-108500000D03*
X143500000Y-108500000D03*
X143500000Y-102500000D03*
X141000000Y-102500000D03*
X138500000Y-102500000D03*
%TD*%
D14*
%TO.C,RV101*%
X172750000Y-122440000D03*
X172750000Y-124980000D03*
X172750000Y-127520000D03*
%TD*%
D10*
%TO.C,GND*%
X132750000Y-118750000D03*
%TD*%
%TO.C,GND*%
X129450000Y-131550000D03*
%TD*%
D15*
%TO.C,H\u002A\u002A*%
X116750000Y-143000000D03*
X112650000Y-147100000D03*
%TD*%
D10*
%TO.C,TP108*%
X110250000Y-108500000D03*
%TD*%
%TO.C,TP109*%
X134750000Y-118750000D03*
%TD*%
%TO.C,TP104*%
X145500000Y-127000000D03*
%TD*%
%TO.C,GND*%
X146500000Y-132500000D03*
%TD*%
D14*
%TO.C,RV102*%
X151250000Y-122240000D03*
X151250000Y-124780000D03*
X151250000Y-127320000D03*
%TD*%
D10*
%TO.C,TP110*%
X146500000Y-130500000D03*
%TD*%
D11*
%TO.C,REF\u002A\u002A*%
X102600000Y-145000000D03*
X103302944Y-143302944D03*
X103302944Y-146697056D03*
X105000000Y-142600000D03*
D12*
X105000000Y-145000000D03*
D11*
X105000000Y-147400000D03*
X106697056Y-143302944D03*
X106697056Y-146697056D03*
X107400000Y-145000000D03*
%TD*%
D10*
%TO.C,GND*%
X145500000Y-125000000D03*
%TD*%
D15*
%TO.C,H\u002A\u002A*%
X137550000Y-126250000D03*
X133450000Y-122150000D03*
%TD*%
D10*
%TO.C,GND*%
X110250000Y-106000000D03*
%TD*%
%TO.C,TP103*%
X145500000Y-123000000D03*
%TD*%
D14*
%TO.C,RV103*%
X147290000Y-143500000D03*
X144750000Y-143500000D03*
X142210000Y-143500000D03*
%TD*%
D16*
%TO.C,REF\u002A\u002A*%
X195000000Y-105000000D03*
%TD*%
D13*
%TO.C,SW102*%
X138500000Y-118500000D03*
X141000000Y-118500000D03*
X143500000Y-118500000D03*
X143500000Y-112500000D03*
X141000000Y-112500000D03*
X138500000Y-112500000D03*
%TD*%
D15*
%TO.C,H\u002A\u002A*%
X121550000Y-143000000D03*
X117450000Y-147100000D03*
%TD*%
%TO.C,H\u002A\u002A*%
X137550000Y-131050000D03*
X133450000Y-126950000D03*
%TD*%
D17*
%TO.C,J103*%
X192000000Y-140160000D03*
D18*
X192000000Y-130000000D03*
D17*
X181840000Y-140160000D03*
X181840000Y-130000000D03*
D19*
X185640000Y-135080000D03*
%TD*%
D16*
%TO.C,REF\u002A\u002A*%
X195000000Y-145000000D03*
%TD*%
D11*
%TO.C,REF\u002A\u002A*%
X102600000Y-105000000D03*
X103302944Y-103302944D03*
X103302944Y-106697056D03*
X105000000Y-102600000D03*
D12*
X105000000Y-105000000D03*
D11*
X105000000Y-107400000D03*
X106697056Y-103302944D03*
X106697056Y-106697056D03*
X107400000Y-105000000D03*
%TD*%
D17*
%TO.C,J101*%
X192000000Y-120160000D03*
D18*
X192000000Y-110000000D03*
D17*
X181840000Y-120160000D03*
X181840000Y-110000000D03*
D19*
X185640000Y-115080000D03*
%TD*%
D20*
%TO.C,J102*%
X112230000Y-131100000D03*
X112230000Y-133640000D03*
D21*
X107150000Y-126020000D03*
X107150000Y-136180000D03*
%TD*%
D22*
%TO.C,J104*%
X106450000Y-111610000D03*
X102650000Y-111610000D03*
X106450000Y-120250000D03*
X102650000Y-120250000D03*
%TD*%
D15*
%TO.C,H\u002A\u002A*%
X114550000Y-117200000D03*
X110450000Y-121300000D03*
%TD*%
D11*
%TO.C,REF\u002A\u002A*%
X152600000Y-105000000D03*
X153302944Y-103302944D03*
X153302944Y-106697056D03*
X155000000Y-102600000D03*
D12*
X155000000Y-105000000D03*
D11*
X155000000Y-107400000D03*
X156697056Y-103302944D03*
X156697056Y-106697056D03*
X157400000Y-105000000D03*
%TD*%
D10*
%TO.C,TP106*%
X128750000Y-140250000D03*
%TD*%
D23*
%TO.C,R140*%
X119500000Y-145875000D03*
X119500000Y-144225000D03*
%TD*%
D24*
%TO.C,R122*%
X169000000Y-125762500D03*
X169000000Y-127412500D03*
%TD*%
D25*
%TO.C,FB103*%
X115925000Y-115500000D03*
X119075000Y-115500000D03*
%TD*%
D26*
%TO.C,C155*%
X147575000Y-147525000D03*
X147575000Y-145975000D03*
%TD*%
D23*
%TO.C,R134*%
X127600000Y-112062500D03*
X127600000Y-110412500D03*
%TD*%
D27*
%TO.C,C157*%
X140325000Y-148237500D03*
X140325000Y-145287500D03*
%TD*%
D28*
%TO.C,C136*%
X130400000Y-117625000D03*
X130400000Y-119175000D03*
%TD*%
D26*
%TO.C,C158*%
X142325000Y-147537500D03*
X142325000Y-145987500D03*
%TD*%
D29*
%TO.C,D103*%
X159450000Y-120750000D03*
X162750000Y-120750000D03*
%TD*%
D30*
%TO.C,C150*%
X128725000Y-134100000D03*
X131675000Y-134100000D03*
%TD*%
D27*
%TO.C,C162*%
X109600000Y-117275000D03*
X109600000Y-114325000D03*
%TD*%
D31*
%TO.C,FB104*%
X133325000Y-115250000D03*
X130175000Y-115250000D03*
%TD*%
D32*
%TO.C,C131*%
X121745000Y-127925000D03*
X123295000Y-127925000D03*
%TD*%
D33*
%TO.C,R130*%
X125895000Y-126425000D03*
X127545000Y-126425000D03*
%TD*%
D23*
%TO.C,R165*%
X126500000Y-147825000D03*
X126500000Y-146175000D03*
%TD*%
D27*
%TO.C,C163*%
X126980000Y-141225000D03*
X126980000Y-138275000D03*
%TD*%
D34*
%TO.C,R154*%
X136325000Y-124200000D03*
X134675000Y-124200000D03*
%TD*%
D26*
%TO.C,C132*%
X125300000Y-116825000D03*
X125300000Y-115275000D03*
%TD*%
D35*
%TO.C,C161*%
X138525000Y-136300000D03*
X136975000Y-136300000D03*
%TD*%
D34*
%TO.C,R127*%
X123345000Y-126395000D03*
X121695000Y-126395000D03*
%TD*%
D36*
%TO.C,D105*%
X155750000Y-126650000D03*
X155750000Y-123350000D03*
%TD*%
D37*
%TO.C,C137*%
X128250000Y-116925000D03*
X128250000Y-119875000D03*
%TD*%
D38*
%TO.C,U104*%
X136112500Y-144050000D03*
X136112500Y-144700000D03*
X136112500Y-145350000D03*
X136112500Y-146000000D03*
X136112500Y-146650000D03*
X136112500Y-147300000D03*
X136112500Y-147950000D03*
X130387500Y-147950000D03*
X130387500Y-147300000D03*
X130387500Y-146650000D03*
X130387500Y-146000000D03*
X130387500Y-145350000D03*
X130387500Y-144700000D03*
X130387500Y-144050000D03*
%TD*%
D39*
%TO.C,C165*%
X137475000Y-141750000D03*
X134525000Y-141750000D03*
%TD*%
D24*
%TO.C,R164*%
X128000000Y-146175000D03*
X128000000Y-147825000D03*
%TD*%
%TO.C,R124*%
X158000000Y-122587500D03*
X158000000Y-124237500D03*
%TD*%
D23*
%TO.C,R162*%
X123500000Y-140575000D03*
X123500000Y-138925000D03*
%TD*%
D26*
%TO.C,C135*%
X130250000Y-123925000D03*
X130250000Y-122375000D03*
%TD*%
D29*
%TO.C,D104*%
X164200000Y-120750000D03*
X167500000Y-120750000D03*
%TD*%
D33*
%TO.C,R157*%
X146150000Y-141600000D03*
X147800000Y-141600000D03*
%TD*%
D37*
%TO.C,C128*%
X121100000Y-117075000D03*
X121100000Y-120025000D03*
%TD*%
D40*
%TO.C,U106*%
X144050000Y-145612500D03*
X145000000Y-145612500D03*
X145950000Y-145612500D03*
X145950000Y-147887500D03*
X144050000Y-147887500D03*
%TD*%
D32*
%TO.C,C164*%
X130475000Y-139750000D03*
X132025000Y-139750000D03*
%TD*%
D24*
%TO.C,R121*%
X158000000Y-125662500D03*
X158000000Y-127312500D03*
%TD*%
D28*
%TO.C,C127*%
X119200000Y-117775000D03*
X119200000Y-119325000D03*
%TD*%
D35*
%TO.C,C166*%
X136775000Y-139750000D03*
X135225000Y-139750000D03*
%TD*%
D24*
%TO.C,R152*%
X104260000Y-114925000D03*
X104260000Y-116575000D03*
%TD*%
D29*
%TO.C,D106*%
X159450000Y-129250000D03*
X162750000Y-129250000D03*
%TD*%
D24*
%TO.C,R151*%
X102750000Y-114925000D03*
X102750000Y-116575000D03*
%TD*%
D30*
%TO.C,C159*%
X129775000Y-141750000D03*
X132725000Y-141750000D03*
%TD*%
D41*
%TO.C,D110*%
X123900000Y-134000000D03*
X120600000Y-134000000D03*
%TD*%
D42*
%TO.C,U101*%
X123750000Y-119015000D03*
D43*
X123750000Y-119300000D03*
D42*
X124250000Y-119015000D03*
D43*
X124250000Y-119300000D03*
D42*
X124750000Y-119015000D03*
D43*
X124750000Y-119300000D03*
D42*
X125250000Y-119015000D03*
D43*
X125250000Y-119300000D03*
D42*
X125750000Y-119015000D03*
D43*
X125750000Y-119300000D03*
X125750000Y-122250000D03*
D42*
X125750000Y-122535000D03*
D43*
X125250000Y-122250000D03*
D42*
X125250000Y-122535000D03*
D43*
X124750000Y-122250000D03*
D42*
X124750000Y-122535000D03*
D43*
X124250000Y-122250000D03*
D42*
X124250000Y-122535000D03*
D43*
X123750000Y-122250000D03*
D42*
X123750000Y-122535000D03*
D44*
X125500000Y-120275000D03*
X124000000Y-120275000D03*
D45*
X125385000Y-120325000D03*
X124115000Y-120325000D03*
D46*
X126380000Y-120525000D03*
D47*
X126300000Y-120525000D03*
X123200000Y-120525000D03*
D46*
X123120000Y-120525000D03*
D44*
X124750000Y-120775000D03*
D48*
X124750000Y-120775000D03*
D46*
X126380000Y-121025000D03*
D47*
X126300000Y-121025000D03*
X123200000Y-121025000D03*
D46*
X123120000Y-121025000D03*
D45*
X125385000Y-121225000D03*
X124115000Y-121225000D03*
D44*
X125500000Y-121275000D03*
X124000000Y-121275000D03*
%TD*%
D34*
%TO.C,R166*%
X124825000Y-146500000D03*
X123175000Y-146500000D03*
%TD*%
D35*
%TO.C,C156*%
X142525000Y-124500000D03*
X140975000Y-124500000D03*
%TD*%
D26*
%TO.C,C130*%
X119220000Y-124000000D03*
X119220000Y-122450000D03*
%TD*%
D39*
%TO.C,C154*%
X143225000Y-122500000D03*
X140275000Y-122500000D03*
%TD*%
D28*
%TO.C,C144*%
X125952500Y-110462500D03*
X125952500Y-112012500D03*
%TD*%
D24*
%TO.C,R125*%
X169000000Y-122587500D03*
X169000000Y-124237500D03*
%TD*%
D39*
%TO.C,C153*%
X139200000Y-134300000D03*
X136250000Y-134300000D03*
%TD*%
D23*
%TO.C,R129*%
X126000000Y-131075000D03*
X126000000Y-129425000D03*
%TD*%
D49*
%TO.C,Q101*%
X124950000Y-144750000D03*
X123050000Y-144750000D03*
X124000000Y-142875000D03*
%TD*%
D34*
%TO.C,R153*%
X112250000Y-119800000D03*
X110600000Y-119800000D03*
%TD*%
%TO.C,R150*%
X147825000Y-140000000D03*
X146175000Y-140000000D03*
%TD*%
D32*
%TO.C,C133*%
X125945000Y-127885000D03*
X127495000Y-127885000D03*
%TD*%
%TO.C,C152*%
X129450000Y-136100000D03*
X131000000Y-136100000D03*
%TD*%
D23*
%TO.C,R163*%
X125000000Y-140575000D03*
X125000000Y-138925000D03*
%TD*%
D39*
%TO.C,C148*%
X143225000Y-127750000D03*
X140275000Y-127750000D03*
%TD*%
D34*
%TO.C,R101*%
X136325000Y-129000000D03*
X134675000Y-129000000D03*
%TD*%
D33*
%TO.C,R155*%
X123175000Y-148000000D03*
X124825000Y-148000000D03*
%TD*%
D34*
%TO.C,R148*%
X143325000Y-140000000D03*
X141675000Y-140000000D03*
%TD*%
D50*
%TO.C,Q102*%
X119312500Y-140950000D03*
X119312500Y-139050000D03*
X121187500Y-140000000D03*
%TD*%
D27*
%TO.C,C160*%
X149575000Y-148225000D03*
X149575000Y-145275000D03*
%TD*%
D35*
%TO.C,C149*%
X142550000Y-125990000D03*
X141000000Y-125990000D03*
%TD*%
D29*
%TO.C,D107*%
X164200000Y-129250000D03*
X167500000Y-129250000D03*
%TD*%
D24*
%TO.C,R128*%
X123500000Y-129350000D03*
X123500000Y-131000000D03*
%TD*%
D23*
%TO.C,R102*%
X114700000Y-145875000D03*
X114700000Y-144225000D03*
%TD*%
D27*
%TO.C,C129*%
X121100000Y-124725000D03*
X121100000Y-121775000D03*
%TD*%
%TO.C,C134*%
X128250000Y-124625000D03*
X128250000Y-121675000D03*
%TD*%
D33*
%TO.C,R158*%
X141675000Y-141600000D03*
X143325000Y-141600000D03*
%TD*%
D23*
%TO.C,R160*%
X117500000Y-140825000D03*
X117500000Y-139175000D03*
%TD*%
D24*
%TO.C,R161*%
X116000000Y-139175000D03*
X116000000Y-140825000D03*
%TD*%
M02*
