%TF.GenerationSoftware,KiCad,Pcbnew,9.0.0*%
%TF.CreationDate,2025-04-26T17:32:35+02:00*%
%TF.ProjectId,Differential_Probe,44696666-6572-4656-9e74-69616c5f5072,rev?*%
%TF.SameCoordinates,Original*%
%TF.FileFunction,Profile,NP*%
%FSLAX46Y46*%
G04 Gerber Fmt 4.6, Leading zero omitted, Abs format (unit mm)*
G04 Created by KiCad (PCBNEW 9.0.0) date 2025-04-26 17:32:35*
%MOMM*%
%LPD*%
G01*
G04 APERTURE LIST*
%TA.AperFunction,Profile*%
%ADD10C,0.050000*%
%TD*%
G04 APERTURE END LIST*
D10*
X179145155Y-139233121D02*
X179145155Y-139233121D01*
G75*
G02*
X179852262Y-139940228I353554J-353554D01*
G01*
X177023835Y-142768655D01*
G75*
G02*
X176316728Y-142061548I-353553J353553D01*
G01*
X179145155Y-139233121D01*
X170482213Y-109228292D02*
X170482213Y-109228292D01*
G75*
G02*
X170482213Y-110228292I-13J-500008D01*
G01*
X166482213Y-110228292D01*
G75*
G02*
X166482213Y-109228292I-13J499992D01*
G01*
X170482213Y-109228292D01*
X100000000Y-105000000D02*
G75*
G02*
X105000000Y-100000000I5000000J0D01*
G01*
X176000000Y-123000000D02*
X176000000Y-123000000D01*
G75*
G02*
X177000000Y-123000000I500000J0D01*
G01*
X177000000Y-127000000D01*
G75*
G02*
X176000000Y-127000000I-500000J0D01*
G01*
X176000000Y-123000000D01*
X195000000Y-100000000D02*
G75*
G02*
X200000000Y-105000000I0J-5000000D01*
G01*
X178000000Y-119497429D02*
X178000000Y-119497429D01*
G75*
G02*
X179000000Y-119497429I500000J0D01*
G01*
X179000000Y-123497429D01*
G75*
G02*
X178000000Y-123497429I-500000J0D01*
G01*
X178000000Y-119497429D01*
X171077209Y-139771708D02*
X171077209Y-139771708D01*
G75*
G02*
X171077209Y-140771708I-9J-499992D01*
G01*
X167077209Y-140771708D01*
G75*
G02*
X167077209Y-139771708I-9J500008D01*
G01*
X171077209Y-139771708D01*
X174560493Y-107489562D02*
X174560493Y-107489562D01*
G75*
G02*
X174560493Y-108489562I7J-500038D01*
G01*
X170560493Y-108489562D01*
G75*
G02*
X170560493Y-107489562I7J499962D01*
G01*
X174560493Y-107489562D01*
X173190228Y-110232719D02*
X173190228Y-110232719D01*
G75*
G02*
X173897335Y-109525612I353554J353553D01*
G01*
X176725762Y-112354039D01*
G75*
G02*
X176018655Y-113061146I-353553J-353554D01*
G01*
X173190228Y-110232719D01*
X166998929Y-141510438D02*
X166998929Y-141510438D01*
G75*
G02*
X166998929Y-142510438I-29J-499962D01*
G01*
X162998929Y-142510438D01*
G75*
G02*
X162998929Y-141510438I-29J500038D01*
G01*
X166998929Y-141510438D01*
X176000000Y-115482213D02*
X176000000Y-115482213D01*
G75*
G02*
X177000000Y-115482213I500000J0D01*
G01*
X177000000Y-119482213D01*
G75*
G02*
X176000000Y-119482213I-500000J0D01*
G01*
X176000000Y-115482213D01*
X105000000Y-150000000D02*
G75*
G02*
X100000000Y-145000000I0J5000000D01*
G01*
X178000000Y-134232213D02*
X178000000Y-134232213D01*
G75*
G02*
X179000000Y-134232213I500000J0D01*
G01*
X179000000Y-138232213D01*
G75*
G02*
X178000000Y-138232213I-500000J0D01*
G01*
X178000000Y-134232213D01*
X164791119Y-139750000D02*
X164791119Y-139750000D01*
G75*
G02*
X164791119Y-140750000I-19J-500000D01*
G01*
X160791119Y-140750000D01*
G75*
G02*
X160791119Y-139750000I-19J500000D01*
G01*
X164791119Y-139750000D01*
X195000000Y-100000000D02*
X105000000Y-100000000D01*
X174500000Y-141500000D02*
X174500000Y-141500000D01*
G75*
G02*
X174500000Y-142500000I0J-500000D01*
G01*
X170500000Y-142500000D01*
G75*
G02*
X170500000Y-141500000I0J500000D01*
G01*
X174500000Y-141500000D01*
X200000000Y-145000000D02*
X200000000Y-105000000D01*
X100000000Y-105000000D02*
X100000000Y-145000000D01*
X167059422Y-107500000D02*
X167059422Y-107500000D01*
G75*
G02*
X167059422Y-108500000I-22J-500000D01*
G01*
X163059422Y-108500000D01*
G75*
G02*
X163059422Y-107500000I-22J500000D01*
G01*
X167059422Y-107500000D01*
X176464466Y-107878680D02*
X176464466Y-107878680D01*
G75*
G02*
X177171573Y-107171573I353554J353553D01*
G01*
X180000000Y-110000000D01*
G75*
G02*
X179292893Y-110707107I-353553J-353554D01*
G01*
X176464466Y-107878680D01*
X164500000Y-109250000D02*
X164500000Y-109250000D01*
G75*
G02*
X164500000Y-110250000I0J-500000D01*
G01*
X160500000Y-110250000D01*
G75*
G02*
X160500000Y-109250000I0J500000D01*
G01*
X164500000Y-109250000D01*
X178000000Y-126732213D02*
X178000000Y-126732213D01*
G75*
G02*
X179000000Y-126732213I500000J0D01*
G01*
X179000000Y-130732213D01*
G75*
G02*
X178000000Y-130732213I-500000J0D01*
G01*
X178000000Y-126732213D01*
X176000000Y-130482213D02*
X176000000Y-130482213D01*
G75*
G02*
X177000000Y-130482213I500000J0D01*
G01*
X177000000Y-134482213D01*
G75*
G02*
X176000000Y-134482213I-500000J0D01*
G01*
X176000000Y-130482213D01*
X176146672Y-136939114D02*
X176146672Y-136939114D01*
G75*
G02*
X176853779Y-137646221I353554J-353554D01*
G01*
X174025352Y-140474648D01*
G75*
G02*
X173318245Y-139767541I-353553J353553D01*
G01*
X176146672Y-136939114D01*
X178000000Y-111997429D02*
X178000000Y-111997429D01*
G75*
G02*
X179000000Y-111997429I500000J0D01*
G01*
X179000000Y-115997429D01*
G75*
G02*
X178000000Y-115997429I-500000J0D01*
G01*
X178000000Y-111997429D01*
X105000000Y-150000000D02*
X195000000Y-150000000D01*
X200000000Y-145000000D02*
G75*
G02*
X195000000Y-150000000I-5000000J0D01*
G01*
M02*
