%TF.GenerationSoftware,KiCad,Pcbnew,9.0.0*%
%TF.CreationDate,2025-04-26T17:32:35+02:00*%
%TF.ProjectId,Differential_Probe,44696666-6572-4656-9e74-69616c5f5072,rev?*%
%TF.SameCoordinates,Original*%
%TF.FileFunction,Legend,Bot*%
%TF.FilePolarity,Positive*%
%FSLAX46Y46*%
G04 Gerber Fmt 4.6, Leading zero omitted, Abs format (unit mm)*
G04 Created by KiCad (PCBNEW 9.0.0) date 2025-04-26 17:32:35*
%MOMM*%
%LPD*%
G01*
G04 APERTURE LIST*
%ADD10C,0.200000*%
%ADD11C,0.150000*%
%ADD12C,0.120000*%
G04 APERTURE END LIST*
D10*
X183230326Y-147067219D02*
X183230326Y-146067219D01*
X183230326Y-146543409D02*
X182658898Y-146543409D01*
X182658898Y-147067219D02*
X182658898Y-146067219D01*
X182325564Y-146067219D02*
X181992231Y-147067219D01*
X181992231Y-147067219D02*
X181658898Y-146067219D01*
X181563660Y-147162457D02*
X180801755Y-147162457D01*
X180563659Y-147067219D02*
X180563659Y-146067219D01*
X180563659Y-146067219D02*
X180325564Y-146067219D01*
X180325564Y-146067219D02*
X180182707Y-146114838D01*
X180182707Y-146114838D02*
X180087469Y-146210076D01*
X180087469Y-146210076D02*
X180039850Y-146305314D01*
X180039850Y-146305314D02*
X179992231Y-146495790D01*
X179992231Y-146495790D02*
X179992231Y-146638647D01*
X179992231Y-146638647D02*
X180039850Y-146829123D01*
X180039850Y-146829123D02*
X180087469Y-146924361D01*
X180087469Y-146924361D02*
X180182707Y-147019600D01*
X180182707Y-147019600D02*
X180325564Y-147067219D01*
X180325564Y-147067219D02*
X180563659Y-147067219D01*
X179563659Y-147067219D02*
X179563659Y-146400552D01*
X179563659Y-146067219D02*
X179611278Y-146114838D01*
X179611278Y-146114838D02*
X179563659Y-146162457D01*
X179563659Y-146162457D02*
X179516040Y-146114838D01*
X179516040Y-146114838D02*
X179563659Y-146067219D01*
X179563659Y-146067219D02*
X179563659Y-146162457D01*
X179230326Y-146400552D02*
X178849374Y-146400552D01*
X179087469Y-147067219D02*
X179087469Y-146210076D01*
X179087469Y-146210076D02*
X179039850Y-146114838D01*
X179039850Y-146114838D02*
X178944612Y-146067219D01*
X178944612Y-146067219D02*
X178849374Y-146067219D01*
X178658897Y-146400552D02*
X178277945Y-146400552D01*
X178516040Y-147067219D02*
X178516040Y-146210076D01*
X178516040Y-146210076D02*
X178468421Y-146114838D01*
X178468421Y-146114838D02*
X178373183Y-146067219D01*
X178373183Y-146067219D02*
X178277945Y-146067219D01*
X177563659Y-147019600D02*
X177658897Y-147067219D01*
X177658897Y-147067219D02*
X177849373Y-147067219D01*
X177849373Y-147067219D02*
X177944611Y-147019600D01*
X177944611Y-147019600D02*
X177992230Y-146924361D01*
X177992230Y-146924361D02*
X177992230Y-146543409D01*
X177992230Y-146543409D02*
X177944611Y-146448171D01*
X177944611Y-146448171D02*
X177849373Y-146400552D01*
X177849373Y-146400552D02*
X177658897Y-146400552D01*
X177658897Y-146400552D02*
X177563659Y-146448171D01*
X177563659Y-146448171D02*
X177516040Y-146543409D01*
X177516040Y-146543409D02*
X177516040Y-146638647D01*
X177516040Y-146638647D02*
X177992230Y-146733885D01*
X177087468Y-147067219D02*
X177087468Y-146400552D01*
X177087468Y-146591028D02*
X177039849Y-146495790D01*
X177039849Y-146495790D02*
X176992230Y-146448171D01*
X176992230Y-146448171D02*
X176896992Y-146400552D01*
X176896992Y-146400552D02*
X176801754Y-146400552D01*
X176087468Y-147019600D02*
X176182706Y-147067219D01*
X176182706Y-147067219D02*
X176373182Y-147067219D01*
X176373182Y-147067219D02*
X176468420Y-147019600D01*
X176468420Y-147019600D02*
X176516039Y-146924361D01*
X176516039Y-146924361D02*
X176516039Y-146543409D01*
X176516039Y-146543409D02*
X176468420Y-146448171D01*
X176468420Y-146448171D02*
X176373182Y-146400552D01*
X176373182Y-146400552D02*
X176182706Y-146400552D01*
X176182706Y-146400552D02*
X176087468Y-146448171D01*
X176087468Y-146448171D02*
X176039849Y-146543409D01*
X176039849Y-146543409D02*
X176039849Y-146638647D01*
X176039849Y-146638647D02*
X176516039Y-146733885D01*
X175611277Y-146400552D02*
X175611277Y-147067219D01*
X175611277Y-146495790D02*
X175563658Y-146448171D01*
X175563658Y-146448171D02*
X175468420Y-146400552D01*
X175468420Y-146400552D02*
X175325563Y-146400552D01*
X175325563Y-146400552D02*
X175230325Y-146448171D01*
X175230325Y-146448171D02*
X175182706Y-146543409D01*
X175182706Y-146543409D02*
X175182706Y-147067219D01*
X174849372Y-146400552D02*
X174468420Y-146400552D01*
X174706515Y-146067219D02*
X174706515Y-146924361D01*
X174706515Y-146924361D02*
X174658896Y-147019600D01*
X174658896Y-147019600D02*
X174563658Y-147067219D01*
X174563658Y-147067219D02*
X174468420Y-147067219D01*
X174135086Y-147067219D02*
X174135086Y-146400552D01*
X174135086Y-146067219D02*
X174182705Y-146114838D01*
X174182705Y-146114838D02*
X174135086Y-146162457D01*
X174135086Y-146162457D02*
X174087467Y-146114838D01*
X174087467Y-146114838D02*
X174135086Y-146067219D01*
X174135086Y-146067219D02*
X174135086Y-146162457D01*
X173230325Y-147067219D02*
X173230325Y-146543409D01*
X173230325Y-146543409D02*
X173277944Y-146448171D01*
X173277944Y-146448171D02*
X173373182Y-146400552D01*
X173373182Y-146400552D02*
X173563658Y-146400552D01*
X173563658Y-146400552D02*
X173658896Y-146448171D01*
X173230325Y-147019600D02*
X173325563Y-147067219D01*
X173325563Y-147067219D02*
X173563658Y-147067219D01*
X173563658Y-147067219D02*
X173658896Y-147019600D01*
X173658896Y-147019600D02*
X173706515Y-146924361D01*
X173706515Y-146924361D02*
X173706515Y-146829123D01*
X173706515Y-146829123D02*
X173658896Y-146733885D01*
X173658896Y-146733885D02*
X173563658Y-146686266D01*
X173563658Y-146686266D02*
X173325563Y-146686266D01*
X173325563Y-146686266D02*
X173230325Y-146638647D01*
X172611277Y-147067219D02*
X172706515Y-147019600D01*
X172706515Y-147019600D02*
X172754134Y-146924361D01*
X172754134Y-146924361D02*
X172754134Y-146067219D01*
X172468420Y-147162457D02*
X171706515Y-147162457D01*
X171468419Y-147067219D02*
X171468419Y-146067219D01*
X171468419Y-146067219D02*
X171087467Y-146067219D01*
X171087467Y-146067219D02*
X170992229Y-146114838D01*
X170992229Y-146114838D02*
X170944610Y-146162457D01*
X170944610Y-146162457D02*
X170896991Y-146257695D01*
X170896991Y-146257695D02*
X170896991Y-146400552D01*
X170896991Y-146400552D02*
X170944610Y-146495790D01*
X170944610Y-146495790D02*
X170992229Y-146543409D01*
X170992229Y-146543409D02*
X171087467Y-146591028D01*
X171087467Y-146591028D02*
X171468419Y-146591028D01*
X170468419Y-147067219D02*
X170468419Y-146400552D01*
X170468419Y-146591028D02*
X170420800Y-146495790D01*
X170420800Y-146495790D02*
X170373181Y-146448171D01*
X170373181Y-146448171D02*
X170277943Y-146400552D01*
X170277943Y-146400552D02*
X170182705Y-146400552D01*
X169706514Y-147067219D02*
X169801752Y-147019600D01*
X169801752Y-147019600D02*
X169849371Y-146971980D01*
X169849371Y-146971980D02*
X169896990Y-146876742D01*
X169896990Y-146876742D02*
X169896990Y-146591028D01*
X169896990Y-146591028D02*
X169849371Y-146495790D01*
X169849371Y-146495790D02*
X169801752Y-146448171D01*
X169801752Y-146448171D02*
X169706514Y-146400552D01*
X169706514Y-146400552D02*
X169563657Y-146400552D01*
X169563657Y-146400552D02*
X169468419Y-146448171D01*
X169468419Y-146448171D02*
X169420800Y-146495790D01*
X169420800Y-146495790D02*
X169373181Y-146591028D01*
X169373181Y-146591028D02*
X169373181Y-146876742D01*
X169373181Y-146876742D02*
X169420800Y-146971980D01*
X169420800Y-146971980D02*
X169468419Y-147019600D01*
X169468419Y-147019600D02*
X169563657Y-147067219D01*
X169563657Y-147067219D02*
X169706514Y-147067219D01*
X168944609Y-147067219D02*
X168944609Y-146067219D01*
X168944609Y-146448171D02*
X168849371Y-146400552D01*
X168849371Y-146400552D02*
X168658895Y-146400552D01*
X168658895Y-146400552D02*
X168563657Y-146448171D01*
X168563657Y-146448171D02*
X168516038Y-146495790D01*
X168516038Y-146495790D02*
X168468419Y-146591028D01*
X168468419Y-146591028D02*
X168468419Y-146876742D01*
X168468419Y-146876742D02*
X168516038Y-146971980D01*
X168516038Y-146971980D02*
X168563657Y-147019600D01*
X168563657Y-147019600D02*
X168658895Y-147067219D01*
X168658895Y-147067219D02*
X168849371Y-147067219D01*
X168849371Y-147067219D02*
X168944609Y-147019600D01*
X167658895Y-147019600D02*
X167754133Y-147067219D01*
X167754133Y-147067219D02*
X167944609Y-147067219D01*
X167944609Y-147067219D02*
X168039847Y-147019600D01*
X168039847Y-147019600D02*
X168087466Y-146924361D01*
X168087466Y-146924361D02*
X168087466Y-146543409D01*
X168087466Y-146543409D02*
X168039847Y-146448171D01*
X168039847Y-146448171D02*
X167944609Y-146400552D01*
X167944609Y-146400552D02*
X167754133Y-146400552D01*
X167754133Y-146400552D02*
X167658895Y-146448171D01*
X167658895Y-146448171D02*
X167611276Y-146543409D01*
X167611276Y-146543409D02*
X167611276Y-146638647D01*
X167611276Y-146638647D02*
X168087466Y-146733885D01*
X166516037Y-146400552D02*
X166277942Y-147067219D01*
X166277942Y-147067219D02*
X166039847Y-146400552D01*
X165135085Y-147067219D02*
X165706513Y-147067219D01*
X165420799Y-147067219D02*
X165420799Y-146067219D01*
X165420799Y-146067219D02*
X165516037Y-146210076D01*
X165516037Y-146210076D02*
X165611275Y-146305314D01*
X165611275Y-146305314D02*
X165706513Y-146352933D01*
X164706513Y-146971980D02*
X164658894Y-147019600D01*
X164658894Y-147019600D02*
X164706513Y-147067219D01*
X164706513Y-147067219D02*
X164754132Y-147019600D01*
X164754132Y-147019600D02*
X164706513Y-146971980D01*
X164706513Y-146971980D02*
X164706513Y-147067219D01*
X164039847Y-146067219D02*
X163944609Y-146067219D01*
X163944609Y-146067219D02*
X163849371Y-146114838D01*
X163849371Y-146114838D02*
X163801752Y-146162457D01*
X163801752Y-146162457D02*
X163754133Y-146257695D01*
X163754133Y-146257695D02*
X163706514Y-146448171D01*
X163706514Y-146448171D02*
X163706514Y-146686266D01*
X163706514Y-146686266D02*
X163754133Y-146876742D01*
X163754133Y-146876742D02*
X163801752Y-146971980D01*
X163801752Y-146971980D02*
X163849371Y-147019600D01*
X163849371Y-147019600D02*
X163944609Y-147067219D01*
X163944609Y-147067219D02*
X164039847Y-147067219D01*
X164039847Y-147067219D02*
X164135085Y-147019600D01*
X164135085Y-147019600D02*
X164182704Y-146971980D01*
X164182704Y-146971980D02*
X164230323Y-146876742D01*
X164230323Y-146876742D02*
X164277942Y-146686266D01*
X164277942Y-146686266D02*
X164277942Y-146448171D01*
X164277942Y-146448171D02*
X164230323Y-146257695D01*
X164230323Y-146257695D02*
X164182704Y-146162457D01*
X164182704Y-146162457D02*
X164135085Y-146114838D01*
X164135085Y-146114838D02*
X164039847Y-146067219D01*
D11*
X118454819Y-143930952D02*
X117978628Y-143597619D01*
X118454819Y-143359524D02*
X117454819Y-143359524D01*
X117454819Y-143359524D02*
X117454819Y-143740476D01*
X117454819Y-143740476D02*
X117502438Y-143835714D01*
X117502438Y-143835714D02*
X117550057Y-143883333D01*
X117550057Y-143883333D02*
X117645295Y-143930952D01*
X117645295Y-143930952D02*
X117788152Y-143930952D01*
X117788152Y-143930952D02*
X117883390Y-143883333D01*
X117883390Y-143883333D02*
X117931009Y-143835714D01*
X117931009Y-143835714D02*
X117978628Y-143740476D01*
X117978628Y-143740476D02*
X117978628Y-143359524D01*
X118454819Y-144883333D02*
X118454819Y-144311905D01*
X118454819Y-144597619D02*
X117454819Y-144597619D01*
X117454819Y-144597619D02*
X117597676Y-144502381D01*
X117597676Y-144502381D02*
X117692914Y-144407143D01*
X117692914Y-144407143D02*
X117740533Y-144311905D01*
X117788152Y-145740476D02*
X118454819Y-145740476D01*
X117407200Y-145502381D02*
X118121485Y-145264286D01*
X118121485Y-145264286D02*
X118121485Y-145883333D01*
X117454819Y-146454762D02*
X117454819Y-146550000D01*
X117454819Y-146550000D02*
X117502438Y-146645238D01*
X117502438Y-146645238D02*
X117550057Y-146692857D01*
X117550057Y-146692857D02*
X117645295Y-146740476D01*
X117645295Y-146740476D02*
X117835771Y-146788095D01*
X117835771Y-146788095D02*
X118073866Y-146788095D01*
X118073866Y-146788095D02*
X118264342Y-146740476D01*
X118264342Y-146740476D02*
X118359580Y-146692857D01*
X118359580Y-146692857D02*
X118407200Y-146645238D01*
X118407200Y-146645238D02*
X118454819Y-146550000D01*
X118454819Y-146550000D02*
X118454819Y-146454762D01*
X118454819Y-146454762D02*
X118407200Y-146359524D01*
X118407200Y-146359524D02*
X118359580Y-146311905D01*
X118359580Y-146311905D02*
X118264342Y-146264286D01*
X118264342Y-146264286D02*
X118073866Y-146216667D01*
X118073866Y-146216667D02*
X117835771Y-146216667D01*
X117835771Y-146216667D02*
X117645295Y-146264286D01*
X117645295Y-146264286D02*
X117550057Y-146311905D01*
X117550057Y-146311905D02*
X117502438Y-146359524D01*
X117502438Y-146359524D02*
X117454819Y-146454762D01*
X167619047Y-127042319D02*
X167952380Y-126566128D01*
X168190475Y-127042319D02*
X168190475Y-126042319D01*
X168190475Y-126042319D02*
X167809523Y-126042319D01*
X167809523Y-126042319D02*
X167714285Y-126089938D01*
X167714285Y-126089938D02*
X167666666Y-126137557D01*
X167666666Y-126137557D02*
X167619047Y-126232795D01*
X167619047Y-126232795D02*
X167619047Y-126375652D01*
X167619047Y-126375652D02*
X167666666Y-126470890D01*
X167666666Y-126470890D02*
X167714285Y-126518509D01*
X167714285Y-126518509D02*
X167809523Y-126566128D01*
X167809523Y-126566128D02*
X168190475Y-126566128D01*
X166666666Y-127042319D02*
X167238094Y-127042319D01*
X166952380Y-127042319D02*
X166952380Y-126042319D01*
X166952380Y-126042319D02*
X167047618Y-126185176D01*
X167047618Y-126185176D02*
X167142856Y-126280414D01*
X167142856Y-126280414D02*
X167238094Y-126328033D01*
X166285713Y-126137557D02*
X166238094Y-126089938D01*
X166238094Y-126089938D02*
X166142856Y-126042319D01*
X166142856Y-126042319D02*
X165904761Y-126042319D01*
X165904761Y-126042319D02*
X165809523Y-126089938D01*
X165809523Y-126089938D02*
X165761904Y-126137557D01*
X165761904Y-126137557D02*
X165714285Y-126232795D01*
X165714285Y-126232795D02*
X165714285Y-126328033D01*
X165714285Y-126328033D02*
X165761904Y-126470890D01*
X165761904Y-126470890D02*
X166333332Y-127042319D01*
X166333332Y-127042319D02*
X165714285Y-127042319D01*
X165333332Y-126137557D02*
X165285713Y-126089938D01*
X165285713Y-126089938D02*
X165190475Y-126042319D01*
X165190475Y-126042319D02*
X164952380Y-126042319D01*
X164952380Y-126042319D02*
X164857142Y-126089938D01*
X164857142Y-126089938D02*
X164809523Y-126137557D01*
X164809523Y-126137557D02*
X164761904Y-126232795D01*
X164761904Y-126232795D02*
X164761904Y-126328033D01*
X164761904Y-126328033D02*
X164809523Y-126470890D01*
X164809523Y-126470890D02*
X165380951Y-127042319D01*
X165380951Y-127042319D02*
X164761904Y-127042319D01*
X119292689Y-113341419D02*
X119626022Y-113341419D01*
X119626022Y-113865229D02*
X119626022Y-112865229D01*
X119626022Y-112865229D02*
X119149832Y-112865229D01*
X118435546Y-113341419D02*
X118292689Y-113389038D01*
X118292689Y-113389038D02*
X118245070Y-113436657D01*
X118245070Y-113436657D02*
X118197451Y-113531895D01*
X118197451Y-113531895D02*
X118197451Y-113674752D01*
X118197451Y-113674752D02*
X118245070Y-113769990D01*
X118245070Y-113769990D02*
X118292689Y-113817610D01*
X118292689Y-113817610D02*
X118387927Y-113865229D01*
X118387927Y-113865229D02*
X118768879Y-113865229D01*
X118768879Y-113865229D02*
X118768879Y-112865229D01*
X118768879Y-112865229D02*
X118435546Y-112865229D01*
X118435546Y-112865229D02*
X118340308Y-112912848D01*
X118340308Y-112912848D02*
X118292689Y-112960467D01*
X118292689Y-112960467D02*
X118245070Y-113055705D01*
X118245070Y-113055705D02*
X118245070Y-113150943D01*
X118245070Y-113150943D02*
X118292689Y-113246181D01*
X118292689Y-113246181D02*
X118340308Y-113293800D01*
X118340308Y-113293800D02*
X118435546Y-113341419D01*
X118435546Y-113341419D02*
X118768879Y-113341419D01*
X117245070Y-113865229D02*
X117816498Y-113865229D01*
X117530784Y-113865229D02*
X117530784Y-112865229D01*
X117530784Y-112865229D02*
X117626022Y-113008086D01*
X117626022Y-113008086D02*
X117721260Y-113103324D01*
X117721260Y-113103324D02*
X117816498Y-113150943D01*
X116626022Y-112865229D02*
X116530784Y-112865229D01*
X116530784Y-112865229D02*
X116435546Y-112912848D01*
X116435546Y-112912848D02*
X116387927Y-112960467D01*
X116387927Y-112960467D02*
X116340308Y-113055705D01*
X116340308Y-113055705D02*
X116292689Y-113246181D01*
X116292689Y-113246181D02*
X116292689Y-113484276D01*
X116292689Y-113484276D02*
X116340308Y-113674752D01*
X116340308Y-113674752D02*
X116387927Y-113769990D01*
X116387927Y-113769990D02*
X116435546Y-113817610D01*
X116435546Y-113817610D02*
X116530784Y-113865229D01*
X116530784Y-113865229D02*
X116626022Y-113865229D01*
X116626022Y-113865229D02*
X116721260Y-113817610D01*
X116721260Y-113817610D02*
X116768879Y-113769990D01*
X116768879Y-113769990D02*
X116816498Y-113674752D01*
X116816498Y-113674752D02*
X116864117Y-113484276D01*
X116864117Y-113484276D02*
X116864117Y-113246181D01*
X116864117Y-113246181D02*
X116816498Y-113055705D01*
X116816498Y-113055705D02*
X116768879Y-112960467D01*
X116768879Y-112960467D02*
X116721260Y-112912848D01*
X116721260Y-112912848D02*
X116626022Y-112865229D01*
X115959355Y-112865229D02*
X115340308Y-112865229D01*
X115340308Y-112865229D02*
X115673641Y-113246181D01*
X115673641Y-113246181D02*
X115530784Y-113246181D01*
X115530784Y-113246181D02*
X115435546Y-113293800D01*
X115435546Y-113293800D02*
X115387927Y-113341419D01*
X115387927Y-113341419D02*
X115340308Y-113436657D01*
X115340308Y-113436657D02*
X115340308Y-113674752D01*
X115340308Y-113674752D02*
X115387927Y-113769990D01*
X115387927Y-113769990D02*
X115435546Y-113817610D01*
X115435546Y-113817610D02*
X115530784Y-113865229D01*
X115530784Y-113865229D02*
X115816498Y-113865229D01*
X115816498Y-113865229D02*
X115911736Y-113817610D01*
X115911736Y-113817610D02*
X115959355Y-113769990D01*
X149859580Y-140880952D02*
X149907200Y-140833333D01*
X149907200Y-140833333D02*
X149954819Y-140690476D01*
X149954819Y-140690476D02*
X149954819Y-140595238D01*
X149954819Y-140595238D02*
X149907200Y-140452381D01*
X149907200Y-140452381D02*
X149811961Y-140357143D01*
X149811961Y-140357143D02*
X149716723Y-140309524D01*
X149716723Y-140309524D02*
X149526247Y-140261905D01*
X149526247Y-140261905D02*
X149383390Y-140261905D01*
X149383390Y-140261905D02*
X149192914Y-140309524D01*
X149192914Y-140309524D02*
X149097676Y-140357143D01*
X149097676Y-140357143D02*
X149002438Y-140452381D01*
X149002438Y-140452381D02*
X148954819Y-140595238D01*
X148954819Y-140595238D02*
X148954819Y-140690476D01*
X148954819Y-140690476D02*
X149002438Y-140833333D01*
X149002438Y-140833333D02*
X149050057Y-140880952D01*
X149954819Y-141833333D02*
X149954819Y-141261905D01*
X149954819Y-141547619D02*
X148954819Y-141547619D01*
X148954819Y-141547619D02*
X149097676Y-141452381D01*
X149097676Y-141452381D02*
X149192914Y-141357143D01*
X149192914Y-141357143D02*
X149240533Y-141261905D01*
X148954819Y-142738095D02*
X148954819Y-142261905D01*
X148954819Y-142261905D02*
X149431009Y-142214286D01*
X149431009Y-142214286D02*
X149383390Y-142261905D01*
X149383390Y-142261905D02*
X149335771Y-142357143D01*
X149335771Y-142357143D02*
X149335771Y-142595238D01*
X149335771Y-142595238D02*
X149383390Y-142690476D01*
X149383390Y-142690476D02*
X149431009Y-142738095D01*
X149431009Y-142738095D02*
X149526247Y-142785714D01*
X149526247Y-142785714D02*
X149764342Y-142785714D01*
X149764342Y-142785714D02*
X149859580Y-142738095D01*
X149859580Y-142738095D02*
X149907200Y-142690476D01*
X149907200Y-142690476D02*
X149954819Y-142595238D01*
X149954819Y-142595238D02*
X149954819Y-142357143D01*
X149954819Y-142357143D02*
X149907200Y-142261905D01*
X149907200Y-142261905D02*
X149859580Y-142214286D01*
X148954819Y-143690476D02*
X148954819Y-143214286D01*
X148954819Y-143214286D02*
X149431009Y-143166667D01*
X149431009Y-143166667D02*
X149383390Y-143214286D01*
X149383390Y-143214286D02*
X149335771Y-143309524D01*
X149335771Y-143309524D02*
X149335771Y-143547619D01*
X149335771Y-143547619D02*
X149383390Y-143642857D01*
X149383390Y-143642857D02*
X149431009Y-143690476D01*
X149431009Y-143690476D02*
X149526247Y-143738095D01*
X149526247Y-143738095D02*
X149764342Y-143738095D01*
X149764342Y-143738095D02*
X149859580Y-143690476D01*
X149859580Y-143690476D02*
X149907200Y-143642857D01*
X149907200Y-143642857D02*
X149954819Y-143547619D01*
X149954819Y-143547619D02*
X149954819Y-143309524D01*
X149954819Y-143309524D02*
X149907200Y-143214286D01*
X149907200Y-143214286D02*
X149859580Y-143166667D01*
X129484819Y-110118452D02*
X129008628Y-109785119D01*
X129484819Y-109547024D02*
X128484819Y-109547024D01*
X128484819Y-109547024D02*
X128484819Y-109927976D01*
X128484819Y-109927976D02*
X128532438Y-110023214D01*
X128532438Y-110023214D02*
X128580057Y-110070833D01*
X128580057Y-110070833D02*
X128675295Y-110118452D01*
X128675295Y-110118452D02*
X128818152Y-110118452D01*
X128818152Y-110118452D02*
X128913390Y-110070833D01*
X128913390Y-110070833D02*
X128961009Y-110023214D01*
X128961009Y-110023214D02*
X129008628Y-109927976D01*
X129008628Y-109927976D02*
X129008628Y-109547024D01*
X129484819Y-111070833D02*
X129484819Y-110499405D01*
X129484819Y-110785119D02*
X128484819Y-110785119D01*
X128484819Y-110785119D02*
X128627676Y-110689881D01*
X128627676Y-110689881D02*
X128722914Y-110594643D01*
X128722914Y-110594643D02*
X128770533Y-110499405D01*
X128484819Y-111404167D02*
X128484819Y-112023214D01*
X128484819Y-112023214D02*
X128865771Y-111689881D01*
X128865771Y-111689881D02*
X128865771Y-111832738D01*
X128865771Y-111832738D02*
X128913390Y-111927976D01*
X128913390Y-111927976D02*
X128961009Y-111975595D01*
X128961009Y-111975595D02*
X129056247Y-112023214D01*
X129056247Y-112023214D02*
X129294342Y-112023214D01*
X129294342Y-112023214D02*
X129389580Y-111975595D01*
X129389580Y-111975595D02*
X129437200Y-111927976D01*
X129437200Y-111927976D02*
X129484819Y-111832738D01*
X129484819Y-111832738D02*
X129484819Y-111547024D01*
X129484819Y-111547024D02*
X129437200Y-111451786D01*
X129437200Y-111451786D02*
X129389580Y-111404167D01*
X128818152Y-112880357D02*
X129484819Y-112880357D01*
X128437200Y-112642262D02*
X129151485Y-112404167D01*
X129151485Y-112404167D02*
X129151485Y-113023214D01*
X138619047Y-149609580D02*
X138666666Y-149657200D01*
X138666666Y-149657200D02*
X138809523Y-149704819D01*
X138809523Y-149704819D02*
X138904761Y-149704819D01*
X138904761Y-149704819D02*
X139047618Y-149657200D01*
X139047618Y-149657200D02*
X139142856Y-149561961D01*
X139142856Y-149561961D02*
X139190475Y-149466723D01*
X139190475Y-149466723D02*
X139238094Y-149276247D01*
X139238094Y-149276247D02*
X139238094Y-149133390D01*
X139238094Y-149133390D02*
X139190475Y-148942914D01*
X139190475Y-148942914D02*
X139142856Y-148847676D01*
X139142856Y-148847676D02*
X139047618Y-148752438D01*
X139047618Y-148752438D02*
X138904761Y-148704819D01*
X138904761Y-148704819D02*
X138809523Y-148704819D01*
X138809523Y-148704819D02*
X138666666Y-148752438D01*
X138666666Y-148752438D02*
X138619047Y-148800057D01*
X137666666Y-149704819D02*
X138238094Y-149704819D01*
X137952380Y-149704819D02*
X137952380Y-148704819D01*
X137952380Y-148704819D02*
X138047618Y-148847676D01*
X138047618Y-148847676D02*
X138142856Y-148942914D01*
X138142856Y-148942914D02*
X138238094Y-148990533D01*
X136761904Y-148704819D02*
X137238094Y-148704819D01*
X137238094Y-148704819D02*
X137285713Y-149181009D01*
X137285713Y-149181009D02*
X137238094Y-149133390D01*
X137238094Y-149133390D02*
X137142856Y-149085771D01*
X137142856Y-149085771D02*
X136904761Y-149085771D01*
X136904761Y-149085771D02*
X136809523Y-149133390D01*
X136809523Y-149133390D02*
X136761904Y-149181009D01*
X136761904Y-149181009D02*
X136714285Y-149276247D01*
X136714285Y-149276247D02*
X136714285Y-149514342D01*
X136714285Y-149514342D02*
X136761904Y-149609580D01*
X136761904Y-149609580D02*
X136809523Y-149657200D01*
X136809523Y-149657200D02*
X136904761Y-149704819D01*
X136904761Y-149704819D02*
X137142856Y-149704819D01*
X137142856Y-149704819D02*
X137238094Y-149657200D01*
X137238094Y-149657200D02*
X137285713Y-149609580D01*
X136380951Y-148704819D02*
X135714285Y-148704819D01*
X135714285Y-148704819D02*
X136142856Y-149704819D01*
X134869047Y-117609580D02*
X134916666Y-117657200D01*
X134916666Y-117657200D02*
X135059523Y-117704819D01*
X135059523Y-117704819D02*
X135154761Y-117704819D01*
X135154761Y-117704819D02*
X135297618Y-117657200D01*
X135297618Y-117657200D02*
X135392856Y-117561961D01*
X135392856Y-117561961D02*
X135440475Y-117466723D01*
X135440475Y-117466723D02*
X135488094Y-117276247D01*
X135488094Y-117276247D02*
X135488094Y-117133390D01*
X135488094Y-117133390D02*
X135440475Y-116942914D01*
X135440475Y-116942914D02*
X135392856Y-116847676D01*
X135392856Y-116847676D02*
X135297618Y-116752438D01*
X135297618Y-116752438D02*
X135154761Y-116704819D01*
X135154761Y-116704819D02*
X135059523Y-116704819D01*
X135059523Y-116704819D02*
X134916666Y-116752438D01*
X134916666Y-116752438D02*
X134869047Y-116800057D01*
X133916666Y-117704819D02*
X134488094Y-117704819D01*
X134202380Y-117704819D02*
X134202380Y-116704819D01*
X134202380Y-116704819D02*
X134297618Y-116847676D01*
X134297618Y-116847676D02*
X134392856Y-116942914D01*
X134392856Y-116942914D02*
X134488094Y-116990533D01*
X133583332Y-116704819D02*
X132964285Y-116704819D01*
X132964285Y-116704819D02*
X133297618Y-117085771D01*
X133297618Y-117085771D02*
X133154761Y-117085771D01*
X133154761Y-117085771D02*
X133059523Y-117133390D01*
X133059523Y-117133390D02*
X133011904Y-117181009D01*
X133011904Y-117181009D02*
X132964285Y-117276247D01*
X132964285Y-117276247D02*
X132964285Y-117514342D01*
X132964285Y-117514342D02*
X133011904Y-117609580D01*
X133011904Y-117609580D02*
X133059523Y-117657200D01*
X133059523Y-117657200D02*
X133154761Y-117704819D01*
X133154761Y-117704819D02*
X133440475Y-117704819D01*
X133440475Y-117704819D02*
X133535713Y-117657200D01*
X133535713Y-117657200D02*
X133583332Y-117609580D01*
X132107142Y-116704819D02*
X132297618Y-116704819D01*
X132297618Y-116704819D02*
X132392856Y-116752438D01*
X132392856Y-116752438D02*
X132440475Y-116800057D01*
X132440475Y-116800057D02*
X132535713Y-116942914D01*
X132535713Y-116942914D02*
X132583332Y-117133390D01*
X132583332Y-117133390D02*
X132583332Y-117514342D01*
X132583332Y-117514342D02*
X132535713Y-117609580D01*
X132535713Y-117609580D02*
X132488094Y-117657200D01*
X132488094Y-117657200D02*
X132392856Y-117704819D01*
X132392856Y-117704819D02*
X132202380Y-117704819D01*
X132202380Y-117704819D02*
X132107142Y-117657200D01*
X132107142Y-117657200D02*
X132059523Y-117609580D01*
X132059523Y-117609580D02*
X132011904Y-117514342D01*
X132011904Y-117514342D02*
X132011904Y-117276247D01*
X132011904Y-117276247D02*
X132059523Y-117181009D01*
X132059523Y-117181009D02*
X132107142Y-117133390D01*
X132107142Y-117133390D02*
X132202380Y-117085771D01*
X132202380Y-117085771D02*
X132392856Y-117085771D01*
X132392856Y-117085771D02*
X132488094Y-117133390D01*
X132488094Y-117133390D02*
X132535713Y-117181009D01*
X132535713Y-117181009D02*
X132583332Y-117276247D01*
X138859580Y-145630952D02*
X138907200Y-145583333D01*
X138907200Y-145583333D02*
X138954819Y-145440476D01*
X138954819Y-145440476D02*
X138954819Y-145345238D01*
X138954819Y-145345238D02*
X138907200Y-145202381D01*
X138907200Y-145202381D02*
X138811961Y-145107143D01*
X138811961Y-145107143D02*
X138716723Y-145059524D01*
X138716723Y-145059524D02*
X138526247Y-145011905D01*
X138526247Y-145011905D02*
X138383390Y-145011905D01*
X138383390Y-145011905D02*
X138192914Y-145059524D01*
X138192914Y-145059524D02*
X138097676Y-145107143D01*
X138097676Y-145107143D02*
X138002438Y-145202381D01*
X138002438Y-145202381D02*
X137954819Y-145345238D01*
X137954819Y-145345238D02*
X137954819Y-145440476D01*
X137954819Y-145440476D02*
X138002438Y-145583333D01*
X138002438Y-145583333D02*
X138050057Y-145630952D01*
X138954819Y-146583333D02*
X138954819Y-146011905D01*
X138954819Y-146297619D02*
X137954819Y-146297619D01*
X137954819Y-146297619D02*
X138097676Y-146202381D01*
X138097676Y-146202381D02*
X138192914Y-146107143D01*
X138192914Y-146107143D02*
X138240533Y-146011905D01*
X137954819Y-147488095D02*
X137954819Y-147011905D01*
X137954819Y-147011905D02*
X138431009Y-146964286D01*
X138431009Y-146964286D02*
X138383390Y-147011905D01*
X138383390Y-147011905D02*
X138335771Y-147107143D01*
X138335771Y-147107143D02*
X138335771Y-147345238D01*
X138335771Y-147345238D02*
X138383390Y-147440476D01*
X138383390Y-147440476D02*
X138431009Y-147488095D01*
X138431009Y-147488095D02*
X138526247Y-147535714D01*
X138526247Y-147535714D02*
X138764342Y-147535714D01*
X138764342Y-147535714D02*
X138859580Y-147488095D01*
X138859580Y-147488095D02*
X138907200Y-147440476D01*
X138907200Y-147440476D02*
X138954819Y-147345238D01*
X138954819Y-147345238D02*
X138954819Y-147107143D01*
X138954819Y-147107143D02*
X138907200Y-147011905D01*
X138907200Y-147011905D02*
X138859580Y-146964286D01*
X138383390Y-148107143D02*
X138335771Y-148011905D01*
X138335771Y-148011905D02*
X138288152Y-147964286D01*
X138288152Y-147964286D02*
X138192914Y-147916667D01*
X138192914Y-147916667D02*
X138145295Y-147916667D01*
X138145295Y-147916667D02*
X138050057Y-147964286D01*
X138050057Y-147964286D02*
X138002438Y-148011905D01*
X138002438Y-148011905D02*
X137954819Y-148107143D01*
X137954819Y-148107143D02*
X137954819Y-148297619D01*
X137954819Y-148297619D02*
X138002438Y-148392857D01*
X138002438Y-148392857D02*
X138050057Y-148440476D01*
X138050057Y-148440476D02*
X138145295Y-148488095D01*
X138145295Y-148488095D02*
X138192914Y-148488095D01*
X138192914Y-148488095D02*
X138288152Y-148440476D01*
X138288152Y-148440476D02*
X138335771Y-148392857D01*
X138335771Y-148392857D02*
X138383390Y-148297619D01*
X138383390Y-148297619D02*
X138383390Y-148107143D01*
X138383390Y-148107143D02*
X138431009Y-148011905D01*
X138431009Y-148011905D02*
X138478628Y-147964286D01*
X138478628Y-147964286D02*
X138573866Y-147916667D01*
X138573866Y-147916667D02*
X138764342Y-147916667D01*
X138764342Y-147916667D02*
X138859580Y-147964286D01*
X138859580Y-147964286D02*
X138907200Y-148011905D01*
X138907200Y-148011905D02*
X138954819Y-148107143D01*
X138954819Y-148107143D02*
X138954819Y-148297619D01*
X138954819Y-148297619D02*
X138907200Y-148392857D01*
X138907200Y-148392857D02*
X138859580Y-148440476D01*
X138859580Y-148440476D02*
X138764342Y-148488095D01*
X138764342Y-148488095D02*
X138573866Y-148488095D01*
X138573866Y-148488095D02*
X138478628Y-148440476D01*
X138478628Y-148440476D02*
X138431009Y-148392857D01*
X138431009Y-148392857D02*
X138383390Y-148297619D01*
X162790475Y-119454819D02*
X162790475Y-118454819D01*
X162790475Y-118454819D02*
X162552380Y-118454819D01*
X162552380Y-118454819D02*
X162409523Y-118502438D01*
X162409523Y-118502438D02*
X162314285Y-118597676D01*
X162314285Y-118597676D02*
X162266666Y-118692914D01*
X162266666Y-118692914D02*
X162219047Y-118883390D01*
X162219047Y-118883390D02*
X162219047Y-119026247D01*
X162219047Y-119026247D02*
X162266666Y-119216723D01*
X162266666Y-119216723D02*
X162314285Y-119311961D01*
X162314285Y-119311961D02*
X162409523Y-119407200D01*
X162409523Y-119407200D02*
X162552380Y-119454819D01*
X162552380Y-119454819D02*
X162790475Y-119454819D01*
X161266666Y-119454819D02*
X161838094Y-119454819D01*
X161552380Y-119454819D02*
X161552380Y-118454819D01*
X161552380Y-118454819D02*
X161647618Y-118597676D01*
X161647618Y-118597676D02*
X161742856Y-118692914D01*
X161742856Y-118692914D02*
X161838094Y-118740533D01*
X160647618Y-118454819D02*
X160552380Y-118454819D01*
X160552380Y-118454819D02*
X160457142Y-118502438D01*
X160457142Y-118502438D02*
X160409523Y-118550057D01*
X160409523Y-118550057D02*
X160361904Y-118645295D01*
X160361904Y-118645295D02*
X160314285Y-118835771D01*
X160314285Y-118835771D02*
X160314285Y-119073866D01*
X160314285Y-119073866D02*
X160361904Y-119264342D01*
X160361904Y-119264342D02*
X160409523Y-119359580D01*
X160409523Y-119359580D02*
X160457142Y-119407200D01*
X160457142Y-119407200D02*
X160552380Y-119454819D01*
X160552380Y-119454819D02*
X160647618Y-119454819D01*
X160647618Y-119454819D02*
X160742856Y-119407200D01*
X160742856Y-119407200D02*
X160790475Y-119359580D01*
X160790475Y-119359580D02*
X160838094Y-119264342D01*
X160838094Y-119264342D02*
X160885713Y-119073866D01*
X160885713Y-119073866D02*
X160885713Y-118835771D01*
X160885713Y-118835771D02*
X160838094Y-118645295D01*
X160838094Y-118645295D02*
X160790475Y-118550057D01*
X160790475Y-118550057D02*
X160742856Y-118502438D01*
X160742856Y-118502438D02*
X160647618Y-118454819D01*
X159980951Y-118454819D02*
X159361904Y-118454819D01*
X159361904Y-118454819D02*
X159695237Y-118835771D01*
X159695237Y-118835771D02*
X159552380Y-118835771D01*
X159552380Y-118835771D02*
X159457142Y-118883390D01*
X159457142Y-118883390D02*
X159409523Y-118931009D01*
X159409523Y-118931009D02*
X159361904Y-119026247D01*
X159361904Y-119026247D02*
X159361904Y-119264342D01*
X159361904Y-119264342D02*
X159409523Y-119359580D01*
X159409523Y-119359580D02*
X159457142Y-119407200D01*
X159457142Y-119407200D02*
X159552380Y-119454819D01*
X159552380Y-119454819D02*
X159838094Y-119454819D01*
X159838094Y-119454819D02*
X159933332Y-119407200D01*
X159933332Y-119407200D02*
X159980951Y-119359580D01*
X133869047Y-132609580D02*
X133916666Y-132657200D01*
X133916666Y-132657200D02*
X134059523Y-132704819D01*
X134059523Y-132704819D02*
X134154761Y-132704819D01*
X134154761Y-132704819D02*
X134297618Y-132657200D01*
X134297618Y-132657200D02*
X134392856Y-132561961D01*
X134392856Y-132561961D02*
X134440475Y-132466723D01*
X134440475Y-132466723D02*
X134488094Y-132276247D01*
X134488094Y-132276247D02*
X134488094Y-132133390D01*
X134488094Y-132133390D02*
X134440475Y-131942914D01*
X134440475Y-131942914D02*
X134392856Y-131847676D01*
X134392856Y-131847676D02*
X134297618Y-131752438D01*
X134297618Y-131752438D02*
X134154761Y-131704819D01*
X134154761Y-131704819D02*
X134059523Y-131704819D01*
X134059523Y-131704819D02*
X133916666Y-131752438D01*
X133916666Y-131752438D02*
X133869047Y-131800057D01*
X132916666Y-132704819D02*
X133488094Y-132704819D01*
X133202380Y-132704819D02*
X133202380Y-131704819D01*
X133202380Y-131704819D02*
X133297618Y-131847676D01*
X133297618Y-131847676D02*
X133392856Y-131942914D01*
X133392856Y-131942914D02*
X133488094Y-131990533D01*
X132011904Y-131704819D02*
X132488094Y-131704819D01*
X132488094Y-131704819D02*
X132535713Y-132181009D01*
X132535713Y-132181009D02*
X132488094Y-132133390D01*
X132488094Y-132133390D02*
X132392856Y-132085771D01*
X132392856Y-132085771D02*
X132154761Y-132085771D01*
X132154761Y-132085771D02*
X132059523Y-132133390D01*
X132059523Y-132133390D02*
X132011904Y-132181009D01*
X132011904Y-132181009D02*
X131964285Y-132276247D01*
X131964285Y-132276247D02*
X131964285Y-132514342D01*
X131964285Y-132514342D02*
X132011904Y-132609580D01*
X132011904Y-132609580D02*
X132059523Y-132657200D01*
X132059523Y-132657200D02*
X132154761Y-132704819D01*
X132154761Y-132704819D02*
X132392856Y-132704819D01*
X132392856Y-132704819D02*
X132488094Y-132657200D01*
X132488094Y-132657200D02*
X132535713Y-132609580D01*
X131345237Y-131704819D02*
X131249999Y-131704819D01*
X131249999Y-131704819D02*
X131154761Y-131752438D01*
X131154761Y-131752438D02*
X131107142Y-131800057D01*
X131107142Y-131800057D02*
X131059523Y-131895295D01*
X131059523Y-131895295D02*
X131011904Y-132085771D01*
X131011904Y-132085771D02*
X131011904Y-132323866D01*
X131011904Y-132323866D02*
X131059523Y-132514342D01*
X131059523Y-132514342D02*
X131107142Y-132609580D01*
X131107142Y-132609580D02*
X131154761Y-132657200D01*
X131154761Y-132657200D02*
X131249999Y-132704819D01*
X131249999Y-132704819D02*
X131345237Y-132704819D01*
X131345237Y-132704819D02*
X131440475Y-132657200D01*
X131440475Y-132657200D02*
X131488094Y-132609580D01*
X131488094Y-132609580D02*
X131535713Y-132514342D01*
X131535713Y-132514342D02*
X131583332Y-132323866D01*
X131583332Y-132323866D02*
X131583332Y-132085771D01*
X131583332Y-132085771D02*
X131535713Y-131895295D01*
X131535713Y-131895295D02*
X131488094Y-131800057D01*
X131488094Y-131800057D02*
X131440475Y-131752438D01*
X131440475Y-131752438D02*
X131345237Y-131704819D01*
X111809580Y-114680952D02*
X111857200Y-114633333D01*
X111857200Y-114633333D02*
X111904819Y-114490476D01*
X111904819Y-114490476D02*
X111904819Y-114395238D01*
X111904819Y-114395238D02*
X111857200Y-114252381D01*
X111857200Y-114252381D02*
X111761961Y-114157143D01*
X111761961Y-114157143D02*
X111666723Y-114109524D01*
X111666723Y-114109524D02*
X111476247Y-114061905D01*
X111476247Y-114061905D02*
X111333390Y-114061905D01*
X111333390Y-114061905D02*
X111142914Y-114109524D01*
X111142914Y-114109524D02*
X111047676Y-114157143D01*
X111047676Y-114157143D02*
X110952438Y-114252381D01*
X110952438Y-114252381D02*
X110904819Y-114395238D01*
X110904819Y-114395238D02*
X110904819Y-114490476D01*
X110904819Y-114490476D02*
X110952438Y-114633333D01*
X110952438Y-114633333D02*
X111000057Y-114680952D01*
X111904819Y-115633333D02*
X111904819Y-115061905D01*
X111904819Y-115347619D02*
X110904819Y-115347619D01*
X110904819Y-115347619D02*
X111047676Y-115252381D01*
X111047676Y-115252381D02*
X111142914Y-115157143D01*
X111142914Y-115157143D02*
X111190533Y-115061905D01*
X110904819Y-116490476D02*
X110904819Y-116300000D01*
X110904819Y-116300000D02*
X110952438Y-116204762D01*
X110952438Y-116204762D02*
X111000057Y-116157143D01*
X111000057Y-116157143D02*
X111142914Y-116061905D01*
X111142914Y-116061905D02*
X111333390Y-116014286D01*
X111333390Y-116014286D02*
X111714342Y-116014286D01*
X111714342Y-116014286D02*
X111809580Y-116061905D01*
X111809580Y-116061905D02*
X111857200Y-116109524D01*
X111857200Y-116109524D02*
X111904819Y-116204762D01*
X111904819Y-116204762D02*
X111904819Y-116395238D01*
X111904819Y-116395238D02*
X111857200Y-116490476D01*
X111857200Y-116490476D02*
X111809580Y-116538095D01*
X111809580Y-116538095D02*
X111714342Y-116585714D01*
X111714342Y-116585714D02*
X111476247Y-116585714D01*
X111476247Y-116585714D02*
X111381009Y-116538095D01*
X111381009Y-116538095D02*
X111333390Y-116490476D01*
X111333390Y-116490476D02*
X111285771Y-116395238D01*
X111285771Y-116395238D02*
X111285771Y-116204762D01*
X111285771Y-116204762D02*
X111333390Y-116109524D01*
X111333390Y-116109524D02*
X111381009Y-116061905D01*
X111381009Y-116061905D02*
X111476247Y-116014286D01*
X111000057Y-116966667D02*
X110952438Y-117014286D01*
X110952438Y-117014286D02*
X110904819Y-117109524D01*
X110904819Y-117109524D02*
X110904819Y-117347619D01*
X110904819Y-117347619D02*
X110952438Y-117442857D01*
X110952438Y-117442857D02*
X111000057Y-117490476D01*
X111000057Y-117490476D02*
X111095295Y-117538095D01*
X111095295Y-117538095D02*
X111190533Y-117538095D01*
X111190533Y-117538095D02*
X111333390Y-117490476D01*
X111333390Y-117490476D02*
X111904819Y-116919048D01*
X111904819Y-116919048D02*
X111904819Y-117538095D01*
X133535714Y-113281009D02*
X133869047Y-113281009D01*
X133869047Y-113804819D02*
X133869047Y-112804819D01*
X133869047Y-112804819D02*
X133392857Y-112804819D01*
X132678571Y-113281009D02*
X132535714Y-113328628D01*
X132535714Y-113328628D02*
X132488095Y-113376247D01*
X132488095Y-113376247D02*
X132440476Y-113471485D01*
X132440476Y-113471485D02*
X132440476Y-113614342D01*
X132440476Y-113614342D02*
X132488095Y-113709580D01*
X132488095Y-113709580D02*
X132535714Y-113757200D01*
X132535714Y-113757200D02*
X132630952Y-113804819D01*
X132630952Y-113804819D02*
X133011904Y-113804819D01*
X133011904Y-113804819D02*
X133011904Y-112804819D01*
X133011904Y-112804819D02*
X132678571Y-112804819D01*
X132678571Y-112804819D02*
X132583333Y-112852438D01*
X132583333Y-112852438D02*
X132535714Y-112900057D01*
X132535714Y-112900057D02*
X132488095Y-112995295D01*
X132488095Y-112995295D02*
X132488095Y-113090533D01*
X132488095Y-113090533D02*
X132535714Y-113185771D01*
X132535714Y-113185771D02*
X132583333Y-113233390D01*
X132583333Y-113233390D02*
X132678571Y-113281009D01*
X132678571Y-113281009D02*
X133011904Y-113281009D01*
X131488095Y-113804819D02*
X132059523Y-113804819D01*
X131773809Y-113804819D02*
X131773809Y-112804819D01*
X131773809Y-112804819D02*
X131869047Y-112947676D01*
X131869047Y-112947676D02*
X131964285Y-113042914D01*
X131964285Y-113042914D02*
X132059523Y-113090533D01*
X130869047Y-112804819D02*
X130773809Y-112804819D01*
X130773809Y-112804819D02*
X130678571Y-112852438D01*
X130678571Y-112852438D02*
X130630952Y-112900057D01*
X130630952Y-112900057D02*
X130583333Y-112995295D01*
X130583333Y-112995295D02*
X130535714Y-113185771D01*
X130535714Y-113185771D02*
X130535714Y-113423866D01*
X130535714Y-113423866D02*
X130583333Y-113614342D01*
X130583333Y-113614342D02*
X130630952Y-113709580D01*
X130630952Y-113709580D02*
X130678571Y-113757200D01*
X130678571Y-113757200D02*
X130773809Y-113804819D01*
X130773809Y-113804819D02*
X130869047Y-113804819D01*
X130869047Y-113804819D02*
X130964285Y-113757200D01*
X130964285Y-113757200D02*
X131011904Y-113709580D01*
X131011904Y-113709580D02*
X131059523Y-113614342D01*
X131059523Y-113614342D02*
X131107142Y-113423866D01*
X131107142Y-113423866D02*
X131107142Y-113185771D01*
X131107142Y-113185771D02*
X131059523Y-112995295D01*
X131059523Y-112995295D02*
X131011904Y-112900057D01*
X131011904Y-112900057D02*
X130964285Y-112852438D01*
X130964285Y-112852438D02*
X130869047Y-112804819D01*
X129678571Y-113138152D02*
X129678571Y-113804819D01*
X129916666Y-112757200D02*
X130154761Y-113471485D01*
X130154761Y-113471485D02*
X129535714Y-113471485D01*
X120119047Y-128359580D02*
X120166666Y-128407200D01*
X120166666Y-128407200D02*
X120309523Y-128454819D01*
X120309523Y-128454819D02*
X120404761Y-128454819D01*
X120404761Y-128454819D02*
X120547618Y-128407200D01*
X120547618Y-128407200D02*
X120642856Y-128311961D01*
X120642856Y-128311961D02*
X120690475Y-128216723D01*
X120690475Y-128216723D02*
X120738094Y-128026247D01*
X120738094Y-128026247D02*
X120738094Y-127883390D01*
X120738094Y-127883390D02*
X120690475Y-127692914D01*
X120690475Y-127692914D02*
X120642856Y-127597676D01*
X120642856Y-127597676D02*
X120547618Y-127502438D01*
X120547618Y-127502438D02*
X120404761Y-127454819D01*
X120404761Y-127454819D02*
X120309523Y-127454819D01*
X120309523Y-127454819D02*
X120166666Y-127502438D01*
X120166666Y-127502438D02*
X120119047Y-127550057D01*
X119166666Y-128454819D02*
X119738094Y-128454819D01*
X119452380Y-128454819D02*
X119452380Y-127454819D01*
X119452380Y-127454819D02*
X119547618Y-127597676D01*
X119547618Y-127597676D02*
X119642856Y-127692914D01*
X119642856Y-127692914D02*
X119738094Y-127740533D01*
X118833332Y-127454819D02*
X118214285Y-127454819D01*
X118214285Y-127454819D02*
X118547618Y-127835771D01*
X118547618Y-127835771D02*
X118404761Y-127835771D01*
X118404761Y-127835771D02*
X118309523Y-127883390D01*
X118309523Y-127883390D02*
X118261904Y-127931009D01*
X118261904Y-127931009D02*
X118214285Y-128026247D01*
X118214285Y-128026247D02*
X118214285Y-128264342D01*
X118214285Y-128264342D02*
X118261904Y-128359580D01*
X118261904Y-128359580D02*
X118309523Y-128407200D01*
X118309523Y-128407200D02*
X118404761Y-128454819D01*
X118404761Y-128454819D02*
X118690475Y-128454819D01*
X118690475Y-128454819D02*
X118785713Y-128407200D01*
X118785713Y-128407200D02*
X118833332Y-128359580D01*
X117261904Y-128454819D02*
X117833332Y-128454819D01*
X117547618Y-128454819D02*
X117547618Y-127454819D01*
X117547618Y-127454819D02*
X117642856Y-127597676D01*
X117642856Y-127597676D02*
X117738094Y-127692914D01*
X117738094Y-127692914D02*
X117833332Y-127740533D01*
X131119047Y-126704819D02*
X131452380Y-126228628D01*
X131690475Y-126704819D02*
X131690475Y-125704819D01*
X131690475Y-125704819D02*
X131309523Y-125704819D01*
X131309523Y-125704819D02*
X131214285Y-125752438D01*
X131214285Y-125752438D02*
X131166666Y-125800057D01*
X131166666Y-125800057D02*
X131119047Y-125895295D01*
X131119047Y-125895295D02*
X131119047Y-126038152D01*
X131119047Y-126038152D02*
X131166666Y-126133390D01*
X131166666Y-126133390D02*
X131214285Y-126181009D01*
X131214285Y-126181009D02*
X131309523Y-126228628D01*
X131309523Y-126228628D02*
X131690475Y-126228628D01*
X130166666Y-126704819D02*
X130738094Y-126704819D01*
X130452380Y-126704819D02*
X130452380Y-125704819D01*
X130452380Y-125704819D02*
X130547618Y-125847676D01*
X130547618Y-125847676D02*
X130642856Y-125942914D01*
X130642856Y-125942914D02*
X130738094Y-125990533D01*
X129833332Y-125704819D02*
X129214285Y-125704819D01*
X129214285Y-125704819D02*
X129547618Y-126085771D01*
X129547618Y-126085771D02*
X129404761Y-126085771D01*
X129404761Y-126085771D02*
X129309523Y-126133390D01*
X129309523Y-126133390D02*
X129261904Y-126181009D01*
X129261904Y-126181009D02*
X129214285Y-126276247D01*
X129214285Y-126276247D02*
X129214285Y-126514342D01*
X129214285Y-126514342D02*
X129261904Y-126609580D01*
X129261904Y-126609580D02*
X129309523Y-126657200D01*
X129309523Y-126657200D02*
X129404761Y-126704819D01*
X129404761Y-126704819D02*
X129690475Y-126704819D01*
X129690475Y-126704819D02*
X129785713Y-126657200D01*
X129785713Y-126657200D02*
X129833332Y-126609580D01*
X128595237Y-125704819D02*
X128499999Y-125704819D01*
X128499999Y-125704819D02*
X128404761Y-125752438D01*
X128404761Y-125752438D02*
X128357142Y-125800057D01*
X128357142Y-125800057D02*
X128309523Y-125895295D01*
X128309523Y-125895295D02*
X128261904Y-126085771D01*
X128261904Y-126085771D02*
X128261904Y-126323866D01*
X128261904Y-126323866D02*
X128309523Y-126514342D01*
X128309523Y-126514342D02*
X128357142Y-126609580D01*
X128357142Y-126609580D02*
X128404761Y-126657200D01*
X128404761Y-126657200D02*
X128499999Y-126704819D01*
X128499999Y-126704819D02*
X128595237Y-126704819D01*
X128595237Y-126704819D02*
X128690475Y-126657200D01*
X128690475Y-126657200D02*
X128738094Y-126609580D01*
X128738094Y-126609580D02*
X128785713Y-126514342D01*
X128785713Y-126514342D02*
X128833332Y-126323866D01*
X128833332Y-126323866D02*
X128833332Y-126085771D01*
X128833332Y-126085771D02*
X128785713Y-125895295D01*
X128785713Y-125895295D02*
X128738094Y-125800057D01*
X128738094Y-125800057D02*
X128690475Y-125752438D01*
X128690475Y-125752438D02*
X128595237Y-125704819D01*
X126954819Y-142630952D02*
X126478628Y-142297619D01*
X126954819Y-142059524D02*
X125954819Y-142059524D01*
X125954819Y-142059524D02*
X125954819Y-142440476D01*
X125954819Y-142440476D02*
X126002438Y-142535714D01*
X126002438Y-142535714D02*
X126050057Y-142583333D01*
X126050057Y-142583333D02*
X126145295Y-142630952D01*
X126145295Y-142630952D02*
X126288152Y-142630952D01*
X126288152Y-142630952D02*
X126383390Y-142583333D01*
X126383390Y-142583333D02*
X126431009Y-142535714D01*
X126431009Y-142535714D02*
X126478628Y-142440476D01*
X126478628Y-142440476D02*
X126478628Y-142059524D01*
X126954819Y-143583333D02*
X126954819Y-143011905D01*
X126954819Y-143297619D02*
X125954819Y-143297619D01*
X125954819Y-143297619D02*
X126097676Y-143202381D01*
X126097676Y-143202381D02*
X126192914Y-143107143D01*
X126192914Y-143107143D02*
X126240533Y-143011905D01*
X125954819Y-144440476D02*
X125954819Y-144250000D01*
X125954819Y-144250000D02*
X126002438Y-144154762D01*
X126002438Y-144154762D02*
X126050057Y-144107143D01*
X126050057Y-144107143D02*
X126192914Y-144011905D01*
X126192914Y-144011905D02*
X126383390Y-143964286D01*
X126383390Y-143964286D02*
X126764342Y-143964286D01*
X126764342Y-143964286D02*
X126859580Y-144011905D01*
X126859580Y-144011905D02*
X126907200Y-144059524D01*
X126907200Y-144059524D02*
X126954819Y-144154762D01*
X126954819Y-144154762D02*
X126954819Y-144345238D01*
X126954819Y-144345238D02*
X126907200Y-144440476D01*
X126907200Y-144440476D02*
X126859580Y-144488095D01*
X126859580Y-144488095D02*
X126764342Y-144535714D01*
X126764342Y-144535714D02*
X126526247Y-144535714D01*
X126526247Y-144535714D02*
X126431009Y-144488095D01*
X126431009Y-144488095D02*
X126383390Y-144440476D01*
X126383390Y-144440476D02*
X126335771Y-144345238D01*
X126335771Y-144345238D02*
X126335771Y-144154762D01*
X126335771Y-144154762D02*
X126383390Y-144059524D01*
X126383390Y-144059524D02*
X126431009Y-144011905D01*
X126431009Y-144011905D02*
X126526247Y-143964286D01*
X125954819Y-145440476D02*
X125954819Y-144964286D01*
X125954819Y-144964286D02*
X126431009Y-144916667D01*
X126431009Y-144916667D02*
X126383390Y-144964286D01*
X126383390Y-144964286D02*
X126335771Y-145059524D01*
X126335771Y-145059524D02*
X126335771Y-145297619D01*
X126335771Y-145297619D02*
X126383390Y-145392857D01*
X126383390Y-145392857D02*
X126431009Y-145440476D01*
X126431009Y-145440476D02*
X126526247Y-145488095D01*
X126526247Y-145488095D02*
X126764342Y-145488095D01*
X126764342Y-145488095D02*
X126859580Y-145440476D01*
X126859580Y-145440476D02*
X126907200Y-145392857D01*
X126907200Y-145392857D02*
X126954819Y-145297619D01*
X126954819Y-145297619D02*
X126954819Y-145059524D01*
X126954819Y-145059524D02*
X126907200Y-144964286D01*
X126907200Y-144964286D02*
X126859580Y-144916667D01*
X127109580Y-134130952D02*
X127157200Y-134083333D01*
X127157200Y-134083333D02*
X127204819Y-133940476D01*
X127204819Y-133940476D02*
X127204819Y-133845238D01*
X127204819Y-133845238D02*
X127157200Y-133702381D01*
X127157200Y-133702381D02*
X127061961Y-133607143D01*
X127061961Y-133607143D02*
X126966723Y-133559524D01*
X126966723Y-133559524D02*
X126776247Y-133511905D01*
X126776247Y-133511905D02*
X126633390Y-133511905D01*
X126633390Y-133511905D02*
X126442914Y-133559524D01*
X126442914Y-133559524D02*
X126347676Y-133607143D01*
X126347676Y-133607143D02*
X126252438Y-133702381D01*
X126252438Y-133702381D02*
X126204819Y-133845238D01*
X126204819Y-133845238D02*
X126204819Y-133940476D01*
X126204819Y-133940476D02*
X126252438Y-134083333D01*
X126252438Y-134083333D02*
X126300057Y-134130952D01*
X127204819Y-135083333D02*
X127204819Y-134511905D01*
X127204819Y-134797619D02*
X126204819Y-134797619D01*
X126204819Y-134797619D02*
X126347676Y-134702381D01*
X126347676Y-134702381D02*
X126442914Y-134607143D01*
X126442914Y-134607143D02*
X126490533Y-134511905D01*
X126204819Y-135940476D02*
X126204819Y-135750000D01*
X126204819Y-135750000D02*
X126252438Y-135654762D01*
X126252438Y-135654762D02*
X126300057Y-135607143D01*
X126300057Y-135607143D02*
X126442914Y-135511905D01*
X126442914Y-135511905D02*
X126633390Y-135464286D01*
X126633390Y-135464286D02*
X127014342Y-135464286D01*
X127014342Y-135464286D02*
X127109580Y-135511905D01*
X127109580Y-135511905D02*
X127157200Y-135559524D01*
X127157200Y-135559524D02*
X127204819Y-135654762D01*
X127204819Y-135654762D02*
X127204819Y-135845238D01*
X127204819Y-135845238D02*
X127157200Y-135940476D01*
X127157200Y-135940476D02*
X127109580Y-135988095D01*
X127109580Y-135988095D02*
X127014342Y-136035714D01*
X127014342Y-136035714D02*
X126776247Y-136035714D01*
X126776247Y-136035714D02*
X126681009Y-135988095D01*
X126681009Y-135988095D02*
X126633390Y-135940476D01*
X126633390Y-135940476D02*
X126585771Y-135845238D01*
X126585771Y-135845238D02*
X126585771Y-135654762D01*
X126585771Y-135654762D02*
X126633390Y-135559524D01*
X126633390Y-135559524D02*
X126681009Y-135511905D01*
X126681009Y-135511905D02*
X126776247Y-135464286D01*
X126204819Y-136369048D02*
X126204819Y-136988095D01*
X126204819Y-136988095D02*
X126585771Y-136654762D01*
X126585771Y-136654762D02*
X126585771Y-136797619D01*
X126585771Y-136797619D02*
X126633390Y-136892857D01*
X126633390Y-136892857D02*
X126681009Y-136940476D01*
X126681009Y-136940476D02*
X126776247Y-136988095D01*
X126776247Y-136988095D02*
X127014342Y-136988095D01*
X127014342Y-136988095D02*
X127109580Y-136940476D01*
X127109580Y-136940476D02*
X127157200Y-136892857D01*
X127157200Y-136892857D02*
X127204819Y-136797619D01*
X127204819Y-136797619D02*
X127204819Y-136511905D01*
X127204819Y-136511905D02*
X127157200Y-136416667D01*
X127157200Y-136416667D02*
X127109580Y-136369048D01*
X136619047Y-123224819D02*
X136952380Y-122748628D01*
X137190475Y-123224819D02*
X137190475Y-122224819D01*
X137190475Y-122224819D02*
X136809523Y-122224819D01*
X136809523Y-122224819D02*
X136714285Y-122272438D01*
X136714285Y-122272438D02*
X136666666Y-122320057D01*
X136666666Y-122320057D02*
X136619047Y-122415295D01*
X136619047Y-122415295D02*
X136619047Y-122558152D01*
X136619047Y-122558152D02*
X136666666Y-122653390D01*
X136666666Y-122653390D02*
X136714285Y-122701009D01*
X136714285Y-122701009D02*
X136809523Y-122748628D01*
X136809523Y-122748628D02*
X137190475Y-122748628D01*
X135666666Y-123224819D02*
X136238094Y-123224819D01*
X135952380Y-123224819D02*
X135952380Y-122224819D01*
X135952380Y-122224819D02*
X136047618Y-122367676D01*
X136047618Y-122367676D02*
X136142856Y-122462914D01*
X136142856Y-122462914D02*
X136238094Y-122510533D01*
X134761904Y-122224819D02*
X135238094Y-122224819D01*
X135238094Y-122224819D02*
X135285713Y-122701009D01*
X135285713Y-122701009D02*
X135238094Y-122653390D01*
X135238094Y-122653390D02*
X135142856Y-122605771D01*
X135142856Y-122605771D02*
X134904761Y-122605771D01*
X134904761Y-122605771D02*
X134809523Y-122653390D01*
X134809523Y-122653390D02*
X134761904Y-122701009D01*
X134761904Y-122701009D02*
X134714285Y-122796247D01*
X134714285Y-122796247D02*
X134714285Y-123034342D01*
X134714285Y-123034342D02*
X134761904Y-123129580D01*
X134761904Y-123129580D02*
X134809523Y-123177200D01*
X134809523Y-123177200D02*
X134904761Y-123224819D01*
X134904761Y-123224819D02*
X135142856Y-123224819D01*
X135142856Y-123224819D02*
X135238094Y-123177200D01*
X135238094Y-123177200D02*
X135285713Y-123129580D01*
X133857142Y-122558152D02*
X133857142Y-123224819D01*
X134095237Y-122177200D02*
X134333332Y-122891485D01*
X134333332Y-122891485D02*
X133714285Y-122891485D01*
X127089580Y-114930952D02*
X127137200Y-114883333D01*
X127137200Y-114883333D02*
X127184819Y-114740476D01*
X127184819Y-114740476D02*
X127184819Y-114645238D01*
X127184819Y-114645238D02*
X127137200Y-114502381D01*
X127137200Y-114502381D02*
X127041961Y-114407143D01*
X127041961Y-114407143D02*
X126946723Y-114359524D01*
X126946723Y-114359524D02*
X126756247Y-114311905D01*
X126756247Y-114311905D02*
X126613390Y-114311905D01*
X126613390Y-114311905D02*
X126422914Y-114359524D01*
X126422914Y-114359524D02*
X126327676Y-114407143D01*
X126327676Y-114407143D02*
X126232438Y-114502381D01*
X126232438Y-114502381D02*
X126184819Y-114645238D01*
X126184819Y-114645238D02*
X126184819Y-114740476D01*
X126184819Y-114740476D02*
X126232438Y-114883333D01*
X126232438Y-114883333D02*
X126280057Y-114930952D01*
X127184819Y-115883333D02*
X127184819Y-115311905D01*
X127184819Y-115597619D02*
X126184819Y-115597619D01*
X126184819Y-115597619D02*
X126327676Y-115502381D01*
X126327676Y-115502381D02*
X126422914Y-115407143D01*
X126422914Y-115407143D02*
X126470533Y-115311905D01*
X126184819Y-116216667D02*
X126184819Y-116835714D01*
X126184819Y-116835714D02*
X126565771Y-116502381D01*
X126565771Y-116502381D02*
X126565771Y-116645238D01*
X126565771Y-116645238D02*
X126613390Y-116740476D01*
X126613390Y-116740476D02*
X126661009Y-116788095D01*
X126661009Y-116788095D02*
X126756247Y-116835714D01*
X126756247Y-116835714D02*
X126994342Y-116835714D01*
X126994342Y-116835714D02*
X127089580Y-116788095D01*
X127089580Y-116788095D02*
X127137200Y-116740476D01*
X127137200Y-116740476D02*
X127184819Y-116645238D01*
X127184819Y-116645238D02*
X127184819Y-116359524D01*
X127184819Y-116359524D02*
X127137200Y-116264286D01*
X127137200Y-116264286D02*
X127089580Y-116216667D01*
X126280057Y-117216667D02*
X126232438Y-117264286D01*
X126232438Y-117264286D02*
X126184819Y-117359524D01*
X126184819Y-117359524D02*
X126184819Y-117597619D01*
X126184819Y-117597619D02*
X126232438Y-117692857D01*
X126232438Y-117692857D02*
X126280057Y-117740476D01*
X126280057Y-117740476D02*
X126375295Y-117788095D01*
X126375295Y-117788095D02*
X126470533Y-117788095D01*
X126470533Y-117788095D02*
X126613390Y-117740476D01*
X126613390Y-117740476D02*
X127184819Y-117169048D01*
X127184819Y-117169048D02*
X127184819Y-117788095D01*
X143119047Y-136359580D02*
X143166666Y-136407200D01*
X143166666Y-136407200D02*
X143309523Y-136454819D01*
X143309523Y-136454819D02*
X143404761Y-136454819D01*
X143404761Y-136454819D02*
X143547618Y-136407200D01*
X143547618Y-136407200D02*
X143642856Y-136311961D01*
X143642856Y-136311961D02*
X143690475Y-136216723D01*
X143690475Y-136216723D02*
X143738094Y-136026247D01*
X143738094Y-136026247D02*
X143738094Y-135883390D01*
X143738094Y-135883390D02*
X143690475Y-135692914D01*
X143690475Y-135692914D02*
X143642856Y-135597676D01*
X143642856Y-135597676D02*
X143547618Y-135502438D01*
X143547618Y-135502438D02*
X143404761Y-135454819D01*
X143404761Y-135454819D02*
X143309523Y-135454819D01*
X143309523Y-135454819D02*
X143166666Y-135502438D01*
X143166666Y-135502438D02*
X143119047Y-135550057D01*
X142166666Y-136454819D02*
X142738094Y-136454819D01*
X142452380Y-136454819D02*
X142452380Y-135454819D01*
X142452380Y-135454819D02*
X142547618Y-135597676D01*
X142547618Y-135597676D02*
X142642856Y-135692914D01*
X142642856Y-135692914D02*
X142738094Y-135740533D01*
X141309523Y-135454819D02*
X141499999Y-135454819D01*
X141499999Y-135454819D02*
X141595237Y-135502438D01*
X141595237Y-135502438D02*
X141642856Y-135550057D01*
X141642856Y-135550057D02*
X141738094Y-135692914D01*
X141738094Y-135692914D02*
X141785713Y-135883390D01*
X141785713Y-135883390D02*
X141785713Y-136264342D01*
X141785713Y-136264342D02*
X141738094Y-136359580D01*
X141738094Y-136359580D02*
X141690475Y-136407200D01*
X141690475Y-136407200D02*
X141595237Y-136454819D01*
X141595237Y-136454819D02*
X141404761Y-136454819D01*
X141404761Y-136454819D02*
X141309523Y-136407200D01*
X141309523Y-136407200D02*
X141261904Y-136359580D01*
X141261904Y-136359580D02*
X141214285Y-136264342D01*
X141214285Y-136264342D02*
X141214285Y-136026247D01*
X141214285Y-136026247D02*
X141261904Y-135931009D01*
X141261904Y-135931009D02*
X141309523Y-135883390D01*
X141309523Y-135883390D02*
X141404761Y-135835771D01*
X141404761Y-135835771D02*
X141595237Y-135835771D01*
X141595237Y-135835771D02*
X141690475Y-135883390D01*
X141690475Y-135883390D02*
X141738094Y-135931009D01*
X141738094Y-135931009D02*
X141785713Y-136026247D01*
X140261904Y-136454819D02*
X140833332Y-136454819D01*
X140547618Y-136454819D02*
X140547618Y-135454819D01*
X140547618Y-135454819D02*
X140642856Y-135597676D01*
X140642856Y-135597676D02*
X140738094Y-135692914D01*
X140738094Y-135692914D02*
X140833332Y-135740533D01*
X120119047Y-126954819D02*
X120452380Y-126478628D01*
X120690475Y-126954819D02*
X120690475Y-125954819D01*
X120690475Y-125954819D02*
X120309523Y-125954819D01*
X120309523Y-125954819D02*
X120214285Y-126002438D01*
X120214285Y-126002438D02*
X120166666Y-126050057D01*
X120166666Y-126050057D02*
X120119047Y-126145295D01*
X120119047Y-126145295D02*
X120119047Y-126288152D01*
X120119047Y-126288152D02*
X120166666Y-126383390D01*
X120166666Y-126383390D02*
X120214285Y-126431009D01*
X120214285Y-126431009D02*
X120309523Y-126478628D01*
X120309523Y-126478628D02*
X120690475Y-126478628D01*
X119166666Y-126954819D02*
X119738094Y-126954819D01*
X119452380Y-126954819D02*
X119452380Y-125954819D01*
X119452380Y-125954819D02*
X119547618Y-126097676D01*
X119547618Y-126097676D02*
X119642856Y-126192914D01*
X119642856Y-126192914D02*
X119738094Y-126240533D01*
X118785713Y-126050057D02*
X118738094Y-126002438D01*
X118738094Y-126002438D02*
X118642856Y-125954819D01*
X118642856Y-125954819D02*
X118404761Y-125954819D01*
X118404761Y-125954819D02*
X118309523Y-126002438D01*
X118309523Y-126002438D02*
X118261904Y-126050057D01*
X118261904Y-126050057D02*
X118214285Y-126145295D01*
X118214285Y-126145295D02*
X118214285Y-126240533D01*
X118214285Y-126240533D02*
X118261904Y-126383390D01*
X118261904Y-126383390D02*
X118833332Y-126954819D01*
X118833332Y-126954819D02*
X118214285Y-126954819D01*
X117880951Y-125954819D02*
X117214285Y-125954819D01*
X117214285Y-125954819D02*
X117642856Y-126954819D01*
X154454819Y-123309524D02*
X153454819Y-123309524D01*
X153454819Y-123309524D02*
X153454819Y-123547619D01*
X153454819Y-123547619D02*
X153502438Y-123690476D01*
X153502438Y-123690476D02*
X153597676Y-123785714D01*
X153597676Y-123785714D02*
X153692914Y-123833333D01*
X153692914Y-123833333D02*
X153883390Y-123880952D01*
X153883390Y-123880952D02*
X154026247Y-123880952D01*
X154026247Y-123880952D02*
X154216723Y-123833333D01*
X154216723Y-123833333D02*
X154311961Y-123785714D01*
X154311961Y-123785714D02*
X154407200Y-123690476D01*
X154407200Y-123690476D02*
X154454819Y-123547619D01*
X154454819Y-123547619D02*
X154454819Y-123309524D01*
X154454819Y-124833333D02*
X154454819Y-124261905D01*
X154454819Y-124547619D02*
X153454819Y-124547619D01*
X153454819Y-124547619D02*
X153597676Y-124452381D01*
X153597676Y-124452381D02*
X153692914Y-124357143D01*
X153692914Y-124357143D02*
X153740533Y-124261905D01*
X153454819Y-125452381D02*
X153454819Y-125547619D01*
X153454819Y-125547619D02*
X153502438Y-125642857D01*
X153502438Y-125642857D02*
X153550057Y-125690476D01*
X153550057Y-125690476D02*
X153645295Y-125738095D01*
X153645295Y-125738095D02*
X153835771Y-125785714D01*
X153835771Y-125785714D02*
X154073866Y-125785714D01*
X154073866Y-125785714D02*
X154264342Y-125738095D01*
X154264342Y-125738095D02*
X154359580Y-125690476D01*
X154359580Y-125690476D02*
X154407200Y-125642857D01*
X154407200Y-125642857D02*
X154454819Y-125547619D01*
X154454819Y-125547619D02*
X154454819Y-125452381D01*
X154454819Y-125452381D02*
X154407200Y-125357143D01*
X154407200Y-125357143D02*
X154359580Y-125309524D01*
X154359580Y-125309524D02*
X154264342Y-125261905D01*
X154264342Y-125261905D02*
X154073866Y-125214286D01*
X154073866Y-125214286D02*
X153835771Y-125214286D01*
X153835771Y-125214286D02*
X153645295Y-125261905D01*
X153645295Y-125261905D02*
X153550057Y-125309524D01*
X153550057Y-125309524D02*
X153502438Y-125357143D01*
X153502438Y-125357143D02*
X153454819Y-125452381D01*
X153454819Y-126690476D02*
X153454819Y-126214286D01*
X153454819Y-126214286D02*
X153931009Y-126166667D01*
X153931009Y-126166667D02*
X153883390Y-126214286D01*
X153883390Y-126214286D02*
X153835771Y-126309524D01*
X153835771Y-126309524D02*
X153835771Y-126547619D01*
X153835771Y-126547619D02*
X153883390Y-126642857D01*
X153883390Y-126642857D02*
X153931009Y-126690476D01*
X153931009Y-126690476D02*
X154026247Y-126738095D01*
X154026247Y-126738095D02*
X154264342Y-126738095D01*
X154264342Y-126738095D02*
X154359580Y-126690476D01*
X154359580Y-126690476D02*
X154407200Y-126642857D01*
X154407200Y-126642857D02*
X154454819Y-126547619D01*
X154454819Y-126547619D02*
X154454819Y-126309524D01*
X154454819Y-126309524D02*
X154407200Y-126214286D01*
X154407200Y-126214286D02*
X154359580Y-126166667D01*
X136609580Y-117630952D02*
X136657200Y-117583333D01*
X136657200Y-117583333D02*
X136704819Y-117440476D01*
X136704819Y-117440476D02*
X136704819Y-117345238D01*
X136704819Y-117345238D02*
X136657200Y-117202381D01*
X136657200Y-117202381D02*
X136561961Y-117107143D01*
X136561961Y-117107143D02*
X136466723Y-117059524D01*
X136466723Y-117059524D02*
X136276247Y-117011905D01*
X136276247Y-117011905D02*
X136133390Y-117011905D01*
X136133390Y-117011905D02*
X135942914Y-117059524D01*
X135942914Y-117059524D02*
X135847676Y-117107143D01*
X135847676Y-117107143D02*
X135752438Y-117202381D01*
X135752438Y-117202381D02*
X135704819Y-117345238D01*
X135704819Y-117345238D02*
X135704819Y-117440476D01*
X135704819Y-117440476D02*
X135752438Y-117583333D01*
X135752438Y-117583333D02*
X135800057Y-117630952D01*
X136704819Y-118583333D02*
X136704819Y-118011905D01*
X136704819Y-118297619D02*
X135704819Y-118297619D01*
X135704819Y-118297619D02*
X135847676Y-118202381D01*
X135847676Y-118202381D02*
X135942914Y-118107143D01*
X135942914Y-118107143D02*
X135990533Y-118011905D01*
X135704819Y-118916667D02*
X135704819Y-119535714D01*
X135704819Y-119535714D02*
X136085771Y-119202381D01*
X136085771Y-119202381D02*
X136085771Y-119345238D01*
X136085771Y-119345238D02*
X136133390Y-119440476D01*
X136133390Y-119440476D02*
X136181009Y-119488095D01*
X136181009Y-119488095D02*
X136276247Y-119535714D01*
X136276247Y-119535714D02*
X136514342Y-119535714D01*
X136514342Y-119535714D02*
X136609580Y-119488095D01*
X136609580Y-119488095D02*
X136657200Y-119440476D01*
X136657200Y-119440476D02*
X136704819Y-119345238D01*
X136704819Y-119345238D02*
X136704819Y-119059524D01*
X136704819Y-119059524D02*
X136657200Y-118964286D01*
X136657200Y-118964286D02*
X136609580Y-118916667D01*
X135704819Y-119869048D02*
X135704819Y-120535714D01*
X135704819Y-120535714D02*
X136704819Y-120107143D01*
X134964285Y-148704819D02*
X134964285Y-149514342D01*
X134964285Y-149514342D02*
X134916666Y-149609580D01*
X134916666Y-149609580D02*
X134869047Y-149657200D01*
X134869047Y-149657200D02*
X134773809Y-149704819D01*
X134773809Y-149704819D02*
X134583333Y-149704819D01*
X134583333Y-149704819D02*
X134488095Y-149657200D01*
X134488095Y-149657200D02*
X134440476Y-149609580D01*
X134440476Y-149609580D02*
X134392857Y-149514342D01*
X134392857Y-149514342D02*
X134392857Y-148704819D01*
X133392857Y-149704819D02*
X133964285Y-149704819D01*
X133678571Y-149704819D02*
X133678571Y-148704819D01*
X133678571Y-148704819D02*
X133773809Y-148847676D01*
X133773809Y-148847676D02*
X133869047Y-148942914D01*
X133869047Y-148942914D02*
X133964285Y-148990533D01*
X132773809Y-148704819D02*
X132678571Y-148704819D01*
X132678571Y-148704819D02*
X132583333Y-148752438D01*
X132583333Y-148752438D02*
X132535714Y-148800057D01*
X132535714Y-148800057D02*
X132488095Y-148895295D01*
X132488095Y-148895295D02*
X132440476Y-149085771D01*
X132440476Y-149085771D02*
X132440476Y-149323866D01*
X132440476Y-149323866D02*
X132488095Y-149514342D01*
X132488095Y-149514342D02*
X132535714Y-149609580D01*
X132535714Y-149609580D02*
X132583333Y-149657200D01*
X132583333Y-149657200D02*
X132678571Y-149704819D01*
X132678571Y-149704819D02*
X132773809Y-149704819D01*
X132773809Y-149704819D02*
X132869047Y-149657200D01*
X132869047Y-149657200D02*
X132916666Y-149609580D01*
X132916666Y-149609580D02*
X132964285Y-149514342D01*
X132964285Y-149514342D02*
X133011904Y-149323866D01*
X133011904Y-149323866D02*
X133011904Y-149085771D01*
X133011904Y-149085771D02*
X132964285Y-148895295D01*
X132964285Y-148895295D02*
X132916666Y-148800057D01*
X132916666Y-148800057D02*
X132869047Y-148752438D01*
X132869047Y-148752438D02*
X132773809Y-148704819D01*
X131583333Y-149038152D02*
X131583333Y-149704819D01*
X131821428Y-148657200D02*
X132059523Y-149371485D01*
X132059523Y-149371485D02*
X131440476Y-149371485D01*
X140609580Y-140630952D02*
X140657200Y-140583333D01*
X140657200Y-140583333D02*
X140704819Y-140440476D01*
X140704819Y-140440476D02*
X140704819Y-140345238D01*
X140704819Y-140345238D02*
X140657200Y-140202381D01*
X140657200Y-140202381D02*
X140561961Y-140107143D01*
X140561961Y-140107143D02*
X140466723Y-140059524D01*
X140466723Y-140059524D02*
X140276247Y-140011905D01*
X140276247Y-140011905D02*
X140133390Y-140011905D01*
X140133390Y-140011905D02*
X139942914Y-140059524D01*
X139942914Y-140059524D02*
X139847676Y-140107143D01*
X139847676Y-140107143D02*
X139752438Y-140202381D01*
X139752438Y-140202381D02*
X139704819Y-140345238D01*
X139704819Y-140345238D02*
X139704819Y-140440476D01*
X139704819Y-140440476D02*
X139752438Y-140583333D01*
X139752438Y-140583333D02*
X139800057Y-140630952D01*
X140704819Y-141583333D02*
X140704819Y-141011905D01*
X140704819Y-141297619D02*
X139704819Y-141297619D01*
X139704819Y-141297619D02*
X139847676Y-141202381D01*
X139847676Y-141202381D02*
X139942914Y-141107143D01*
X139942914Y-141107143D02*
X139990533Y-141011905D01*
X139704819Y-142440476D02*
X139704819Y-142250000D01*
X139704819Y-142250000D02*
X139752438Y-142154762D01*
X139752438Y-142154762D02*
X139800057Y-142107143D01*
X139800057Y-142107143D02*
X139942914Y-142011905D01*
X139942914Y-142011905D02*
X140133390Y-141964286D01*
X140133390Y-141964286D02*
X140514342Y-141964286D01*
X140514342Y-141964286D02*
X140609580Y-142011905D01*
X140609580Y-142011905D02*
X140657200Y-142059524D01*
X140657200Y-142059524D02*
X140704819Y-142154762D01*
X140704819Y-142154762D02*
X140704819Y-142345238D01*
X140704819Y-142345238D02*
X140657200Y-142440476D01*
X140657200Y-142440476D02*
X140609580Y-142488095D01*
X140609580Y-142488095D02*
X140514342Y-142535714D01*
X140514342Y-142535714D02*
X140276247Y-142535714D01*
X140276247Y-142535714D02*
X140181009Y-142488095D01*
X140181009Y-142488095D02*
X140133390Y-142440476D01*
X140133390Y-142440476D02*
X140085771Y-142345238D01*
X140085771Y-142345238D02*
X140085771Y-142154762D01*
X140085771Y-142154762D02*
X140133390Y-142059524D01*
X140133390Y-142059524D02*
X140181009Y-142011905D01*
X140181009Y-142011905D02*
X140276247Y-141964286D01*
X139704819Y-143440476D02*
X139704819Y-142964286D01*
X139704819Y-142964286D02*
X140181009Y-142916667D01*
X140181009Y-142916667D02*
X140133390Y-142964286D01*
X140133390Y-142964286D02*
X140085771Y-143059524D01*
X140085771Y-143059524D02*
X140085771Y-143297619D01*
X140085771Y-143297619D02*
X140133390Y-143392857D01*
X140133390Y-143392857D02*
X140181009Y-143440476D01*
X140181009Y-143440476D02*
X140276247Y-143488095D01*
X140276247Y-143488095D02*
X140514342Y-143488095D01*
X140514342Y-143488095D02*
X140609580Y-143440476D01*
X140609580Y-143440476D02*
X140657200Y-143392857D01*
X140657200Y-143392857D02*
X140704819Y-143297619D01*
X140704819Y-143297619D02*
X140704819Y-143059524D01*
X140704819Y-143059524D02*
X140657200Y-142964286D01*
X140657200Y-142964286D02*
X140609580Y-142916667D01*
X128454819Y-142630952D02*
X127978628Y-142297619D01*
X128454819Y-142059524D02*
X127454819Y-142059524D01*
X127454819Y-142059524D02*
X127454819Y-142440476D01*
X127454819Y-142440476D02*
X127502438Y-142535714D01*
X127502438Y-142535714D02*
X127550057Y-142583333D01*
X127550057Y-142583333D02*
X127645295Y-142630952D01*
X127645295Y-142630952D02*
X127788152Y-142630952D01*
X127788152Y-142630952D02*
X127883390Y-142583333D01*
X127883390Y-142583333D02*
X127931009Y-142535714D01*
X127931009Y-142535714D02*
X127978628Y-142440476D01*
X127978628Y-142440476D02*
X127978628Y-142059524D01*
X128454819Y-143583333D02*
X128454819Y-143011905D01*
X128454819Y-143297619D02*
X127454819Y-143297619D01*
X127454819Y-143297619D02*
X127597676Y-143202381D01*
X127597676Y-143202381D02*
X127692914Y-143107143D01*
X127692914Y-143107143D02*
X127740533Y-143011905D01*
X127454819Y-144440476D02*
X127454819Y-144250000D01*
X127454819Y-144250000D02*
X127502438Y-144154762D01*
X127502438Y-144154762D02*
X127550057Y-144107143D01*
X127550057Y-144107143D02*
X127692914Y-144011905D01*
X127692914Y-144011905D02*
X127883390Y-143964286D01*
X127883390Y-143964286D02*
X128264342Y-143964286D01*
X128264342Y-143964286D02*
X128359580Y-144011905D01*
X128359580Y-144011905D02*
X128407200Y-144059524D01*
X128407200Y-144059524D02*
X128454819Y-144154762D01*
X128454819Y-144154762D02*
X128454819Y-144345238D01*
X128454819Y-144345238D02*
X128407200Y-144440476D01*
X128407200Y-144440476D02*
X128359580Y-144488095D01*
X128359580Y-144488095D02*
X128264342Y-144535714D01*
X128264342Y-144535714D02*
X128026247Y-144535714D01*
X128026247Y-144535714D02*
X127931009Y-144488095D01*
X127931009Y-144488095D02*
X127883390Y-144440476D01*
X127883390Y-144440476D02*
X127835771Y-144345238D01*
X127835771Y-144345238D02*
X127835771Y-144154762D01*
X127835771Y-144154762D02*
X127883390Y-144059524D01*
X127883390Y-144059524D02*
X127931009Y-144011905D01*
X127931009Y-144011905D02*
X128026247Y-143964286D01*
X127788152Y-145392857D02*
X128454819Y-145392857D01*
X127407200Y-145154762D02*
X128121485Y-144916667D01*
X128121485Y-144916667D02*
X128121485Y-145535714D01*
X161869047Y-123954819D02*
X162202380Y-123478628D01*
X162440475Y-123954819D02*
X162440475Y-122954819D01*
X162440475Y-122954819D02*
X162059523Y-122954819D01*
X162059523Y-122954819D02*
X161964285Y-123002438D01*
X161964285Y-123002438D02*
X161916666Y-123050057D01*
X161916666Y-123050057D02*
X161869047Y-123145295D01*
X161869047Y-123145295D02*
X161869047Y-123288152D01*
X161869047Y-123288152D02*
X161916666Y-123383390D01*
X161916666Y-123383390D02*
X161964285Y-123431009D01*
X161964285Y-123431009D02*
X162059523Y-123478628D01*
X162059523Y-123478628D02*
X162440475Y-123478628D01*
X160916666Y-123954819D02*
X161488094Y-123954819D01*
X161202380Y-123954819D02*
X161202380Y-122954819D01*
X161202380Y-122954819D02*
X161297618Y-123097676D01*
X161297618Y-123097676D02*
X161392856Y-123192914D01*
X161392856Y-123192914D02*
X161488094Y-123240533D01*
X160535713Y-123050057D02*
X160488094Y-123002438D01*
X160488094Y-123002438D02*
X160392856Y-122954819D01*
X160392856Y-122954819D02*
X160154761Y-122954819D01*
X160154761Y-122954819D02*
X160059523Y-123002438D01*
X160059523Y-123002438D02*
X160011904Y-123050057D01*
X160011904Y-123050057D02*
X159964285Y-123145295D01*
X159964285Y-123145295D02*
X159964285Y-123240533D01*
X159964285Y-123240533D02*
X160011904Y-123383390D01*
X160011904Y-123383390D02*
X160583332Y-123954819D01*
X160583332Y-123954819D02*
X159964285Y-123954819D01*
X159107142Y-123288152D02*
X159107142Y-123954819D01*
X159345237Y-122907200D02*
X159583332Y-123621485D01*
X159583332Y-123621485D02*
X158964285Y-123621485D01*
X123954819Y-135380952D02*
X123478628Y-135047619D01*
X123954819Y-134809524D02*
X122954819Y-134809524D01*
X122954819Y-134809524D02*
X122954819Y-135190476D01*
X122954819Y-135190476D02*
X123002438Y-135285714D01*
X123002438Y-135285714D02*
X123050057Y-135333333D01*
X123050057Y-135333333D02*
X123145295Y-135380952D01*
X123145295Y-135380952D02*
X123288152Y-135380952D01*
X123288152Y-135380952D02*
X123383390Y-135333333D01*
X123383390Y-135333333D02*
X123431009Y-135285714D01*
X123431009Y-135285714D02*
X123478628Y-135190476D01*
X123478628Y-135190476D02*
X123478628Y-134809524D01*
X123954819Y-136333333D02*
X123954819Y-135761905D01*
X123954819Y-136047619D02*
X122954819Y-136047619D01*
X122954819Y-136047619D02*
X123097676Y-135952381D01*
X123097676Y-135952381D02*
X123192914Y-135857143D01*
X123192914Y-135857143D02*
X123240533Y-135761905D01*
X122954819Y-137190476D02*
X122954819Y-137000000D01*
X122954819Y-137000000D02*
X123002438Y-136904762D01*
X123002438Y-136904762D02*
X123050057Y-136857143D01*
X123050057Y-136857143D02*
X123192914Y-136761905D01*
X123192914Y-136761905D02*
X123383390Y-136714286D01*
X123383390Y-136714286D02*
X123764342Y-136714286D01*
X123764342Y-136714286D02*
X123859580Y-136761905D01*
X123859580Y-136761905D02*
X123907200Y-136809524D01*
X123907200Y-136809524D02*
X123954819Y-136904762D01*
X123954819Y-136904762D02*
X123954819Y-137095238D01*
X123954819Y-137095238D02*
X123907200Y-137190476D01*
X123907200Y-137190476D02*
X123859580Y-137238095D01*
X123859580Y-137238095D02*
X123764342Y-137285714D01*
X123764342Y-137285714D02*
X123526247Y-137285714D01*
X123526247Y-137285714D02*
X123431009Y-137238095D01*
X123431009Y-137238095D02*
X123383390Y-137190476D01*
X123383390Y-137190476D02*
X123335771Y-137095238D01*
X123335771Y-137095238D02*
X123335771Y-136904762D01*
X123335771Y-136904762D02*
X123383390Y-136809524D01*
X123383390Y-136809524D02*
X123431009Y-136761905D01*
X123431009Y-136761905D02*
X123526247Y-136714286D01*
X123050057Y-137666667D02*
X123002438Y-137714286D01*
X123002438Y-137714286D02*
X122954819Y-137809524D01*
X122954819Y-137809524D02*
X122954819Y-138047619D01*
X122954819Y-138047619D02*
X123002438Y-138142857D01*
X123002438Y-138142857D02*
X123050057Y-138190476D01*
X123050057Y-138190476D02*
X123145295Y-138238095D01*
X123145295Y-138238095D02*
X123240533Y-138238095D01*
X123240533Y-138238095D02*
X123383390Y-138190476D01*
X123383390Y-138190476D02*
X123954819Y-137619048D01*
X123954819Y-137619048D02*
X123954819Y-138238095D01*
X133359580Y-121880952D02*
X133407200Y-121833333D01*
X133407200Y-121833333D02*
X133454819Y-121690476D01*
X133454819Y-121690476D02*
X133454819Y-121595238D01*
X133454819Y-121595238D02*
X133407200Y-121452381D01*
X133407200Y-121452381D02*
X133311961Y-121357143D01*
X133311961Y-121357143D02*
X133216723Y-121309524D01*
X133216723Y-121309524D02*
X133026247Y-121261905D01*
X133026247Y-121261905D02*
X132883390Y-121261905D01*
X132883390Y-121261905D02*
X132692914Y-121309524D01*
X132692914Y-121309524D02*
X132597676Y-121357143D01*
X132597676Y-121357143D02*
X132502438Y-121452381D01*
X132502438Y-121452381D02*
X132454819Y-121595238D01*
X132454819Y-121595238D02*
X132454819Y-121690476D01*
X132454819Y-121690476D02*
X132502438Y-121833333D01*
X132502438Y-121833333D02*
X132550057Y-121880952D01*
X133454819Y-122833333D02*
X133454819Y-122261905D01*
X133454819Y-122547619D02*
X132454819Y-122547619D01*
X132454819Y-122547619D02*
X132597676Y-122452381D01*
X132597676Y-122452381D02*
X132692914Y-122357143D01*
X132692914Y-122357143D02*
X132740533Y-122261905D01*
X132454819Y-123166667D02*
X132454819Y-123785714D01*
X132454819Y-123785714D02*
X132835771Y-123452381D01*
X132835771Y-123452381D02*
X132835771Y-123595238D01*
X132835771Y-123595238D02*
X132883390Y-123690476D01*
X132883390Y-123690476D02*
X132931009Y-123738095D01*
X132931009Y-123738095D02*
X133026247Y-123785714D01*
X133026247Y-123785714D02*
X133264342Y-123785714D01*
X133264342Y-123785714D02*
X133359580Y-123738095D01*
X133359580Y-123738095D02*
X133407200Y-123690476D01*
X133407200Y-123690476D02*
X133454819Y-123595238D01*
X133454819Y-123595238D02*
X133454819Y-123309524D01*
X133454819Y-123309524D02*
X133407200Y-123214286D01*
X133407200Y-123214286D02*
X133359580Y-123166667D01*
X132454819Y-124690476D02*
X132454819Y-124214286D01*
X132454819Y-124214286D02*
X132931009Y-124166667D01*
X132931009Y-124166667D02*
X132883390Y-124214286D01*
X132883390Y-124214286D02*
X132835771Y-124309524D01*
X132835771Y-124309524D02*
X132835771Y-124547619D01*
X132835771Y-124547619D02*
X132883390Y-124642857D01*
X132883390Y-124642857D02*
X132931009Y-124690476D01*
X132931009Y-124690476D02*
X133026247Y-124738095D01*
X133026247Y-124738095D02*
X133264342Y-124738095D01*
X133264342Y-124738095D02*
X133359580Y-124690476D01*
X133359580Y-124690476D02*
X133407200Y-124642857D01*
X133407200Y-124642857D02*
X133454819Y-124547619D01*
X133454819Y-124547619D02*
X133454819Y-124309524D01*
X133454819Y-124309524D02*
X133407200Y-124214286D01*
X133407200Y-124214286D02*
X133359580Y-124166667D01*
X167540475Y-119454819D02*
X167540475Y-118454819D01*
X167540475Y-118454819D02*
X167302380Y-118454819D01*
X167302380Y-118454819D02*
X167159523Y-118502438D01*
X167159523Y-118502438D02*
X167064285Y-118597676D01*
X167064285Y-118597676D02*
X167016666Y-118692914D01*
X167016666Y-118692914D02*
X166969047Y-118883390D01*
X166969047Y-118883390D02*
X166969047Y-119026247D01*
X166969047Y-119026247D02*
X167016666Y-119216723D01*
X167016666Y-119216723D02*
X167064285Y-119311961D01*
X167064285Y-119311961D02*
X167159523Y-119407200D01*
X167159523Y-119407200D02*
X167302380Y-119454819D01*
X167302380Y-119454819D02*
X167540475Y-119454819D01*
X166016666Y-119454819D02*
X166588094Y-119454819D01*
X166302380Y-119454819D02*
X166302380Y-118454819D01*
X166302380Y-118454819D02*
X166397618Y-118597676D01*
X166397618Y-118597676D02*
X166492856Y-118692914D01*
X166492856Y-118692914D02*
X166588094Y-118740533D01*
X165397618Y-118454819D02*
X165302380Y-118454819D01*
X165302380Y-118454819D02*
X165207142Y-118502438D01*
X165207142Y-118502438D02*
X165159523Y-118550057D01*
X165159523Y-118550057D02*
X165111904Y-118645295D01*
X165111904Y-118645295D02*
X165064285Y-118835771D01*
X165064285Y-118835771D02*
X165064285Y-119073866D01*
X165064285Y-119073866D02*
X165111904Y-119264342D01*
X165111904Y-119264342D02*
X165159523Y-119359580D01*
X165159523Y-119359580D02*
X165207142Y-119407200D01*
X165207142Y-119407200D02*
X165302380Y-119454819D01*
X165302380Y-119454819D02*
X165397618Y-119454819D01*
X165397618Y-119454819D02*
X165492856Y-119407200D01*
X165492856Y-119407200D02*
X165540475Y-119359580D01*
X165540475Y-119359580D02*
X165588094Y-119264342D01*
X165588094Y-119264342D02*
X165635713Y-119073866D01*
X165635713Y-119073866D02*
X165635713Y-118835771D01*
X165635713Y-118835771D02*
X165588094Y-118645295D01*
X165588094Y-118645295D02*
X165540475Y-118550057D01*
X165540475Y-118550057D02*
X165492856Y-118502438D01*
X165492856Y-118502438D02*
X165397618Y-118454819D01*
X164207142Y-118788152D02*
X164207142Y-119454819D01*
X164445237Y-118407200D02*
X164683332Y-119121485D01*
X164683332Y-119121485D02*
X164064285Y-119121485D01*
X148119047Y-138954819D02*
X148452380Y-138478628D01*
X148690475Y-138954819D02*
X148690475Y-137954819D01*
X148690475Y-137954819D02*
X148309523Y-137954819D01*
X148309523Y-137954819D02*
X148214285Y-138002438D01*
X148214285Y-138002438D02*
X148166666Y-138050057D01*
X148166666Y-138050057D02*
X148119047Y-138145295D01*
X148119047Y-138145295D02*
X148119047Y-138288152D01*
X148119047Y-138288152D02*
X148166666Y-138383390D01*
X148166666Y-138383390D02*
X148214285Y-138431009D01*
X148214285Y-138431009D02*
X148309523Y-138478628D01*
X148309523Y-138478628D02*
X148690475Y-138478628D01*
X147166666Y-138954819D02*
X147738094Y-138954819D01*
X147452380Y-138954819D02*
X147452380Y-137954819D01*
X147452380Y-137954819D02*
X147547618Y-138097676D01*
X147547618Y-138097676D02*
X147642856Y-138192914D01*
X147642856Y-138192914D02*
X147738094Y-138240533D01*
X146261904Y-137954819D02*
X146738094Y-137954819D01*
X146738094Y-137954819D02*
X146785713Y-138431009D01*
X146785713Y-138431009D02*
X146738094Y-138383390D01*
X146738094Y-138383390D02*
X146642856Y-138335771D01*
X146642856Y-138335771D02*
X146404761Y-138335771D01*
X146404761Y-138335771D02*
X146309523Y-138383390D01*
X146309523Y-138383390D02*
X146261904Y-138431009D01*
X146261904Y-138431009D02*
X146214285Y-138526247D01*
X146214285Y-138526247D02*
X146214285Y-138764342D01*
X146214285Y-138764342D02*
X146261904Y-138859580D01*
X146261904Y-138859580D02*
X146309523Y-138907200D01*
X146309523Y-138907200D02*
X146404761Y-138954819D01*
X146404761Y-138954819D02*
X146642856Y-138954819D01*
X146642856Y-138954819D02*
X146738094Y-138907200D01*
X146738094Y-138907200D02*
X146785713Y-138859580D01*
X145880951Y-137954819D02*
X145214285Y-137954819D01*
X145214285Y-137954819D02*
X145642856Y-138954819D01*
X116859580Y-117430952D02*
X116907200Y-117383333D01*
X116907200Y-117383333D02*
X116954819Y-117240476D01*
X116954819Y-117240476D02*
X116954819Y-117145238D01*
X116954819Y-117145238D02*
X116907200Y-117002381D01*
X116907200Y-117002381D02*
X116811961Y-116907143D01*
X116811961Y-116907143D02*
X116716723Y-116859524D01*
X116716723Y-116859524D02*
X116526247Y-116811905D01*
X116526247Y-116811905D02*
X116383390Y-116811905D01*
X116383390Y-116811905D02*
X116192914Y-116859524D01*
X116192914Y-116859524D02*
X116097676Y-116907143D01*
X116097676Y-116907143D02*
X116002438Y-117002381D01*
X116002438Y-117002381D02*
X115954819Y-117145238D01*
X115954819Y-117145238D02*
X115954819Y-117240476D01*
X115954819Y-117240476D02*
X116002438Y-117383333D01*
X116002438Y-117383333D02*
X116050057Y-117430952D01*
X116954819Y-118383333D02*
X116954819Y-117811905D01*
X116954819Y-118097619D02*
X115954819Y-118097619D01*
X115954819Y-118097619D02*
X116097676Y-118002381D01*
X116097676Y-118002381D02*
X116192914Y-117907143D01*
X116192914Y-117907143D02*
X116240533Y-117811905D01*
X116050057Y-118764286D02*
X116002438Y-118811905D01*
X116002438Y-118811905D02*
X115954819Y-118907143D01*
X115954819Y-118907143D02*
X115954819Y-119145238D01*
X115954819Y-119145238D02*
X116002438Y-119240476D01*
X116002438Y-119240476D02*
X116050057Y-119288095D01*
X116050057Y-119288095D02*
X116145295Y-119335714D01*
X116145295Y-119335714D02*
X116240533Y-119335714D01*
X116240533Y-119335714D02*
X116383390Y-119288095D01*
X116383390Y-119288095D02*
X116954819Y-118716667D01*
X116954819Y-118716667D02*
X116954819Y-119335714D01*
X116383390Y-119907143D02*
X116335771Y-119811905D01*
X116335771Y-119811905D02*
X116288152Y-119764286D01*
X116288152Y-119764286D02*
X116192914Y-119716667D01*
X116192914Y-119716667D02*
X116145295Y-119716667D01*
X116145295Y-119716667D02*
X116050057Y-119764286D01*
X116050057Y-119764286D02*
X116002438Y-119811905D01*
X116002438Y-119811905D02*
X115954819Y-119907143D01*
X115954819Y-119907143D02*
X115954819Y-120097619D01*
X115954819Y-120097619D02*
X116002438Y-120192857D01*
X116002438Y-120192857D02*
X116050057Y-120240476D01*
X116050057Y-120240476D02*
X116145295Y-120288095D01*
X116145295Y-120288095D02*
X116192914Y-120288095D01*
X116192914Y-120288095D02*
X116288152Y-120240476D01*
X116288152Y-120240476D02*
X116335771Y-120192857D01*
X116335771Y-120192857D02*
X116383390Y-120097619D01*
X116383390Y-120097619D02*
X116383390Y-119907143D01*
X116383390Y-119907143D02*
X116431009Y-119811905D01*
X116431009Y-119811905D02*
X116478628Y-119764286D01*
X116478628Y-119764286D02*
X116573866Y-119716667D01*
X116573866Y-119716667D02*
X116764342Y-119716667D01*
X116764342Y-119716667D02*
X116859580Y-119764286D01*
X116859580Y-119764286D02*
X116907200Y-119811905D01*
X116907200Y-119811905D02*
X116954819Y-119907143D01*
X116954819Y-119907143D02*
X116954819Y-120097619D01*
X116954819Y-120097619D02*
X116907200Y-120192857D01*
X116907200Y-120192857D02*
X116859580Y-120240476D01*
X116859580Y-120240476D02*
X116764342Y-120288095D01*
X116764342Y-120288095D02*
X116573866Y-120288095D01*
X116573866Y-120288095D02*
X116478628Y-120240476D01*
X116478628Y-120240476D02*
X116431009Y-120192857D01*
X116431009Y-120192857D02*
X116383390Y-120097619D01*
X146714285Y-148704819D02*
X146714285Y-149514342D01*
X146714285Y-149514342D02*
X146666666Y-149609580D01*
X146666666Y-149609580D02*
X146619047Y-149657200D01*
X146619047Y-149657200D02*
X146523809Y-149704819D01*
X146523809Y-149704819D02*
X146333333Y-149704819D01*
X146333333Y-149704819D02*
X146238095Y-149657200D01*
X146238095Y-149657200D02*
X146190476Y-149609580D01*
X146190476Y-149609580D02*
X146142857Y-149514342D01*
X146142857Y-149514342D02*
X146142857Y-148704819D01*
X145142857Y-149704819D02*
X145714285Y-149704819D01*
X145428571Y-149704819D02*
X145428571Y-148704819D01*
X145428571Y-148704819D02*
X145523809Y-148847676D01*
X145523809Y-148847676D02*
X145619047Y-148942914D01*
X145619047Y-148942914D02*
X145714285Y-148990533D01*
X144523809Y-148704819D02*
X144428571Y-148704819D01*
X144428571Y-148704819D02*
X144333333Y-148752438D01*
X144333333Y-148752438D02*
X144285714Y-148800057D01*
X144285714Y-148800057D02*
X144238095Y-148895295D01*
X144238095Y-148895295D02*
X144190476Y-149085771D01*
X144190476Y-149085771D02*
X144190476Y-149323866D01*
X144190476Y-149323866D02*
X144238095Y-149514342D01*
X144238095Y-149514342D02*
X144285714Y-149609580D01*
X144285714Y-149609580D02*
X144333333Y-149657200D01*
X144333333Y-149657200D02*
X144428571Y-149704819D01*
X144428571Y-149704819D02*
X144523809Y-149704819D01*
X144523809Y-149704819D02*
X144619047Y-149657200D01*
X144619047Y-149657200D02*
X144666666Y-149609580D01*
X144666666Y-149609580D02*
X144714285Y-149514342D01*
X144714285Y-149514342D02*
X144761904Y-149323866D01*
X144761904Y-149323866D02*
X144761904Y-149085771D01*
X144761904Y-149085771D02*
X144714285Y-148895295D01*
X144714285Y-148895295D02*
X144666666Y-148800057D01*
X144666666Y-148800057D02*
X144619047Y-148752438D01*
X144619047Y-148752438D02*
X144523809Y-148704819D01*
X143333333Y-148704819D02*
X143523809Y-148704819D01*
X143523809Y-148704819D02*
X143619047Y-148752438D01*
X143619047Y-148752438D02*
X143666666Y-148800057D01*
X143666666Y-148800057D02*
X143761904Y-148942914D01*
X143761904Y-148942914D02*
X143809523Y-149133390D01*
X143809523Y-149133390D02*
X143809523Y-149514342D01*
X143809523Y-149514342D02*
X143761904Y-149609580D01*
X143761904Y-149609580D02*
X143714285Y-149657200D01*
X143714285Y-149657200D02*
X143619047Y-149704819D01*
X143619047Y-149704819D02*
X143428571Y-149704819D01*
X143428571Y-149704819D02*
X143333333Y-149657200D01*
X143333333Y-149657200D02*
X143285714Y-149609580D01*
X143285714Y-149609580D02*
X143238095Y-149514342D01*
X143238095Y-149514342D02*
X143238095Y-149276247D01*
X143238095Y-149276247D02*
X143285714Y-149181009D01*
X143285714Y-149181009D02*
X143333333Y-149133390D01*
X143333333Y-149133390D02*
X143428571Y-149085771D01*
X143428571Y-149085771D02*
X143619047Y-149085771D01*
X143619047Y-149085771D02*
X143714285Y-149133390D01*
X143714285Y-149133390D02*
X143761904Y-149181009D01*
X143761904Y-149181009D02*
X143809523Y-149276247D01*
X132369047Y-138859580D02*
X132416666Y-138907200D01*
X132416666Y-138907200D02*
X132559523Y-138954819D01*
X132559523Y-138954819D02*
X132654761Y-138954819D01*
X132654761Y-138954819D02*
X132797618Y-138907200D01*
X132797618Y-138907200D02*
X132892856Y-138811961D01*
X132892856Y-138811961D02*
X132940475Y-138716723D01*
X132940475Y-138716723D02*
X132988094Y-138526247D01*
X132988094Y-138526247D02*
X132988094Y-138383390D01*
X132988094Y-138383390D02*
X132940475Y-138192914D01*
X132940475Y-138192914D02*
X132892856Y-138097676D01*
X132892856Y-138097676D02*
X132797618Y-138002438D01*
X132797618Y-138002438D02*
X132654761Y-137954819D01*
X132654761Y-137954819D02*
X132559523Y-137954819D01*
X132559523Y-137954819D02*
X132416666Y-138002438D01*
X132416666Y-138002438D02*
X132369047Y-138050057D01*
X131416666Y-138954819D02*
X131988094Y-138954819D01*
X131702380Y-138954819D02*
X131702380Y-137954819D01*
X131702380Y-137954819D02*
X131797618Y-138097676D01*
X131797618Y-138097676D02*
X131892856Y-138192914D01*
X131892856Y-138192914D02*
X131988094Y-138240533D01*
X130559523Y-137954819D02*
X130749999Y-137954819D01*
X130749999Y-137954819D02*
X130845237Y-138002438D01*
X130845237Y-138002438D02*
X130892856Y-138050057D01*
X130892856Y-138050057D02*
X130988094Y-138192914D01*
X130988094Y-138192914D02*
X131035713Y-138383390D01*
X131035713Y-138383390D02*
X131035713Y-138764342D01*
X131035713Y-138764342D02*
X130988094Y-138859580D01*
X130988094Y-138859580D02*
X130940475Y-138907200D01*
X130940475Y-138907200D02*
X130845237Y-138954819D01*
X130845237Y-138954819D02*
X130654761Y-138954819D01*
X130654761Y-138954819D02*
X130559523Y-138907200D01*
X130559523Y-138907200D02*
X130511904Y-138859580D01*
X130511904Y-138859580D02*
X130464285Y-138764342D01*
X130464285Y-138764342D02*
X130464285Y-138526247D01*
X130464285Y-138526247D02*
X130511904Y-138431009D01*
X130511904Y-138431009D02*
X130559523Y-138383390D01*
X130559523Y-138383390D02*
X130654761Y-138335771D01*
X130654761Y-138335771D02*
X130845237Y-138335771D01*
X130845237Y-138335771D02*
X130940475Y-138383390D01*
X130940475Y-138383390D02*
X130988094Y-138431009D01*
X130988094Y-138431009D02*
X131035713Y-138526247D01*
X129607142Y-138288152D02*
X129607142Y-138954819D01*
X129845237Y-137907200D02*
X130083332Y-138621485D01*
X130083332Y-138621485D02*
X129464285Y-138621485D01*
X161869047Y-126942319D02*
X162202380Y-126466128D01*
X162440475Y-126942319D02*
X162440475Y-125942319D01*
X162440475Y-125942319D02*
X162059523Y-125942319D01*
X162059523Y-125942319D02*
X161964285Y-125989938D01*
X161964285Y-125989938D02*
X161916666Y-126037557D01*
X161916666Y-126037557D02*
X161869047Y-126132795D01*
X161869047Y-126132795D02*
X161869047Y-126275652D01*
X161869047Y-126275652D02*
X161916666Y-126370890D01*
X161916666Y-126370890D02*
X161964285Y-126418509D01*
X161964285Y-126418509D02*
X162059523Y-126466128D01*
X162059523Y-126466128D02*
X162440475Y-126466128D01*
X160916666Y-126942319D02*
X161488094Y-126942319D01*
X161202380Y-126942319D02*
X161202380Y-125942319D01*
X161202380Y-125942319D02*
X161297618Y-126085176D01*
X161297618Y-126085176D02*
X161392856Y-126180414D01*
X161392856Y-126180414D02*
X161488094Y-126228033D01*
X160535713Y-126037557D02*
X160488094Y-125989938D01*
X160488094Y-125989938D02*
X160392856Y-125942319D01*
X160392856Y-125942319D02*
X160154761Y-125942319D01*
X160154761Y-125942319D02*
X160059523Y-125989938D01*
X160059523Y-125989938D02*
X160011904Y-126037557D01*
X160011904Y-126037557D02*
X159964285Y-126132795D01*
X159964285Y-126132795D02*
X159964285Y-126228033D01*
X159964285Y-126228033D02*
X160011904Y-126370890D01*
X160011904Y-126370890D02*
X160583332Y-126942319D01*
X160583332Y-126942319D02*
X159964285Y-126942319D01*
X159011904Y-126942319D02*
X159583332Y-126942319D01*
X159297618Y-126942319D02*
X159297618Y-125942319D01*
X159297618Y-125942319D02*
X159392856Y-126085176D01*
X159392856Y-126085176D02*
X159488094Y-126180414D01*
X159488094Y-126180414D02*
X159583332Y-126228033D01*
X118359580Y-117380952D02*
X118407200Y-117333333D01*
X118407200Y-117333333D02*
X118454819Y-117190476D01*
X118454819Y-117190476D02*
X118454819Y-117095238D01*
X118454819Y-117095238D02*
X118407200Y-116952381D01*
X118407200Y-116952381D02*
X118311961Y-116857143D01*
X118311961Y-116857143D02*
X118216723Y-116809524D01*
X118216723Y-116809524D02*
X118026247Y-116761905D01*
X118026247Y-116761905D02*
X117883390Y-116761905D01*
X117883390Y-116761905D02*
X117692914Y-116809524D01*
X117692914Y-116809524D02*
X117597676Y-116857143D01*
X117597676Y-116857143D02*
X117502438Y-116952381D01*
X117502438Y-116952381D02*
X117454819Y-117095238D01*
X117454819Y-117095238D02*
X117454819Y-117190476D01*
X117454819Y-117190476D02*
X117502438Y-117333333D01*
X117502438Y-117333333D02*
X117550057Y-117380952D01*
X118454819Y-118333333D02*
X118454819Y-117761905D01*
X118454819Y-118047619D02*
X117454819Y-118047619D01*
X117454819Y-118047619D02*
X117597676Y-117952381D01*
X117597676Y-117952381D02*
X117692914Y-117857143D01*
X117692914Y-117857143D02*
X117740533Y-117761905D01*
X117550057Y-118714286D02*
X117502438Y-118761905D01*
X117502438Y-118761905D02*
X117454819Y-118857143D01*
X117454819Y-118857143D02*
X117454819Y-119095238D01*
X117454819Y-119095238D02*
X117502438Y-119190476D01*
X117502438Y-119190476D02*
X117550057Y-119238095D01*
X117550057Y-119238095D02*
X117645295Y-119285714D01*
X117645295Y-119285714D02*
X117740533Y-119285714D01*
X117740533Y-119285714D02*
X117883390Y-119238095D01*
X117883390Y-119238095D02*
X118454819Y-118666667D01*
X118454819Y-118666667D02*
X118454819Y-119285714D01*
X117454819Y-119619048D02*
X117454819Y-120285714D01*
X117454819Y-120285714D02*
X118454819Y-119857143D01*
X137119047Y-138859580D02*
X137166666Y-138907200D01*
X137166666Y-138907200D02*
X137309523Y-138954819D01*
X137309523Y-138954819D02*
X137404761Y-138954819D01*
X137404761Y-138954819D02*
X137547618Y-138907200D01*
X137547618Y-138907200D02*
X137642856Y-138811961D01*
X137642856Y-138811961D02*
X137690475Y-138716723D01*
X137690475Y-138716723D02*
X137738094Y-138526247D01*
X137738094Y-138526247D02*
X137738094Y-138383390D01*
X137738094Y-138383390D02*
X137690475Y-138192914D01*
X137690475Y-138192914D02*
X137642856Y-138097676D01*
X137642856Y-138097676D02*
X137547618Y-138002438D01*
X137547618Y-138002438D02*
X137404761Y-137954819D01*
X137404761Y-137954819D02*
X137309523Y-137954819D01*
X137309523Y-137954819D02*
X137166666Y-138002438D01*
X137166666Y-138002438D02*
X137119047Y-138050057D01*
X136166666Y-138954819D02*
X136738094Y-138954819D01*
X136452380Y-138954819D02*
X136452380Y-137954819D01*
X136452380Y-137954819D02*
X136547618Y-138097676D01*
X136547618Y-138097676D02*
X136642856Y-138192914D01*
X136642856Y-138192914D02*
X136738094Y-138240533D01*
X135309523Y-137954819D02*
X135499999Y-137954819D01*
X135499999Y-137954819D02*
X135595237Y-138002438D01*
X135595237Y-138002438D02*
X135642856Y-138050057D01*
X135642856Y-138050057D02*
X135738094Y-138192914D01*
X135738094Y-138192914D02*
X135785713Y-138383390D01*
X135785713Y-138383390D02*
X135785713Y-138764342D01*
X135785713Y-138764342D02*
X135738094Y-138859580D01*
X135738094Y-138859580D02*
X135690475Y-138907200D01*
X135690475Y-138907200D02*
X135595237Y-138954819D01*
X135595237Y-138954819D02*
X135404761Y-138954819D01*
X135404761Y-138954819D02*
X135309523Y-138907200D01*
X135309523Y-138907200D02*
X135261904Y-138859580D01*
X135261904Y-138859580D02*
X135214285Y-138764342D01*
X135214285Y-138764342D02*
X135214285Y-138526247D01*
X135214285Y-138526247D02*
X135261904Y-138431009D01*
X135261904Y-138431009D02*
X135309523Y-138383390D01*
X135309523Y-138383390D02*
X135404761Y-138335771D01*
X135404761Y-138335771D02*
X135595237Y-138335771D01*
X135595237Y-138335771D02*
X135690475Y-138383390D01*
X135690475Y-138383390D02*
X135738094Y-138431009D01*
X135738094Y-138431009D02*
X135785713Y-138526247D01*
X134357142Y-137954819D02*
X134547618Y-137954819D01*
X134547618Y-137954819D02*
X134642856Y-138002438D01*
X134642856Y-138002438D02*
X134690475Y-138050057D01*
X134690475Y-138050057D02*
X134785713Y-138192914D01*
X134785713Y-138192914D02*
X134833332Y-138383390D01*
X134833332Y-138383390D02*
X134833332Y-138764342D01*
X134833332Y-138764342D02*
X134785713Y-138859580D01*
X134785713Y-138859580D02*
X134738094Y-138907200D01*
X134738094Y-138907200D02*
X134642856Y-138954819D01*
X134642856Y-138954819D02*
X134452380Y-138954819D01*
X134452380Y-138954819D02*
X134357142Y-138907200D01*
X134357142Y-138907200D02*
X134309523Y-138859580D01*
X134309523Y-138859580D02*
X134261904Y-138764342D01*
X134261904Y-138764342D02*
X134261904Y-138526247D01*
X134261904Y-138526247D02*
X134309523Y-138431009D01*
X134309523Y-138431009D02*
X134357142Y-138383390D01*
X134357142Y-138383390D02*
X134452380Y-138335771D01*
X134452380Y-138335771D02*
X134642856Y-138335771D01*
X134642856Y-138335771D02*
X134738094Y-138383390D01*
X134738094Y-138383390D02*
X134785713Y-138431009D01*
X134785713Y-138431009D02*
X134833332Y-138526247D01*
X106204819Y-114630952D02*
X105728628Y-114297619D01*
X106204819Y-114059524D02*
X105204819Y-114059524D01*
X105204819Y-114059524D02*
X105204819Y-114440476D01*
X105204819Y-114440476D02*
X105252438Y-114535714D01*
X105252438Y-114535714D02*
X105300057Y-114583333D01*
X105300057Y-114583333D02*
X105395295Y-114630952D01*
X105395295Y-114630952D02*
X105538152Y-114630952D01*
X105538152Y-114630952D02*
X105633390Y-114583333D01*
X105633390Y-114583333D02*
X105681009Y-114535714D01*
X105681009Y-114535714D02*
X105728628Y-114440476D01*
X105728628Y-114440476D02*
X105728628Y-114059524D01*
X106204819Y-115583333D02*
X106204819Y-115011905D01*
X106204819Y-115297619D02*
X105204819Y-115297619D01*
X105204819Y-115297619D02*
X105347676Y-115202381D01*
X105347676Y-115202381D02*
X105442914Y-115107143D01*
X105442914Y-115107143D02*
X105490533Y-115011905D01*
X105204819Y-116488095D02*
X105204819Y-116011905D01*
X105204819Y-116011905D02*
X105681009Y-115964286D01*
X105681009Y-115964286D02*
X105633390Y-116011905D01*
X105633390Y-116011905D02*
X105585771Y-116107143D01*
X105585771Y-116107143D02*
X105585771Y-116345238D01*
X105585771Y-116345238D02*
X105633390Y-116440476D01*
X105633390Y-116440476D02*
X105681009Y-116488095D01*
X105681009Y-116488095D02*
X105776247Y-116535714D01*
X105776247Y-116535714D02*
X106014342Y-116535714D01*
X106014342Y-116535714D02*
X106109580Y-116488095D01*
X106109580Y-116488095D02*
X106157200Y-116440476D01*
X106157200Y-116440476D02*
X106204819Y-116345238D01*
X106204819Y-116345238D02*
X106204819Y-116107143D01*
X106204819Y-116107143D02*
X106157200Y-116011905D01*
X106157200Y-116011905D02*
X106109580Y-115964286D01*
X105300057Y-116916667D02*
X105252438Y-116964286D01*
X105252438Y-116964286D02*
X105204819Y-117059524D01*
X105204819Y-117059524D02*
X105204819Y-117297619D01*
X105204819Y-117297619D02*
X105252438Y-117392857D01*
X105252438Y-117392857D02*
X105300057Y-117440476D01*
X105300057Y-117440476D02*
X105395295Y-117488095D01*
X105395295Y-117488095D02*
X105490533Y-117488095D01*
X105490533Y-117488095D02*
X105633390Y-117440476D01*
X105633390Y-117440476D02*
X106204819Y-116869048D01*
X106204819Y-116869048D02*
X106204819Y-117488095D01*
X162790475Y-131704819D02*
X162790475Y-130704819D01*
X162790475Y-130704819D02*
X162552380Y-130704819D01*
X162552380Y-130704819D02*
X162409523Y-130752438D01*
X162409523Y-130752438D02*
X162314285Y-130847676D01*
X162314285Y-130847676D02*
X162266666Y-130942914D01*
X162266666Y-130942914D02*
X162219047Y-131133390D01*
X162219047Y-131133390D02*
X162219047Y-131276247D01*
X162219047Y-131276247D02*
X162266666Y-131466723D01*
X162266666Y-131466723D02*
X162314285Y-131561961D01*
X162314285Y-131561961D02*
X162409523Y-131657200D01*
X162409523Y-131657200D02*
X162552380Y-131704819D01*
X162552380Y-131704819D02*
X162790475Y-131704819D01*
X161266666Y-131704819D02*
X161838094Y-131704819D01*
X161552380Y-131704819D02*
X161552380Y-130704819D01*
X161552380Y-130704819D02*
X161647618Y-130847676D01*
X161647618Y-130847676D02*
X161742856Y-130942914D01*
X161742856Y-130942914D02*
X161838094Y-130990533D01*
X160647618Y-130704819D02*
X160552380Y-130704819D01*
X160552380Y-130704819D02*
X160457142Y-130752438D01*
X160457142Y-130752438D02*
X160409523Y-130800057D01*
X160409523Y-130800057D02*
X160361904Y-130895295D01*
X160361904Y-130895295D02*
X160314285Y-131085771D01*
X160314285Y-131085771D02*
X160314285Y-131323866D01*
X160314285Y-131323866D02*
X160361904Y-131514342D01*
X160361904Y-131514342D02*
X160409523Y-131609580D01*
X160409523Y-131609580D02*
X160457142Y-131657200D01*
X160457142Y-131657200D02*
X160552380Y-131704819D01*
X160552380Y-131704819D02*
X160647618Y-131704819D01*
X160647618Y-131704819D02*
X160742856Y-131657200D01*
X160742856Y-131657200D02*
X160790475Y-131609580D01*
X160790475Y-131609580D02*
X160838094Y-131514342D01*
X160838094Y-131514342D02*
X160885713Y-131323866D01*
X160885713Y-131323866D02*
X160885713Y-131085771D01*
X160885713Y-131085771D02*
X160838094Y-130895295D01*
X160838094Y-130895295D02*
X160790475Y-130800057D01*
X160790475Y-130800057D02*
X160742856Y-130752438D01*
X160742856Y-130752438D02*
X160647618Y-130704819D01*
X159457142Y-130704819D02*
X159647618Y-130704819D01*
X159647618Y-130704819D02*
X159742856Y-130752438D01*
X159742856Y-130752438D02*
X159790475Y-130800057D01*
X159790475Y-130800057D02*
X159885713Y-130942914D01*
X159885713Y-130942914D02*
X159933332Y-131133390D01*
X159933332Y-131133390D02*
X159933332Y-131514342D01*
X159933332Y-131514342D02*
X159885713Y-131609580D01*
X159885713Y-131609580D02*
X159838094Y-131657200D01*
X159838094Y-131657200D02*
X159742856Y-131704819D01*
X159742856Y-131704819D02*
X159552380Y-131704819D01*
X159552380Y-131704819D02*
X159457142Y-131657200D01*
X159457142Y-131657200D02*
X159409523Y-131609580D01*
X159409523Y-131609580D02*
X159361904Y-131514342D01*
X159361904Y-131514342D02*
X159361904Y-131276247D01*
X159361904Y-131276247D02*
X159409523Y-131181009D01*
X159409523Y-131181009D02*
X159457142Y-131133390D01*
X159457142Y-131133390D02*
X159552380Y-131085771D01*
X159552380Y-131085771D02*
X159742856Y-131085771D01*
X159742856Y-131085771D02*
X159838094Y-131133390D01*
X159838094Y-131133390D02*
X159885713Y-131181009D01*
X159885713Y-131181009D02*
X159933332Y-131276247D01*
X101774819Y-114630952D02*
X101298628Y-114297619D01*
X101774819Y-114059524D02*
X100774819Y-114059524D01*
X100774819Y-114059524D02*
X100774819Y-114440476D01*
X100774819Y-114440476D02*
X100822438Y-114535714D01*
X100822438Y-114535714D02*
X100870057Y-114583333D01*
X100870057Y-114583333D02*
X100965295Y-114630952D01*
X100965295Y-114630952D02*
X101108152Y-114630952D01*
X101108152Y-114630952D02*
X101203390Y-114583333D01*
X101203390Y-114583333D02*
X101251009Y-114535714D01*
X101251009Y-114535714D02*
X101298628Y-114440476D01*
X101298628Y-114440476D02*
X101298628Y-114059524D01*
X101774819Y-115583333D02*
X101774819Y-115011905D01*
X101774819Y-115297619D02*
X100774819Y-115297619D01*
X100774819Y-115297619D02*
X100917676Y-115202381D01*
X100917676Y-115202381D02*
X101012914Y-115107143D01*
X101012914Y-115107143D02*
X101060533Y-115011905D01*
X100774819Y-116488095D02*
X100774819Y-116011905D01*
X100774819Y-116011905D02*
X101251009Y-115964286D01*
X101251009Y-115964286D02*
X101203390Y-116011905D01*
X101203390Y-116011905D02*
X101155771Y-116107143D01*
X101155771Y-116107143D02*
X101155771Y-116345238D01*
X101155771Y-116345238D02*
X101203390Y-116440476D01*
X101203390Y-116440476D02*
X101251009Y-116488095D01*
X101251009Y-116488095D02*
X101346247Y-116535714D01*
X101346247Y-116535714D02*
X101584342Y-116535714D01*
X101584342Y-116535714D02*
X101679580Y-116488095D01*
X101679580Y-116488095D02*
X101727200Y-116440476D01*
X101727200Y-116440476D02*
X101774819Y-116345238D01*
X101774819Y-116345238D02*
X101774819Y-116107143D01*
X101774819Y-116107143D02*
X101727200Y-116011905D01*
X101727200Y-116011905D02*
X101679580Y-115964286D01*
X101774819Y-117488095D02*
X101774819Y-116916667D01*
X101774819Y-117202381D02*
X100774819Y-117202381D01*
X100774819Y-117202381D02*
X100917676Y-117107143D01*
X100917676Y-117107143D02*
X101012914Y-117011905D01*
X101012914Y-117011905D02*
X101060533Y-116916667D01*
X139359580Y-140630952D02*
X139407200Y-140583333D01*
X139407200Y-140583333D02*
X139454819Y-140440476D01*
X139454819Y-140440476D02*
X139454819Y-140345238D01*
X139454819Y-140345238D02*
X139407200Y-140202381D01*
X139407200Y-140202381D02*
X139311961Y-140107143D01*
X139311961Y-140107143D02*
X139216723Y-140059524D01*
X139216723Y-140059524D02*
X139026247Y-140011905D01*
X139026247Y-140011905D02*
X138883390Y-140011905D01*
X138883390Y-140011905D02*
X138692914Y-140059524D01*
X138692914Y-140059524D02*
X138597676Y-140107143D01*
X138597676Y-140107143D02*
X138502438Y-140202381D01*
X138502438Y-140202381D02*
X138454819Y-140345238D01*
X138454819Y-140345238D02*
X138454819Y-140440476D01*
X138454819Y-140440476D02*
X138502438Y-140583333D01*
X138502438Y-140583333D02*
X138550057Y-140630952D01*
X139454819Y-141583333D02*
X139454819Y-141011905D01*
X139454819Y-141297619D02*
X138454819Y-141297619D01*
X138454819Y-141297619D02*
X138597676Y-141202381D01*
X138597676Y-141202381D02*
X138692914Y-141107143D01*
X138692914Y-141107143D02*
X138740533Y-141011905D01*
X138454819Y-142488095D02*
X138454819Y-142011905D01*
X138454819Y-142011905D02*
X138931009Y-141964286D01*
X138931009Y-141964286D02*
X138883390Y-142011905D01*
X138883390Y-142011905D02*
X138835771Y-142107143D01*
X138835771Y-142107143D02*
X138835771Y-142345238D01*
X138835771Y-142345238D02*
X138883390Y-142440476D01*
X138883390Y-142440476D02*
X138931009Y-142488095D01*
X138931009Y-142488095D02*
X139026247Y-142535714D01*
X139026247Y-142535714D02*
X139264342Y-142535714D01*
X139264342Y-142535714D02*
X139359580Y-142488095D01*
X139359580Y-142488095D02*
X139407200Y-142440476D01*
X139407200Y-142440476D02*
X139454819Y-142345238D01*
X139454819Y-142345238D02*
X139454819Y-142107143D01*
X139454819Y-142107143D02*
X139407200Y-142011905D01*
X139407200Y-142011905D02*
X139359580Y-141964286D01*
X139454819Y-143011905D02*
X139454819Y-143202381D01*
X139454819Y-143202381D02*
X139407200Y-143297619D01*
X139407200Y-143297619D02*
X139359580Y-143345238D01*
X139359580Y-143345238D02*
X139216723Y-143440476D01*
X139216723Y-143440476D02*
X139026247Y-143488095D01*
X139026247Y-143488095D02*
X138645295Y-143488095D01*
X138645295Y-143488095D02*
X138550057Y-143440476D01*
X138550057Y-143440476D02*
X138502438Y-143392857D01*
X138502438Y-143392857D02*
X138454819Y-143297619D01*
X138454819Y-143297619D02*
X138454819Y-143107143D01*
X138454819Y-143107143D02*
X138502438Y-143011905D01*
X138502438Y-143011905D02*
X138550057Y-142964286D01*
X138550057Y-142964286D02*
X138645295Y-142916667D01*
X138645295Y-142916667D02*
X138883390Y-142916667D01*
X138883390Y-142916667D02*
X138978628Y-142964286D01*
X138978628Y-142964286D02*
X139026247Y-143011905D01*
X139026247Y-143011905D02*
X139073866Y-143107143D01*
X139073866Y-143107143D02*
X139073866Y-143297619D01*
X139073866Y-143297619D02*
X139026247Y-143392857D01*
X139026247Y-143392857D02*
X138978628Y-143440476D01*
X138978628Y-143440476D02*
X138883390Y-143488095D01*
X119690475Y-134454819D02*
X119690475Y-133454819D01*
X119690475Y-133454819D02*
X119452380Y-133454819D01*
X119452380Y-133454819D02*
X119309523Y-133502438D01*
X119309523Y-133502438D02*
X119214285Y-133597676D01*
X119214285Y-133597676D02*
X119166666Y-133692914D01*
X119166666Y-133692914D02*
X119119047Y-133883390D01*
X119119047Y-133883390D02*
X119119047Y-134026247D01*
X119119047Y-134026247D02*
X119166666Y-134216723D01*
X119166666Y-134216723D02*
X119214285Y-134311961D01*
X119214285Y-134311961D02*
X119309523Y-134407200D01*
X119309523Y-134407200D02*
X119452380Y-134454819D01*
X119452380Y-134454819D02*
X119690475Y-134454819D01*
X118166666Y-134454819D02*
X118738094Y-134454819D01*
X118452380Y-134454819D02*
X118452380Y-133454819D01*
X118452380Y-133454819D02*
X118547618Y-133597676D01*
X118547618Y-133597676D02*
X118642856Y-133692914D01*
X118642856Y-133692914D02*
X118738094Y-133740533D01*
X117214285Y-134454819D02*
X117785713Y-134454819D01*
X117499999Y-134454819D02*
X117499999Y-133454819D01*
X117499999Y-133454819D02*
X117595237Y-133597676D01*
X117595237Y-133597676D02*
X117690475Y-133692914D01*
X117690475Y-133692914D02*
X117785713Y-133740533D01*
X116595237Y-133454819D02*
X116499999Y-133454819D01*
X116499999Y-133454819D02*
X116404761Y-133502438D01*
X116404761Y-133502438D02*
X116357142Y-133550057D01*
X116357142Y-133550057D02*
X116309523Y-133645295D01*
X116309523Y-133645295D02*
X116261904Y-133835771D01*
X116261904Y-133835771D02*
X116261904Y-134073866D01*
X116261904Y-134073866D02*
X116309523Y-134264342D01*
X116309523Y-134264342D02*
X116357142Y-134359580D01*
X116357142Y-134359580D02*
X116404761Y-134407200D01*
X116404761Y-134407200D02*
X116499999Y-134454819D01*
X116499999Y-134454819D02*
X116595237Y-134454819D01*
X116595237Y-134454819D02*
X116690475Y-134407200D01*
X116690475Y-134407200D02*
X116738094Y-134359580D01*
X116738094Y-134359580D02*
X116785713Y-134264342D01*
X116785713Y-134264342D02*
X116833332Y-134073866D01*
X116833332Y-134073866D02*
X116833332Y-133835771D01*
X116833332Y-133835771D02*
X116785713Y-133645295D01*
X116785713Y-133645295D02*
X116738094Y-133550057D01*
X116738094Y-133550057D02*
X116690475Y-133502438D01*
X116690475Y-133502438D02*
X116595237Y-133454819D01*
X122704819Y-115035714D02*
X123514342Y-115035714D01*
X123514342Y-115035714D02*
X123609580Y-115083333D01*
X123609580Y-115083333D02*
X123657200Y-115130952D01*
X123657200Y-115130952D02*
X123704819Y-115226190D01*
X123704819Y-115226190D02*
X123704819Y-115416666D01*
X123704819Y-115416666D02*
X123657200Y-115511904D01*
X123657200Y-115511904D02*
X123609580Y-115559523D01*
X123609580Y-115559523D02*
X123514342Y-115607142D01*
X123514342Y-115607142D02*
X122704819Y-115607142D01*
X123704819Y-116607142D02*
X123704819Y-116035714D01*
X123704819Y-116321428D02*
X122704819Y-116321428D01*
X122704819Y-116321428D02*
X122847676Y-116226190D01*
X122847676Y-116226190D02*
X122942914Y-116130952D01*
X122942914Y-116130952D02*
X122990533Y-116035714D01*
X122704819Y-117226190D02*
X122704819Y-117321428D01*
X122704819Y-117321428D02*
X122752438Y-117416666D01*
X122752438Y-117416666D02*
X122800057Y-117464285D01*
X122800057Y-117464285D02*
X122895295Y-117511904D01*
X122895295Y-117511904D02*
X123085771Y-117559523D01*
X123085771Y-117559523D02*
X123323866Y-117559523D01*
X123323866Y-117559523D02*
X123514342Y-117511904D01*
X123514342Y-117511904D02*
X123609580Y-117464285D01*
X123609580Y-117464285D02*
X123657200Y-117416666D01*
X123657200Y-117416666D02*
X123704819Y-117321428D01*
X123704819Y-117321428D02*
X123704819Y-117226190D01*
X123704819Y-117226190D02*
X123657200Y-117130952D01*
X123657200Y-117130952D02*
X123609580Y-117083333D01*
X123609580Y-117083333D02*
X123514342Y-117035714D01*
X123514342Y-117035714D02*
X123323866Y-116988095D01*
X123323866Y-116988095D02*
X123085771Y-116988095D01*
X123085771Y-116988095D02*
X122895295Y-117035714D01*
X122895295Y-117035714D02*
X122800057Y-117083333D01*
X122800057Y-117083333D02*
X122752438Y-117130952D01*
X122752438Y-117130952D02*
X122704819Y-117226190D01*
X123704819Y-118511904D02*
X123704819Y-117940476D01*
X123704819Y-118226190D02*
X122704819Y-118226190D01*
X122704819Y-118226190D02*
X122847676Y-118130952D01*
X122847676Y-118130952D02*
X122942914Y-118035714D01*
X122942914Y-118035714D02*
X122990533Y-117940476D01*
X121739047Y-148454819D02*
X122072380Y-147978628D01*
X122310475Y-148454819D02*
X122310475Y-147454819D01*
X122310475Y-147454819D02*
X121929523Y-147454819D01*
X121929523Y-147454819D02*
X121834285Y-147502438D01*
X121834285Y-147502438D02*
X121786666Y-147550057D01*
X121786666Y-147550057D02*
X121739047Y-147645295D01*
X121739047Y-147645295D02*
X121739047Y-147788152D01*
X121739047Y-147788152D02*
X121786666Y-147883390D01*
X121786666Y-147883390D02*
X121834285Y-147931009D01*
X121834285Y-147931009D02*
X121929523Y-147978628D01*
X121929523Y-147978628D02*
X122310475Y-147978628D01*
X120786666Y-148454819D02*
X121358094Y-148454819D01*
X121072380Y-148454819D02*
X121072380Y-147454819D01*
X121072380Y-147454819D02*
X121167618Y-147597676D01*
X121167618Y-147597676D02*
X121262856Y-147692914D01*
X121262856Y-147692914D02*
X121358094Y-147740533D01*
X119929523Y-147454819D02*
X120119999Y-147454819D01*
X120119999Y-147454819D02*
X120215237Y-147502438D01*
X120215237Y-147502438D02*
X120262856Y-147550057D01*
X120262856Y-147550057D02*
X120358094Y-147692914D01*
X120358094Y-147692914D02*
X120405713Y-147883390D01*
X120405713Y-147883390D02*
X120405713Y-148264342D01*
X120405713Y-148264342D02*
X120358094Y-148359580D01*
X120358094Y-148359580D02*
X120310475Y-148407200D01*
X120310475Y-148407200D02*
X120215237Y-148454819D01*
X120215237Y-148454819D02*
X120024761Y-148454819D01*
X120024761Y-148454819D02*
X119929523Y-148407200D01*
X119929523Y-148407200D02*
X119881904Y-148359580D01*
X119881904Y-148359580D02*
X119834285Y-148264342D01*
X119834285Y-148264342D02*
X119834285Y-148026247D01*
X119834285Y-148026247D02*
X119881904Y-147931009D01*
X119881904Y-147931009D02*
X119929523Y-147883390D01*
X119929523Y-147883390D02*
X120024761Y-147835771D01*
X120024761Y-147835771D02*
X120215237Y-147835771D01*
X120215237Y-147835771D02*
X120310475Y-147883390D01*
X120310475Y-147883390D02*
X120358094Y-147931009D01*
X120358094Y-147931009D02*
X120405713Y-148026247D01*
X118977142Y-147454819D02*
X119167618Y-147454819D01*
X119167618Y-147454819D02*
X119262856Y-147502438D01*
X119262856Y-147502438D02*
X119310475Y-147550057D01*
X119310475Y-147550057D02*
X119405713Y-147692914D01*
X119405713Y-147692914D02*
X119453332Y-147883390D01*
X119453332Y-147883390D02*
X119453332Y-148264342D01*
X119453332Y-148264342D02*
X119405713Y-148359580D01*
X119405713Y-148359580D02*
X119358094Y-148407200D01*
X119358094Y-148407200D02*
X119262856Y-148454819D01*
X119262856Y-148454819D02*
X119072380Y-148454819D01*
X119072380Y-148454819D02*
X118977142Y-148407200D01*
X118977142Y-148407200D02*
X118929523Y-148359580D01*
X118929523Y-148359580D02*
X118881904Y-148264342D01*
X118881904Y-148264342D02*
X118881904Y-148026247D01*
X118881904Y-148026247D02*
X118929523Y-147931009D01*
X118929523Y-147931009D02*
X118977142Y-147883390D01*
X118977142Y-147883390D02*
X119072380Y-147835771D01*
X119072380Y-147835771D02*
X119262856Y-147835771D01*
X119262856Y-147835771D02*
X119358094Y-147883390D01*
X119358094Y-147883390D02*
X119405713Y-147931009D01*
X119405713Y-147931009D02*
X119453332Y-148026247D01*
X149369047Y-124859580D02*
X149416666Y-124907200D01*
X149416666Y-124907200D02*
X149559523Y-124954819D01*
X149559523Y-124954819D02*
X149654761Y-124954819D01*
X149654761Y-124954819D02*
X149797618Y-124907200D01*
X149797618Y-124907200D02*
X149892856Y-124811961D01*
X149892856Y-124811961D02*
X149940475Y-124716723D01*
X149940475Y-124716723D02*
X149988094Y-124526247D01*
X149988094Y-124526247D02*
X149988094Y-124383390D01*
X149988094Y-124383390D02*
X149940475Y-124192914D01*
X149940475Y-124192914D02*
X149892856Y-124097676D01*
X149892856Y-124097676D02*
X149797618Y-124002438D01*
X149797618Y-124002438D02*
X149654761Y-123954819D01*
X149654761Y-123954819D02*
X149559523Y-123954819D01*
X149559523Y-123954819D02*
X149416666Y-124002438D01*
X149416666Y-124002438D02*
X149369047Y-124050057D01*
X148416666Y-124954819D02*
X148988094Y-124954819D01*
X148702380Y-124954819D02*
X148702380Y-123954819D01*
X148702380Y-123954819D02*
X148797618Y-124097676D01*
X148797618Y-124097676D02*
X148892856Y-124192914D01*
X148892856Y-124192914D02*
X148988094Y-124240533D01*
X147511904Y-123954819D02*
X147988094Y-123954819D01*
X147988094Y-123954819D02*
X148035713Y-124431009D01*
X148035713Y-124431009D02*
X147988094Y-124383390D01*
X147988094Y-124383390D02*
X147892856Y-124335771D01*
X147892856Y-124335771D02*
X147654761Y-124335771D01*
X147654761Y-124335771D02*
X147559523Y-124383390D01*
X147559523Y-124383390D02*
X147511904Y-124431009D01*
X147511904Y-124431009D02*
X147464285Y-124526247D01*
X147464285Y-124526247D02*
X147464285Y-124764342D01*
X147464285Y-124764342D02*
X147511904Y-124859580D01*
X147511904Y-124859580D02*
X147559523Y-124907200D01*
X147559523Y-124907200D02*
X147654761Y-124954819D01*
X147654761Y-124954819D02*
X147892856Y-124954819D01*
X147892856Y-124954819D02*
X147988094Y-124907200D01*
X147988094Y-124907200D02*
X148035713Y-124859580D01*
X146607142Y-123954819D02*
X146797618Y-123954819D01*
X146797618Y-123954819D02*
X146892856Y-124002438D01*
X146892856Y-124002438D02*
X146940475Y-124050057D01*
X146940475Y-124050057D02*
X147035713Y-124192914D01*
X147035713Y-124192914D02*
X147083332Y-124383390D01*
X147083332Y-124383390D02*
X147083332Y-124764342D01*
X147083332Y-124764342D02*
X147035713Y-124859580D01*
X147035713Y-124859580D02*
X146988094Y-124907200D01*
X146988094Y-124907200D02*
X146892856Y-124954819D01*
X146892856Y-124954819D02*
X146702380Y-124954819D01*
X146702380Y-124954819D02*
X146607142Y-124907200D01*
X146607142Y-124907200D02*
X146559523Y-124859580D01*
X146559523Y-124859580D02*
X146511904Y-124764342D01*
X146511904Y-124764342D02*
X146511904Y-124526247D01*
X146511904Y-124526247D02*
X146559523Y-124431009D01*
X146559523Y-124431009D02*
X146607142Y-124383390D01*
X146607142Y-124383390D02*
X146702380Y-124335771D01*
X146702380Y-124335771D02*
X146892856Y-124335771D01*
X146892856Y-124335771D02*
X146988094Y-124383390D01*
X146988094Y-124383390D02*
X147035713Y-124431009D01*
X147035713Y-124431009D02*
X147083332Y-124526247D01*
X118109580Y-122130952D02*
X118157200Y-122083333D01*
X118157200Y-122083333D02*
X118204819Y-121940476D01*
X118204819Y-121940476D02*
X118204819Y-121845238D01*
X118204819Y-121845238D02*
X118157200Y-121702381D01*
X118157200Y-121702381D02*
X118061961Y-121607143D01*
X118061961Y-121607143D02*
X117966723Y-121559524D01*
X117966723Y-121559524D02*
X117776247Y-121511905D01*
X117776247Y-121511905D02*
X117633390Y-121511905D01*
X117633390Y-121511905D02*
X117442914Y-121559524D01*
X117442914Y-121559524D02*
X117347676Y-121607143D01*
X117347676Y-121607143D02*
X117252438Y-121702381D01*
X117252438Y-121702381D02*
X117204819Y-121845238D01*
X117204819Y-121845238D02*
X117204819Y-121940476D01*
X117204819Y-121940476D02*
X117252438Y-122083333D01*
X117252438Y-122083333D02*
X117300057Y-122130952D01*
X118204819Y-123083333D02*
X118204819Y-122511905D01*
X118204819Y-122797619D02*
X117204819Y-122797619D01*
X117204819Y-122797619D02*
X117347676Y-122702381D01*
X117347676Y-122702381D02*
X117442914Y-122607143D01*
X117442914Y-122607143D02*
X117490533Y-122511905D01*
X117204819Y-123416667D02*
X117204819Y-124035714D01*
X117204819Y-124035714D02*
X117585771Y-123702381D01*
X117585771Y-123702381D02*
X117585771Y-123845238D01*
X117585771Y-123845238D02*
X117633390Y-123940476D01*
X117633390Y-123940476D02*
X117681009Y-123988095D01*
X117681009Y-123988095D02*
X117776247Y-124035714D01*
X117776247Y-124035714D02*
X118014342Y-124035714D01*
X118014342Y-124035714D02*
X118109580Y-123988095D01*
X118109580Y-123988095D02*
X118157200Y-123940476D01*
X118157200Y-123940476D02*
X118204819Y-123845238D01*
X118204819Y-123845238D02*
X118204819Y-123559524D01*
X118204819Y-123559524D02*
X118157200Y-123464286D01*
X118157200Y-123464286D02*
X118109580Y-123416667D01*
X117204819Y-124654762D02*
X117204819Y-124750000D01*
X117204819Y-124750000D02*
X117252438Y-124845238D01*
X117252438Y-124845238D02*
X117300057Y-124892857D01*
X117300057Y-124892857D02*
X117395295Y-124940476D01*
X117395295Y-124940476D02*
X117585771Y-124988095D01*
X117585771Y-124988095D02*
X117823866Y-124988095D01*
X117823866Y-124988095D02*
X118014342Y-124940476D01*
X118014342Y-124940476D02*
X118109580Y-124892857D01*
X118109580Y-124892857D02*
X118157200Y-124845238D01*
X118157200Y-124845238D02*
X118204819Y-124750000D01*
X118204819Y-124750000D02*
X118204819Y-124654762D01*
X118204819Y-124654762D02*
X118157200Y-124559524D01*
X118157200Y-124559524D02*
X118109580Y-124511905D01*
X118109580Y-124511905D02*
X118014342Y-124464286D01*
X118014342Y-124464286D02*
X117823866Y-124416667D01*
X117823866Y-124416667D02*
X117585771Y-124416667D01*
X117585771Y-124416667D02*
X117395295Y-124464286D01*
X117395295Y-124464286D02*
X117300057Y-124511905D01*
X117300057Y-124511905D02*
X117252438Y-124559524D01*
X117252438Y-124559524D02*
X117204819Y-124654762D01*
X149369047Y-122859580D02*
X149416666Y-122907200D01*
X149416666Y-122907200D02*
X149559523Y-122954819D01*
X149559523Y-122954819D02*
X149654761Y-122954819D01*
X149654761Y-122954819D02*
X149797618Y-122907200D01*
X149797618Y-122907200D02*
X149892856Y-122811961D01*
X149892856Y-122811961D02*
X149940475Y-122716723D01*
X149940475Y-122716723D02*
X149988094Y-122526247D01*
X149988094Y-122526247D02*
X149988094Y-122383390D01*
X149988094Y-122383390D02*
X149940475Y-122192914D01*
X149940475Y-122192914D02*
X149892856Y-122097676D01*
X149892856Y-122097676D02*
X149797618Y-122002438D01*
X149797618Y-122002438D02*
X149654761Y-121954819D01*
X149654761Y-121954819D02*
X149559523Y-121954819D01*
X149559523Y-121954819D02*
X149416666Y-122002438D01*
X149416666Y-122002438D02*
X149369047Y-122050057D01*
X148416666Y-122954819D02*
X148988094Y-122954819D01*
X148702380Y-122954819D02*
X148702380Y-121954819D01*
X148702380Y-121954819D02*
X148797618Y-122097676D01*
X148797618Y-122097676D02*
X148892856Y-122192914D01*
X148892856Y-122192914D02*
X148988094Y-122240533D01*
X147511904Y-121954819D02*
X147988094Y-121954819D01*
X147988094Y-121954819D02*
X148035713Y-122431009D01*
X148035713Y-122431009D02*
X147988094Y-122383390D01*
X147988094Y-122383390D02*
X147892856Y-122335771D01*
X147892856Y-122335771D02*
X147654761Y-122335771D01*
X147654761Y-122335771D02*
X147559523Y-122383390D01*
X147559523Y-122383390D02*
X147511904Y-122431009D01*
X147511904Y-122431009D02*
X147464285Y-122526247D01*
X147464285Y-122526247D02*
X147464285Y-122764342D01*
X147464285Y-122764342D02*
X147511904Y-122859580D01*
X147511904Y-122859580D02*
X147559523Y-122907200D01*
X147559523Y-122907200D02*
X147654761Y-122954819D01*
X147654761Y-122954819D02*
X147892856Y-122954819D01*
X147892856Y-122954819D02*
X147988094Y-122907200D01*
X147988094Y-122907200D02*
X148035713Y-122859580D01*
X146607142Y-122288152D02*
X146607142Y-122954819D01*
X146845237Y-121907200D02*
X147083332Y-122621485D01*
X147083332Y-122621485D02*
X146464285Y-122621485D01*
X124882080Y-110118452D02*
X124929700Y-110070833D01*
X124929700Y-110070833D02*
X124977319Y-109927976D01*
X124977319Y-109927976D02*
X124977319Y-109832738D01*
X124977319Y-109832738D02*
X124929700Y-109689881D01*
X124929700Y-109689881D02*
X124834461Y-109594643D01*
X124834461Y-109594643D02*
X124739223Y-109547024D01*
X124739223Y-109547024D02*
X124548747Y-109499405D01*
X124548747Y-109499405D02*
X124405890Y-109499405D01*
X124405890Y-109499405D02*
X124215414Y-109547024D01*
X124215414Y-109547024D02*
X124120176Y-109594643D01*
X124120176Y-109594643D02*
X124024938Y-109689881D01*
X124024938Y-109689881D02*
X123977319Y-109832738D01*
X123977319Y-109832738D02*
X123977319Y-109927976D01*
X123977319Y-109927976D02*
X124024938Y-110070833D01*
X124024938Y-110070833D02*
X124072557Y-110118452D01*
X124977319Y-111070833D02*
X124977319Y-110499405D01*
X124977319Y-110785119D02*
X123977319Y-110785119D01*
X123977319Y-110785119D02*
X124120176Y-110689881D01*
X124120176Y-110689881D02*
X124215414Y-110594643D01*
X124215414Y-110594643D02*
X124263033Y-110499405D01*
X124310652Y-111927976D02*
X124977319Y-111927976D01*
X123929700Y-111689881D02*
X124643985Y-111451786D01*
X124643985Y-111451786D02*
X124643985Y-112070833D01*
X124310652Y-112880357D02*
X124977319Y-112880357D01*
X123929700Y-112642262D02*
X124643985Y-112404167D01*
X124643985Y-112404167D02*
X124643985Y-113023214D01*
X167619047Y-123867319D02*
X167952380Y-123391128D01*
X168190475Y-123867319D02*
X168190475Y-122867319D01*
X168190475Y-122867319D02*
X167809523Y-122867319D01*
X167809523Y-122867319D02*
X167714285Y-122914938D01*
X167714285Y-122914938D02*
X167666666Y-122962557D01*
X167666666Y-122962557D02*
X167619047Y-123057795D01*
X167619047Y-123057795D02*
X167619047Y-123200652D01*
X167619047Y-123200652D02*
X167666666Y-123295890D01*
X167666666Y-123295890D02*
X167714285Y-123343509D01*
X167714285Y-123343509D02*
X167809523Y-123391128D01*
X167809523Y-123391128D02*
X168190475Y-123391128D01*
X166666666Y-123867319D02*
X167238094Y-123867319D01*
X166952380Y-123867319D02*
X166952380Y-122867319D01*
X166952380Y-122867319D02*
X167047618Y-123010176D01*
X167047618Y-123010176D02*
X167142856Y-123105414D01*
X167142856Y-123105414D02*
X167238094Y-123153033D01*
X166285713Y-122962557D02*
X166238094Y-122914938D01*
X166238094Y-122914938D02*
X166142856Y-122867319D01*
X166142856Y-122867319D02*
X165904761Y-122867319D01*
X165904761Y-122867319D02*
X165809523Y-122914938D01*
X165809523Y-122914938D02*
X165761904Y-122962557D01*
X165761904Y-122962557D02*
X165714285Y-123057795D01*
X165714285Y-123057795D02*
X165714285Y-123153033D01*
X165714285Y-123153033D02*
X165761904Y-123295890D01*
X165761904Y-123295890D02*
X166333332Y-123867319D01*
X166333332Y-123867319D02*
X165714285Y-123867319D01*
X164809523Y-122867319D02*
X165285713Y-122867319D01*
X165285713Y-122867319D02*
X165333332Y-123343509D01*
X165333332Y-123343509D02*
X165285713Y-123295890D01*
X165285713Y-123295890D02*
X165190475Y-123248271D01*
X165190475Y-123248271D02*
X164952380Y-123248271D01*
X164952380Y-123248271D02*
X164857142Y-123295890D01*
X164857142Y-123295890D02*
X164809523Y-123343509D01*
X164809523Y-123343509D02*
X164761904Y-123438747D01*
X164761904Y-123438747D02*
X164761904Y-123676842D01*
X164761904Y-123676842D02*
X164809523Y-123772080D01*
X164809523Y-123772080D02*
X164857142Y-123819700D01*
X164857142Y-123819700D02*
X164952380Y-123867319D01*
X164952380Y-123867319D02*
X165190475Y-123867319D01*
X165190475Y-123867319D02*
X165285713Y-123819700D01*
X165285713Y-123819700D02*
X165333332Y-123772080D01*
X143119047Y-134609580D02*
X143166666Y-134657200D01*
X143166666Y-134657200D02*
X143309523Y-134704819D01*
X143309523Y-134704819D02*
X143404761Y-134704819D01*
X143404761Y-134704819D02*
X143547618Y-134657200D01*
X143547618Y-134657200D02*
X143642856Y-134561961D01*
X143642856Y-134561961D02*
X143690475Y-134466723D01*
X143690475Y-134466723D02*
X143738094Y-134276247D01*
X143738094Y-134276247D02*
X143738094Y-134133390D01*
X143738094Y-134133390D02*
X143690475Y-133942914D01*
X143690475Y-133942914D02*
X143642856Y-133847676D01*
X143642856Y-133847676D02*
X143547618Y-133752438D01*
X143547618Y-133752438D02*
X143404761Y-133704819D01*
X143404761Y-133704819D02*
X143309523Y-133704819D01*
X143309523Y-133704819D02*
X143166666Y-133752438D01*
X143166666Y-133752438D02*
X143119047Y-133800057D01*
X142166666Y-134704819D02*
X142738094Y-134704819D01*
X142452380Y-134704819D02*
X142452380Y-133704819D01*
X142452380Y-133704819D02*
X142547618Y-133847676D01*
X142547618Y-133847676D02*
X142642856Y-133942914D01*
X142642856Y-133942914D02*
X142738094Y-133990533D01*
X141261904Y-133704819D02*
X141738094Y-133704819D01*
X141738094Y-133704819D02*
X141785713Y-134181009D01*
X141785713Y-134181009D02*
X141738094Y-134133390D01*
X141738094Y-134133390D02*
X141642856Y-134085771D01*
X141642856Y-134085771D02*
X141404761Y-134085771D01*
X141404761Y-134085771D02*
X141309523Y-134133390D01*
X141309523Y-134133390D02*
X141261904Y-134181009D01*
X141261904Y-134181009D02*
X141214285Y-134276247D01*
X141214285Y-134276247D02*
X141214285Y-134514342D01*
X141214285Y-134514342D02*
X141261904Y-134609580D01*
X141261904Y-134609580D02*
X141309523Y-134657200D01*
X141309523Y-134657200D02*
X141404761Y-134704819D01*
X141404761Y-134704819D02*
X141642856Y-134704819D01*
X141642856Y-134704819D02*
X141738094Y-134657200D01*
X141738094Y-134657200D02*
X141785713Y-134609580D01*
X140880951Y-133704819D02*
X140261904Y-133704819D01*
X140261904Y-133704819D02*
X140595237Y-134085771D01*
X140595237Y-134085771D02*
X140452380Y-134085771D01*
X140452380Y-134085771D02*
X140357142Y-134133390D01*
X140357142Y-134133390D02*
X140309523Y-134181009D01*
X140309523Y-134181009D02*
X140261904Y-134276247D01*
X140261904Y-134276247D02*
X140261904Y-134514342D01*
X140261904Y-134514342D02*
X140309523Y-134609580D01*
X140309523Y-134609580D02*
X140357142Y-134657200D01*
X140357142Y-134657200D02*
X140452380Y-134704819D01*
X140452380Y-134704819D02*
X140738094Y-134704819D01*
X140738094Y-134704819D02*
X140833332Y-134657200D01*
X140833332Y-134657200D02*
X140880951Y-134609580D01*
X127954819Y-129380952D02*
X127478628Y-129047619D01*
X127954819Y-128809524D02*
X126954819Y-128809524D01*
X126954819Y-128809524D02*
X126954819Y-129190476D01*
X126954819Y-129190476D02*
X127002438Y-129285714D01*
X127002438Y-129285714D02*
X127050057Y-129333333D01*
X127050057Y-129333333D02*
X127145295Y-129380952D01*
X127145295Y-129380952D02*
X127288152Y-129380952D01*
X127288152Y-129380952D02*
X127383390Y-129333333D01*
X127383390Y-129333333D02*
X127431009Y-129285714D01*
X127431009Y-129285714D02*
X127478628Y-129190476D01*
X127478628Y-129190476D02*
X127478628Y-128809524D01*
X127954819Y-130333333D02*
X127954819Y-129761905D01*
X127954819Y-130047619D02*
X126954819Y-130047619D01*
X126954819Y-130047619D02*
X127097676Y-129952381D01*
X127097676Y-129952381D02*
X127192914Y-129857143D01*
X127192914Y-129857143D02*
X127240533Y-129761905D01*
X127050057Y-130714286D02*
X127002438Y-130761905D01*
X127002438Y-130761905D02*
X126954819Y-130857143D01*
X126954819Y-130857143D02*
X126954819Y-131095238D01*
X126954819Y-131095238D02*
X127002438Y-131190476D01*
X127002438Y-131190476D02*
X127050057Y-131238095D01*
X127050057Y-131238095D02*
X127145295Y-131285714D01*
X127145295Y-131285714D02*
X127240533Y-131285714D01*
X127240533Y-131285714D02*
X127383390Y-131238095D01*
X127383390Y-131238095D02*
X127954819Y-130666667D01*
X127954819Y-130666667D02*
X127954819Y-131285714D01*
X127954819Y-131761905D02*
X127954819Y-131952381D01*
X127954819Y-131952381D02*
X127907200Y-132047619D01*
X127907200Y-132047619D02*
X127859580Y-132095238D01*
X127859580Y-132095238D02*
X127716723Y-132190476D01*
X127716723Y-132190476D02*
X127526247Y-132238095D01*
X127526247Y-132238095D02*
X127145295Y-132238095D01*
X127145295Y-132238095D02*
X127050057Y-132190476D01*
X127050057Y-132190476D02*
X127002438Y-132142857D01*
X127002438Y-132142857D02*
X126954819Y-132047619D01*
X126954819Y-132047619D02*
X126954819Y-131857143D01*
X126954819Y-131857143D02*
X127002438Y-131761905D01*
X127002438Y-131761905D02*
X127050057Y-131714286D01*
X127050057Y-131714286D02*
X127145295Y-131666667D01*
X127145295Y-131666667D02*
X127383390Y-131666667D01*
X127383390Y-131666667D02*
X127478628Y-131714286D01*
X127478628Y-131714286D02*
X127526247Y-131761905D01*
X127526247Y-131761905D02*
X127573866Y-131857143D01*
X127573866Y-131857143D02*
X127573866Y-132047619D01*
X127573866Y-132047619D02*
X127526247Y-132142857D01*
X127526247Y-132142857D02*
X127478628Y-132190476D01*
X127478628Y-132190476D02*
X127383390Y-132238095D01*
X122050057Y-143202380D02*
X122002438Y-143107142D01*
X122002438Y-143107142D02*
X121907200Y-143011904D01*
X121907200Y-143011904D02*
X121764342Y-142869047D01*
X121764342Y-142869047D02*
X121716723Y-142773809D01*
X121716723Y-142773809D02*
X121716723Y-142678571D01*
X121954819Y-142726190D02*
X121907200Y-142630952D01*
X121907200Y-142630952D02*
X121811961Y-142535714D01*
X121811961Y-142535714D02*
X121621485Y-142488095D01*
X121621485Y-142488095D02*
X121288152Y-142488095D01*
X121288152Y-142488095D02*
X121097676Y-142535714D01*
X121097676Y-142535714D02*
X121002438Y-142630952D01*
X121002438Y-142630952D02*
X120954819Y-142726190D01*
X120954819Y-142726190D02*
X120954819Y-142916666D01*
X120954819Y-142916666D02*
X121002438Y-143011904D01*
X121002438Y-143011904D02*
X121097676Y-143107142D01*
X121097676Y-143107142D02*
X121288152Y-143154761D01*
X121288152Y-143154761D02*
X121621485Y-143154761D01*
X121621485Y-143154761D02*
X121811961Y-143107142D01*
X121811961Y-143107142D02*
X121907200Y-143011904D01*
X121907200Y-143011904D02*
X121954819Y-142916666D01*
X121954819Y-142916666D02*
X121954819Y-142726190D01*
X121954819Y-144107142D02*
X121954819Y-143535714D01*
X121954819Y-143821428D02*
X120954819Y-143821428D01*
X120954819Y-143821428D02*
X121097676Y-143726190D01*
X121097676Y-143726190D02*
X121192914Y-143630952D01*
X121192914Y-143630952D02*
X121240533Y-143535714D01*
X120954819Y-144726190D02*
X120954819Y-144821428D01*
X120954819Y-144821428D02*
X121002438Y-144916666D01*
X121002438Y-144916666D02*
X121050057Y-144964285D01*
X121050057Y-144964285D02*
X121145295Y-145011904D01*
X121145295Y-145011904D02*
X121335771Y-145059523D01*
X121335771Y-145059523D02*
X121573866Y-145059523D01*
X121573866Y-145059523D02*
X121764342Y-145011904D01*
X121764342Y-145011904D02*
X121859580Y-144964285D01*
X121859580Y-144964285D02*
X121907200Y-144916666D01*
X121907200Y-144916666D02*
X121954819Y-144821428D01*
X121954819Y-144821428D02*
X121954819Y-144726190D01*
X121954819Y-144726190D02*
X121907200Y-144630952D01*
X121907200Y-144630952D02*
X121859580Y-144583333D01*
X121859580Y-144583333D02*
X121764342Y-144535714D01*
X121764342Y-144535714D02*
X121573866Y-144488095D01*
X121573866Y-144488095D02*
X121335771Y-144488095D01*
X121335771Y-144488095D02*
X121145295Y-144535714D01*
X121145295Y-144535714D02*
X121050057Y-144583333D01*
X121050057Y-144583333D02*
X121002438Y-144630952D01*
X121002438Y-144630952D02*
X120954819Y-144726190D01*
X121954819Y-146011904D02*
X121954819Y-145440476D01*
X121954819Y-145726190D02*
X120954819Y-145726190D01*
X120954819Y-145726190D02*
X121097676Y-145630952D01*
X121097676Y-145630952D02*
X121192914Y-145535714D01*
X121192914Y-145535714D02*
X121240533Y-145440476D01*
X112519047Y-123454819D02*
X112852380Y-122978628D01*
X113090475Y-123454819D02*
X113090475Y-122454819D01*
X113090475Y-122454819D02*
X112709523Y-122454819D01*
X112709523Y-122454819D02*
X112614285Y-122502438D01*
X112614285Y-122502438D02*
X112566666Y-122550057D01*
X112566666Y-122550057D02*
X112519047Y-122645295D01*
X112519047Y-122645295D02*
X112519047Y-122788152D01*
X112519047Y-122788152D02*
X112566666Y-122883390D01*
X112566666Y-122883390D02*
X112614285Y-122931009D01*
X112614285Y-122931009D02*
X112709523Y-122978628D01*
X112709523Y-122978628D02*
X113090475Y-122978628D01*
X111566666Y-123454819D02*
X112138094Y-123454819D01*
X111852380Y-123454819D02*
X111852380Y-122454819D01*
X111852380Y-122454819D02*
X111947618Y-122597676D01*
X111947618Y-122597676D02*
X112042856Y-122692914D01*
X112042856Y-122692914D02*
X112138094Y-122740533D01*
X110661904Y-122454819D02*
X111138094Y-122454819D01*
X111138094Y-122454819D02*
X111185713Y-122931009D01*
X111185713Y-122931009D02*
X111138094Y-122883390D01*
X111138094Y-122883390D02*
X111042856Y-122835771D01*
X111042856Y-122835771D02*
X110804761Y-122835771D01*
X110804761Y-122835771D02*
X110709523Y-122883390D01*
X110709523Y-122883390D02*
X110661904Y-122931009D01*
X110661904Y-122931009D02*
X110614285Y-123026247D01*
X110614285Y-123026247D02*
X110614285Y-123264342D01*
X110614285Y-123264342D02*
X110661904Y-123359580D01*
X110661904Y-123359580D02*
X110709523Y-123407200D01*
X110709523Y-123407200D02*
X110804761Y-123454819D01*
X110804761Y-123454819D02*
X111042856Y-123454819D01*
X111042856Y-123454819D02*
X111138094Y-123407200D01*
X111138094Y-123407200D02*
X111185713Y-123359580D01*
X110280951Y-122454819D02*
X109661904Y-122454819D01*
X109661904Y-122454819D02*
X109995237Y-122835771D01*
X109995237Y-122835771D02*
X109852380Y-122835771D01*
X109852380Y-122835771D02*
X109757142Y-122883390D01*
X109757142Y-122883390D02*
X109709523Y-122931009D01*
X109709523Y-122931009D02*
X109661904Y-123026247D01*
X109661904Y-123026247D02*
X109661904Y-123264342D01*
X109661904Y-123264342D02*
X109709523Y-123359580D01*
X109709523Y-123359580D02*
X109757142Y-123407200D01*
X109757142Y-123407200D02*
X109852380Y-123454819D01*
X109852380Y-123454819D02*
X110138094Y-123454819D01*
X110138094Y-123454819D02*
X110233332Y-123407200D01*
X110233332Y-123407200D02*
X110280951Y-123359580D01*
X148119047Y-137454819D02*
X148452380Y-136978628D01*
X148690475Y-137454819D02*
X148690475Y-136454819D01*
X148690475Y-136454819D02*
X148309523Y-136454819D01*
X148309523Y-136454819D02*
X148214285Y-136502438D01*
X148214285Y-136502438D02*
X148166666Y-136550057D01*
X148166666Y-136550057D02*
X148119047Y-136645295D01*
X148119047Y-136645295D02*
X148119047Y-136788152D01*
X148119047Y-136788152D02*
X148166666Y-136883390D01*
X148166666Y-136883390D02*
X148214285Y-136931009D01*
X148214285Y-136931009D02*
X148309523Y-136978628D01*
X148309523Y-136978628D02*
X148690475Y-136978628D01*
X147166666Y-137454819D02*
X147738094Y-137454819D01*
X147452380Y-137454819D02*
X147452380Y-136454819D01*
X147452380Y-136454819D02*
X147547618Y-136597676D01*
X147547618Y-136597676D02*
X147642856Y-136692914D01*
X147642856Y-136692914D02*
X147738094Y-136740533D01*
X146261904Y-136454819D02*
X146738094Y-136454819D01*
X146738094Y-136454819D02*
X146785713Y-136931009D01*
X146785713Y-136931009D02*
X146738094Y-136883390D01*
X146738094Y-136883390D02*
X146642856Y-136835771D01*
X146642856Y-136835771D02*
X146404761Y-136835771D01*
X146404761Y-136835771D02*
X146309523Y-136883390D01*
X146309523Y-136883390D02*
X146261904Y-136931009D01*
X146261904Y-136931009D02*
X146214285Y-137026247D01*
X146214285Y-137026247D02*
X146214285Y-137264342D01*
X146214285Y-137264342D02*
X146261904Y-137359580D01*
X146261904Y-137359580D02*
X146309523Y-137407200D01*
X146309523Y-137407200D02*
X146404761Y-137454819D01*
X146404761Y-137454819D02*
X146642856Y-137454819D01*
X146642856Y-137454819D02*
X146738094Y-137407200D01*
X146738094Y-137407200D02*
X146785713Y-137359580D01*
X145595237Y-136454819D02*
X145499999Y-136454819D01*
X145499999Y-136454819D02*
X145404761Y-136502438D01*
X145404761Y-136502438D02*
X145357142Y-136550057D01*
X145357142Y-136550057D02*
X145309523Y-136645295D01*
X145309523Y-136645295D02*
X145261904Y-136835771D01*
X145261904Y-136835771D02*
X145261904Y-137073866D01*
X145261904Y-137073866D02*
X145309523Y-137264342D01*
X145309523Y-137264342D02*
X145357142Y-137359580D01*
X145357142Y-137359580D02*
X145404761Y-137407200D01*
X145404761Y-137407200D02*
X145499999Y-137454819D01*
X145499999Y-137454819D02*
X145595237Y-137454819D01*
X145595237Y-137454819D02*
X145690475Y-137407200D01*
X145690475Y-137407200D02*
X145738094Y-137359580D01*
X145738094Y-137359580D02*
X145785713Y-137264342D01*
X145785713Y-137264342D02*
X145833332Y-137073866D01*
X145833332Y-137073866D02*
X145833332Y-136835771D01*
X145833332Y-136835771D02*
X145785713Y-136645295D01*
X145785713Y-136645295D02*
X145738094Y-136550057D01*
X145738094Y-136550057D02*
X145690475Y-136502438D01*
X145690475Y-136502438D02*
X145595237Y-136454819D01*
X131119047Y-128109580D02*
X131166666Y-128157200D01*
X131166666Y-128157200D02*
X131309523Y-128204819D01*
X131309523Y-128204819D02*
X131404761Y-128204819D01*
X131404761Y-128204819D02*
X131547618Y-128157200D01*
X131547618Y-128157200D02*
X131642856Y-128061961D01*
X131642856Y-128061961D02*
X131690475Y-127966723D01*
X131690475Y-127966723D02*
X131738094Y-127776247D01*
X131738094Y-127776247D02*
X131738094Y-127633390D01*
X131738094Y-127633390D02*
X131690475Y-127442914D01*
X131690475Y-127442914D02*
X131642856Y-127347676D01*
X131642856Y-127347676D02*
X131547618Y-127252438D01*
X131547618Y-127252438D02*
X131404761Y-127204819D01*
X131404761Y-127204819D02*
X131309523Y-127204819D01*
X131309523Y-127204819D02*
X131166666Y-127252438D01*
X131166666Y-127252438D02*
X131119047Y-127300057D01*
X130166666Y-128204819D02*
X130738094Y-128204819D01*
X130452380Y-128204819D02*
X130452380Y-127204819D01*
X130452380Y-127204819D02*
X130547618Y-127347676D01*
X130547618Y-127347676D02*
X130642856Y-127442914D01*
X130642856Y-127442914D02*
X130738094Y-127490533D01*
X129833332Y-127204819D02*
X129214285Y-127204819D01*
X129214285Y-127204819D02*
X129547618Y-127585771D01*
X129547618Y-127585771D02*
X129404761Y-127585771D01*
X129404761Y-127585771D02*
X129309523Y-127633390D01*
X129309523Y-127633390D02*
X129261904Y-127681009D01*
X129261904Y-127681009D02*
X129214285Y-127776247D01*
X129214285Y-127776247D02*
X129214285Y-128014342D01*
X129214285Y-128014342D02*
X129261904Y-128109580D01*
X129261904Y-128109580D02*
X129309523Y-128157200D01*
X129309523Y-128157200D02*
X129404761Y-128204819D01*
X129404761Y-128204819D02*
X129690475Y-128204819D01*
X129690475Y-128204819D02*
X129785713Y-128157200D01*
X129785713Y-128157200D02*
X129833332Y-128109580D01*
X128880951Y-127204819D02*
X128261904Y-127204819D01*
X128261904Y-127204819D02*
X128595237Y-127585771D01*
X128595237Y-127585771D02*
X128452380Y-127585771D01*
X128452380Y-127585771D02*
X128357142Y-127633390D01*
X128357142Y-127633390D02*
X128309523Y-127681009D01*
X128309523Y-127681009D02*
X128261904Y-127776247D01*
X128261904Y-127776247D02*
X128261904Y-128014342D01*
X128261904Y-128014342D02*
X128309523Y-128109580D01*
X128309523Y-128109580D02*
X128357142Y-128157200D01*
X128357142Y-128157200D02*
X128452380Y-128204819D01*
X128452380Y-128204819D02*
X128738094Y-128204819D01*
X128738094Y-128204819D02*
X128833332Y-128157200D01*
X128833332Y-128157200D02*
X128880951Y-128109580D01*
X132369047Y-137609580D02*
X132416666Y-137657200D01*
X132416666Y-137657200D02*
X132559523Y-137704819D01*
X132559523Y-137704819D02*
X132654761Y-137704819D01*
X132654761Y-137704819D02*
X132797618Y-137657200D01*
X132797618Y-137657200D02*
X132892856Y-137561961D01*
X132892856Y-137561961D02*
X132940475Y-137466723D01*
X132940475Y-137466723D02*
X132988094Y-137276247D01*
X132988094Y-137276247D02*
X132988094Y-137133390D01*
X132988094Y-137133390D02*
X132940475Y-136942914D01*
X132940475Y-136942914D02*
X132892856Y-136847676D01*
X132892856Y-136847676D02*
X132797618Y-136752438D01*
X132797618Y-136752438D02*
X132654761Y-136704819D01*
X132654761Y-136704819D02*
X132559523Y-136704819D01*
X132559523Y-136704819D02*
X132416666Y-136752438D01*
X132416666Y-136752438D02*
X132369047Y-136800057D01*
X131416666Y-137704819D02*
X131988094Y-137704819D01*
X131702380Y-137704819D02*
X131702380Y-136704819D01*
X131702380Y-136704819D02*
X131797618Y-136847676D01*
X131797618Y-136847676D02*
X131892856Y-136942914D01*
X131892856Y-136942914D02*
X131988094Y-136990533D01*
X130511904Y-136704819D02*
X130988094Y-136704819D01*
X130988094Y-136704819D02*
X131035713Y-137181009D01*
X131035713Y-137181009D02*
X130988094Y-137133390D01*
X130988094Y-137133390D02*
X130892856Y-137085771D01*
X130892856Y-137085771D02*
X130654761Y-137085771D01*
X130654761Y-137085771D02*
X130559523Y-137133390D01*
X130559523Y-137133390D02*
X130511904Y-137181009D01*
X130511904Y-137181009D02*
X130464285Y-137276247D01*
X130464285Y-137276247D02*
X130464285Y-137514342D01*
X130464285Y-137514342D02*
X130511904Y-137609580D01*
X130511904Y-137609580D02*
X130559523Y-137657200D01*
X130559523Y-137657200D02*
X130654761Y-137704819D01*
X130654761Y-137704819D02*
X130892856Y-137704819D01*
X130892856Y-137704819D02*
X130988094Y-137657200D01*
X130988094Y-137657200D02*
X131035713Y-137609580D01*
X130083332Y-136800057D02*
X130035713Y-136752438D01*
X130035713Y-136752438D02*
X129940475Y-136704819D01*
X129940475Y-136704819D02*
X129702380Y-136704819D01*
X129702380Y-136704819D02*
X129607142Y-136752438D01*
X129607142Y-136752438D02*
X129559523Y-136800057D01*
X129559523Y-136800057D02*
X129511904Y-136895295D01*
X129511904Y-136895295D02*
X129511904Y-136990533D01*
X129511904Y-136990533D02*
X129559523Y-137133390D01*
X129559523Y-137133390D02*
X130130951Y-137704819D01*
X130130951Y-137704819D02*
X129511904Y-137704819D01*
X125454819Y-135380952D02*
X124978628Y-135047619D01*
X125454819Y-134809524D02*
X124454819Y-134809524D01*
X124454819Y-134809524D02*
X124454819Y-135190476D01*
X124454819Y-135190476D02*
X124502438Y-135285714D01*
X124502438Y-135285714D02*
X124550057Y-135333333D01*
X124550057Y-135333333D02*
X124645295Y-135380952D01*
X124645295Y-135380952D02*
X124788152Y-135380952D01*
X124788152Y-135380952D02*
X124883390Y-135333333D01*
X124883390Y-135333333D02*
X124931009Y-135285714D01*
X124931009Y-135285714D02*
X124978628Y-135190476D01*
X124978628Y-135190476D02*
X124978628Y-134809524D01*
X125454819Y-136333333D02*
X125454819Y-135761905D01*
X125454819Y-136047619D02*
X124454819Y-136047619D01*
X124454819Y-136047619D02*
X124597676Y-135952381D01*
X124597676Y-135952381D02*
X124692914Y-135857143D01*
X124692914Y-135857143D02*
X124740533Y-135761905D01*
X124454819Y-137190476D02*
X124454819Y-137000000D01*
X124454819Y-137000000D02*
X124502438Y-136904762D01*
X124502438Y-136904762D02*
X124550057Y-136857143D01*
X124550057Y-136857143D02*
X124692914Y-136761905D01*
X124692914Y-136761905D02*
X124883390Y-136714286D01*
X124883390Y-136714286D02*
X125264342Y-136714286D01*
X125264342Y-136714286D02*
X125359580Y-136761905D01*
X125359580Y-136761905D02*
X125407200Y-136809524D01*
X125407200Y-136809524D02*
X125454819Y-136904762D01*
X125454819Y-136904762D02*
X125454819Y-137095238D01*
X125454819Y-137095238D02*
X125407200Y-137190476D01*
X125407200Y-137190476D02*
X125359580Y-137238095D01*
X125359580Y-137238095D02*
X125264342Y-137285714D01*
X125264342Y-137285714D02*
X125026247Y-137285714D01*
X125026247Y-137285714D02*
X124931009Y-137238095D01*
X124931009Y-137238095D02*
X124883390Y-137190476D01*
X124883390Y-137190476D02*
X124835771Y-137095238D01*
X124835771Y-137095238D02*
X124835771Y-136904762D01*
X124835771Y-136904762D02*
X124883390Y-136809524D01*
X124883390Y-136809524D02*
X124931009Y-136761905D01*
X124931009Y-136761905D02*
X125026247Y-136714286D01*
X124454819Y-137619048D02*
X124454819Y-138238095D01*
X124454819Y-138238095D02*
X124835771Y-137904762D01*
X124835771Y-137904762D02*
X124835771Y-138047619D01*
X124835771Y-138047619D02*
X124883390Y-138142857D01*
X124883390Y-138142857D02*
X124931009Y-138190476D01*
X124931009Y-138190476D02*
X125026247Y-138238095D01*
X125026247Y-138238095D02*
X125264342Y-138238095D01*
X125264342Y-138238095D02*
X125359580Y-138190476D01*
X125359580Y-138190476D02*
X125407200Y-138142857D01*
X125407200Y-138142857D02*
X125454819Y-138047619D01*
X125454819Y-138047619D02*
X125454819Y-137761905D01*
X125454819Y-137761905D02*
X125407200Y-137666667D01*
X125407200Y-137666667D02*
X125359580Y-137619048D01*
X149369047Y-128359580D02*
X149416666Y-128407200D01*
X149416666Y-128407200D02*
X149559523Y-128454819D01*
X149559523Y-128454819D02*
X149654761Y-128454819D01*
X149654761Y-128454819D02*
X149797618Y-128407200D01*
X149797618Y-128407200D02*
X149892856Y-128311961D01*
X149892856Y-128311961D02*
X149940475Y-128216723D01*
X149940475Y-128216723D02*
X149988094Y-128026247D01*
X149988094Y-128026247D02*
X149988094Y-127883390D01*
X149988094Y-127883390D02*
X149940475Y-127692914D01*
X149940475Y-127692914D02*
X149892856Y-127597676D01*
X149892856Y-127597676D02*
X149797618Y-127502438D01*
X149797618Y-127502438D02*
X149654761Y-127454819D01*
X149654761Y-127454819D02*
X149559523Y-127454819D01*
X149559523Y-127454819D02*
X149416666Y-127502438D01*
X149416666Y-127502438D02*
X149369047Y-127550057D01*
X148416666Y-128454819D02*
X148988094Y-128454819D01*
X148702380Y-128454819D02*
X148702380Y-127454819D01*
X148702380Y-127454819D02*
X148797618Y-127597676D01*
X148797618Y-127597676D02*
X148892856Y-127692914D01*
X148892856Y-127692914D02*
X148988094Y-127740533D01*
X147559523Y-127788152D02*
X147559523Y-128454819D01*
X147797618Y-127407200D02*
X148035713Y-128121485D01*
X148035713Y-128121485D02*
X147416666Y-128121485D01*
X146892856Y-127883390D02*
X146988094Y-127835771D01*
X146988094Y-127835771D02*
X147035713Y-127788152D01*
X147035713Y-127788152D02*
X147083332Y-127692914D01*
X147083332Y-127692914D02*
X147083332Y-127645295D01*
X147083332Y-127645295D02*
X147035713Y-127550057D01*
X147035713Y-127550057D02*
X146988094Y-127502438D01*
X146988094Y-127502438D02*
X146892856Y-127454819D01*
X146892856Y-127454819D02*
X146702380Y-127454819D01*
X146702380Y-127454819D02*
X146607142Y-127502438D01*
X146607142Y-127502438D02*
X146559523Y-127550057D01*
X146559523Y-127550057D02*
X146511904Y-127645295D01*
X146511904Y-127645295D02*
X146511904Y-127692914D01*
X146511904Y-127692914D02*
X146559523Y-127788152D01*
X146559523Y-127788152D02*
X146607142Y-127835771D01*
X146607142Y-127835771D02*
X146702380Y-127883390D01*
X146702380Y-127883390D02*
X146892856Y-127883390D01*
X146892856Y-127883390D02*
X146988094Y-127931009D01*
X146988094Y-127931009D02*
X147035713Y-127978628D01*
X147035713Y-127978628D02*
X147083332Y-128073866D01*
X147083332Y-128073866D02*
X147083332Y-128264342D01*
X147083332Y-128264342D02*
X147035713Y-128359580D01*
X147035713Y-128359580D02*
X146988094Y-128407200D01*
X146988094Y-128407200D02*
X146892856Y-128454819D01*
X146892856Y-128454819D02*
X146702380Y-128454819D01*
X146702380Y-128454819D02*
X146607142Y-128407200D01*
X146607142Y-128407200D02*
X146559523Y-128359580D01*
X146559523Y-128359580D02*
X146511904Y-128264342D01*
X146511904Y-128264342D02*
X146511904Y-128073866D01*
X146511904Y-128073866D02*
X146559523Y-127978628D01*
X146559523Y-127978628D02*
X146607142Y-127931009D01*
X146607142Y-127931009D02*
X146702380Y-127883390D01*
X136619047Y-128024819D02*
X136952380Y-127548628D01*
X137190475Y-128024819D02*
X137190475Y-127024819D01*
X137190475Y-127024819D02*
X136809523Y-127024819D01*
X136809523Y-127024819D02*
X136714285Y-127072438D01*
X136714285Y-127072438D02*
X136666666Y-127120057D01*
X136666666Y-127120057D02*
X136619047Y-127215295D01*
X136619047Y-127215295D02*
X136619047Y-127358152D01*
X136619047Y-127358152D02*
X136666666Y-127453390D01*
X136666666Y-127453390D02*
X136714285Y-127501009D01*
X136714285Y-127501009D02*
X136809523Y-127548628D01*
X136809523Y-127548628D02*
X137190475Y-127548628D01*
X135666666Y-128024819D02*
X136238094Y-128024819D01*
X135952380Y-128024819D02*
X135952380Y-127024819D01*
X135952380Y-127024819D02*
X136047618Y-127167676D01*
X136047618Y-127167676D02*
X136142856Y-127262914D01*
X136142856Y-127262914D02*
X136238094Y-127310533D01*
X135047618Y-127024819D02*
X134952380Y-127024819D01*
X134952380Y-127024819D02*
X134857142Y-127072438D01*
X134857142Y-127072438D02*
X134809523Y-127120057D01*
X134809523Y-127120057D02*
X134761904Y-127215295D01*
X134761904Y-127215295D02*
X134714285Y-127405771D01*
X134714285Y-127405771D02*
X134714285Y-127643866D01*
X134714285Y-127643866D02*
X134761904Y-127834342D01*
X134761904Y-127834342D02*
X134809523Y-127929580D01*
X134809523Y-127929580D02*
X134857142Y-127977200D01*
X134857142Y-127977200D02*
X134952380Y-128024819D01*
X134952380Y-128024819D02*
X135047618Y-128024819D01*
X135047618Y-128024819D02*
X135142856Y-127977200D01*
X135142856Y-127977200D02*
X135190475Y-127929580D01*
X135190475Y-127929580D02*
X135238094Y-127834342D01*
X135238094Y-127834342D02*
X135285713Y-127643866D01*
X135285713Y-127643866D02*
X135285713Y-127405771D01*
X135285713Y-127405771D02*
X135238094Y-127215295D01*
X135238094Y-127215295D02*
X135190475Y-127120057D01*
X135190475Y-127120057D02*
X135142856Y-127072438D01*
X135142856Y-127072438D02*
X135047618Y-127024819D01*
X133761904Y-128024819D02*
X134333332Y-128024819D01*
X134047618Y-128024819D02*
X134047618Y-127024819D01*
X134047618Y-127024819D02*
X134142856Y-127167676D01*
X134142856Y-127167676D02*
X134238094Y-127262914D01*
X134238094Y-127262914D02*
X134333332Y-127310533D01*
X124869047Y-149704819D02*
X125202380Y-149228628D01*
X125440475Y-149704819D02*
X125440475Y-148704819D01*
X125440475Y-148704819D02*
X125059523Y-148704819D01*
X125059523Y-148704819D02*
X124964285Y-148752438D01*
X124964285Y-148752438D02*
X124916666Y-148800057D01*
X124916666Y-148800057D02*
X124869047Y-148895295D01*
X124869047Y-148895295D02*
X124869047Y-149038152D01*
X124869047Y-149038152D02*
X124916666Y-149133390D01*
X124916666Y-149133390D02*
X124964285Y-149181009D01*
X124964285Y-149181009D02*
X125059523Y-149228628D01*
X125059523Y-149228628D02*
X125440475Y-149228628D01*
X123916666Y-149704819D02*
X124488094Y-149704819D01*
X124202380Y-149704819D02*
X124202380Y-148704819D01*
X124202380Y-148704819D02*
X124297618Y-148847676D01*
X124297618Y-148847676D02*
X124392856Y-148942914D01*
X124392856Y-148942914D02*
X124488094Y-148990533D01*
X123011904Y-148704819D02*
X123488094Y-148704819D01*
X123488094Y-148704819D02*
X123535713Y-149181009D01*
X123535713Y-149181009D02*
X123488094Y-149133390D01*
X123488094Y-149133390D02*
X123392856Y-149085771D01*
X123392856Y-149085771D02*
X123154761Y-149085771D01*
X123154761Y-149085771D02*
X123059523Y-149133390D01*
X123059523Y-149133390D02*
X123011904Y-149181009D01*
X123011904Y-149181009D02*
X122964285Y-149276247D01*
X122964285Y-149276247D02*
X122964285Y-149514342D01*
X122964285Y-149514342D02*
X123011904Y-149609580D01*
X123011904Y-149609580D02*
X123059523Y-149657200D01*
X123059523Y-149657200D02*
X123154761Y-149704819D01*
X123154761Y-149704819D02*
X123392856Y-149704819D01*
X123392856Y-149704819D02*
X123488094Y-149657200D01*
X123488094Y-149657200D02*
X123535713Y-149609580D01*
X122059523Y-148704819D02*
X122535713Y-148704819D01*
X122535713Y-148704819D02*
X122583332Y-149181009D01*
X122583332Y-149181009D02*
X122535713Y-149133390D01*
X122535713Y-149133390D02*
X122440475Y-149085771D01*
X122440475Y-149085771D02*
X122202380Y-149085771D01*
X122202380Y-149085771D02*
X122107142Y-149133390D01*
X122107142Y-149133390D02*
X122059523Y-149181009D01*
X122059523Y-149181009D02*
X122011904Y-149276247D01*
X122011904Y-149276247D02*
X122011904Y-149514342D01*
X122011904Y-149514342D02*
X122059523Y-149609580D01*
X122059523Y-149609580D02*
X122107142Y-149657200D01*
X122107142Y-149657200D02*
X122202380Y-149704819D01*
X122202380Y-149704819D02*
X122440475Y-149704819D01*
X122440475Y-149704819D02*
X122535713Y-149657200D01*
X122535713Y-149657200D02*
X122583332Y-149609580D01*
X143619047Y-137704819D02*
X143952380Y-137228628D01*
X144190475Y-137704819D02*
X144190475Y-136704819D01*
X144190475Y-136704819D02*
X143809523Y-136704819D01*
X143809523Y-136704819D02*
X143714285Y-136752438D01*
X143714285Y-136752438D02*
X143666666Y-136800057D01*
X143666666Y-136800057D02*
X143619047Y-136895295D01*
X143619047Y-136895295D02*
X143619047Y-137038152D01*
X143619047Y-137038152D02*
X143666666Y-137133390D01*
X143666666Y-137133390D02*
X143714285Y-137181009D01*
X143714285Y-137181009D02*
X143809523Y-137228628D01*
X143809523Y-137228628D02*
X144190475Y-137228628D01*
X142666666Y-137704819D02*
X143238094Y-137704819D01*
X142952380Y-137704819D02*
X142952380Y-136704819D01*
X142952380Y-136704819D02*
X143047618Y-136847676D01*
X143047618Y-136847676D02*
X143142856Y-136942914D01*
X143142856Y-136942914D02*
X143238094Y-136990533D01*
X141809523Y-137038152D02*
X141809523Y-137704819D01*
X142047618Y-136657200D02*
X142285713Y-137371485D01*
X142285713Y-137371485D02*
X141666666Y-137371485D01*
X141142856Y-137133390D02*
X141238094Y-137085771D01*
X141238094Y-137085771D02*
X141285713Y-137038152D01*
X141285713Y-137038152D02*
X141333332Y-136942914D01*
X141333332Y-136942914D02*
X141333332Y-136895295D01*
X141333332Y-136895295D02*
X141285713Y-136800057D01*
X141285713Y-136800057D02*
X141238094Y-136752438D01*
X141238094Y-136752438D02*
X141142856Y-136704819D01*
X141142856Y-136704819D02*
X140952380Y-136704819D01*
X140952380Y-136704819D02*
X140857142Y-136752438D01*
X140857142Y-136752438D02*
X140809523Y-136800057D01*
X140809523Y-136800057D02*
X140761904Y-136895295D01*
X140761904Y-136895295D02*
X140761904Y-136942914D01*
X140761904Y-136942914D02*
X140809523Y-137038152D01*
X140809523Y-137038152D02*
X140857142Y-137085771D01*
X140857142Y-137085771D02*
X140952380Y-137133390D01*
X140952380Y-137133390D02*
X141142856Y-137133390D01*
X141142856Y-137133390D02*
X141238094Y-137181009D01*
X141238094Y-137181009D02*
X141285713Y-137228628D01*
X141285713Y-137228628D02*
X141333332Y-137323866D01*
X141333332Y-137323866D02*
X141333332Y-137514342D01*
X141333332Y-137514342D02*
X141285713Y-137609580D01*
X141285713Y-137609580D02*
X141238094Y-137657200D01*
X141238094Y-137657200D02*
X141142856Y-137704819D01*
X141142856Y-137704819D02*
X140952380Y-137704819D01*
X140952380Y-137704819D02*
X140857142Y-137657200D01*
X140857142Y-137657200D02*
X140809523Y-137609580D01*
X140809523Y-137609580D02*
X140761904Y-137514342D01*
X140761904Y-137514342D02*
X140761904Y-137323866D01*
X140761904Y-137323866D02*
X140809523Y-137228628D01*
X140809523Y-137228628D02*
X140857142Y-137181009D01*
X140857142Y-137181009D02*
X140952380Y-137133390D01*
X121297619Y-138050057D02*
X121392857Y-138002438D01*
X121392857Y-138002438D02*
X121488095Y-137907200D01*
X121488095Y-137907200D02*
X121630952Y-137764342D01*
X121630952Y-137764342D02*
X121726190Y-137716723D01*
X121726190Y-137716723D02*
X121821428Y-137716723D01*
X121773809Y-137954819D02*
X121869047Y-137907200D01*
X121869047Y-137907200D02*
X121964285Y-137811961D01*
X121964285Y-137811961D02*
X122011904Y-137621485D01*
X122011904Y-137621485D02*
X122011904Y-137288152D01*
X122011904Y-137288152D02*
X121964285Y-137097676D01*
X121964285Y-137097676D02*
X121869047Y-137002438D01*
X121869047Y-137002438D02*
X121773809Y-136954819D01*
X121773809Y-136954819D02*
X121583333Y-136954819D01*
X121583333Y-136954819D02*
X121488095Y-137002438D01*
X121488095Y-137002438D02*
X121392857Y-137097676D01*
X121392857Y-137097676D02*
X121345238Y-137288152D01*
X121345238Y-137288152D02*
X121345238Y-137621485D01*
X121345238Y-137621485D02*
X121392857Y-137811961D01*
X121392857Y-137811961D02*
X121488095Y-137907200D01*
X121488095Y-137907200D02*
X121583333Y-137954819D01*
X121583333Y-137954819D02*
X121773809Y-137954819D01*
X120392857Y-137954819D02*
X120964285Y-137954819D01*
X120678571Y-137954819D02*
X120678571Y-136954819D01*
X120678571Y-136954819D02*
X120773809Y-137097676D01*
X120773809Y-137097676D02*
X120869047Y-137192914D01*
X120869047Y-137192914D02*
X120964285Y-137240533D01*
X119773809Y-136954819D02*
X119678571Y-136954819D01*
X119678571Y-136954819D02*
X119583333Y-137002438D01*
X119583333Y-137002438D02*
X119535714Y-137050057D01*
X119535714Y-137050057D02*
X119488095Y-137145295D01*
X119488095Y-137145295D02*
X119440476Y-137335771D01*
X119440476Y-137335771D02*
X119440476Y-137573866D01*
X119440476Y-137573866D02*
X119488095Y-137764342D01*
X119488095Y-137764342D02*
X119535714Y-137859580D01*
X119535714Y-137859580D02*
X119583333Y-137907200D01*
X119583333Y-137907200D02*
X119678571Y-137954819D01*
X119678571Y-137954819D02*
X119773809Y-137954819D01*
X119773809Y-137954819D02*
X119869047Y-137907200D01*
X119869047Y-137907200D02*
X119916666Y-137859580D01*
X119916666Y-137859580D02*
X119964285Y-137764342D01*
X119964285Y-137764342D02*
X120011904Y-137573866D01*
X120011904Y-137573866D02*
X120011904Y-137335771D01*
X120011904Y-137335771D02*
X119964285Y-137145295D01*
X119964285Y-137145295D02*
X119916666Y-137050057D01*
X119916666Y-137050057D02*
X119869047Y-137002438D01*
X119869047Y-137002438D02*
X119773809Y-136954819D01*
X119059523Y-137050057D02*
X119011904Y-137002438D01*
X119011904Y-137002438D02*
X118916666Y-136954819D01*
X118916666Y-136954819D02*
X118678571Y-136954819D01*
X118678571Y-136954819D02*
X118583333Y-137002438D01*
X118583333Y-137002438D02*
X118535714Y-137050057D01*
X118535714Y-137050057D02*
X118488095Y-137145295D01*
X118488095Y-137145295D02*
X118488095Y-137240533D01*
X118488095Y-137240533D02*
X118535714Y-137383390D01*
X118535714Y-137383390D02*
X119107142Y-137954819D01*
X119107142Y-137954819D02*
X118488095Y-137954819D01*
X151359580Y-140880952D02*
X151407200Y-140833333D01*
X151407200Y-140833333D02*
X151454819Y-140690476D01*
X151454819Y-140690476D02*
X151454819Y-140595238D01*
X151454819Y-140595238D02*
X151407200Y-140452381D01*
X151407200Y-140452381D02*
X151311961Y-140357143D01*
X151311961Y-140357143D02*
X151216723Y-140309524D01*
X151216723Y-140309524D02*
X151026247Y-140261905D01*
X151026247Y-140261905D02*
X150883390Y-140261905D01*
X150883390Y-140261905D02*
X150692914Y-140309524D01*
X150692914Y-140309524D02*
X150597676Y-140357143D01*
X150597676Y-140357143D02*
X150502438Y-140452381D01*
X150502438Y-140452381D02*
X150454819Y-140595238D01*
X150454819Y-140595238D02*
X150454819Y-140690476D01*
X150454819Y-140690476D02*
X150502438Y-140833333D01*
X150502438Y-140833333D02*
X150550057Y-140880952D01*
X151454819Y-141833333D02*
X151454819Y-141261905D01*
X151454819Y-141547619D02*
X150454819Y-141547619D01*
X150454819Y-141547619D02*
X150597676Y-141452381D01*
X150597676Y-141452381D02*
X150692914Y-141357143D01*
X150692914Y-141357143D02*
X150740533Y-141261905D01*
X150454819Y-142690476D02*
X150454819Y-142500000D01*
X150454819Y-142500000D02*
X150502438Y-142404762D01*
X150502438Y-142404762D02*
X150550057Y-142357143D01*
X150550057Y-142357143D02*
X150692914Y-142261905D01*
X150692914Y-142261905D02*
X150883390Y-142214286D01*
X150883390Y-142214286D02*
X151264342Y-142214286D01*
X151264342Y-142214286D02*
X151359580Y-142261905D01*
X151359580Y-142261905D02*
X151407200Y-142309524D01*
X151407200Y-142309524D02*
X151454819Y-142404762D01*
X151454819Y-142404762D02*
X151454819Y-142595238D01*
X151454819Y-142595238D02*
X151407200Y-142690476D01*
X151407200Y-142690476D02*
X151359580Y-142738095D01*
X151359580Y-142738095D02*
X151264342Y-142785714D01*
X151264342Y-142785714D02*
X151026247Y-142785714D01*
X151026247Y-142785714D02*
X150931009Y-142738095D01*
X150931009Y-142738095D02*
X150883390Y-142690476D01*
X150883390Y-142690476D02*
X150835771Y-142595238D01*
X150835771Y-142595238D02*
X150835771Y-142404762D01*
X150835771Y-142404762D02*
X150883390Y-142309524D01*
X150883390Y-142309524D02*
X150931009Y-142261905D01*
X150931009Y-142261905D02*
X151026247Y-142214286D01*
X150454819Y-143404762D02*
X150454819Y-143500000D01*
X150454819Y-143500000D02*
X150502438Y-143595238D01*
X150502438Y-143595238D02*
X150550057Y-143642857D01*
X150550057Y-143642857D02*
X150645295Y-143690476D01*
X150645295Y-143690476D02*
X150835771Y-143738095D01*
X150835771Y-143738095D02*
X151073866Y-143738095D01*
X151073866Y-143738095D02*
X151264342Y-143690476D01*
X151264342Y-143690476D02*
X151359580Y-143642857D01*
X151359580Y-143642857D02*
X151407200Y-143595238D01*
X151407200Y-143595238D02*
X151454819Y-143500000D01*
X151454819Y-143500000D02*
X151454819Y-143404762D01*
X151454819Y-143404762D02*
X151407200Y-143309524D01*
X151407200Y-143309524D02*
X151359580Y-143261905D01*
X151359580Y-143261905D02*
X151264342Y-143214286D01*
X151264342Y-143214286D02*
X151073866Y-143166667D01*
X151073866Y-143166667D02*
X150835771Y-143166667D01*
X150835771Y-143166667D02*
X150645295Y-143214286D01*
X150645295Y-143214286D02*
X150550057Y-143261905D01*
X150550057Y-143261905D02*
X150502438Y-143309524D01*
X150502438Y-143309524D02*
X150454819Y-143404762D01*
X149369047Y-126359580D02*
X149416666Y-126407200D01*
X149416666Y-126407200D02*
X149559523Y-126454819D01*
X149559523Y-126454819D02*
X149654761Y-126454819D01*
X149654761Y-126454819D02*
X149797618Y-126407200D01*
X149797618Y-126407200D02*
X149892856Y-126311961D01*
X149892856Y-126311961D02*
X149940475Y-126216723D01*
X149940475Y-126216723D02*
X149988094Y-126026247D01*
X149988094Y-126026247D02*
X149988094Y-125883390D01*
X149988094Y-125883390D02*
X149940475Y-125692914D01*
X149940475Y-125692914D02*
X149892856Y-125597676D01*
X149892856Y-125597676D02*
X149797618Y-125502438D01*
X149797618Y-125502438D02*
X149654761Y-125454819D01*
X149654761Y-125454819D02*
X149559523Y-125454819D01*
X149559523Y-125454819D02*
X149416666Y-125502438D01*
X149416666Y-125502438D02*
X149369047Y-125550057D01*
X148416666Y-126454819D02*
X148988094Y-126454819D01*
X148702380Y-126454819D02*
X148702380Y-125454819D01*
X148702380Y-125454819D02*
X148797618Y-125597676D01*
X148797618Y-125597676D02*
X148892856Y-125692914D01*
X148892856Y-125692914D02*
X148988094Y-125740533D01*
X147559523Y-125788152D02*
X147559523Y-126454819D01*
X147797618Y-125407200D02*
X148035713Y-126121485D01*
X148035713Y-126121485D02*
X147416666Y-126121485D01*
X146988094Y-126454819D02*
X146797618Y-126454819D01*
X146797618Y-126454819D02*
X146702380Y-126407200D01*
X146702380Y-126407200D02*
X146654761Y-126359580D01*
X146654761Y-126359580D02*
X146559523Y-126216723D01*
X146559523Y-126216723D02*
X146511904Y-126026247D01*
X146511904Y-126026247D02*
X146511904Y-125645295D01*
X146511904Y-125645295D02*
X146559523Y-125550057D01*
X146559523Y-125550057D02*
X146607142Y-125502438D01*
X146607142Y-125502438D02*
X146702380Y-125454819D01*
X146702380Y-125454819D02*
X146892856Y-125454819D01*
X146892856Y-125454819D02*
X146988094Y-125502438D01*
X146988094Y-125502438D02*
X147035713Y-125550057D01*
X147035713Y-125550057D02*
X147083332Y-125645295D01*
X147083332Y-125645295D02*
X147083332Y-125883390D01*
X147083332Y-125883390D02*
X147035713Y-125978628D01*
X147035713Y-125978628D02*
X146988094Y-126026247D01*
X146988094Y-126026247D02*
X146892856Y-126073866D01*
X146892856Y-126073866D02*
X146702380Y-126073866D01*
X146702380Y-126073866D02*
X146607142Y-126026247D01*
X146607142Y-126026247D02*
X146559523Y-125978628D01*
X146559523Y-125978628D02*
X146511904Y-125883390D01*
X167540475Y-131704819D02*
X167540475Y-130704819D01*
X167540475Y-130704819D02*
X167302380Y-130704819D01*
X167302380Y-130704819D02*
X167159523Y-130752438D01*
X167159523Y-130752438D02*
X167064285Y-130847676D01*
X167064285Y-130847676D02*
X167016666Y-130942914D01*
X167016666Y-130942914D02*
X166969047Y-131133390D01*
X166969047Y-131133390D02*
X166969047Y-131276247D01*
X166969047Y-131276247D02*
X167016666Y-131466723D01*
X167016666Y-131466723D02*
X167064285Y-131561961D01*
X167064285Y-131561961D02*
X167159523Y-131657200D01*
X167159523Y-131657200D02*
X167302380Y-131704819D01*
X167302380Y-131704819D02*
X167540475Y-131704819D01*
X166016666Y-131704819D02*
X166588094Y-131704819D01*
X166302380Y-131704819D02*
X166302380Y-130704819D01*
X166302380Y-130704819D02*
X166397618Y-130847676D01*
X166397618Y-130847676D02*
X166492856Y-130942914D01*
X166492856Y-130942914D02*
X166588094Y-130990533D01*
X165397618Y-130704819D02*
X165302380Y-130704819D01*
X165302380Y-130704819D02*
X165207142Y-130752438D01*
X165207142Y-130752438D02*
X165159523Y-130800057D01*
X165159523Y-130800057D02*
X165111904Y-130895295D01*
X165111904Y-130895295D02*
X165064285Y-131085771D01*
X165064285Y-131085771D02*
X165064285Y-131323866D01*
X165064285Y-131323866D02*
X165111904Y-131514342D01*
X165111904Y-131514342D02*
X165159523Y-131609580D01*
X165159523Y-131609580D02*
X165207142Y-131657200D01*
X165207142Y-131657200D02*
X165302380Y-131704819D01*
X165302380Y-131704819D02*
X165397618Y-131704819D01*
X165397618Y-131704819D02*
X165492856Y-131657200D01*
X165492856Y-131657200D02*
X165540475Y-131609580D01*
X165540475Y-131609580D02*
X165588094Y-131514342D01*
X165588094Y-131514342D02*
X165635713Y-131323866D01*
X165635713Y-131323866D02*
X165635713Y-131085771D01*
X165635713Y-131085771D02*
X165588094Y-130895295D01*
X165588094Y-130895295D02*
X165540475Y-130800057D01*
X165540475Y-130800057D02*
X165492856Y-130752438D01*
X165492856Y-130752438D02*
X165397618Y-130704819D01*
X164730951Y-130704819D02*
X164064285Y-130704819D01*
X164064285Y-130704819D02*
X164492856Y-131704819D01*
X125204819Y-129130952D02*
X124728628Y-128797619D01*
X125204819Y-128559524D02*
X124204819Y-128559524D01*
X124204819Y-128559524D02*
X124204819Y-128940476D01*
X124204819Y-128940476D02*
X124252438Y-129035714D01*
X124252438Y-129035714D02*
X124300057Y-129083333D01*
X124300057Y-129083333D02*
X124395295Y-129130952D01*
X124395295Y-129130952D02*
X124538152Y-129130952D01*
X124538152Y-129130952D02*
X124633390Y-129083333D01*
X124633390Y-129083333D02*
X124681009Y-129035714D01*
X124681009Y-129035714D02*
X124728628Y-128940476D01*
X124728628Y-128940476D02*
X124728628Y-128559524D01*
X125204819Y-130083333D02*
X125204819Y-129511905D01*
X125204819Y-129797619D02*
X124204819Y-129797619D01*
X124204819Y-129797619D02*
X124347676Y-129702381D01*
X124347676Y-129702381D02*
X124442914Y-129607143D01*
X124442914Y-129607143D02*
X124490533Y-129511905D01*
X124300057Y-130464286D02*
X124252438Y-130511905D01*
X124252438Y-130511905D02*
X124204819Y-130607143D01*
X124204819Y-130607143D02*
X124204819Y-130845238D01*
X124204819Y-130845238D02*
X124252438Y-130940476D01*
X124252438Y-130940476D02*
X124300057Y-130988095D01*
X124300057Y-130988095D02*
X124395295Y-131035714D01*
X124395295Y-131035714D02*
X124490533Y-131035714D01*
X124490533Y-131035714D02*
X124633390Y-130988095D01*
X124633390Y-130988095D02*
X125204819Y-130416667D01*
X125204819Y-130416667D02*
X125204819Y-131035714D01*
X124633390Y-131607143D02*
X124585771Y-131511905D01*
X124585771Y-131511905D02*
X124538152Y-131464286D01*
X124538152Y-131464286D02*
X124442914Y-131416667D01*
X124442914Y-131416667D02*
X124395295Y-131416667D01*
X124395295Y-131416667D02*
X124300057Y-131464286D01*
X124300057Y-131464286D02*
X124252438Y-131511905D01*
X124252438Y-131511905D02*
X124204819Y-131607143D01*
X124204819Y-131607143D02*
X124204819Y-131797619D01*
X124204819Y-131797619D02*
X124252438Y-131892857D01*
X124252438Y-131892857D02*
X124300057Y-131940476D01*
X124300057Y-131940476D02*
X124395295Y-131988095D01*
X124395295Y-131988095D02*
X124442914Y-131988095D01*
X124442914Y-131988095D02*
X124538152Y-131940476D01*
X124538152Y-131940476D02*
X124585771Y-131892857D01*
X124585771Y-131892857D02*
X124633390Y-131797619D01*
X124633390Y-131797619D02*
X124633390Y-131607143D01*
X124633390Y-131607143D02*
X124681009Y-131511905D01*
X124681009Y-131511905D02*
X124728628Y-131464286D01*
X124728628Y-131464286D02*
X124823866Y-131416667D01*
X124823866Y-131416667D02*
X125014342Y-131416667D01*
X125014342Y-131416667D02*
X125109580Y-131464286D01*
X125109580Y-131464286D02*
X125157200Y-131511905D01*
X125157200Y-131511905D02*
X125204819Y-131607143D01*
X125204819Y-131607143D02*
X125204819Y-131797619D01*
X125204819Y-131797619D02*
X125157200Y-131892857D01*
X125157200Y-131892857D02*
X125109580Y-131940476D01*
X125109580Y-131940476D02*
X125014342Y-131988095D01*
X125014342Y-131988095D02*
X124823866Y-131988095D01*
X124823866Y-131988095D02*
X124728628Y-131940476D01*
X124728628Y-131940476D02*
X124681009Y-131892857D01*
X124681009Y-131892857D02*
X124633390Y-131797619D01*
X116584819Y-143930952D02*
X116108628Y-143597619D01*
X116584819Y-143359524D02*
X115584819Y-143359524D01*
X115584819Y-143359524D02*
X115584819Y-143740476D01*
X115584819Y-143740476D02*
X115632438Y-143835714D01*
X115632438Y-143835714D02*
X115680057Y-143883333D01*
X115680057Y-143883333D02*
X115775295Y-143930952D01*
X115775295Y-143930952D02*
X115918152Y-143930952D01*
X115918152Y-143930952D02*
X116013390Y-143883333D01*
X116013390Y-143883333D02*
X116061009Y-143835714D01*
X116061009Y-143835714D02*
X116108628Y-143740476D01*
X116108628Y-143740476D02*
X116108628Y-143359524D01*
X116584819Y-144883333D02*
X116584819Y-144311905D01*
X116584819Y-144597619D02*
X115584819Y-144597619D01*
X115584819Y-144597619D02*
X115727676Y-144502381D01*
X115727676Y-144502381D02*
X115822914Y-144407143D01*
X115822914Y-144407143D02*
X115870533Y-144311905D01*
X115584819Y-145502381D02*
X115584819Y-145597619D01*
X115584819Y-145597619D02*
X115632438Y-145692857D01*
X115632438Y-145692857D02*
X115680057Y-145740476D01*
X115680057Y-145740476D02*
X115775295Y-145788095D01*
X115775295Y-145788095D02*
X115965771Y-145835714D01*
X115965771Y-145835714D02*
X116203866Y-145835714D01*
X116203866Y-145835714D02*
X116394342Y-145788095D01*
X116394342Y-145788095D02*
X116489580Y-145740476D01*
X116489580Y-145740476D02*
X116537200Y-145692857D01*
X116537200Y-145692857D02*
X116584819Y-145597619D01*
X116584819Y-145597619D02*
X116584819Y-145502381D01*
X116584819Y-145502381D02*
X116537200Y-145407143D01*
X116537200Y-145407143D02*
X116489580Y-145359524D01*
X116489580Y-145359524D02*
X116394342Y-145311905D01*
X116394342Y-145311905D02*
X116203866Y-145264286D01*
X116203866Y-145264286D02*
X115965771Y-145264286D01*
X115965771Y-145264286D02*
X115775295Y-145311905D01*
X115775295Y-145311905D02*
X115680057Y-145359524D01*
X115680057Y-145359524D02*
X115632438Y-145407143D01*
X115632438Y-145407143D02*
X115584819Y-145502381D01*
X115680057Y-146216667D02*
X115632438Y-146264286D01*
X115632438Y-146264286D02*
X115584819Y-146359524D01*
X115584819Y-146359524D02*
X115584819Y-146597619D01*
X115584819Y-146597619D02*
X115632438Y-146692857D01*
X115632438Y-146692857D02*
X115680057Y-146740476D01*
X115680057Y-146740476D02*
X115775295Y-146788095D01*
X115775295Y-146788095D02*
X115870533Y-146788095D01*
X115870533Y-146788095D02*
X116013390Y-146740476D01*
X116013390Y-146740476D02*
X116584819Y-146169048D01*
X116584819Y-146169048D02*
X116584819Y-146788095D01*
X116609580Y-122130952D02*
X116657200Y-122083333D01*
X116657200Y-122083333D02*
X116704819Y-121940476D01*
X116704819Y-121940476D02*
X116704819Y-121845238D01*
X116704819Y-121845238D02*
X116657200Y-121702381D01*
X116657200Y-121702381D02*
X116561961Y-121607143D01*
X116561961Y-121607143D02*
X116466723Y-121559524D01*
X116466723Y-121559524D02*
X116276247Y-121511905D01*
X116276247Y-121511905D02*
X116133390Y-121511905D01*
X116133390Y-121511905D02*
X115942914Y-121559524D01*
X115942914Y-121559524D02*
X115847676Y-121607143D01*
X115847676Y-121607143D02*
X115752438Y-121702381D01*
X115752438Y-121702381D02*
X115704819Y-121845238D01*
X115704819Y-121845238D02*
X115704819Y-121940476D01*
X115704819Y-121940476D02*
X115752438Y-122083333D01*
X115752438Y-122083333D02*
X115800057Y-122130952D01*
X116704819Y-123083333D02*
X116704819Y-122511905D01*
X116704819Y-122797619D02*
X115704819Y-122797619D01*
X115704819Y-122797619D02*
X115847676Y-122702381D01*
X115847676Y-122702381D02*
X115942914Y-122607143D01*
X115942914Y-122607143D02*
X115990533Y-122511905D01*
X115800057Y-123464286D02*
X115752438Y-123511905D01*
X115752438Y-123511905D02*
X115704819Y-123607143D01*
X115704819Y-123607143D02*
X115704819Y-123845238D01*
X115704819Y-123845238D02*
X115752438Y-123940476D01*
X115752438Y-123940476D02*
X115800057Y-123988095D01*
X115800057Y-123988095D02*
X115895295Y-124035714D01*
X115895295Y-124035714D02*
X115990533Y-124035714D01*
X115990533Y-124035714D02*
X116133390Y-123988095D01*
X116133390Y-123988095D02*
X116704819Y-123416667D01*
X116704819Y-123416667D02*
X116704819Y-124035714D01*
X116704819Y-124511905D02*
X116704819Y-124702381D01*
X116704819Y-124702381D02*
X116657200Y-124797619D01*
X116657200Y-124797619D02*
X116609580Y-124845238D01*
X116609580Y-124845238D02*
X116466723Y-124940476D01*
X116466723Y-124940476D02*
X116276247Y-124988095D01*
X116276247Y-124988095D02*
X115895295Y-124988095D01*
X115895295Y-124988095D02*
X115800057Y-124940476D01*
X115800057Y-124940476D02*
X115752438Y-124892857D01*
X115752438Y-124892857D02*
X115704819Y-124797619D01*
X115704819Y-124797619D02*
X115704819Y-124607143D01*
X115704819Y-124607143D02*
X115752438Y-124511905D01*
X115752438Y-124511905D02*
X115800057Y-124464286D01*
X115800057Y-124464286D02*
X115895295Y-124416667D01*
X115895295Y-124416667D02*
X116133390Y-124416667D01*
X116133390Y-124416667D02*
X116228628Y-124464286D01*
X116228628Y-124464286D02*
X116276247Y-124511905D01*
X116276247Y-124511905D02*
X116323866Y-124607143D01*
X116323866Y-124607143D02*
X116323866Y-124797619D01*
X116323866Y-124797619D02*
X116276247Y-124892857D01*
X116276247Y-124892857D02*
X116228628Y-124940476D01*
X116228628Y-124940476D02*
X116133390Y-124988095D01*
X132159580Y-121880952D02*
X132207200Y-121833333D01*
X132207200Y-121833333D02*
X132254819Y-121690476D01*
X132254819Y-121690476D02*
X132254819Y-121595238D01*
X132254819Y-121595238D02*
X132207200Y-121452381D01*
X132207200Y-121452381D02*
X132111961Y-121357143D01*
X132111961Y-121357143D02*
X132016723Y-121309524D01*
X132016723Y-121309524D02*
X131826247Y-121261905D01*
X131826247Y-121261905D02*
X131683390Y-121261905D01*
X131683390Y-121261905D02*
X131492914Y-121309524D01*
X131492914Y-121309524D02*
X131397676Y-121357143D01*
X131397676Y-121357143D02*
X131302438Y-121452381D01*
X131302438Y-121452381D02*
X131254819Y-121595238D01*
X131254819Y-121595238D02*
X131254819Y-121690476D01*
X131254819Y-121690476D02*
X131302438Y-121833333D01*
X131302438Y-121833333D02*
X131350057Y-121880952D01*
X132254819Y-122833333D02*
X132254819Y-122261905D01*
X132254819Y-122547619D02*
X131254819Y-122547619D01*
X131254819Y-122547619D02*
X131397676Y-122452381D01*
X131397676Y-122452381D02*
X131492914Y-122357143D01*
X131492914Y-122357143D02*
X131540533Y-122261905D01*
X131254819Y-123166667D02*
X131254819Y-123785714D01*
X131254819Y-123785714D02*
X131635771Y-123452381D01*
X131635771Y-123452381D02*
X131635771Y-123595238D01*
X131635771Y-123595238D02*
X131683390Y-123690476D01*
X131683390Y-123690476D02*
X131731009Y-123738095D01*
X131731009Y-123738095D02*
X131826247Y-123785714D01*
X131826247Y-123785714D02*
X132064342Y-123785714D01*
X132064342Y-123785714D02*
X132159580Y-123738095D01*
X132159580Y-123738095D02*
X132207200Y-123690476D01*
X132207200Y-123690476D02*
X132254819Y-123595238D01*
X132254819Y-123595238D02*
X132254819Y-123309524D01*
X132254819Y-123309524D02*
X132207200Y-123214286D01*
X132207200Y-123214286D02*
X132159580Y-123166667D01*
X131588152Y-124642857D02*
X132254819Y-124642857D01*
X131207200Y-124404762D02*
X131921485Y-124166667D01*
X131921485Y-124166667D02*
X131921485Y-124785714D01*
X143619047Y-139204819D02*
X143952380Y-138728628D01*
X144190475Y-139204819D02*
X144190475Y-138204819D01*
X144190475Y-138204819D02*
X143809523Y-138204819D01*
X143809523Y-138204819D02*
X143714285Y-138252438D01*
X143714285Y-138252438D02*
X143666666Y-138300057D01*
X143666666Y-138300057D02*
X143619047Y-138395295D01*
X143619047Y-138395295D02*
X143619047Y-138538152D01*
X143619047Y-138538152D02*
X143666666Y-138633390D01*
X143666666Y-138633390D02*
X143714285Y-138681009D01*
X143714285Y-138681009D02*
X143809523Y-138728628D01*
X143809523Y-138728628D02*
X144190475Y-138728628D01*
X142666666Y-139204819D02*
X143238094Y-139204819D01*
X142952380Y-139204819D02*
X142952380Y-138204819D01*
X142952380Y-138204819D02*
X143047618Y-138347676D01*
X143047618Y-138347676D02*
X143142856Y-138442914D01*
X143142856Y-138442914D02*
X143238094Y-138490533D01*
X141761904Y-138204819D02*
X142238094Y-138204819D01*
X142238094Y-138204819D02*
X142285713Y-138681009D01*
X142285713Y-138681009D02*
X142238094Y-138633390D01*
X142238094Y-138633390D02*
X142142856Y-138585771D01*
X142142856Y-138585771D02*
X141904761Y-138585771D01*
X141904761Y-138585771D02*
X141809523Y-138633390D01*
X141809523Y-138633390D02*
X141761904Y-138681009D01*
X141761904Y-138681009D02*
X141714285Y-138776247D01*
X141714285Y-138776247D02*
X141714285Y-139014342D01*
X141714285Y-139014342D02*
X141761904Y-139109580D01*
X141761904Y-139109580D02*
X141809523Y-139157200D01*
X141809523Y-139157200D02*
X141904761Y-139204819D01*
X141904761Y-139204819D02*
X142142856Y-139204819D01*
X142142856Y-139204819D02*
X142238094Y-139157200D01*
X142238094Y-139157200D02*
X142285713Y-139109580D01*
X141142856Y-138633390D02*
X141238094Y-138585771D01*
X141238094Y-138585771D02*
X141285713Y-138538152D01*
X141285713Y-138538152D02*
X141333332Y-138442914D01*
X141333332Y-138442914D02*
X141333332Y-138395295D01*
X141333332Y-138395295D02*
X141285713Y-138300057D01*
X141285713Y-138300057D02*
X141238094Y-138252438D01*
X141238094Y-138252438D02*
X141142856Y-138204819D01*
X141142856Y-138204819D02*
X140952380Y-138204819D01*
X140952380Y-138204819D02*
X140857142Y-138252438D01*
X140857142Y-138252438D02*
X140809523Y-138300057D01*
X140809523Y-138300057D02*
X140761904Y-138395295D01*
X140761904Y-138395295D02*
X140761904Y-138442914D01*
X140761904Y-138442914D02*
X140809523Y-138538152D01*
X140809523Y-138538152D02*
X140857142Y-138585771D01*
X140857142Y-138585771D02*
X140952380Y-138633390D01*
X140952380Y-138633390D02*
X141142856Y-138633390D01*
X141142856Y-138633390D02*
X141238094Y-138681009D01*
X141238094Y-138681009D02*
X141285713Y-138728628D01*
X141285713Y-138728628D02*
X141333332Y-138823866D01*
X141333332Y-138823866D02*
X141333332Y-139014342D01*
X141333332Y-139014342D02*
X141285713Y-139109580D01*
X141285713Y-139109580D02*
X141238094Y-139157200D01*
X141238094Y-139157200D02*
X141142856Y-139204819D01*
X141142856Y-139204819D02*
X140952380Y-139204819D01*
X140952380Y-139204819D02*
X140857142Y-139157200D01*
X140857142Y-139157200D02*
X140809523Y-139109580D01*
X140809523Y-139109580D02*
X140761904Y-139014342D01*
X140761904Y-139014342D02*
X140761904Y-138823866D01*
X140761904Y-138823866D02*
X140809523Y-138728628D01*
X140809523Y-138728628D02*
X140857142Y-138681009D01*
X140857142Y-138681009D02*
X140952380Y-138633390D01*
X117954819Y-135630952D02*
X117478628Y-135297619D01*
X117954819Y-135059524D02*
X116954819Y-135059524D01*
X116954819Y-135059524D02*
X116954819Y-135440476D01*
X116954819Y-135440476D02*
X117002438Y-135535714D01*
X117002438Y-135535714D02*
X117050057Y-135583333D01*
X117050057Y-135583333D02*
X117145295Y-135630952D01*
X117145295Y-135630952D02*
X117288152Y-135630952D01*
X117288152Y-135630952D02*
X117383390Y-135583333D01*
X117383390Y-135583333D02*
X117431009Y-135535714D01*
X117431009Y-135535714D02*
X117478628Y-135440476D01*
X117478628Y-135440476D02*
X117478628Y-135059524D01*
X117954819Y-136583333D02*
X117954819Y-136011905D01*
X117954819Y-136297619D02*
X116954819Y-136297619D01*
X116954819Y-136297619D02*
X117097676Y-136202381D01*
X117097676Y-136202381D02*
X117192914Y-136107143D01*
X117192914Y-136107143D02*
X117240533Y-136011905D01*
X116954819Y-137440476D02*
X116954819Y-137250000D01*
X116954819Y-137250000D02*
X117002438Y-137154762D01*
X117002438Y-137154762D02*
X117050057Y-137107143D01*
X117050057Y-137107143D02*
X117192914Y-137011905D01*
X117192914Y-137011905D02*
X117383390Y-136964286D01*
X117383390Y-136964286D02*
X117764342Y-136964286D01*
X117764342Y-136964286D02*
X117859580Y-137011905D01*
X117859580Y-137011905D02*
X117907200Y-137059524D01*
X117907200Y-137059524D02*
X117954819Y-137154762D01*
X117954819Y-137154762D02*
X117954819Y-137345238D01*
X117954819Y-137345238D02*
X117907200Y-137440476D01*
X117907200Y-137440476D02*
X117859580Y-137488095D01*
X117859580Y-137488095D02*
X117764342Y-137535714D01*
X117764342Y-137535714D02*
X117526247Y-137535714D01*
X117526247Y-137535714D02*
X117431009Y-137488095D01*
X117431009Y-137488095D02*
X117383390Y-137440476D01*
X117383390Y-137440476D02*
X117335771Y-137345238D01*
X117335771Y-137345238D02*
X117335771Y-137154762D01*
X117335771Y-137154762D02*
X117383390Y-137059524D01*
X117383390Y-137059524D02*
X117431009Y-137011905D01*
X117431009Y-137011905D02*
X117526247Y-136964286D01*
X116954819Y-138154762D02*
X116954819Y-138250000D01*
X116954819Y-138250000D02*
X117002438Y-138345238D01*
X117002438Y-138345238D02*
X117050057Y-138392857D01*
X117050057Y-138392857D02*
X117145295Y-138440476D01*
X117145295Y-138440476D02*
X117335771Y-138488095D01*
X117335771Y-138488095D02*
X117573866Y-138488095D01*
X117573866Y-138488095D02*
X117764342Y-138440476D01*
X117764342Y-138440476D02*
X117859580Y-138392857D01*
X117859580Y-138392857D02*
X117907200Y-138345238D01*
X117907200Y-138345238D02*
X117954819Y-138250000D01*
X117954819Y-138250000D02*
X117954819Y-138154762D01*
X117954819Y-138154762D02*
X117907200Y-138059524D01*
X117907200Y-138059524D02*
X117859580Y-138011905D01*
X117859580Y-138011905D02*
X117764342Y-137964286D01*
X117764342Y-137964286D02*
X117573866Y-137916667D01*
X117573866Y-137916667D02*
X117335771Y-137916667D01*
X117335771Y-137916667D02*
X117145295Y-137964286D01*
X117145295Y-137964286D02*
X117050057Y-138011905D01*
X117050057Y-138011905D02*
X117002438Y-138059524D01*
X117002438Y-138059524D02*
X116954819Y-138154762D01*
X116454819Y-135630952D02*
X115978628Y-135297619D01*
X116454819Y-135059524D02*
X115454819Y-135059524D01*
X115454819Y-135059524D02*
X115454819Y-135440476D01*
X115454819Y-135440476D02*
X115502438Y-135535714D01*
X115502438Y-135535714D02*
X115550057Y-135583333D01*
X115550057Y-135583333D02*
X115645295Y-135630952D01*
X115645295Y-135630952D02*
X115788152Y-135630952D01*
X115788152Y-135630952D02*
X115883390Y-135583333D01*
X115883390Y-135583333D02*
X115931009Y-135535714D01*
X115931009Y-135535714D02*
X115978628Y-135440476D01*
X115978628Y-135440476D02*
X115978628Y-135059524D01*
X116454819Y-136583333D02*
X116454819Y-136011905D01*
X116454819Y-136297619D02*
X115454819Y-136297619D01*
X115454819Y-136297619D02*
X115597676Y-136202381D01*
X115597676Y-136202381D02*
X115692914Y-136107143D01*
X115692914Y-136107143D02*
X115740533Y-136011905D01*
X115454819Y-137440476D02*
X115454819Y-137250000D01*
X115454819Y-137250000D02*
X115502438Y-137154762D01*
X115502438Y-137154762D02*
X115550057Y-137107143D01*
X115550057Y-137107143D02*
X115692914Y-137011905D01*
X115692914Y-137011905D02*
X115883390Y-136964286D01*
X115883390Y-136964286D02*
X116264342Y-136964286D01*
X116264342Y-136964286D02*
X116359580Y-137011905D01*
X116359580Y-137011905D02*
X116407200Y-137059524D01*
X116407200Y-137059524D02*
X116454819Y-137154762D01*
X116454819Y-137154762D02*
X116454819Y-137345238D01*
X116454819Y-137345238D02*
X116407200Y-137440476D01*
X116407200Y-137440476D02*
X116359580Y-137488095D01*
X116359580Y-137488095D02*
X116264342Y-137535714D01*
X116264342Y-137535714D02*
X116026247Y-137535714D01*
X116026247Y-137535714D02*
X115931009Y-137488095D01*
X115931009Y-137488095D02*
X115883390Y-137440476D01*
X115883390Y-137440476D02*
X115835771Y-137345238D01*
X115835771Y-137345238D02*
X115835771Y-137154762D01*
X115835771Y-137154762D02*
X115883390Y-137059524D01*
X115883390Y-137059524D02*
X115931009Y-137011905D01*
X115931009Y-137011905D02*
X116026247Y-136964286D01*
X116454819Y-138488095D02*
X116454819Y-137916667D01*
X116454819Y-138202381D02*
X115454819Y-138202381D01*
X115454819Y-138202381D02*
X115597676Y-138107143D01*
X115597676Y-138107143D02*
X115692914Y-138011905D01*
X115692914Y-138011905D02*
X115740533Y-137916667D01*
D12*
%TO.C,R140*%
X118977500Y-145287258D02*
X118977500Y-144812742D01*
X120022500Y-145287258D02*
X120022500Y-144812742D01*
%TO.C,R122*%
X168477500Y-126350242D02*
X168477500Y-126824758D01*
X169522500Y-126350242D02*
X169522500Y-126824758D01*
%TO.C,FB103*%
X116664758Y-114590000D02*
X118335242Y-114590000D01*
X116664758Y-116410000D02*
X118335242Y-116410000D01*
%TO.C,C155*%
X147065000Y-146890580D02*
X147065000Y-146609420D01*
X148085000Y-146890580D02*
X148085000Y-146609420D01*
%TO.C,R134*%
X127077500Y-111474758D02*
X127077500Y-111000242D01*
X128122500Y-111474758D02*
X128122500Y-111000242D01*
%TO.C,C157*%
X139415000Y-147473752D02*
X139415000Y-146051248D01*
X141235000Y-147473752D02*
X141235000Y-146051248D01*
%TO.C,C136*%
X129890000Y-118259420D02*
X129890000Y-118540580D01*
X130910000Y-118259420D02*
X130910000Y-118540580D01*
%TO.C,C158*%
X141815000Y-146903080D02*
X141815000Y-146621920D01*
X142835000Y-146903080D02*
X142835000Y-146621920D01*
%TO.C,D103*%
X158740000Y-119750000D02*
X162750000Y-119750000D01*
X158740000Y-121750000D02*
X158740000Y-119750000D01*
X158740000Y-121750000D02*
X162750000Y-121750000D01*
%TO.C,C150*%
X129488748Y-133190000D02*
X130911252Y-133190000D01*
X129488748Y-135010000D02*
X130911252Y-135010000D01*
%TO.C,C162*%
X108690000Y-116511252D02*
X108690000Y-115088748D01*
X110510000Y-116511252D02*
X110510000Y-115088748D01*
%TO.C,FB104*%
X132585242Y-114340000D02*
X130914758Y-114340000D01*
X132585242Y-116160000D02*
X130914758Y-116160000D01*
%TO.C,C131*%
X122379420Y-127415000D02*
X122660580Y-127415000D01*
X122379420Y-128435000D02*
X122660580Y-128435000D01*
%TO.C,R130*%
X126482742Y-125902500D02*
X126957258Y-125902500D01*
X126482742Y-126947500D02*
X126957258Y-126947500D01*
%TO.C,R165*%
X125977500Y-147237258D02*
X125977500Y-146762742D01*
X127022500Y-147237258D02*
X127022500Y-146762742D01*
%TO.C,C163*%
X126070000Y-140461252D02*
X126070000Y-139038748D01*
X127890000Y-140461252D02*
X127890000Y-139038748D01*
%TO.C,R154*%
X135737258Y-123677500D02*
X135262742Y-123677500D01*
X135737258Y-124722500D02*
X135262742Y-124722500D01*
%TO.C,C132*%
X124790000Y-116190580D02*
X124790000Y-115909420D01*
X125810000Y-116190580D02*
X125810000Y-115909420D01*
%TO.C,C161*%
X137890580Y-135790000D02*
X137609420Y-135790000D01*
X137890580Y-136810000D02*
X137609420Y-136810000D01*
%TO.C,R127*%
X122757258Y-125872500D02*
X122282742Y-125872500D01*
X122757258Y-126917500D02*
X122282742Y-126917500D01*
%TO.C,D105*%
X154750000Y-127360000D02*
X154750000Y-123350000D01*
X156750000Y-127360000D02*
X154750000Y-127360000D01*
X156750000Y-127360000D02*
X156750000Y-123350000D01*
%TO.C,C137*%
X127340000Y-117688748D02*
X127340000Y-119111252D01*
X129160000Y-117688748D02*
X129160000Y-119111252D01*
%TO.C,U104*%
X133250000Y-143390000D02*
X131050000Y-143390000D01*
X133250000Y-143390000D02*
X135450000Y-143390000D01*
X133250000Y-148610000D02*
X131050000Y-148610000D01*
X133250000Y-148610000D02*
X135450000Y-148610000D01*
X136150000Y-143590000D02*
X135910000Y-143260000D01*
X136390000Y-143260000D01*
X136150000Y-143590000D01*
G36*
X136150000Y-143590000D02*
G01*
X135910000Y-143260000D01*
X136390000Y-143260000D01*
X136150000Y-143590000D01*
G37*
%TO.C,C165*%
X136711252Y-140840000D02*
X135288748Y-140840000D01*
X136711252Y-142660000D02*
X135288748Y-142660000D01*
%TO.C,R164*%
X127477500Y-146762742D02*
X127477500Y-147237258D01*
X128522500Y-146762742D02*
X128522500Y-147237258D01*
%TO.C,R124*%
X157477500Y-123175242D02*
X157477500Y-123649758D01*
X158522500Y-123175242D02*
X158522500Y-123649758D01*
%TO.C,R162*%
X122977500Y-139987258D02*
X122977500Y-139512742D01*
X124022500Y-139987258D02*
X124022500Y-139512742D01*
%TO.C,C135*%
X129740000Y-123290580D02*
X129740000Y-123009420D01*
X130760000Y-123290580D02*
X130760000Y-123009420D01*
%TO.C,D104*%
X163490000Y-119750000D02*
X167500000Y-119750000D01*
X163490000Y-121750000D02*
X163490000Y-119750000D01*
X163490000Y-121750000D02*
X167500000Y-121750000D01*
%TO.C,R157*%
X146737742Y-141077500D02*
X147212258Y-141077500D01*
X146737742Y-142122500D02*
X147212258Y-142122500D01*
%TO.C,C128*%
X120190000Y-117838748D02*
X120190000Y-119261252D01*
X122010000Y-117838748D02*
X122010000Y-119261252D01*
%TO.C,U106*%
X143440000Y-146750000D02*
X143440000Y-145950000D01*
X143440000Y-146750000D02*
X143440000Y-147550000D01*
X146560000Y-146750000D02*
X146560000Y-145950000D01*
X146560000Y-146750000D02*
X146560000Y-147550000D01*
X143490000Y-145450000D02*
X143160000Y-145690000D01*
X143160000Y-145210000D01*
X143490000Y-145450000D01*
G36*
X143490000Y-145450000D02*
G01*
X143160000Y-145690000D01*
X143160000Y-145210000D01*
X143490000Y-145450000D01*
G37*
%TO.C,C164*%
X131109420Y-139240000D02*
X131390580Y-139240000D01*
X131109420Y-140260000D02*
X131390580Y-140260000D01*
%TO.C,R121*%
X157477500Y-126250242D02*
X157477500Y-126724758D01*
X158522500Y-126250242D02*
X158522500Y-126724758D01*
%TO.C,C127*%
X118690000Y-118409420D02*
X118690000Y-118690580D01*
X119710000Y-118409420D02*
X119710000Y-118690580D01*
%TO.C,C166*%
X136140580Y-139240000D02*
X135859420Y-139240000D01*
X136140580Y-140260000D02*
X135859420Y-140260000D01*
%TO.C,R152*%
X103737500Y-115512742D02*
X103737500Y-115987258D01*
X104782500Y-115512742D02*
X104782500Y-115987258D01*
%TO.C,D106*%
X158740000Y-128250000D02*
X162750000Y-128250000D01*
X158740000Y-130250000D02*
X158740000Y-128250000D01*
X158740000Y-130250000D02*
X162750000Y-130250000D01*
%TO.C,R151*%
X102227500Y-115512742D02*
X102227500Y-115987258D01*
X103272500Y-115512742D02*
X103272500Y-115987258D01*
%TO.C,C159*%
X130538748Y-140840000D02*
X131961252Y-140840000D01*
X130538748Y-142660000D02*
X131961252Y-142660000D01*
%TO.C,D110*%
X124610000Y-133000000D02*
X120600000Y-133000000D01*
X124610000Y-133000000D02*
X124610000Y-135000000D01*
X124610000Y-135000000D02*
X120600000Y-135000000D01*
%TO.C,U101*%
X123125000Y-119455000D02*
X123125000Y-120125000D01*
X123125000Y-121425000D02*
X123125000Y-122400000D01*
X123350000Y-122400000D02*
X123125000Y-122400000D01*
X126150000Y-122400000D02*
X126375000Y-122400000D01*
X126375000Y-119150000D02*
X126150000Y-119150000D01*
X126375000Y-119150000D02*
X126375000Y-120125000D01*
X126375000Y-121425000D02*
X126375000Y-122400000D01*
X123330000Y-118935000D02*
X123000000Y-119175000D01*
X123000000Y-118695000D01*
X123330000Y-118935000D01*
G36*
X123330000Y-118935000D02*
G01*
X123000000Y-119175000D01*
X123000000Y-118695000D01*
X123330000Y-118935000D01*
G37*
%TO.C,R166*%
X124237258Y-145977500D02*
X123762742Y-145977500D01*
X124237258Y-147022500D02*
X123762742Y-147022500D01*
%TO.C,C156*%
X141890580Y-123990000D02*
X141609420Y-123990000D01*
X141890580Y-125010000D02*
X141609420Y-125010000D01*
%TO.C,C130*%
X118710000Y-123365580D02*
X118710000Y-123084420D01*
X119730000Y-123365580D02*
X119730000Y-123084420D01*
%TO.C,C154*%
X142461252Y-121590000D02*
X141038748Y-121590000D01*
X142461252Y-123410000D02*
X141038748Y-123410000D01*
%TO.C,C144*%
X125442500Y-111096920D02*
X125442500Y-111378080D01*
X126462500Y-111096920D02*
X126462500Y-111378080D01*
%TO.C,R125*%
X168477500Y-123175242D02*
X168477500Y-123649758D01*
X169522500Y-123175242D02*
X169522500Y-123649758D01*
%TO.C,C153*%
X138436252Y-133390000D02*
X137013748Y-133390000D01*
X138436252Y-135210000D02*
X137013748Y-135210000D01*
%TO.C,R129*%
X125477500Y-130487258D02*
X125477500Y-130012742D01*
X126522500Y-130487258D02*
X126522500Y-130012742D01*
%TO.C,Q101*%
X122440000Y-143812500D02*
X122440000Y-143162500D01*
X122440000Y-143812500D02*
X122440000Y-144462500D01*
X125560000Y-143812500D02*
X125560000Y-143162500D01*
X125560000Y-143812500D02*
X125560000Y-144462500D01*
X125840000Y-145215000D02*
X125510000Y-144975000D01*
X125840000Y-144735000D01*
X125840000Y-145215000D01*
G36*
X125840000Y-145215000D02*
G01*
X125510000Y-144975000D01*
X125840000Y-144735000D01*
X125840000Y-145215000D01*
G37*
%TO.C,R153*%
X111662258Y-119277500D02*
X111187742Y-119277500D01*
X111662258Y-120322500D02*
X111187742Y-120322500D01*
%TO.C,R150*%
X147237258Y-139477500D02*
X146762742Y-139477500D01*
X147237258Y-140522500D02*
X146762742Y-140522500D01*
%TO.C,C133*%
X126579420Y-127375000D02*
X126860580Y-127375000D01*
X126579420Y-128395000D02*
X126860580Y-128395000D01*
%TO.C,C152*%
X130084420Y-135590000D02*
X130365580Y-135590000D01*
X130084420Y-136610000D02*
X130365580Y-136610000D01*
%TO.C,R163*%
X124477500Y-139987258D02*
X124477500Y-139512742D01*
X125522500Y-139987258D02*
X125522500Y-139512742D01*
%TO.C,C148*%
X142461252Y-126840000D02*
X141038748Y-126840000D01*
X142461252Y-128660000D02*
X141038748Y-128660000D01*
%TO.C,R101*%
X135737258Y-128477500D02*
X135262742Y-128477500D01*
X135737258Y-129522500D02*
X135262742Y-129522500D01*
%TO.C,R155*%
X123762742Y-147477500D02*
X124237258Y-147477500D01*
X123762742Y-148522500D02*
X124237258Y-148522500D01*
%TO.C,R148*%
X142737258Y-139477500D02*
X142262742Y-139477500D01*
X142737258Y-140522500D02*
X142262742Y-140522500D01*
%TO.C,Q102*%
X120250000Y-138440000D02*
X119600000Y-138440000D01*
X120250000Y-138440000D02*
X120900000Y-138440000D01*
X120250000Y-141560000D02*
X119600000Y-141560000D01*
X120250000Y-141560000D02*
X120900000Y-141560000D01*
X119327500Y-141840000D02*
X118847500Y-141840000D01*
X119087500Y-141510000D01*
X119327500Y-141840000D01*
G36*
X119327500Y-141840000D02*
G01*
X118847500Y-141840000D01*
X119087500Y-141510000D01*
X119327500Y-141840000D01*
G37*
%TO.C,C160*%
X148665000Y-147461252D02*
X148665000Y-146038748D01*
X150485000Y-147461252D02*
X150485000Y-146038748D01*
%TO.C,C149*%
X141915580Y-125480000D02*
X141634420Y-125480000D01*
X141915580Y-126500000D02*
X141634420Y-126500000D01*
%TO.C,D107*%
X163490000Y-128250000D02*
X167500000Y-128250000D01*
X163490000Y-130250000D02*
X163490000Y-128250000D01*
X163490000Y-130250000D02*
X167500000Y-130250000D01*
%TO.C,R128*%
X122977500Y-129937742D02*
X122977500Y-130412258D01*
X124022500Y-129937742D02*
X124022500Y-130412258D01*
%TO.C,R102*%
X114177500Y-145287258D02*
X114177500Y-144812742D01*
X115222500Y-145287258D02*
X115222500Y-144812742D01*
%TO.C,C129*%
X120190000Y-123961252D02*
X120190000Y-122538748D01*
X122010000Y-123961252D02*
X122010000Y-122538748D01*
%TO.C,C134*%
X127340000Y-123861252D02*
X127340000Y-122438748D01*
X129160000Y-123861252D02*
X129160000Y-122438748D01*
%TO.C,R158*%
X142262742Y-141077500D02*
X142737258Y-141077500D01*
X142262742Y-142122500D02*
X142737258Y-142122500D01*
%TO.C,R160*%
X116977500Y-140237258D02*
X116977500Y-139762742D01*
X118022500Y-140237258D02*
X118022500Y-139762742D01*
%TO.C,R161*%
X115477500Y-139762742D02*
X115477500Y-140237258D01*
X116522500Y-139762742D02*
X116522500Y-140237258D01*
%TD*%
M02*
