%TF.GenerationSoftware,KiCad,Pcbnew,9.0.0*%
%TF.CreationDate,2025-04-26T17:32:35+02:00*%
%TF.ProjectId,Differential_Probe,44696666-6572-4656-9e74-69616c5f5072,rev?*%
%TF.SameCoordinates,Original*%
%TF.FileFunction,Paste,Top*%
%TF.FilePolarity,Positive*%
%FSLAX46Y46*%
G04 Gerber Fmt 4.6, Leading zero omitted, Abs format (unit mm)*
G04 Created by KiCad (PCBNEW 9.0.0) date 2025-04-26 17:32:35*
%MOMM*%
%LPD*%
G01*
G04 APERTURE LIST*
G04 Aperture macros list*
%AMRoundRect*
0 Rectangle with rounded corners*
0 $1 Rounding radius*
0 $2 $3 $4 $5 $6 $7 $8 $9 X,Y pos of 4 corners*
0 Add a 4 corners polygon primitive as box body*
4,1,4,$2,$3,$4,$5,$6,$7,$8,$9,$2,$3,0*
0 Add four circle primitives for the rounded corners*
1,1,$1+$1,$2,$3*
1,1,$1+$1,$4,$5*
1,1,$1+$1,$6,$7*
1,1,$1+$1,$8,$9*
0 Add four rect primitives between the rounded corners*
20,1,$1+$1,$2,$3,$4,$5,0*
20,1,$1+$1,$4,$5,$6,$7,0*
20,1,$1+$1,$6,$7,$8,$9,0*
20,1,$1+$1,$8,$9,$2,$3,0*%
%AMFreePoly0*
4,1,25,0.251037,0.433748,0.282717,0.409439,0.409439,0.282717,0.449030,0.214145,0.454242,0.174554,0.454242,-0.174554,0.433748,-0.251037,0.409439,-0.282717,0.282717,-0.409439,0.214145,-0.449030,0.174554,-0.454242,-0.174554,-0.454242,-0.251037,-0.433748,-0.282717,-0.409439,-0.409439,-0.282717,-0.449030,-0.214145,-0.454242,-0.174554,-0.454242,0.174554,-0.433748,0.251037,-0.409439,0.282717,
-0.282717,0.409439,-0.214145,0.449030,-0.174554,0.454242,0.174554,0.454242,0.251037,0.433748,0.251037,0.433748,$1*%
G04 Aperture macros list end*
%ADD10RoundRect,0.250000X0.325000X0.650000X-0.325000X0.650000X-0.325000X-0.650000X0.325000X-0.650000X0*%
%ADD11RoundRect,0.200000X0.200000X0.275000X-0.200000X0.275000X-0.200000X-0.275000X0.200000X-0.275000X0*%
%ADD12RoundRect,0.200000X0.275000X-0.200000X0.275000X0.200000X-0.275000X0.200000X-0.275000X-0.200000X0*%
%ADD13RoundRect,0.249750X1.250250X-0.305250X1.250250X0.305250X-1.250250X0.305250X-1.250250X-0.305250X0*%
%ADD14RoundRect,0.225000X0.250000X-0.225000X0.250000X0.225000X-0.250000X0.225000X-0.250000X-0.225000X0*%
%ADD15RoundRect,0.200000X-0.200000X-0.275000X0.200000X-0.275000X0.200000X0.275000X-0.200000X0.275000X0*%
%ADD16RoundRect,0.250000X0.362500X1.425000X-0.362500X1.425000X-0.362500X-1.425000X0.362500X-1.425000X0*%
%ADD17RoundRect,0.250000X-0.312500X-0.625000X0.312500X-0.625000X0.312500X0.625000X-0.312500X0.625000X0*%
%ADD18RoundRect,0.250000X0.312500X0.625000X-0.312500X0.625000X-0.312500X-0.625000X0.312500X-0.625000X0*%
%ADD19RoundRect,0.250000X0.650000X-0.325000X0.650000X0.325000X-0.650000X0.325000X-0.650000X-0.325000X0*%
%ADD20FreePoly0,90.000000*%
%ADD21RoundRect,0.062500X0.062500X-0.325000X0.062500X0.325000X-0.062500X0.325000X-0.062500X-0.325000X0*%
%ADD22RoundRect,0.062500X0.325000X-0.062500X0.325000X0.062500X-0.325000X0.062500X-0.325000X-0.062500X0*%
%ADD23RoundRect,0.250000X-0.625000X0.375000X-0.625000X-0.375000X0.625000X-0.375000X0.625000X0.375000X0*%
%ADD24RoundRect,0.250000X-0.325000X-0.650000X0.325000X-0.650000X0.325000X0.650000X-0.325000X0.650000X0*%
%ADD25R,2.300000X1.600000*%
%ADD26RoundRect,0.225000X0.225000X0.250000X-0.225000X0.250000X-0.225000X-0.250000X0.225000X-0.250000X0*%
%ADD27RoundRect,0.249750X-0.305250X-1.250250X0.305250X-1.250250X0.305250X1.250250X-0.305250X1.250250X0*%
%ADD28RoundRect,0.250000X-0.375000X-0.625000X0.375000X-0.625000X0.375000X0.625000X-0.375000X0.625000X0*%
%ADD29R,0.450000X1.450000*%
%ADD30RoundRect,0.250000X0.625000X-0.375000X0.625000X0.375000X-0.625000X0.375000X-0.625000X-0.375000X0*%
%ADD31RoundRect,0.225000X-0.225000X-0.250000X0.225000X-0.250000X0.225000X0.250000X-0.225000X0.250000X0*%
%ADD32RoundRect,0.350000X1.750000X-0.350000X1.750000X0.350000X-1.750000X0.350000X-1.750000X-0.350000X0*%
%ADD33RoundRect,0.225000X-0.225000X-0.375000X0.225000X-0.375000X0.225000X0.375000X-0.225000X0.375000X0*%
%ADD34RoundRect,0.225000X-0.375000X0.225000X-0.375000X-0.225000X0.375000X-0.225000X0.375000X0.225000X0*%
%ADD35RoundRect,0.175000X-0.425000X0.175000X-0.425000X-0.175000X0.425000X-0.175000X0.425000X0.175000X0*%
%ADD36RoundRect,0.190000X0.410000X-0.190000X0.410000X0.190000X-0.410000X0.190000X-0.410000X-0.190000X0*%
%ADD37RoundRect,0.200000X0.400000X-0.200000X0.400000X0.200000X-0.400000X0.200000X-0.400000X-0.200000X0*%
%ADD38RoundRect,0.175000X0.425000X-0.175000X0.425000X0.175000X-0.425000X0.175000X-0.425000X-0.175000X0*%
%ADD39RoundRect,0.190000X-0.410000X0.190000X-0.410000X-0.190000X0.410000X-0.190000X0.410000X0.190000X0*%
%ADD40RoundRect,0.200000X-0.400000X0.200000X-0.400000X-0.200000X0.400000X-0.200000X0.400000X0.200000X0*%
%ADD41O,1.700000X1.100000*%
%ADD42RoundRect,0.207500X0.277500X0.207500X-0.277500X0.207500X-0.277500X-0.207500X0.277500X-0.207500X0*%
%ADD43RoundRect,0.150000X0.737500X0.150000X-0.737500X0.150000X-0.737500X-0.150000X0.737500X-0.150000X0*%
G04 APERTURE END LIST*
D10*
%TO.C,C115*%
X178475000Y-147000000D03*
X175525000Y-147000000D03*
%TD*%
D11*
%TO.C,R172*%
X136825000Y-143750000D03*
X135175000Y-143750000D03*
%TD*%
D12*
%TO.C,R169*%
X145750000Y-137825000D03*
X145750000Y-136175000D03*
%TD*%
D13*
%TO.C,K102*%
X125730000Y-136505000D03*
X125730000Y-131425000D03*
X125730000Y-128885000D03*
X125730000Y-126345000D03*
X118440000Y-126345000D03*
X118440000Y-128885000D03*
X118440000Y-131425000D03*
X118440000Y-136505000D03*
%TD*%
D14*
%TO.C,C110*%
X164260000Y-136525000D03*
X164260000Y-134975000D03*
%TD*%
D12*
%TO.C,R170*%
X147250000Y-137825000D03*
X147250000Y-136175000D03*
%TD*%
D15*
%TO.C,R138*%
X144925000Y-128510000D03*
X146575000Y-128510000D03*
%TD*%
D16*
%TO.C,R139*%
X131425000Y-147250000D03*
X125500000Y-147250000D03*
%TD*%
D14*
%TO.C,C120*%
X158250000Y-115025000D03*
X158250000Y-113475000D03*
%TD*%
%TO.C,C141*%
X121762500Y-103262500D03*
X121762500Y-101712500D03*
%TD*%
D17*
%TO.C,R159*%
X140287500Y-138000000D03*
X143212500Y-138000000D03*
%TD*%
D18*
%TO.C,R107*%
X173462500Y-103000000D03*
X170537500Y-103000000D03*
%TD*%
%TO.C,R115*%
X178462500Y-144000000D03*
X175537500Y-144000000D03*
%TD*%
D14*
%TO.C,C112*%
X167260000Y-136525000D03*
X167260000Y-134975000D03*
%TD*%
D17*
%TO.C,R156*%
X140287500Y-135750000D03*
X143212500Y-135750000D03*
%TD*%
D14*
%TO.C,C119*%
X156750000Y-115025000D03*
X156750000Y-113475000D03*
%TD*%
D16*
%TO.C,R136*%
X131462500Y-143250000D03*
X125537500Y-143250000D03*
%TD*%
D12*
%TO.C,R133*%
X123262500Y-103312500D03*
X123262500Y-101662500D03*
%TD*%
D18*
%TO.C,R106*%
X178462500Y-103000000D03*
X175537500Y-103000000D03*
%TD*%
D19*
%TO.C,C138*%
X112512500Y-109212500D03*
X112512500Y-106262500D03*
%TD*%
D20*
%TO.C,U102*%
X123440000Y-108297500D03*
X124560000Y-108297500D03*
X123440000Y-107177500D03*
X124560000Y-107177500D03*
D21*
X122750000Y-109725000D03*
X123250000Y-109725000D03*
X123750000Y-109725000D03*
X124250000Y-109725000D03*
X124750000Y-109725000D03*
X125250000Y-109725000D03*
D22*
X125987500Y-108987500D03*
X125987500Y-108487500D03*
X125987500Y-107987500D03*
X125987500Y-107487500D03*
X125987500Y-106987500D03*
X125987500Y-106487500D03*
D21*
X125250000Y-105750000D03*
X124750000Y-105750000D03*
X124250000Y-105750000D03*
X123750000Y-105750000D03*
X123250000Y-105750000D03*
X122750000Y-105750000D03*
D22*
X122012500Y-106487500D03*
X122012500Y-106987500D03*
X122012500Y-107487500D03*
X122012500Y-107987500D03*
X122012500Y-108487500D03*
X122012500Y-108987500D03*
%TD*%
D23*
%TO.C,D111*%
X119500000Y-143650000D03*
X119500000Y-146450000D03*
%TD*%
D15*
%TO.C,R168*%
X135175000Y-146750000D03*
X136825000Y-146750000D03*
%TD*%
D24*
%TO.C,C114*%
X180525000Y-147000000D03*
X183475000Y-147000000D03*
%TD*%
D14*
%TO.C,C123*%
X156760000Y-136525000D03*
X156760000Y-134975000D03*
%TD*%
D10*
%TO.C,R113*%
X158475000Y-140000000D03*
X155525000Y-140000000D03*
%TD*%
D14*
%TO.C,C142*%
X124762500Y-103262500D03*
X124762500Y-101712500D03*
%TD*%
D18*
%TO.C,R116*%
X173462500Y-144000000D03*
X170537500Y-144000000D03*
%TD*%
D25*
%TO.C,C104*%
X169400000Y-115000000D03*
X174100000Y-115000000D03*
%TD*%
D14*
%TO.C,C103*%
X164250000Y-115025000D03*
X164250000Y-113475000D03*
%TD*%
D26*
%TO.C,C151*%
X126275000Y-139750000D03*
X124725000Y-139750000D03*
%TD*%
D11*
%TO.C,R132*%
X116087500Y-105987500D03*
X114437500Y-105987500D03*
%TD*%
D24*
%TO.C,C105*%
X180525000Y-106000000D03*
X183475000Y-106000000D03*
%TD*%
D27*
%TO.C,K101*%
X155650000Y-128645000D03*
X160730000Y-128645000D03*
X163270000Y-128645000D03*
X165810000Y-128645000D03*
X165810000Y-121355000D03*
X163270000Y-121355000D03*
X160730000Y-121355000D03*
X155650000Y-121355000D03*
%TD*%
D25*
%TO.C,C122*%
X154600000Y-115000000D03*
X149900000Y-115000000D03*
%TD*%
D10*
%TO.C,C106*%
X178475000Y-106000000D03*
X175525000Y-106000000D03*
%TD*%
D14*
%TO.C,C101*%
X167250000Y-115025000D03*
X167250000Y-113475000D03*
%TD*%
D28*
%TO.C,F101*%
X109600000Y-114250000D03*
X112400000Y-114250000D03*
%TD*%
D18*
%TO.C,R117*%
X168462500Y-144000000D03*
X165537500Y-144000000D03*
%TD*%
%TO.C,R109*%
X163462500Y-103000000D03*
X160537500Y-103000000D03*
%TD*%
D17*
%TO.C,R145*%
X140287500Y-133570000D03*
X143212500Y-133570000D03*
%TD*%
D29*
%TO.C,IC101*%
X142975000Y-122775000D03*
X142325000Y-122775000D03*
X141675000Y-122775000D03*
X141025000Y-122775000D03*
X141025000Y-127225000D03*
X141675000Y-127225000D03*
X142325000Y-127225000D03*
X142975000Y-127225000D03*
%TD*%
D15*
%TO.C,R120*%
X148712500Y-118500000D03*
X150362500Y-118500000D03*
%TD*%
D10*
%TO.C,C117*%
X168475000Y-147000000D03*
X165525000Y-147000000D03*
%TD*%
D14*
%TO.C,C124*%
X158260000Y-136525000D03*
X158260000Y-134975000D03*
%TD*%
D18*
%TO.C,R114*%
X183462500Y-144000000D03*
X180537500Y-144000000D03*
%TD*%
D11*
%TO.C,R123*%
X150325000Y-131500000D03*
X148675000Y-131500000D03*
%TD*%
D15*
%TO.C,R142*%
X141175000Y-140000000D03*
X142825000Y-140000000D03*
%TD*%
D30*
%TO.C,D112*%
X112500000Y-120650000D03*
X112500000Y-117850000D03*
%TD*%
D11*
%TO.C,R104*%
X174825000Y-118500000D03*
X173175000Y-118500000D03*
%TD*%
D24*
%TO.C,R112*%
X155525000Y-110000000D03*
X158475000Y-110000000D03*
%TD*%
D12*
%TO.C,R135*%
X126262500Y-103312500D03*
X126262500Y-101662500D03*
%TD*%
D15*
%TO.C,R119*%
X152137500Y-118500000D03*
X153787500Y-118500000D03*
%TD*%
D11*
%TO.C,R103*%
X170325000Y-118500000D03*
X168675000Y-118500000D03*
%TD*%
D17*
%TO.C,R144*%
X135287500Y-139500000D03*
X138212500Y-139500000D03*
%TD*%
D28*
%TO.C,D101*%
X134100000Y-129000000D03*
X136900000Y-129000000D03*
%TD*%
D11*
%TO.C,R126*%
X153575000Y-131500000D03*
X151925000Y-131500000D03*
%TD*%
D10*
%TO.C,C118*%
X163475000Y-147000000D03*
X160525000Y-147000000D03*
%TD*%
D14*
%TO.C,C125*%
X159750000Y-136525000D03*
X159750000Y-134975000D03*
%TD*%
D15*
%TO.C,R171*%
X135175000Y-142250000D03*
X136825000Y-142250000D03*
%TD*%
D10*
%TO.C,C107*%
X173475000Y-106000000D03*
X170525000Y-106000000D03*
%TD*%
D11*
%TO.C,R167*%
X136825000Y-145250000D03*
X135175000Y-145250000D03*
%TD*%
D25*
%TO.C,C126*%
X149900000Y-135000000D03*
X154600000Y-135000000D03*
%TD*%
D12*
%TO.C,R131*%
X116012500Y-109062500D03*
X116012500Y-107412500D03*
%TD*%
D14*
%TO.C,C102*%
X165750000Y-115025000D03*
X165750000Y-113475000D03*
%TD*%
D28*
%TO.C,D113*%
X134100000Y-124200000D03*
X136900000Y-124200000D03*
%TD*%
D10*
%TO.C,C116*%
X173475000Y-147000000D03*
X170525000Y-147000000D03*
%TD*%
D31*
%TO.C,C147*%
X118487500Y-103987500D03*
X120037500Y-103987500D03*
%TD*%
D24*
%TO.C,C145*%
X130775000Y-112000000D03*
X133725000Y-112000000D03*
%TD*%
D18*
%TO.C,R108*%
X168462500Y-103000000D03*
X165537500Y-103000000D03*
%TD*%
D32*
%TO.C,L101*%
X119500000Y-117850000D03*
X119500000Y-114150000D03*
%TD*%
D33*
%TO.C,D108*%
X115100000Y-111500000D03*
X118400000Y-111500000D03*
%TD*%
D25*
%TO.C,C113*%
X174100000Y-135000000D03*
X169400000Y-135000000D03*
%TD*%
D32*
%TO.C,L102*%
X133000000Y-108947500D03*
X133000000Y-105247500D03*
%TD*%
D18*
%TO.C,R141*%
X143212500Y-131320000D03*
X140287500Y-131320000D03*
%TD*%
D10*
%TO.C,C140*%
X127427500Y-115067500D03*
X124477500Y-115067500D03*
%TD*%
D31*
%TO.C,C146*%
X118512500Y-105487500D03*
X120062500Y-105487500D03*
%TD*%
D10*
%TO.C,C108*%
X168475000Y-106000000D03*
X165525000Y-106000000D03*
%TD*%
D18*
%TO.C,R143*%
X133462500Y-139500000D03*
X130537500Y-139500000D03*
%TD*%
D11*
%TO.C,R137*%
X146500000Y-121500000D03*
X144850000Y-121500000D03*
%TD*%
D14*
%TO.C,C111*%
X165750000Y-136525000D03*
X165750000Y-134975000D03*
%TD*%
%TO.C,C139*%
X114512500Y-109012500D03*
X114512500Y-107462500D03*
%TD*%
D23*
%TO.C,D102*%
X114700000Y-143650000D03*
X114700000Y-146450000D03*
%TD*%
D15*
%TO.C,R111*%
X168750000Y-131500000D03*
X170400000Y-131500000D03*
%TD*%
D10*
%TO.C,C143*%
X127427500Y-112717500D03*
X124477500Y-112717500D03*
%TD*%
D34*
%TO.C,D109*%
X129000000Y-105377500D03*
X129000000Y-108677500D03*
%TD*%
D10*
%TO.C,C109*%
X163475000Y-106000000D03*
X160525000Y-106000000D03*
%TD*%
D18*
%TO.C,R118*%
X163462500Y-144000000D03*
X160537500Y-144000000D03*
%TD*%
D14*
%TO.C,C121*%
X159750000Y-115025000D03*
X159750000Y-113475000D03*
%TD*%
D35*
%TO.C,J104*%
X106530000Y-115430000D03*
D36*
X106530000Y-117450000D03*
D37*
X106530000Y-118680000D03*
D38*
X106530000Y-116430000D03*
D39*
X106530000Y-114410000D03*
D40*
X106530000Y-113180000D03*
D41*
X106450000Y-111610000D03*
X102650000Y-111610000D03*
X106450000Y-120250000D03*
X102650000Y-120250000D03*
%TD*%
D18*
%TO.C,R105*%
X183462500Y-103000000D03*
X180537500Y-103000000D03*
%TD*%
D15*
%TO.C,R110*%
X173175000Y-131500000D03*
X174825000Y-131500000D03*
%TD*%
D42*
%TO.C,U103*%
X134500000Y-136500000D03*
X134500000Y-135470000D03*
X134500000Y-134440000D03*
X133300000Y-136500000D03*
X133300000Y-135470000D03*
X133300000Y-134440000D03*
D43*
X136462500Y-137375000D03*
X136462500Y-136105000D03*
X136462500Y-134835000D03*
X136462500Y-133565000D03*
X131337500Y-133565000D03*
X131337500Y-134835000D03*
X131337500Y-136105000D03*
X131337500Y-137375000D03*
%TD*%
M02*
