M48
; DRILL file {KiCad 9.0.0} date 2025-04-26T17:32:37+0200
; FORMAT={-:-/ absolute / inch / decimal}
; #@! TF.CreationDate,2025-04-26T17:32:37+02:00
; #@! TF.GenerationSoftware,Kicad,Pcbnew,9.0.0
; #@! TF.FileFunction,Plated,1,4,PTH
FMAT,2
INCH
; #@! TA.AperFunction,Plated,PTH,ComponentDrill
T1C0.0079
; #@! TA.AperFunction,Plated,PTH,ViaDrill
T2C0.0118
; #@! TA.AperFunction,Plated,PTH,ComponentDrill
T3C0.0118
; #@! TA.AperFunction,Plated,PTH,ComponentDrill
T4C0.0197
; #@! TA.AperFunction,Plated,PTH,ComponentDrill
T5C0.0236
; #@! TA.AperFunction,Plated,PTH,ComponentDrill
T6C0.0315
; #@! TA.AperFunction,Plated,PTH,ComponentDrill
T7C0.0350
; #@! TA.AperFunction,Plated,PTH,ComponentDrill
T8C0.0866
; #@! TA.AperFunction,Plated,PTH,ComponentDrill
T9C0.0939
; #@! TA.AperFunction,Plated,PTH,ComponentDrill
T10C0.1260
%
G90
G05
T1
X4.8435Y-4.2032
X4.8435Y-4.2416
X4.8435Y-4.28
X4.8819Y-4.2032
X4.8819Y-4.2416
X4.8819Y-4.28
X4.9203Y-4.2032
X4.9203Y-4.2416
X4.9203Y-4.28
T2
X3.9764Y-4.7933
X3.9764Y-4.8327
X3.9961Y-4.2913
X3.9961Y-4.3307
X4.0157Y-4.7933
X4.0157Y-4.8327
X4.0354Y-4.2913
X4.0354Y-4.3307
X4.0472Y-4.6457
X4.0551Y-4.7933
X4.0551Y-4.8327
X4.0748Y-4.2913
X4.0748Y-4.3307
X4.0945Y-4.7933
X4.0945Y-4.8327
X4.1043Y-4.6457
X4.1142Y-4.2913
X4.1142Y-4.3307
X4.1339Y-4.7933
X4.1339Y-4.8327
X4.1535Y-4.2913
X4.1535Y-4.3307
X4.1732Y-4.7933
X4.1732Y-4.8327
X4.1929Y-4.2913
X4.1929Y-4.3307
X4.198Y-4.5445
X4.198Y-4.5839
X4.2126Y-4.7933
X4.2126Y-4.8327
X4.2323Y-4.2913
X4.2323Y-4.3307
X4.252Y-4.7933
X4.252Y-4.8327
X4.2618Y-4.4488
X4.2717Y-4.2913
X4.2717Y-4.3307
X4.2913Y-4.7165
X4.2992Y-4.6772
X4.3898Y-4.3701
X4.3898Y-4.4094
X4.4094Y-5.6299
X4.4262Y-4.81
X4.4291Y-4.3701
X4.4291Y-4.4094
X4.4685Y-4.3701
X4.4685Y-4.4094
X4.498Y-4.685
X4.498Y-4.7244
X4.498Y-4.7638
X4.498Y-4.8031
X4.5157Y-5.8346
X4.5276Y-3.9862
X4.5276Y-4.0256
X4.5374Y-4.685
X4.5374Y-4.7244
X4.5374Y-4.7638
X4.5374Y-4.8031
X4.5669Y-3.9862
X4.5669Y-4.0256
X4.5768Y-4.685
X4.5768Y-4.7244
X4.5768Y-4.7638
X4.5768Y-4.8031
X4.6063Y-3.9862
X4.6063Y-4.0256
X4.626Y-5.2756
X4.626Y-5.4232
X4.6358Y-5.6791
X4.6457Y-3.9862
X4.6457Y-4.0256
X4.6654Y-4.7638
X4.685Y-3.9862
X4.685Y-4.0256
X4.7047Y-4.7638
X4.7047Y-5.8268
X4.7441Y-5.0787
X4.7441Y-5.1181
X4.7441Y-5.1575
X4.7638Y-4.1929
X4.7835Y-5.0787
X4.7835Y-5.1181
X4.7835Y-5.1575
X4.8031Y-5.8268
X4.8228Y-5.0787
X4.8228Y-5.1181
X4.8228Y-5.1575
X4.8425Y-4.4094
X4.8425Y-4.4685
X4.8425Y-4.5276
X4.8425Y-5.5709
X4.8917Y-4.3701
X4.8917Y-5.2165
X4.9331Y-4.6476
X4.9409Y-4.4882
X4.9409Y-5.4232
X4.9449Y-4.4567
X4.9803Y-5.2854
X5.0122Y-4.3023
X5.0367Y-5.4849
X5.0394Y-4.0453
X5.0492Y-5.1969
X5.0591Y-5.374
X5.0709Y-4.3858
X5.0776Y-5.7972
X5.0787Y-4.9606
X5.0787Y-5.0
X5.0787Y-5.0394
X5.0787Y-5.6594
X5.0787Y-5.8268
X5.0886Y-5.4085
X5.0984Y-5.4429
X5.1181Y-4.7638
X5.1181Y-4.9606
X5.1181Y-5.0
X5.1181Y-5.0394
X5.1575Y-4.7638
X5.1575Y-4.9606
X5.1575Y-5.0
X5.1575Y-5.0394
X5.1841Y-5.1742
X5.1969Y-4.5965
X5.1969Y-4.626
X5.2165Y-5.0787
X5.2165Y-5.7283
X5.2185Y-4.8898
X5.2362Y-4.5965
X5.2362Y-4.626
X5.2362Y-5.6594
X5.2559Y-5.2953
X5.2559Y-5.3346
X5.2559Y-5.374
X5.2559Y-5.6988
X5.2657Y-5.6594
X5.2756Y-4.5965
X5.2756Y-4.626
X5.2953Y-5.2953
X5.2953Y-5.3346
X5.2953Y-5.374
X5.315Y-4.5079
X5.315Y-4.5374
X5.315Y-4.5669
X5.315Y-4.5965
X5.315Y-4.626
X5.3346Y-4.3701
X5.3346Y-4.4094
X5.3346Y-4.4488
X5.3445Y-4.5079
X5.3445Y-4.5374
X5.3445Y-4.5669
X5.3445Y-4.5965
X5.3445Y-4.626
X5.3543Y-5.5512
X5.3642Y-5.1772
X5.374Y-4.3701
X5.374Y-4.4094
X5.374Y-4.4488
X5.374Y-4.8031
X5.3937Y-5.4656
X5.4311Y-5.7992
X5.4331Y-5.7677
X5.4528Y-5.0787
X5.4528Y-5.4085
X5.4626Y-5.2165
X5.4715Y-5.0295
X5.4724Y-4.8228
X5.4724Y-5.5709
X5.4848Y-5.5462
X5.4921Y-4.9016
X5.4925Y-4.9602
X5.5217Y-5.6693
X5.5413Y-4.7441
X5.5778Y-4.7343
X5.5906Y-5.8661
X5.6004Y-5.4724
X5.6102Y-4.7588
X5.6102Y-5.0886
X5.6102Y-5.7087
X5.689Y-5.3839
X5.6929Y-5.2587
X5.6988Y-5.433
X5.7972Y-5.6988
X5.8189Y-5.2244
X5.8563Y-5.4331
X5.8691Y-5.6753
X5.876Y-5.5118
X5.9016Y-4.3862
X5.9016Y-5.4591
X5.9252Y-5.6693
X5.978Y-5.8223
X6.0433Y-5.5118
X6.0531Y-4.3307
X6.1319Y-5.1476
X6.1713Y-4.4098
X6.1713Y-4.6654
X6.1713Y-5.4335
X6.1949Y-4.7303
X6.2205Y-4.7731
X6.2303Y-4.4098
X6.2303Y-5.4335
X6.2894Y-4.4098
X6.2894Y-5.4335
X6.4469Y-4.8819
X6.4469Y-4.9508
X6.4665Y-4.4098
X6.4669Y-5.4331
X6.5256Y-4.4098
X6.5256Y-5.4335
X6.5846Y-4.4098
X6.5846Y-5.4335
X6.6535Y-5.0684
X6.8504Y-4.4291
X6.8504Y-5.4232
T3
X4.8819Y-4.7352
X4.8819Y-4.7746
X4.9114Y-4.7549
X4.9409Y-4.7352
X4.9409Y-4.7746
T4
X4.0394Y-4.1339
X4.0394Y-5.7087
X4.067Y-4.067
X4.067Y-4.2007
X4.067Y-5.6418
X4.067Y-5.7755
X4.1339Y-4.0394
X4.1339Y-4.2283
X4.1339Y-5.6142
X4.1339Y-5.8031
X4.2007Y-4.067
X4.2007Y-4.2007
X4.2007Y-5.6418
X4.2007Y-5.7755
X4.2283Y-4.1339
X4.2283Y-5.7087
X4.3406Y-4.1732
X4.3406Y-4.2717
X5.0689Y-5.5217
X5.0965Y-5.1791
X5.0984Y-5.0787
X5.2264Y-4.6752
X5.3051Y-4.6752
X5.6988Y-5.4921
X5.7283Y-4.8425
X5.7283Y-4.9213
X5.7283Y-5.0
X5.7677Y-5.1378
X5.7677Y-5.2165
X5.7685Y-5.2961
X6.0079Y-4.1339
X6.0079Y-5.7087
X6.0355Y-4.067
X6.0355Y-4.2007
X6.0355Y-5.6418
X6.0355Y-5.7755
X6.1024Y-4.0394
X6.1024Y-4.2283
X6.1024Y-5.6142
X6.1024Y-5.8031
X6.1692Y-4.067
X6.1692Y-4.2007
X6.1692Y-5.6418
X6.1692Y-5.7755
X6.1969Y-4.1339
X6.1969Y-5.7087
T6
X5.4528Y-4.0354
X5.4528Y-4.2717
X5.4528Y-4.4291
X5.4528Y-4.6654
X5.5512Y-4.0354
X5.5512Y-4.2717
X5.5512Y-4.4291
X5.5512Y-4.6654
X5.5988Y-5.6496
X5.6496Y-4.0354
X5.6496Y-4.2717
X5.6496Y-4.4291
X5.6496Y-4.6654
X5.6988Y-5.6496
X5.7988Y-5.6496
X5.9547Y-4.8126
X5.9547Y-4.9126
X5.9547Y-5.0126
X6.8012Y-4.8205
X6.8012Y-4.9205
X6.8012Y-5.0205
T7
X4.4185Y-5.1614
X4.4185Y-5.2614
T8
X7.3087Y-4.5307
X7.3087Y-5.3181
T9
X4.2185Y-4.9614
X4.2185Y-5.3614
T10
X4.1339Y-4.1339
X4.1339Y-5.7087
X6.1024Y-4.1339
X6.1024Y-5.7087
T5
G00X4.0531Y-4.3941
M15
G01X4.0295Y-4.3941
M16
G05
G00X4.0531Y-4.7343
M15
G01X4.0295Y-4.7343
M16
G05
G00X4.2028Y-4.3941
M15
G01X4.1791Y-4.3941
M16
G05
G00X4.2028Y-4.7343
M15
G01X4.1791Y-4.7343
M16
G05
M30
