%TF.GenerationSoftware,KiCad,Pcbnew,9.0.0*%
%TF.CreationDate,2025-04-26T17:32:35+02:00*%
%TF.ProjectId,Differential_Probe,44696666-6572-4656-9e74-69616c5f5072,rev?*%
%TF.SameCoordinates,Original*%
%TF.FileFunction,Copper,L1,Top*%
%TF.FilePolarity,Positive*%
%FSLAX46Y46*%
G04 Gerber Fmt 4.6, Leading zero omitted, Abs format (unit mm)*
G04 Created by KiCad (PCBNEW 9.0.0) date 2025-04-26 17:32:35*
%MOMM*%
%LPD*%
G01*
G04 APERTURE LIST*
G04 Aperture macros list*
%AMRoundRect*
0 Rectangle with rounded corners*
0 $1 Rounding radius*
0 $2 $3 $4 $5 $6 $7 $8 $9 X,Y pos of 4 corners*
0 Add a 4 corners polygon primitive as box body*
4,1,4,$2,$3,$4,$5,$6,$7,$8,$9,$2,$3,0*
0 Add four circle primitives for the rounded corners*
1,1,$1+$1,$2,$3*
1,1,$1+$1,$4,$5*
1,1,$1+$1,$6,$7*
1,1,$1+$1,$8,$9*
0 Add four rect primitives between the rounded corners*
20,1,$1+$1,$2,$3,$4,$5,0*
20,1,$1+$1,$4,$5,$6,$7,0*
20,1,$1+$1,$6,$7,$8,$9,0*
20,1,$1+$1,$8,$9,$2,$3,0*%
G04 Aperture macros list end*
%TA.AperFunction,SMDPad,CuDef*%
%ADD10RoundRect,0.250000X0.325000X0.650000X-0.325000X0.650000X-0.325000X-0.650000X0.325000X-0.650000X0*%
%TD*%
%TA.AperFunction,SMDPad,CuDef*%
%ADD11RoundRect,0.200000X0.200000X0.275000X-0.200000X0.275000X-0.200000X-0.275000X0.200000X-0.275000X0*%
%TD*%
%TA.AperFunction,SMDPad,CuDef*%
%ADD12RoundRect,0.200000X0.275000X-0.200000X0.275000X0.200000X-0.275000X0.200000X-0.275000X-0.200000X0*%
%TD*%
%TA.AperFunction,SMDPad,CuDef*%
%ADD13RoundRect,0.249750X1.250250X-0.305250X1.250250X0.305250X-1.250250X0.305250X-1.250250X-0.305250X0*%
%TD*%
%TA.AperFunction,ComponentPad*%
%ADD14C,1.000000*%
%TD*%
%TA.AperFunction,SMDPad,CuDef*%
%ADD15RoundRect,0.225000X0.250000X-0.225000X0.250000X0.225000X-0.250000X0.225000X-0.250000X-0.225000X0*%
%TD*%
%TA.AperFunction,ComponentPad*%
%ADD16C,0.800000*%
%TD*%
%TA.AperFunction,ComponentPad*%
%ADD17C,6.400000*%
%TD*%
%TA.AperFunction,SMDPad,CuDef*%
%ADD18RoundRect,0.200000X-0.200000X-0.275000X0.200000X-0.275000X0.200000X0.275000X-0.200000X0.275000X0*%
%TD*%
%TA.AperFunction,SMDPad,CuDef*%
%ADD19RoundRect,0.250000X0.362500X1.425000X-0.362500X1.425000X-0.362500X-1.425000X0.362500X-1.425000X0*%
%TD*%
%TA.AperFunction,SMDPad,CuDef*%
%ADD20RoundRect,0.250000X-0.312500X-0.625000X0.312500X-0.625000X0.312500X0.625000X-0.312500X0.625000X0*%
%TD*%
%TA.AperFunction,SMDPad,CuDef*%
%ADD21RoundRect,0.250000X0.312500X0.625000X-0.312500X0.625000X-0.312500X-0.625000X0.312500X-0.625000X0*%
%TD*%
%TA.AperFunction,ComponentPad*%
%ADD22C,1.300000*%
%TD*%
%TA.AperFunction,SMDPad,CuDef*%
%ADD23RoundRect,0.250000X0.650000X-0.325000X0.650000X0.325000X-0.650000X0.325000X-0.650000X-0.325000X0*%
%TD*%
%TA.AperFunction,SMDPad,CuDef*%
%ADD24RoundRect,0.062500X0.062500X-0.325000X0.062500X0.325000X-0.062500X0.325000X-0.062500X-0.325000X0*%
%TD*%
%TA.AperFunction,SMDPad,CuDef*%
%ADD25RoundRect,0.062500X0.325000X-0.062500X0.325000X0.062500X-0.325000X0.062500X-0.325000X-0.062500X0*%
%TD*%
%TA.AperFunction,HeatsinkPad*%
%ADD26C,0.500000*%
%TD*%
%TA.AperFunction,HeatsinkPad*%
%ADD27R,2.450000X2.450000*%
%TD*%
%TA.AperFunction,SMDPad,CuDef*%
%ADD28RoundRect,0.250000X-0.625000X0.375000X-0.625000X-0.375000X0.625000X-0.375000X0.625000X0.375000X0*%
%TD*%
%TA.AperFunction,ComponentPad*%
%ADD29C,1.440000*%
%TD*%
%TA.AperFunction,SMDPad,CuDef*%
%ADD30RoundRect,0.250000X-0.325000X-0.650000X0.325000X-0.650000X0.325000X0.650000X-0.325000X0.650000X0*%
%TD*%
%TA.AperFunction,SMDPad,CuDef*%
%ADD31R,2.300000X1.600000*%
%TD*%
%TA.AperFunction,SMDPad,CuDef*%
%ADD32RoundRect,0.225000X0.225000X0.250000X-0.225000X0.250000X-0.225000X-0.250000X0.225000X-0.250000X0*%
%TD*%
%TA.AperFunction,SMDPad,CuDef*%
%ADD33RoundRect,0.249750X-0.305250X-1.250250X0.305250X-1.250250X0.305250X1.250250X-0.305250X1.250250X0*%
%TD*%
%TA.AperFunction,SMDPad,CuDef*%
%ADD34RoundRect,0.250000X-0.375000X-0.625000X0.375000X-0.625000X0.375000X0.625000X-0.375000X0.625000X0*%
%TD*%
%TA.AperFunction,SMDPad,CuDef*%
%ADD35R,0.450000X1.450000*%
%TD*%
%TA.AperFunction,SMDPad,CuDef*%
%ADD36RoundRect,0.250000X0.625000X-0.375000X0.625000X0.375000X-0.625000X0.375000X-0.625000X-0.375000X0*%
%TD*%
%TA.AperFunction,WasherPad*%
%ADD37C,1.800000*%
%TD*%
%TA.AperFunction,WasherPad*%
%ADD38R,1.800000X1.800000*%
%TD*%
%TA.AperFunction,ComponentPad*%
%ADD39C,3.300000*%
%TD*%
%TA.AperFunction,SMDPad,CuDef*%
%ADD40RoundRect,0.225000X-0.225000X-0.250000X0.225000X-0.250000X0.225000X0.250000X-0.225000X0.250000X0*%
%TD*%
%TA.AperFunction,SMDPad,CuDef*%
%ADD41RoundRect,0.350000X1.750000X-0.350000X1.750000X0.350000X-1.750000X0.350000X-1.750000X-0.350000X0*%
%TD*%
%TA.AperFunction,SMDPad,CuDef*%
%ADD42RoundRect,0.225000X-0.225000X-0.375000X0.225000X-0.375000X0.225000X0.375000X-0.225000X0.375000X0*%
%TD*%
%TA.AperFunction,ComponentPad*%
%ADD43C,1.446000*%
%TD*%
%TA.AperFunction,ComponentPad*%
%ADD44C,3.900000*%
%TD*%
%TA.AperFunction,SMDPad,CuDef*%
%ADD45RoundRect,0.225000X-0.375000X0.225000X-0.375000X-0.225000X0.375000X-0.225000X0.375000X0.225000X0*%
%TD*%
%TA.AperFunction,SMDPad,CuDef*%
%ADD46RoundRect,0.175000X-0.425000X0.175000X-0.425000X-0.175000X0.425000X-0.175000X0.425000X0.175000X0*%
%TD*%
%TA.AperFunction,SMDPad,CuDef*%
%ADD47RoundRect,0.190000X0.410000X-0.190000X0.410000X0.190000X-0.410000X0.190000X-0.410000X-0.190000X0*%
%TD*%
%TA.AperFunction,SMDPad,CuDef*%
%ADD48RoundRect,0.200000X0.400000X-0.200000X0.400000X0.200000X-0.400000X0.200000X-0.400000X-0.200000X0*%
%TD*%
%TA.AperFunction,SMDPad,CuDef*%
%ADD49RoundRect,0.175000X0.425000X-0.175000X0.425000X0.175000X-0.425000X0.175000X-0.425000X-0.175000X0*%
%TD*%
%TA.AperFunction,SMDPad,CuDef*%
%ADD50RoundRect,0.190000X-0.410000X0.190000X-0.410000X-0.190000X0.410000X-0.190000X0.410000X0.190000X0*%
%TD*%
%TA.AperFunction,SMDPad,CuDef*%
%ADD51RoundRect,0.200000X-0.400000X0.200000X-0.400000X-0.200000X0.400000X-0.200000X0.400000X0.200000X0*%
%TD*%
%TA.AperFunction,HeatsinkPad*%
%ADD52O,1.700000X1.100000*%
%TD*%
%TA.AperFunction,SMDPad,CuDef*%
%ADD53RoundRect,0.150000X0.737500X0.150000X-0.737500X0.150000X-0.737500X-0.150000X0.737500X-0.150000X0*%
%TD*%
%TA.AperFunction,HeatsinkPad*%
%ADD54R,2.950000X4.900000*%
%TD*%
%TA.AperFunction,ComponentPad*%
%ADD55C,0.600000*%
%TD*%
%TA.AperFunction,SMDPad,CuDef*%
%ADD56R,2.800000X2.300000*%
%TD*%
%TA.AperFunction,ViaPad*%
%ADD57C,0.500000*%
%TD*%
%TA.AperFunction,Conductor*%
%ADD58C,0.349000*%
%TD*%
%TA.AperFunction,Conductor*%
%ADD59C,0.200000*%
%TD*%
G04 APERTURE END LIST*
D10*
%TO.P,C115,1*%
%TO.N,Net-(C114-Pad1)*%
X178475000Y-147000000D03*
%TO.P,C115,2*%
%TO.N,Net-(C115-Pad2)*%
X175525000Y-147000000D03*
%TD*%
D11*
%TO.P,R172,1*%
%TO.N,Net-(U104A-+)*%
X136825000Y-143750000D03*
%TO.P,R172,2*%
%TO.N,GND*%
X135175000Y-143750000D03*
%TD*%
D12*
%TO.P,R169,1*%
%TO.N,Net-(U104B-+)*%
X145750000Y-137825000D03*
%TO.P,R169,2*%
%TO.N,/Amplifier/Single_ended_input*%
X145750000Y-136175000D03*
%TD*%
D13*
%TO.P,K102,1*%
%TO.N,/Amplifier/BW_Limit*%
X125730000Y-136505000D03*
%TO.P,K102,3*%
%TO.N,unconnected-(K102-Pad3)*%
X125730000Y-131425000D03*
%TO.P,K102,4*%
%TO.N,unconnected-(K102-Pad4)*%
X125730000Y-128885000D03*
%TO.P,K102,5*%
%TO.N,unconnected-(K102-Pad5)*%
X125730000Y-126345000D03*
%TO.P,K102,8*%
%TO.N,Net-(C151-Pad2)*%
X118440000Y-126345000D03*
%TO.P,K102,9*%
%TO.N,/Amplifier/Output*%
X118440000Y-128885000D03*
%TO.P,K102,10*%
%TO.N,Net-(K102-Pad10)*%
X118440000Y-131425000D03*
%TO.P,K102,12*%
%TO.N,GND*%
X118440000Y-136505000D03*
%TD*%
D14*
%TO.P,TP111,1,1*%
%TO.N,-12V*%
X129500000Y-129000000D03*
%TD*%
D15*
%TO.P,C110,1*%
%TO.N,GND*%
X164260000Y-136525000D03*
%TO.P,C110,2*%
%TO.N,Net-(C110-Pad2)*%
X164260000Y-134975000D03*
%TD*%
D16*
%TO.P,REF\u002A\u002A,1*%
%TO.N,N/C*%
X152600000Y-145000000D03*
X153302944Y-143302944D03*
X153302944Y-146697056D03*
X155000000Y-142600000D03*
D17*
%TO.N,GND*%
X155000000Y-145000000D03*
D16*
%TO.N,N/C*%
X155000000Y-147400000D03*
X156697056Y-143302944D03*
X156697056Y-146697056D03*
X157400000Y-145000000D03*
%TD*%
D12*
%TO.P,R170,1*%
%TO.N,Net-(U104A--)*%
X147250000Y-137825000D03*
%TO.P,R170,2*%
%TO.N,/Amplifier/Single_ended_input*%
X147250000Y-136175000D03*
%TD*%
D18*
%TO.P,R138,1*%
%TO.N,Net-(IC101--IN)*%
X144925000Y-128510000D03*
%TO.P,R138,2*%
%TO.N,/Amplifier/Att_N*%
X146575000Y-128510000D03*
%TD*%
D19*
%TO.P,R139,1*%
%TO.N,Net-(R136-Pad1)*%
X131425000Y-147250000D03*
%TO.P,R139,2*%
%TO.N,Net-(K102-Pad10)*%
X125500000Y-147250000D03*
%TD*%
D15*
%TO.P,C120,1*%
%TO.N,Net-(C119-Pad1)*%
X158250000Y-115025000D03*
%TO.P,C120,2*%
%TO.N,GND*%
X158250000Y-113475000D03*
%TD*%
%TO.P,C141,1*%
%TO.N,Net-(U102-VREF)*%
X121762500Y-103262500D03*
%TO.P,C141,2*%
%TO.N,GND*%
X121762500Y-101712500D03*
%TD*%
D20*
%TO.P,R159,1*%
%TO.N,Net-(U103-+)*%
X140287500Y-138000000D03*
%TO.P,R159,2*%
%TO.N,GND*%
X143212500Y-138000000D03*
%TD*%
D21*
%TO.P,R107,1*%
%TO.N,Net-(R106-Pad2)*%
X173462500Y-103000000D03*
%TO.P,R107,2*%
%TO.N,Net-(R107-Pad2)*%
X170537500Y-103000000D03*
%TD*%
%TO.P,R115,1*%
%TO.N,Net-(R114-Pad2)*%
X178462500Y-144000000D03*
%TO.P,R115,2*%
%TO.N,Net-(R115-Pad2)*%
X175537500Y-144000000D03*
%TD*%
D15*
%TO.P,C112,1*%
%TO.N,GND*%
X167260000Y-136525000D03*
%TO.P,C112,2*%
%TO.N,Net-(C110-Pad2)*%
X167260000Y-134975000D03*
%TD*%
D20*
%TO.P,R156,1*%
%TO.N,Net-(U103-+)*%
X140287500Y-135750000D03*
%TO.P,R156,2*%
%TO.N,/Amplifier/Single_ended_input*%
X143212500Y-135750000D03*
%TD*%
D14*
%TO.P,TP107,1,1*%
%TO.N,Net-(U106--)*%
X144750000Y-139500000D03*
%TD*%
%TO.P,TP105,1,1*%
%TO.N,/Amplifier/Single_ended_input*%
X146520000Y-134520000D03*
%TD*%
D15*
%TO.P,C119,1*%
%TO.N,Net-(C119-Pad1)*%
X156750000Y-115025000D03*
%TO.P,C119,2*%
%TO.N,GND*%
X156750000Y-113475000D03*
%TD*%
D22*
%TO.P,SW101,1,A*%
%TO.N,Net-(SW101-A)*%
X138500000Y-108500000D03*
%TO.P,SW101,2,C*%
%TO.N,/Buttons_indication/x10_attenuation*%
X141000000Y-108500000D03*
%TO.P,SW101,3,B*%
%TO.N,+5V*%
X143500000Y-108500000D03*
%TO.P,SW101,4*%
%TO.N,N/C*%
X143500000Y-102500000D03*
%TO.P,SW101,5*%
X141000000Y-102500000D03*
%TO.P,SW101,6*%
X138500000Y-102500000D03*
%TD*%
D19*
%TO.P,R136,1*%
%TO.N,Net-(R136-Pad1)*%
X131462500Y-143250000D03*
%TO.P,R136,2*%
%TO.N,Net-(C151-Pad2)*%
X125537500Y-143250000D03*
%TD*%
D12*
%TO.P,R133,1*%
%TO.N,Net-(U102-FBN)*%
X123262500Y-103312500D03*
%TO.P,R133,2*%
%TO.N,Net-(U102-VREF)*%
X123262500Y-101662500D03*
%TD*%
D21*
%TO.P,R106,1*%
%TO.N,Net-(R105-Pad2)*%
X178462500Y-103000000D03*
%TO.P,R106,2*%
%TO.N,Net-(R106-Pad2)*%
X175537500Y-103000000D03*
%TD*%
D23*
%TO.P,C138,1*%
%TO.N,+15V*%
X112512500Y-109212500D03*
%TO.P,C138,2*%
%TO.N,GND*%
X112512500Y-106262500D03*
%TD*%
D24*
%TO.P,U102,1,INP*%
%TO.N,Net-(D108-A)*%
X122750000Y-109725000D03*
%TO.P,U102,2,PGND*%
%TO.N,GND*%
X123250000Y-109725000D03*
%TO.P,U102,3,PGND*%
X123750000Y-109725000D03*
%TO.P,U102,4,VIN*%
%TO.N,Net-(U102-ENN)*%
X124250000Y-109725000D03*
%TO.P,U102,5,INN*%
%TO.N,+5V*%
X124750000Y-109725000D03*
%TO.P,U102,6,INN*%
X125250000Y-109725000D03*
D25*
%TO.P,U102,7,BSW*%
%TO.N,unconnected-(U102-BSW-Pad7)*%
X125987500Y-108987500D03*
%TO.P,U102,8,ENP*%
%TO.N,Net-(U102-ENN)*%
X125987500Y-108487500D03*
%TO.P,U102,9,PSP*%
X125987500Y-107987500D03*
%TO.P,U102,10,ENN*%
X125987500Y-107487500D03*
%TO.P,U102,11,PSN*%
X125987500Y-106987500D03*
%TO.P,U102,12,NC*%
%TO.N,unconnected-(U102-NC-Pad12)*%
X125987500Y-106487500D03*
D24*
%TO.P,U102,13,OUTN*%
%TO.N,Net-(D109-K)*%
X125250000Y-105750000D03*
%TO.P,U102,14,OUTN*%
X124750000Y-105750000D03*
%TO.P,U102,15,VNEG*%
%TO.N,-15V*%
X124250000Y-105750000D03*
%TO.P,U102,16,FBN*%
%TO.N,Net-(U102-FBN)*%
X123750000Y-105750000D03*
%TO.P,U102,17,VREF*%
%TO.N,Net-(U102-VREF)*%
X123250000Y-105750000D03*
%TO.P,U102,18,CN*%
%TO.N,Net-(U102-CN)*%
X122750000Y-105750000D03*
D25*
%TO.P,U102,19,AGND*%
%TO.N,GND*%
X122012500Y-106487500D03*
%TO.P,U102,20,NC*%
%TO.N,unconnected-(U102-NC-Pad20)*%
X122012500Y-106987500D03*
%TO.P,U102,21,CP*%
%TO.N,Net-(U102-CP)*%
X122012500Y-107487500D03*
%TO.P,U102,22,FBP*%
%TO.N,Net-(U102-FBP)*%
X122012500Y-107987500D03*
%TO.P,U102,23,VPOS*%
%TO.N,+15V*%
X122012500Y-108487500D03*
%TO.P,U102,24,INP*%
%TO.N,Net-(D108-A)*%
X122012500Y-108987500D03*
D26*
%TO.P,U102,25,EP*%
%TO.N,GND*%
X123025000Y-108712500D03*
X124000000Y-108712500D03*
X124975000Y-108712500D03*
X123025000Y-107737500D03*
X124000000Y-107737500D03*
D27*
X124000000Y-107737500D03*
D26*
X124975000Y-107737500D03*
X123025000Y-106762500D03*
X124000000Y-106762500D03*
X124975000Y-106762500D03*
%TD*%
D28*
%TO.P,D111,1,K*%
%TO.N,Net-(D111-K)*%
X119500000Y-143650000D03*
%TO.P,D111,2,A*%
%TO.N,Net-(D111-A)*%
X119500000Y-146450000D03*
%TD*%
D29*
%TO.P,RV101,1,1*%
%TO.N,Net-(R104-Pad1)*%
X172750000Y-122440000D03*
%TO.P,RV101,2,2*%
%TO.N,GND*%
X172750000Y-124980000D03*
%TO.P,RV101,3,3*%
%TO.N,Net-(R110-Pad2)*%
X172750000Y-127520000D03*
%TD*%
D18*
%TO.P,R168,1*%
%TO.N,-12V*%
X135175000Y-146750000D03*
%TO.P,R168,2*%
%TO.N,Net-(U104B--)*%
X136825000Y-146750000D03*
%TD*%
D14*
%TO.P,GND,1,1*%
%TO.N,GND*%
X132750000Y-118750000D03*
%TD*%
D30*
%TO.P,C114,1*%
%TO.N,Net-(C114-Pad1)*%
X180525000Y-147000000D03*
%TO.P,C114,2*%
%TO.N,/Input_attenuator/INPUT_N*%
X183475000Y-147000000D03*
%TD*%
D14*
%TO.P,GND,1,1*%
%TO.N,GND*%
X129450000Y-131550000D03*
%TD*%
D15*
%TO.P,C123,1*%
%TO.N,GND*%
X156760000Y-136525000D03*
%TO.P,C123,2*%
%TO.N,Net-(C123-Pad2)*%
X156760000Y-134975000D03*
%TD*%
D10*
%TO.P,R113,1*%
%TO.N,/Amplifier/Att_N*%
X158475000Y-140000000D03*
%TO.P,R113,2*%
%TO.N,GND*%
X155525000Y-140000000D03*
%TD*%
D15*
%TO.P,C142,1*%
%TO.N,-15V*%
X124762500Y-103262500D03*
%TO.P,C142,2*%
%TO.N,Net-(U102-FBN)*%
X124762500Y-101712500D03*
%TD*%
D14*
%TO.P,TP108,1,1*%
%TO.N,+15V*%
X110250000Y-108500000D03*
%TD*%
D21*
%TO.P,R116,1*%
%TO.N,Net-(R115-Pad2)*%
X173462500Y-144000000D03*
%TO.P,R116,2*%
%TO.N,Net-(R116-Pad2)*%
X170537500Y-144000000D03*
%TD*%
D31*
%TO.P,C104,1*%
%TO.N,Net-(C101-Pad1)*%
X169400000Y-115000000D03*
%TO.P,C104,2*%
%TO.N,GND*%
X174100000Y-115000000D03*
%TD*%
D15*
%TO.P,C103,1*%
%TO.N,Net-(C101-Pad1)*%
X164250000Y-115025000D03*
%TO.P,C103,2*%
%TO.N,GND*%
X164250000Y-113475000D03*
%TD*%
D32*
%TO.P,C151,1*%
%TO.N,GND*%
X126275000Y-139750000D03*
%TO.P,C151,2*%
%TO.N,Net-(C151-Pad2)*%
X124725000Y-139750000D03*
%TD*%
D11*
%TO.P,R132,1*%
%TO.N,Net-(U102-FBP)*%
X116087500Y-105987500D03*
%TO.P,R132,2*%
%TO.N,GND*%
X114437500Y-105987500D03*
%TD*%
D14*
%TO.P,TP109,1,1*%
%TO.N,-15V*%
X134750000Y-118750000D03*
%TD*%
%TO.P,TP104,1,1*%
%TO.N,/Amplifier/Att_N*%
X145500000Y-127000000D03*
%TD*%
D30*
%TO.P,C105,1*%
%TO.N,Net-(C105-Pad1)*%
X180525000Y-106000000D03*
%TO.P,C105,2*%
%TO.N,/Input_attenuator/INPUT_P*%
X183475000Y-106000000D03*
%TD*%
D33*
%TO.P,K101,1*%
%TO.N,/Buttons_indication/x10_attenuation*%
X155650000Y-128645000D03*
%TO.P,K101,3*%
%TO.N,Net-(C123-Pad2)*%
X160730000Y-128645000D03*
%TO.P,K101,4*%
%TO.N,/Amplifier/Att_N*%
X163270000Y-128645000D03*
%TO.P,K101,5*%
%TO.N,Net-(C110-Pad2)*%
X165810000Y-128645000D03*
%TO.P,K101,8*%
%TO.N,Net-(C101-Pad1)*%
X165810000Y-121355000D03*
%TO.P,K101,9*%
%TO.N,/Amplifier/Att_P*%
X163270000Y-121355000D03*
%TO.P,K101,10*%
%TO.N,Net-(C119-Pad1)*%
X160730000Y-121355000D03*
%TO.P,K101,12*%
%TO.N,GND*%
X155650000Y-121355000D03*
%TD*%
D31*
%TO.P,C122,1*%
%TO.N,Net-(C119-Pad1)*%
X154600000Y-115000000D03*
%TO.P,C122,2*%
%TO.N,GND*%
X149900000Y-115000000D03*
%TD*%
D10*
%TO.P,C106,1*%
%TO.N,Net-(C105-Pad1)*%
X178475000Y-106000000D03*
%TO.P,C106,2*%
%TO.N,Net-(C106-Pad2)*%
X175525000Y-106000000D03*
%TD*%
D14*
%TO.P,GND,1,1*%
%TO.N,GND*%
X146500000Y-132500000D03*
%TD*%
D15*
%TO.P,C101,1*%
%TO.N,Net-(C101-Pad1)*%
X167250000Y-115025000D03*
%TO.P,C101,2*%
%TO.N,GND*%
X167250000Y-113475000D03*
%TD*%
D29*
%TO.P,RV102,1,1*%
%TO.N,Net-(R120-Pad1)*%
X151250000Y-122240000D03*
%TO.P,RV102,2,2*%
%TO.N,GND*%
X151250000Y-124780000D03*
%TO.P,RV102,3,3*%
%TO.N,Net-(R123-Pad2)*%
X151250000Y-127320000D03*
%TD*%
D34*
%TO.P,F101,1*%
%TO.N,Net-(F101-Pad1)*%
X109600000Y-114250000D03*
%TO.P,F101,2*%
%TO.N,+5V*%
X112400000Y-114250000D03*
%TD*%
D21*
%TO.P,R117,1*%
%TO.N,Net-(R116-Pad2)*%
X168462500Y-144000000D03*
%TO.P,R117,2*%
%TO.N,Net-(R117-Pad2)*%
X165537500Y-144000000D03*
%TD*%
%TO.P,R109,1*%
%TO.N,Net-(R108-Pad2)*%
X163462500Y-103000000D03*
%TO.P,R109,2*%
%TO.N,/Amplifier/Att_P*%
X160537500Y-103000000D03*
%TD*%
D20*
%TO.P,R145,1*%
%TO.N,Net-(IC101-FB)*%
X140287500Y-133570000D03*
%TO.P,R145,2*%
%TO.N,GND*%
X143212500Y-133570000D03*
%TD*%
D35*
%TO.P,IC101,1,+IN*%
%TO.N,Net-(IC101-+IN)*%
X142975000Y-122775000D03*
%TO.P,IC101,2,-VS*%
%TO.N,-12V*%
X142325000Y-122775000D03*
%TO.P,IC101,3,~{PD}*%
%TO.N,+12V*%
X141675000Y-122775000D03*
%TO.P,IC101,4,REF*%
%TO.N,GND*%
X141025000Y-122775000D03*
%TO.P,IC101,5,FB*%
%TO.N,Net-(IC101-FB)*%
X141025000Y-127225000D03*
%TO.P,IC101,6,OUT*%
%TO.N,/Amplifier/Single_ended_input*%
X141675000Y-127225000D03*
%TO.P,IC101,7,+VS*%
%TO.N,+12V*%
X142325000Y-127225000D03*
%TO.P,IC101,8,-IN*%
%TO.N,Net-(IC101--IN)*%
X142975000Y-127225000D03*
%TD*%
D18*
%TO.P,R120,1*%
%TO.N,Net-(R120-Pad1)*%
X148712500Y-118500000D03*
%TO.P,R120,2*%
%TO.N,Net-(R119-Pad1)*%
X150362500Y-118500000D03*
%TD*%
D10*
%TO.P,C117,1*%
%TO.N,Net-(C116-Pad2)*%
X168475000Y-147000000D03*
%TO.P,C117,2*%
%TO.N,Net-(C117-Pad2)*%
X165525000Y-147000000D03*
%TD*%
D14*
%TO.P,TP110,1,1*%
%TO.N,+12V*%
X146500000Y-130500000D03*
%TD*%
D15*
%TO.P,C124,1*%
%TO.N,GND*%
X158260000Y-136525000D03*
%TO.P,C124,2*%
%TO.N,Net-(C123-Pad2)*%
X158260000Y-134975000D03*
%TD*%
D21*
%TO.P,R114,1*%
%TO.N,/Input_attenuator/INPUT_N*%
X183462500Y-144000000D03*
%TO.P,R114,2*%
%TO.N,Net-(R114-Pad2)*%
X180537500Y-144000000D03*
%TD*%
D11*
%TO.P,R123,1*%
%TO.N,Net-(R123-Pad1)*%
X150325000Y-131500000D03*
%TO.P,R123,2*%
%TO.N,Net-(R123-Pad2)*%
X148675000Y-131500000D03*
%TD*%
D18*
%TO.P,R142,1*%
%TO.N,Net-(U103--)*%
X141175000Y-140000000D03*
%TO.P,R142,2*%
%TO.N,Net-(U106--)*%
X142825000Y-140000000D03*
%TD*%
D36*
%TO.P,D112,1,K*%
%TO.N,Net-(D112-K)*%
X112500000Y-120650000D03*
%TO.P,D112,2,A*%
%TO.N,+5V*%
X112500000Y-117850000D03*
%TD*%
D16*
%TO.P,REF\u002A\u002A,1*%
%TO.N,N/C*%
X102600000Y-145000000D03*
X103302944Y-143302944D03*
X103302944Y-146697056D03*
X105000000Y-142600000D03*
D17*
%TO.N,GND*%
X105000000Y-145000000D03*
D16*
%TO.N,N/C*%
X105000000Y-147400000D03*
X106697056Y-143302944D03*
X106697056Y-146697056D03*
X107400000Y-145000000D03*
%TD*%
D11*
%TO.P,R104,1*%
%TO.N,Net-(R104-Pad1)*%
X174825000Y-118500000D03*
%TO.P,R104,2*%
%TO.N,Net-(R103-Pad1)*%
X173175000Y-118500000D03*
%TD*%
D14*
%TO.P,GND,1,1*%
%TO.N,GND*%
X145500000Y-125000000D03*
%TD*%
D30*
%TO.P,R112,1*%
%TO.N,GND*%
X155525000Y-110000000D03*
%TO.P,R112,2*%
%TO.N,/Amplifier/Att_P*%
X158475000Y-110000000D03*
%TD*%
D14*
%TO.P,GND,1,1*%
%TO.N,GND*%
X110250000Y-106000000D03*
%TD*%
D12*
%TO.P,R135,1*%
%TO.N,-15V*%
X126262500Y-103312500D03*
%TO.P,R135,2*%
%TO.N,Net-(U102-FBN)*%
X126262500Y-101662500D03*
%TD*%
D18*
%TO.P,R119,1*%
%TO.N,Net-(R119-Pad1)*%
X152137500Y-118500000D03*
%TO.P,R119,2*%
%TO.N,Net-(C119-Pad1)*%
X153787500Y-118500000D03*
%TD*%
D11*
%TO.P,R103,1*%
%TO.N,Net-(R103-Pad1)*%
X170325000Y-118500000D03*
%TO.P,R103,2*%
%TO.N,Net-(C101-Pad1)*%
X168675000Y-118500000D03*
%TD*%
D20*
%TO.P,R144,1*%
%TO.N,Net-(U103--)*%
X135287500Y-139500000D03*
%TO.P,R144,2*%
%TO.N,GND*%
X138212500Y-139500000D03*
%TD*%
D34*
%TO.P,D101,1,K*%
%TO.N,GND*%
X134100000Y-129000000D03*
%TO.P,D101,2,A*%
%TO.N,Net-(D101-A)*%
X136900000Y-129000000D03*
%TD*%
D14*
%TO.P,TP103,1,1*%
%TO.N,/Amplifier/Att_P*%
X145500000Y-123000000D03*
%TD*%
D29*
%TO.P,RV103,1,1*%
%TO.N,Net-(R157-Pad2)*%
X147290000Y-143500000D03*
%TO.P,RV103,2,2*%
%TO.N,Net-(U106-+)*%
X144750000Y-143500000D03*
%TO.P,RV103,3,3*%
%TO.N,Net-(R158-Pad1)*%
X142210000Y-143500000D03*
%TD*%
D11*
%TO.P,R126,1*%
%TO.N,Net-(C123-Pad2)*%
X153575000Y-131500000D03*
%TO.P,R126,2*%
%TO.N,Net-(R123-Pad1)*%
X151925000Y-131500000D03*
%TD*%
D10*
%TO.P,C118,1*%
%TO.N,Net-(C117-Pad2)*%
X163475000Y-147000000D03*
%TO.P,C118,2*%
%TO.N,/Amplifier/Att_N*%
X160525000Y-147000000D03*
%TD*%
D15*
%TO.P,C125,1*%
%TO.N,GND*%
X159750000Y-136525000D03*
%TO.P,C125,2*%
%TO.N,Net-(C123-Pad2)*%
X159750000Y-134975000D03*
%TD*%
D18*
%TO.P,R171,1*%
%TO.N,+12V*%
X135175000Y-142250000D03*
%TO.P,R171,2*%
%TO.N,Net-(U104A-+)*%
X136825000Y-142250000D03*
%TD*%
D10*
%TO.P,C107,1*%
%TO.N,Net-(C106-Pad2)*%
X173475000Y-106000000D03*
%TO.P,C107,2*%
%TO.N,Net-(C107-Pad2)*%
X170525000Y-106000000D03*
%TD*%
D22*
%TO.P,SW102,1,A*%
%TO.N,unconnected-(SW102-A-Pad1)*%
X138500000Y-118500000D03*
%TO.P,SW102,2,C*%
%TO.N,/Amplifier/BW_Limit*%
X141000000Y-118500000D03*
%TO.P,SW102,3,B*%
%TO.N,+5V*%
X143500000Y-118500000D03*
%TO.P,SW102,4*%
%TO.N,N/C*%
X143500000Y-112500000D03*
%TO.P,SW102,5*%
X141000000Y-112500000D03*
%TO.P,SW102,6*%
X138500000Y-112500000D03*
%TD*%
D11*
%TO.P,R167,1*%
%TO.N,Net-(U104B--)*%
X136825000Y-145250000D03*
%TO.P,R167,2*%
%TO.N,GND*%
X135175000Y-145250000D03*
%TD*%
D31*
%TO.P,C126,1*%
%TO.N,GND*%
X149900000Y-135000000D03*
%TO.P,C126,2*%
%TO.N,Net-(C123-Pad2)*%
X154600000Y-135000000D03*
%TD*%
D12*
%TO.P,R131,1*%
%TO.N,+15V*%
X116012500Y-109062500D03*
%TO.P,R131,2*%
%TO.N,Net-(U102-FBP)*%
X116012500Y-107412500D03*
%TD*%
D15*
%TO.P,C102,1*%
%TO.N,Net-(C101-Pad1)*%
X165750000Y-115025000D03*
%TO.P,C102,2*%
%TO.N,GND*%
X165750000Y-113475000D03*
%TD*%
D37*
%TO.P,J103,*%
%TO.N,*%
X192000000Y-140160000D03*
D38*
X192000000Y-130000000D03*
D37*
X181840000Y-140160000D03*
X181840000Y-130000000D03*
D39*
%TO.P,J103,1,Pin_1*%
%TO.N,/Input_attenuator/INPUT_N*%
X185640000Y-135080000D03*
%TD*%
D34*
%TO.P,D113,1,K*%
%TO.N,GND*%
X134100000Y-124200000D03*
%TO.P,D113,2,A*%
%TO.N,Net-(D113-A)*%
X136900000Y-124200000D03*
%TD*%
D10*
%TO.P,C116,1*%
%TO.N,Net-(C115-Pad2)*%
X173475000Y-147000000D03*
%TO.P,C116,2*%
%TO.N,Net-(C116-Pad2)*%
X170525000Y-147000000D03*
%TD*%
D40*
%TO.P,C147,1*%
%TO.N,GND*%
X118487500Y-103987500D03*
%TO.P,C147,2*%
%TO.N,Net-(U102-CN)*%
X120037500Y-103987500D03*
%TD*%
D30*
%TO.P,C145,1*%
%TO.N,-15V*%
X130775000Y-112000000D03*
%TO.P,C145,2*%
%TO.N,GND*%
X133725000Y-112000000D03*
%TD*%
D16*
%TO.P,REF\u002A\u002A,1*%
%TO.N,N/C*%
X102600000Y-105000000D03*
X103302944Y-103302944D03*
X103302944Y-106697056D03*
X105000000Y-102600000D03*
D17*
%TO.N,GND*%
X105000000Y-105000000D03*
D16*
%TO.N,N/C*%
X105000000Y-107400000D03*
X106697056Y-103302944D03*
X106697056Y-106697056D03*
X107400000Y-105000000D03*
%TD*%
D21*
%TO.P,R108,1*%
%TO.N,Net-(R107-Pad2)*%
X168462500Y-103000000D03*
%TO.P,R108,2*%
%TO.N,Net-(R108-Pad2)*%
X165537500Y-103000000D03*
%TD*%
D37*
%TO.P,J101,*%
%TO.N,*%
X192000000Y-120160000D03*
D38*
X192000000Y-110000000D03*
D37*
X181840000Y-120160000D03*
X181840000Y-110000000D03*
D39*
%TO.P,J101,1,Pin_1*%
%TO.N,/Input_attenuator/INPUT_P*%
X185640000Y-115080000D03*
%TD*%
D41*
%TO.P,L101,1*%
%TO.N,+5V*%
X119500000Y-117850000D03*
%TO.P,L101,2*%
%TO.N,Net-(D108-A)*%
X119500000Y-114150000D03*
%TD*%
D42*
%TO.P,D108,1,K*%
%TO.N,+15V*%
X115100000Y-111500000D03*
%TO.P,D108,2,A*%
%TO.N,Net-(D108-A)*%
X118400000Y-111500000D03*
%TD*%
D31*
%TO.P,C113,1*%
%TO.N,GND*%
X174100000Y-135000000D03*
%TO.P,C113,2*%
%TO.N,Net-(C110-Pad2)*%
X169400000Y-135000000D03*
%TD*%
D41*
%TO.P,L102,1*%
%TO.N,GND*%
X133000000Y-108947500D03*
%TO.P,L102,2*%
%TO.N,Net-(D109-K)*%
X133000000Y-105247500D03*
%TD*%
D21*
%TO.P,R141,1*%
%TO.N,/Amplifier/Single_ended_input*%
X143212500Y-131320000D03*
%TO.P,R141,2*%
%TO.N,Net-(IC101-FB)*%
X140287500Y-131320000D03*
%TD*%
D10*
%TO.P,C140,1*%
%TO.N,+5V*%
X127427500Y-115067500D03*
%TO.P,C140,2*%
%TO.N,GND*%
X124477500Y-115067500D03*
%TD*%
D40*
%TO.P,C146,1*%
%TO.N,GND*%
X118512500Y-105487500D03*
%TO.P,C146,2*%
%TO.N,Net-(U102-CP)*%
X120062500Y-105487500D03*
%TD*%
D10*
%TO.P,C108,1*%
%TO.N,Net-(C107-Pad2)*%
X168475000Y-106000000D03*
%TO.P,C108,2*%
%TO.N,Net-(C108-Pad2)*%
X165525000Y-106000000D03*
%TD*%
D21*
%TO.P,R143,1*%
%TO.N,Net-(U103--)*%
X133462500Y-139500000D03*
%TO.P,R143,2*%
%TO.N,Net-(R136-Pad1)*%
X130537500Y-139500000D03*
%TD*%
D11*
%TO.P,R137,1*%
%TO.N,/Amplifier/Att_P*%
X146500000Y-121500000D03*
%TO.P,R137,2*%
%TO.N,Net-(IC101-+IN)*%
X144850000Y-121500000D03*
%TD*%
D43*
%TO.P,J102,1,In*%
%TO.N,/Amplifier/Output*%
X112230000Y-131100000D03*
%TO.P,J102,2,Ext*%
%TO.N,GND*%
X112230000Y-133640000D03*
D44*
%TO.P,J102,MH1*%
%TO.N,N/C*%
X107150000Y-126020000D03*
%TO.P,J102,MH2*%
X107150000Y-136180000D03*
%TD*%
D15*
%TO.P,C111,1*%
%TO.N,GND*%
X165750000Y-136525000D03*
%TO.P,C111,2*%
%TO.N,Net-(C110-Pad2)*%
X165750000Y-134975000D03*
%TD*%
%TO.P,C139,1*%
%TO.N,+15V*%
X114512500Y-109012500D03*
%TO.P,C139,2*%
%TO.N,Net-(U102-FBP)*%
X114512500Y-107462500D03*
%TD*%
D28*
%TO.P,D102,1,K*%
%TO.N,GND*%
X114700000Y-143650000D03*
%TO.P,D102,2,A*%
%TO.N,Net-(D102-A)*%
X114700000Y-146450000D03*
%TD*%
D18*
%TO.P,R111,1*%
%TO.N,Net-(C110-Pad2)*%
X168750000Y-131500000D03*
%TO.P,R111,2*%
%TO.N,Net-(R110-Pad1)*%
X170400000Y-131500000D03*
%TD*%
D10*
%TO.P,C143,1*%
%TO.N,+5V*%
X127427500Y-112717500D03*
%TO.P,C143,2*%
%TO.N,GND*%
X124477500Y-112717500D03*
%TD*%
D45*
%TO.P,D109,1,K*%
%TO.N,Net-(D109-K)*%
X129000000Y-105377500D03*
%TO.P,D109,2,A*%
%TO.N,-15V*%
X129000000Y-108677500D03*
%TD*%
D10*
%TO.P,C109,1*%
%TO.N,Net-(C108-Pad2)*%
X163475000Y-106000000D03*
%TO.P,C109,2*%
%TO.N,/Amplifier/Att_P*%
X160525000Y-106000000D03*
%TD*%
D21*
%TO.P,R118,1*%
%TO.N,Net-(R117-Pad2)*%
X163462500Y-144000000D03*
%TO.P,R118,2*%
%TO.N,/Amplifier/Att_N*%
X160537500Y-144000000D03*
%TD*%
D15*
%TO.P,C121,1*%
%TO.N,Net-(C119-Pad1)*%
X159750000Y-115025000D03*
%TO.P,C121,2*%
%TO.N,GND*%
X159750000Y-113475000D03*
%TD*%
D46*
%TO.P,J104,A5,CC1*%
%TO.N,Net-(J104-CC1)*%
X106530000Y-115430000D03*
D47*
%TO.P,J104,A9,VBUS*%
%TO.N,Net-(F101-Pad1)*%
X106530000Y-117450000D03*
D48*
%TO.P,J104,A12,GND*%
%TO.N,GND*%
X106530000Y-118680000D03*
D49*
%TO.P,J104,B5,CC2*%
%TO.N,Net-(J104-CC2)*%
X106530000Y-116430000D03*
D50*
%TO.P,J104,B9,VBUS*%
%TO.N,Net-(F101-Pad1)*%
X106530000Y-114410000D03*
D51*
%TO.P,J104,B12,GND*%
%TO.N,GND*%
X106530000Y-113180000D03*
D52*
%TO.P,J104,S1,SHIELD*%
X106450000Y-111610000D03*
X102650000Y-111610000D03*
X106450000Y-120250000D03*
X102650000Y-120250000D03*
%TD*%
D21*
%TO.P,R105,1*%
%TO.N,/Input_attenuator/INPUT_P*%
X183462500Y-103000000D03*
%TO.P,R105,2*%
%TO.N,Net-(R105-Pad2)*%
X180537500Y-103000000D03*
%TD*%
D16*
%TO.P,REF\u002A\u002A,1*%
%TO.N,N/C*%
X152600000Y-105000000D03*
X153302944Y-103302944D03*
X153302944Y-106697056D03*
X155000000Y-102600000D03*
D17*
%TO.N,GND*%
X155000000Y-105000000D03*
D16*
%TO.N,N/C*%
X155000000Y-107400000D03*
%TO.N,GND*%
X156697056Y-103302944D03*
%TO.N,N/C*%
X156697056Y-106697056D03*
X157400000Y-105000000D03*
%TD*%
D18*
%TO.P,R110,1*%
%TO.N,Net-(R110-Pad1)*%
X173175000Y-131500000D03*
%TO.P,R110,2*%
%TO.N,Net-(R110-Pad2)*%
X174825000Y-131500000D03*
%TD*%
D53*
%TO.P,U103,1,REF*%
%TO.N,GND*%
X136462500Y-137375000D03*
%TO.P,U103,2,-*%
%TO.N,Net-(U103--)*%
X136462500Y-136105000D03*
%TO.P,U103,3,+*%
%TO.N,Net-(U103-+)*%
X136462500Y-134835000D03*
%TO.P,U103,4,V-*%
%TO.N,-12V*%
X136462500Y-133565000D03*
%TO.P,U103,5,NC*%
%TO.N,unconnected-(U103-NC-Pad5)*%
X131337500Y-133565000D03*
%TO.P,U103,6*%
%TO.N,Net-(R136-Pad1)*%
X131337500Y-134835000D03*
%TO.P,U103,7,V+*%
%TO.N,+12V*%
X131337500Y-136105000D03*
%TO.P,U103,8,~{PD}*%
X131337500Y-137375000D03*
D54*
%TO.P,U103,9,EP*%
%TO.N,GND*%
X133900000Y-135470000D03*
%TD*%
D14*
%TO.P,TP106,1,1*%
%TO.N,Net-(R136-Pad1)*%
X128750000Y-140250000D03*
%TD*%
D55*
%TO.P,U101,11,GND*%
%TO.N,GND*%
X125500000Y-120275000D03*
X124000000Y-120275000D03*
X124750000Y-120775000D03*
D56*
X124750000Y-120775000D03*
D55*
X125500000Y-121275000D03*
X124000000Y-121275000D03*
%TD*%
D57*
%TO.N,GND*%
X133500000Y-134500000D03*
X103500000Y-109000000D03*
X109000000Y-119800000D03*
X115000000Y-101250000D03*
X102500000Y-110000000D03*
X117500000Y-134000000D03*
X144500000Y-136750000D03*
X116000000Y-102250000D03*
X116000000Y-101250000D03*
X167250000Y-138010000D03*
X156750000Y-118500000D03*
X112000000Y-143000000D03*
X123000000Y-115000000D03*
X108000000Y-122750000D03*
X105500000Y-110000000D03*
X127933411Y-139316589D03*
X117000000Y-101250000D03*
X104500000Y-110000000D03*
X132500000Y-129000000D03*
X117500000Y-137750000D03*
X139000000Y-122500000D03*
X156750000Y-112010000D03*
X107000000Y-121750000D03*
X149075000Y-144152500D03*
X135500000Y-111000000D03*
X164250000Y-112010000D03*
X159750000Y-138010000D03*
X101500000Y-109000000D03*
X125600000Y-113200000D03*
X102000000Y-122750000D03*
X138500000Y-137375000D03*
X136500000Y-111000000D03*
X108000000Y-121750000D03*
X121000000Y-106500000D03*
X102000000Y-121750000D03*
X119000000Y-102250000D03*
X106000000Y-122750000D03*
X133500000Y-136500000D03*
X139510000Y-125990000D03*
X107500000Y-110000000D03*
X134500000Y-135500000D03*
X103000000Y-122750000D03*
X101500000Y-110000000D03*
X147250000Y-144750000D03*
X105500000Y-109000000D03*
X118000000Y-102250000D03*
X106500000Y-109000000D03*
X140250000Y-144000000D03*
X134500000Y-134500000D03*
X167250000Y-112010000D03*
X108250000Y-113000000D03*
X117000000Y-102250000D03*
X119000000Y-101250000D03*
X125500000Y-137750000D03*
X159750000Y-112010000D03*
X130000000Y-121000000D03*
X107500000Y-109000000D03*
X139500000Y-124500000D03*
X104250000Y-118000000D03*
X158000000Y-121237500D03*
X133500000Y-144750000D03*
X137000000Y-138825000D03*
X103000000Y-121750000D03*
X133500000Y-135500000D03*
X125300000Y-118050000D03*
X133750000Y-143750000D03*
X174000000Y-112500000D03*
X104500000Y-109000000D03*
X135500000Y-112000000D03*
X129000000Y-143750000D03*
X108500000Y-110000000D03*
X101000000Y-121750000D03*
X153500000Y-140000000D03*
X169000000Y-128737500D03*
X102800000Y-118000000D03*
X124250000Y-132500000D03*
X133000000Y-143750000D03*
X105000000Y-121750000D03*
X134500000Y-136500000D03*
X158250000Y-112010000D03*
X136500000Y-112000000D03*
X149900000Y-111410000D03*
X158250000Y-138010000D03*
X118500000Y-121000000D03*
X165750000Y-138010000D03*
X142500000Y-145000000D03*
X174000000Y-137750000D03*
X108500000Y-109000000D03*
X129000000Y-148000000D03*
X102500000Y-109000000D03*
X105000000Y-122750000D03*
X104000000Y-121750000D03*
X164260000Y-138000000D03*
X103500000Y-110000000D03*
X101000000Y-122750000D03*
X144600000Y-133570000D03*
X165750000Y-112010000D03*
X136500000Y-113000000D03*
X118000000Y-101250000D03*
X139313051Y-140873899D03*
X153750000Y-110000000D03*
X156750000Y-138010000D03*
X123000000Y-113500000D03*
X131675000Y-131425000D03*
X106000000Y-121750000D03*
X104000000Y-122750000D03*
X149900000Y-138660000D03*
X125500000Y-114000000D03*
X123000000Y-112000000D03*
X119500000Y-121000000D03*
X129500000Y-138250000D03*
X115000000Y-102250000D03*
X132550000Y-124200000D03*
X106500000Y-110000000D03*
X140750000Y-120500000D03*
X135500000Y-113000000D03*
X131000000Y-121000000D03*
X136250000Y-131500000D03*
X107000000Y-122750000D03*
X138975500Y-127750000D03*
%TO.N,+15V*%
X113500000Y-111000000D03*
X112500000Y-112000000D03*
X112500000Y-111000000D03*
X111500000Y-112000000D03*
X111500000Y-111000000D03*
X113500000Y-112000000D03*
%TO.N,-15V*%
X133000000Y-117500000D03*
X135000000Y-116000000D03*
X134000000Y-117500000D03*
X128000000Y-102750000D03*
X135750000Y-114500000D03*
X135000000Y-116750000D03*
X135000000Y-117500000D03*
X135000000Y-114500000D03*
X132000000Y-117500000D03*
X135750000Y-117500000D03*
X134000000Y-116750000D03*
X135750000Y-115250000D03*
X135000000Y-115250000D03*
X132000000Y-116750000D03*
X135750000Y-116750000D03*
X135750000Y-116000000D03*
X133000000Y-116750000D03*
%TO.N,/Amplifier/Att_N*%
X163750000Y-125750000D03*
%TO.N,+5V*%
X115250000Y-122000000D03*
X128800000Y-111400000D03*
X114250000Y-119000000D03*
X116250000Y-120000000D03*
X115250000Y-121000000D03*
X128972182Y-147250000D03*
X116250000Y-119000000D03*
X116250000Y-122000000D03*
X114250000Y-120000000D03*
X117750000Y-144250000D03*
X114250000Y-122000000D03*
X115250000Y-119000000D03*
X123000000Y-141500000D03*
X122000000Y-148000000D03*
X115250000Y-120000000D03*
X109200000Y-118800000D03*
X116250000Y-121000000D03*
X114250000Y-121000000D03*
%TO.N,/Amplifier/BW_Limit*%
X126500000Y-134250000D03*
%TO.N,+12V*%
X147800000Y-132700000D03*
X142250000Y-139000000D03*
X120500000Y-131000000D03*
X136000000Y-141000000D03*
X141675000Y-120250000D03*
X128500000Y-136500000D03*
X122500000Y-130000000D03*
X142500000Y-129250000D03*
X122500000Y-129000000D03*
X121500000Y-129000000D03*
X139000000Y-141500000D03*
X121500000Y-131000000D03*
X142000000Y-149000000D03*
X120500000Y-130000000D03*
X120500000Y-129000000D03*
X121500000Y-130000000D03*
X129250000Y-137375000D03*
X122500000Y-131000000D03*
%TO.N,-12V*%
X131000000Y-128000000D03*
X150500000Y-144000000D03*
X130000000Y-126000000D03*
X130000000Y-127000000D03*
X142500000Y-120874500D03*
X151840000Y-147887500D03*
X157350000Y-120150000D03*
X149250000Y-140000000D03*
X129000000Y-127000000D03*
X128250000Y-132000000D03*
X130000000Y-128000000D03*
X129000000Y-128000000D03*
X129000000Y-126000000D03*
X131000000Y-126000000D03*
X131000000Y-127000000D03*
X138750000Y-132500000D03*
%TO.N,Net-(U102-ENN)*%
X127310000Y-109277500D03*
X124250000Y-111000000D03*
%TO.N,Net-(D101-A)*%
X138500000Y-129000000D03*
%TO.N,Net-(D102-A)*%
X114700000Y-148200000D03*
%TO.N,Net-(D112-K)*%
X112425000Y-122175000D03*
%TO.N,Net-(D113-A)*%
X136500000Y-122000000D03*
%TO.N,Net-(J104-CC1)*%
X106630000Y-115430000D03*
%TO.N,Net-(J104-CC2)*%
X106630000Y-116430000D03*
%TO.N,/Amplifier/Att_P*%
X163750000Y-124000000D03*
%TO.N,Net-(D111-A)*%
X119500000Y-148000000D03*
%TO.N,Net-(D111-K)*%
X132500000Y-145500000D03*
%TO.N,/Buttons_indication/x10_attenuation*%
X155750000Y-130750000D03*
%TO.N,Net-(U104B--)*%
X137950000Y-147300000D03*
%TO.N,Net-(U104B-+)*%
X144750000Y-137999000D03*
%TO.N,Net-(U104A--)*%
X148750000Y-138000000D03*
%TO.N,Net-(U104A-+)*%
X138000000Y-146500000D03*
%TD*%
D58*
%TO.N,/Amplifier/Att_P*%
X158820256Y-110000000D02*
X158475000Y-110000000D01*
X163270000Y-114449744D02*
X158820256Y-110000000D01*
X163270000Y-121355000D02*
X163270000Y-114449744D01*
%TO.N,/Amplifier/Att_N*%
X163270000Y-135575256D02*
X163270000Y-128645000D01*
X146375000Y-127000000D02*
X146575000Y-127200000D01*
X145500000Y-127000000D02*
X146375000Y-127000000D01*
X146575000Y-127200000D02*
X146575000Y-128510000D01*
%TO.N,/Amplifier/Att_P*%
X145500000Y-123000000D02*
X146125000Y-123000000D01*
X146125000Y-123000000D02*
X146500000Y-122625000D01*
X163350000Y-123600000D02*
X163750000Y-124000000D01*
X162000000Y-123600000D02*
X163350000Y-123600000D01*
X162000000Y-123600000D02*
X147475000Y-123600000D01*
%TO.N,/Amplifier/Att_N*%
X162200000Y-126200000D02*
X163300000Y-126200000D01*
X162200000Y-126200000D02*
X147300000Y-126200000D01*
X163300000Y-126200000D02*
X163750000Y-125750000D01*
X146575000Y-126925000D02*
X146575000Y-127200000D01*
X147300000Y-126200000D02*
X146575000Y-126925000D01*
X162450000Y-126200000D02*
X162200000Y-126200000D01*
X163270000Y-127020000D02*
X162450000Y-126200000D01*
%TO.N,/Amplifier/Att_P*%
X147475000Y-123600000D02*
X146500000Y-122625000D01*
X162400000Y-123600000D02*
X162000000Y-123600000D01*
X163270000Y-122730000D02*
X162400000Y-123600000D01*
X163270000Y-121355000D02*
X163270000Y-122730000D01*
X146500000Y-122625000D02*
X146500000Y-121500000D01*
%TO.N,GND*%
X114700000Y-143650000D02*
X112650000Y-143650000D01*
X155525000Y-144000000D02*
X155525000Y-142025000D01*
X135175000Y-145250000D02*
X134000000Y-145250000D01*
X112650000Y-143650000D02*
X112000000Y-143000000D01*
X167250000Y-113485000D02*
X167250000Y-112010000D01*
X156750000Y-113485000D02*
X156750000Y-112010000D01*
X164250000Y-113485000D02*
X164250000Y-112010000D01*
D59*
X138554168Y-137375000D02*
X138567208Y-137361960D01*
D58*
X174000000Y-114920000D02*
X174000000Y-112500000D01*
X159750000Y-113485000D02*
X159750000Y-112010000D01*
D59*
X138500000Y-137375000D02*
X138554168Y-137375000D01*
D58*
X159750000Y-136535000D02*
X159750000Y-138010000D01*
X143212500Y-138250000D02*
X144500000Y-136962500D01*
X118440000Y-134940000D02*
X118440000Y-136505000D01*
X134100000Y-124200000D02*
X132550000Y-124200000D01*
X143212500Y-133570000D02*
X144600000Y-133570000D01*
X138462500Y-139500000D02*
X139313051Y-140350551D01*
X134000000Y-145250000D02*
X133500000Y-144750000D01*
D59*
X123750000Y-109725000D02*
X123750000Y-108962500D01*
D58*
X167250000Y-136535000D02*
X167250000Y-138010000D01*
X139313051Y-140350551D02*
X139313051Y-140873899D01*
X144500000Y-136962500D02*
X144500000Y-136750000D01*
X135175000Y-143750000D02*
X134750000Y-143750000D01*
X155650000Y-119600000D02*
X156750000Y-118500000D01*
X155500000Y-106025000D02*
X155500000Y-108000000D01*
X158250000Y-113485000D02*
X158250000Y-112010000D01*
X165750000Y-113485000D02*
X165750000Y-112010000D01*
X133750000Y-144750000D02*
X133500000Y-144750000D01*
X165750000Y-136535000D02*
X165750000Y-138010000D01*
X141025000Y-121775000D02*
X140750000Y-121500000D01*
X126000000Y-138250000D02*
X126000000Y-139475000D01*
X164260000Y-136525000D02*
X164260000Y-138000000D01*
X149900000Y-111410000D02*
X149900000Y-115000000D01*
X155525000Y-110000000D02*
X153750000Y-110000000D01*
D59*
X123250000Y-108937500D02*
X123025000Y-108712500D01*
D58*
X156750000Y-136535000D02*
X156750000Y-138010000D01*
X140750000Y-121500000D02*
X140750000Y-120500000D01*
X126000000Y-139475000D02*
X126275000Y-139750000D01*
D59*
X123250000Y-109725000D02*
X123250000Y-108937500D01*
D58*
X125500000Y-137750000D02*
X126000000Y-138250000D01*
X143325000Y-138250000D02*
X143500000Y-138250000D01*
X155525000Y-140000000D02*
X153500000Y-140000000D01*
X158250000Y-136535000D02*
X158250000Y-138010000D01*
X155650000Y-121355000D02*
X155650000Y-119600000D01*
X117500000Y-134000000D02*
X118440000Y-134940000D01*
X174000000Y-135100000D02*
X174000000Y-137750000D01*
X141025000Y-122775000D02*
X141025000Y-121775000D01*
X149900000Y-135000000D02*
X149900000Y-138660000D01*
X134750000Y-143750000D02*
X133750000Y-144750000D01*
D59*
X123750000Y-108962500D02*
X124000000Y-108712500D01*
D58*
X134050000Y-129000000D02*
X132500000Y-129000000D01*
X136462500Y-137375000D02*
X138500000Y-137375000D01*
D59*
%TO.N,+15V*%
X116012500Y-109062500D02*
X114562500Y-109062500D01*
X122012500Y-108487500D02*
X117262500Y-108487500D01*
X114562500Y-109062500D02*
X114512500Y-109012500D01*
X117262500Y-108487500D02*
X116687500Y-109062500D01*
X116687500Y-109062500D02*
X116012500Y-109062500D01*
%TO.N,-15V*%
X124687500Y-103312500D02*
X124762500Y-103237500D01*
X126212500Y-103262500D02*
X126262500Y-103312500D01*
X124762500Y-103975000D02*
X124762500Y-103262500D01*
X126262500Y-103312500D02*
X127437500Y-103312500D01*
X124762500Y-103262500D02*
X126212500Y-103262500D01*
X127437500Y-103312500D02*
X128000000Y-102750000D01*
X124250000Y-105750000D02*
X124250000Y-104487500D01*
X124250000Y-104487500D02*
X124762500Y-103975000D01*
D58*
%TO.N,/Input_attenuator/INPUT_P*%
X183475000Y-106000000D02*
X185640000Y-108165000D01*
X185640000Y-115080000D02*
X185640000Y-112500000D01*
X185640000Y-109500000D02*
X185640000Y-108500000D01*
X183462500Y-103000000D02*
X183462500Y-105987500D01*
X185640000Y-112500000D02*
X185640000Y-109500000D01*
X183462500Y-105987500D02*
X183475000Y-106000000D01*
X185640000Y-108165000D02*
X185640000Y-108500000D01*
%TO.N,/Input_attenuator/INPUT_N*%
X183475000Y-143987500D02*
X185640000Y-141822500D01*
X185640000Y-135080000D02*
X185640000Y-141822500D01*
X185640000Y-141822500D02*
X183462500Y-144000000D01*
X183475000Y-147000000D02*
X183475000Y-143987500D01*
%TO.N,/Amplifier/Att_N*%
X158845256Y-140000000D02*
X163270000Y-135575256D01*
X160525000Y-144012500D02*
X160537500Y-144000000D01*
X160537500Y-144000000D02*
X160537500Y-142062500D01*
X160525000Y-147000000D02*
X160525000Y-144012500D01*
X158475000Y-140000000D02*
X158845256Y-140000000D01*
X163270000Y-127020000D02*
X162474500Y-126224500D01*
X160537500Y-142062500D02*
X158475000Y-140000000D01*
X163270000Y-128645000D02*
X163270000Y-127020000D01*
%TO.N,/Amplifier/BW_Limit*%
X138280300Y-125947500D02*
X138000000Y-125667200D01*
X135500000Y-129491518D02*
X135500000Y-128500000D01*
X132491518Y-132500000D02*
X135500000Y-129491518D01*
X138000000Y-125667200D02*
X138000000Y-121500000D01*
X138000000Y-126832800D02*
X138280300Y-126552500D01*
X138280300Y-126552500D02*
X138280300Y-125947500D01*
X138000000Y-121500000D02*
X141000000Y-118500000D01*
X125730000Y-135020000D02*
X125730000Y-136505000D01*
X136750000Y-127250000D02*
X137750000Y-127250000D01*
X138000000Y-127000000D02*
X138000000Y-126832800D01*
X125730000Y-136505000D02*
X125730000Y-136270000D01*
X137750000Y-127250000D02*
X138000000Y-127000000D01*
X135500000Y-128500000D02*
X136750000Y-127250000D01*
X126500000Y-134250000D02*
X125730000Y-135020000D01*
X125730000Y-136270000D02*
X129500000Y-132500000D01*
X129500000Y-132500000D02*
X132491518Y-132500000D01*
%TO.N,/Amplifier/Output*%
X112230000Y-131100000D02*
X114400000Y-131100000D01*
X116615000Y-128885000D02*
X118440000Y-128885000D01*
X114400000Y-131100000D02*
X116615000Y-128885000D01*
%TO.N,+12V*%
X142325000Y-127225000D02*
X142325000Y-129075000D01*
X135175000Y-141825000D02*
X136000000Y-141000000D01*
X131337500Y-136105000D02*
X128895000Y-136105000D01*
X135175000Y-142250000D02*
X135175000Y-141825000D01*
X141675000Y-120250000D02*
X141675000Y-122775000D01*
X129250000Y-137375000D02*
X131337500Y-137375000D01*
X128895000Y-136105000D02*
X128500000Y-136500000D01*
D59*
X142325000Y-129075000D02*
X142500000Y-129250000D01*
D58*
%TO.N,-12V*%
X136799500Y-148374500D02*
X146125500Y-148374500D01*
X142325000Y-122775000D02*
X142325000Y-121049500D01*
X135175000Y-146750000D02*
X136799500Y-148374500D01*
X136462500Y-133565000D02*
X137685000Y-133565000D01*
X137685000Y-133565000D02*
X138750000Y-132500000D01*
X142325000Y-121049500D02*
X142500000Y-120874500D01*
X146125500Y-148374500D02*
X150500000Y-144000000D01*
%TO.N,Net-(C101-Pad1)*%
X169375000Y-115025000D02*
X169400000Y-115000000D01*
X165810000Y-117500000D02*
X165810000Y-115085000D01*
X165810000Y-115085000D02*
X165750000Y-115025000D01*
X165810000Y-121355000D02*
X165810000Y-118575000D01*
D59*
X165750000Y-121295000D02*
X165810000Y-121355000D01*
D58*
X164250000Y-115025000D02*
X169375000Y-115025000D01*
X165810000Y-119365000D02*
X165810000Y-117500000D01*
X168675000Y-118500000D02*
X166810000Y-118500000D01*
X166810000Y-118500000D02*
X165810000Y-117500000D01*
%TO.N,Net-(C105-Pad1)*%
X178475000Y-106000000D02*
X180525000Y-106000000D01*
%TO.N,Net-(C106-Pad2)*%
X173475000Y-106000000D02*
X175525000Y-106000000D01*
%TO.N,Net-(C107-Pad2)*%
X168475000Y-106000000D02*
X170525000Y-106000000D01*
%TO.N,Net-(C108-Pad2)*%
X163475000Y-106000000D02*
X165525000Y-106000000D01*
%TO.N,Net-(C110-Pad2)*%
X165810000Y-134915000D02*
X165810000Y-130750000D01*
X169375000Y-134975000D02*
X169400000Y-135000000D01*
X166560000Y-131500000D02*
X165810000Y-130750000D01*
X165750000Y-134975000D02*
X165810000Y-134915000D01*
X164260000Y-134975000D02*
X169375000Y-134975000D01*
X165810000Y-130750000D02*
X165810000Y-128645000D01*
D59*
X164285000Y-135000000D02*
X164260000Y-134975000D01*
D58*
X168750000Y-131500000D02*
X166560000Y-131500000D01*
%TO.N,Net-(C114-Pad1)*%
X180525000Y-147000000D02*
X178475000Y-147000000D01*
%TO.N,Net-(C115-Pad2)*%
X173475000Y-147000000D02*
X175525000Y-147000000D01*
%TO.N,Net-(C116-Pad2)*%
X168475000Y-147000000D02*
X170525000Y-147000000D01*
%TO.N,Net-(C117-Pad2)*%
X163475000Y-147000000D02*
X165525000Y-147000000D01*
%TO.N,Net-(C119-Pad1)*%
X159750000Y-115025000D02*
X154625000Y-115025000D01*
X160730000Y-121355000D02*
X160730000Y-118250000D01*
X160730000Y-118250000D02*
X160730000Y-116005000D01*
X154625000Y-115025000D02*
X154600000Y-115000000D01*
X154250000Y-117750000D02*
X160230000Y-117750000D01*
X153750000Y-118250000D02*
X154250000Y-117750000D01*
X160230000Y-117750000D02*
X160730000Y-118250000D01*
X160730000Y-116005000D02*
X159750000Y-115025000D01*
%TO.N,Net-(C123-Pad2)*%
X160730000Y-130750000D02*
X160730000Y-128645000D01*
X153575000Y-131500000D02*
X159980000Y-131500000D01*
X159750000Y-134975000D02*
X160730000Y-133995000D01*
X160730000Y-133995000D02*
X160730000Y-130750000D01*
X159980000Y-131500000D02*
X160730000Y-130750000D01*
X159725000Y-135000000D02*
X159750000Y-134975000D01*
X154600000Y-135000000D02*
X159725000Y-135000000D01*
D59*
%TO.N,Net-(U102-FBP)*%
X116012500Y-107412500D02*
X116012500Y-106062500D01*
X116012500Y-106062500D02*
X116087500Y-105987500D01*
X116012500Y-107412500D02*
X119687500Y-107412500D01*
X119687500Y-107412500D02*
X120262500Y-107987500D01*
X120262500Y-107987500D02*
X122012500Y-107987500D01*
X114512500Y-107462500D02*
X115962500Y-107462500D01*
X115962500Y-107462500D02*
X116012500Y-107412500D01*
%TO.N,Net-(U102-VREF)*%
X121842100Y-103262500D02*
X121762500Y-103262500D01*
X121762500Y-103262500D02*
X121762500Y-103162500D01*
X123250000Y-105750000D02*
X123250000Y-104670400D01*
X123250000Y-104670400D02*
X121842100Y-103262500D01*
X121762500Y-103162500D02*
X123262500Y-101662500D01*
%TO.N,Net-(U102-FBN)*%
X124812500Y-101662500D02*
X124762500Y-101712500D01*
X126262500Y-101662500D02*
X124812500Y-101662500D01*
X123750000Y-103800000D02*
X123262500Y-103312500D01*
X123262500Y-103312500D02*
X124762500Y-101812500D01*
X123750000Y-105750000D02*
X123750000Y-103800000D01*
%TO.N,Net-(U102-ENN)*%
X127310000Y-108027500D02*
X127310000Y-109277500D01*
X127020000Y-106987500D02*
X127310000Y-107277500D01*
X127100000Y-108487500D02*
X127310000Y-108277500D01*
X127270000Y-107987500D02*
X127310000Y-108027500D01*
X125987500Y-107987500D02*
X127270000Y-107987500D01*
X125987500Y-107487500D02*
X127270000Y-107487500D01*
X125987500Y-108487500D02*
X127100000Y-108487500D01*
X124250000Y-111000000D02*
X124250000Y-109725000D01*
X127270000Y-107487500D02*
X127310000Y-107527500D01*
X125987500Y-106987500D02*
X127020000Y-106987500D01*
X127310000Y-108277500D02*
X127310000Y-108027500D01*
X127310000Y-107527500D02*
X127310000Y-107277500D01*
X127310000Y-108027500D02*
X127310000Y-107527500D01*
%TO.N,Net-(U102-CP)*%
X121012500Y-107487500D02*
X120062500Y-106537500D01*
X120062500Y-106537500D02*
X120062500Y-105487500D01*
X122012500Y-107487500D02*
X121012500Y-107487500D01*
%TO.N,Net-(U102-CN)*%
X120537500Y-104487500D02*
X120037500Y-103987500D01*
X122750000Y-105750000D02*
X122750000Y-104737500D01*
X122500000Y-104487500D02*
X120537500Y-104487500D01*
X122750000Y-104737500D02*
X122500000Y-104487500D01*
D58*
%TO.N,Net-(C151-Pad2)*%
X125537500Y-143250000D02*
X125537500Y-141012500D01*
X125537500Y-141012500D02*
X124525000Y-140000000D01*
X123250000Y-128865409D02*
X123250000Y-138000000D01*
X123250000Y-138000000D02*
X124525000Y-139275000D01*
X124525000Y-139275000D02*
X124525000Y-140000000D01*
X118440000Y-126345000D02*
X120729591Y-126345000D01*
X120729591Y-126345000D02*
X123250000Y-128865409D01*
D59*
%TO.N,Net-(D108-A)*%
X122750000Y-109725000D02*
X122750000Y-110450000D01*
X122750000Y-110450000D02*
X122600000Y-110600000D01*
D58*
%TO.N,Net-(IC101-FB)*%
X140137500Y-131320000D02*
X140137500Y-129612500D01*
X140137500Y-129612500D02*
X141025000Y-128725000D01*
X140137500Y-131320000D02*
X140137500Y-133570000D01*
X141025000Y-128725000D02*
X141025000Y-127225000D01*
%TO.N,Net-(IC101--IN)*%
X143500000Y-129000000D02*
X144435000Y-129000000D01*
X142975000Y-128475000D02*
X143500000Y-129000000D01*
X144435000Y-129000000D02*
X144925000Y-128510000D01*
X142975000Y-127225000D02*
X142975000Y-128475000D01*
%TO.N,/Amplifier/Single_ended_input*%
X144250000Y-136000000D02*
X145125000Y-135125000D01*
X145750000Y-135500000D02*
X145750000Y-136175000D01*
X145750000Y-136175000D02*
X147250000Y-136175000D01*
X145730000Y-134520000D02*
X146520000Y-134520000D01*
X145250000Y-135000000D02*
X145750000Y-135500000D01*
X141675000Y-129932500D02*
X143062500Y-131320000D01*
X145250000Y-131750000D02*
X144820000Y-131320000D01*
X145250000Y-134750000D02*
X145250000Y-131750000D01*
X144820000Y-131320000D02*
X143212500Y-131320000D01*
X141675000Y-127225000D02*
X141675000Y-129932500D01*
X143212500Y-136000000D02*
X144250000Y-136000000D01*
X145125000Y-135125000D02*
X145250000Y-135000000D01*
X145125000Y-135125000D02*
X145730000Y-134520000D01*
X145250000Y-134750000D02*
X145250000Y-135000000D01*
%TO.N,Net-(IC101-+IN)*%
X144350000Y-121000000D02*
X144850000Y-121500000D01*
X142975000Y-121525000D02*
X143500000Y-121000000D01*
X142975000Y-122775000D02*
X142975000Y-121525000D01*
X143500000Y-121000000D02*
X144350000Y-121000000D01*
%TO.N,Net-(K102-Pad10)*%
X122500000Y-139250000D02*
X124000000Y-140750000D01*
X120040409Y-131425000D02*
X122500000Y-133884591D01*
X124000000Y-140750000D02*
X124000000Y-145750000D01*
X124000000Y-145750000D02*
X125500000Y-147250000D01*
X118440000Y-131425000D02*
X120040409Y-131425000D01*
X122500000Y-133884591D02*
X122500000Y-139250000D01*
%TO.N,Net-(D101-A)*%
X136900000Y-129000000D02*
X138500000Y-129000000D01*
%TO.N,Net-(D102-A)*%
X114700000Y-146450000D02*
X114700000Y-148200000D01*
%TO.N,Net-(R103-Pad1)*%
X170575000Y-118500000D02*
X173175000Y-118500000D01*
%TO.N,Net-(R104-Pad1)*%
X174825000Y-118500000D02*
X174825000Y-120365000D01*
X174825000Y-120365000D02*
X172750000Y-122440000D01*
%TO.N,Net-(R105-Pad2)*%
X178462500Y-103000000D02*
X180537500Y-103000000D01*
%TO.N,Net-(R106-Pad2)*%
X175537500Y-103000000D02*
X173462500Y-103000000D01*
%TO.N,Net-(R107-Pad2)*%
X170537500Y-103000000D02*
X168462500Y-103000000D01*
%TO.N,Net-(R108-Pad2)*%
X163462500Y-103000000D02*
X165537500Y-103000000D01*
%TO.N,Net-(R110-Pad1)*%
X170400000Y-131500000D02*
X173175000Y-131500000D01*
%TO.N,Net-(R110-Pad2)*%
X174825000Y-131750000D02*
X174825000Y-129595000D01*
X174825000Y-129595000D02*
X172750000Y-127520000D01*
%TO.N,Net-(R114-Pad2)*%
X180537500Y-144000000D02*
X178462500Y-144000000D01*
%TO.N,Net-(R115-Pad2)*%
X173462500Y-144000000D02*
X175537500Y-144000000D01*
%TO.N,Net-(R116-Pad2)*%
X168462500Y-144000000D02*
X170537500Y-144000000D01*
%TO.N,Net-(R117-Pad2)*%
X163462500Y-144000000D02*
X165537500Y-144000000D01*
%TO.N,Net-(R119-Pad1)*%
X150362500Y-118500000D02*
X152137500Y-118500000D01*
%TO.N,Net-(R120-Pad1)*%
X148675000Y-118250000D02*
X148675000Y-119665000D01*
X148675000Y-119665000D02*
X151250000Y-122240000D01*
%TO.N,Net-(R123-Pad2)*%
X148675000Y-129895000D02*
X151250000Y-127320000D01*
X148675000Y-131500000D02*
X148675000Y-129895000D01*
%TO.N,Net-(R123-Pad1)*%
X150325000Y-131500000D02*
X151925000Y-131500000D01*
D59*
%TO.N,Net-(R136-Pad1)*%
X127950000Y-135990000D02*
X127970000Y-135970000D01*
D58*
X127970000Y-135970000D02*
X129105000Y-134835000D01*
X131462500Y-143250000D02*
X131462500Y-140175000D01*
X131462500Y-147212500D02*
X131425000Y-147250000D01*
X130787500Y-139500000D02*
X129250000Y-139500000D01*
X127970000Y-135970000D02*
X127874500Y-136065500D01*
X129190000Y-139810000D02*
X129190000Y-139440000D01*
X129105000Y-134835000D02*
X131337500Y-134835000D01*
X128750000Y-140250000D02*
X129190000Y-139810000D01*
X127874500Y-138124500D02*
X129125000Y-139375000D01*
X127874500Y-136065500D02*
X127874500Y-138124500D01*
X131787500Y-142925000D02*
X131462500Y-143250000D01*
X129125000Y-139375000D02*
X129190000Y-139440000D01*
X129250000Y-139500000D02*
X129125000Y-139375000D01*
X131462500Y-143250000D02*
X131462500Y-147212500D01*
X131462500Y-140175000D02*
X130787500Y-139500000D01*
%TO.N,Net-(U106--)*%
X142825000Y-140000000D02*
X144250000Y-140000000D01*
X144250000Y-140000000D02*
X144750000Y-139500000D01*
%TO.N,Net-(U103--)*%
X136588000Y-138199500D02*
X138676000Y-138199500D01*
X139125500Y-138667018D02*
X139125500Y-137750000D01*
X140458482Y-140000000D02*
X139125500Y-138667018D01*
X136462500Y-136105000D02*
X138355000Y-136105000D01*
X139125500Y-137750000D02*
X139125500Y-136875500D01*
X138355000Y-136105000D02*
X139125500Y-136875500D01*
X138676000Y-138199500D02*
X139125500Y-137750000D01*
X135287500Y-139500000D02*
X136588000Y-138199500D01*
X141175000Y-140000000D02*
X140458482Y-140000000D01*
X133712500Y-139500000D02*
X135537500Y-139500000D01*
%TO.N,Net-(D112-K)*%
X112500000Y-122100000D02*
X112425000Y-122175000D01*
X112500000Y-120650000D02*
X112500000Y-122100000D01*
%TO.N,Net-(D113-A)*%
X136791589Y-122741589D02*
X136900000Y-122850000D01*
X136500000Y-122000000D02*
X136791589Y-122291589D01*
X136791589Y-122291589D02*
X136791589Y-122741589D01*
X136900000Y-122850000D02*
X136900000Y-124200000D01*
%TO.N,Net-(U103-+)*%
X139122500Y-134835000D02*
X136462500Y-134835000D01*
X140250000Y-138250000D02*
X140287500Y-138212500D01*
X140287500Y-138212500D02*
X140287500Y-135750000D01*
X140287500Y-138250000D02*
X140250000Y-138250000D01*
X140287500Y-136000000D02*
X139122500Y-134835000D01*
%TO.N,/Amplifier/Att_P*%
X163250000Y-121335000D02*
X163270000Y-121355000D01*
X160537500Y-105987500D02*
X160525000Y-106000000D01*
X160537500Y-103000000D02*
X160537500Y-104250000D01*
X160525000Y-107950000D02*
X159612500Y-108862500D01*
X160525000Y-106000000D02*
X160525000Y-107950000D01*
X158475000Y-110000000D02*
X159612500Y-108862500D01*
X160537500Y-104250000D02*
X160537500Y-105987500D01*
%TO.N,Net-(D111-A)*%
X119500000Y-146450000D02*
X119500000Y-148000000D01*
%TO.N,Net-(D111-K)*%
X119500000Y-143650000D02*
X120900000Y-143650000D01*
X120900000Y-143650000D02*
X121750000Y-144500000D01*
X132500000Y-145500000D02*
X133250000Y-146250000D01*
X133250000Y-146250000D02*
X133250000Y-148276500D01*
X124871482Y-149300500D02*
X121750000Y-146179018D01*
X133250000Y-148276500D02*
X132226000Y-149300500D01*
X121750000Y-146179018D02*
X121750000Y-144500000D01*
X132226000Y-149300500D02*
X124871482Y-149300500D01*
%TO.N,/Buttons_indication/x10_attenuation*%
X155750000Y-130750000D02*
X155750000Y-128745000D01*
X155750000Y-128745000D02*
X155650000Y-128645000D01*
%TO.N,Net-(U104B--)*%
X137800000Y-147300000D02*
X137950000Y-147300000D01*
X136825000Y-145750000D02*
X136825000Y-146325000D01*
X136825000Y-146325000D02*
X137800000Y-147300000D01*
X136825000Y-145250000D02*
X136825000Y-145750000D01*
X136825000Y-145750000D02*
X136825000Y-146750000D01*
%TO.N,Net-(U104B-+)*%
X144750000Y-137999000D02*
X144924000Y-137825000D01*
X144924000Y-137825000D02*
X145750000Y-137825000D01*
%TO.N,Net-(U104A--)*%
X148575000Y-137825000D02*
X148750000Y-138000000D01*
X147250000Y-137825000D02*
X148575000Y-137825000D01*
%TO.N,Net-(U104A-+)*%
X137875000Y-143375000D02*
X138000000Y-143500000D01*
X136825000Y-142250000D02*
X136825000Y-142325000D01*
X136825000Y-142250000D02*
X136825000Y-143000000D01*
X138000000Y-143500000D02*
X138000000Y-146500000D01*
X136825000Y-143000000D02*
X136825000Y-143750000D01*
X136825000Y-142325000D02*
X137875000Y-143375000D01*
%TD*%
%TA.AperFunction,Conductor*%
%TO.N,GND*%
G36*
X136013318Y-107250598D02*
G01*
X136190343Y-107268048D01*
X136214193Y-107272796D01*
X136378554Y-107322698D01*
X136401014Y-107332011D01*
X136552456Y-107413038D01*
X136572677Y-107426564D01*
X136705382Y-107535602D01*
X136722572Y-107552814D01*
X136831438Y-107685667D01*
X136844928Y-107705893D01*
X136904015Y-107816678D01*
X136925758Y-107857446D01*
X136935045Y-107879931D01*
X136984725Y-108044340D01*
X136989444Y-108068207D01*
X137006660Y-108245251D01*
X137007242Y-108257415D01*
X137001325Y-112745230D01*
X137000713Y-112757375D01*
X136983087Y-112934082D01*
X136978321Y-112957896D01*
X136928372Y-113121924D01*
X136919055Y-113144354D01*
X136838092Y-113295496D01*
X136824582Y-113315680D01*
X136715705Y-113448146D01*
X136698520Y-113465309D01*
X136565913Y-113574009D01*
X136545712Y-113587492D01*
X136394465Y-113668256D01*
X136372022Y-113677544D01*
X136207923Y-113727278D01*
X136184101Y-113732012D01*
X136007374Y-113749404D01*
X135995230Y-113750000D01*
X133256093Y-113750000D01*
X133243939Y-113749403D01*
X133067065Y-113731982D01*
X133043224Y-113727240D01*
X132879001Y-113677424D01*
X132856543Y-113668121D01*
X132705201Y-113587227D01*
X132684989Y-113573722D01*
X132552333Y-113464854D01*
X132535145Y-113447666D01*
X132487414Y-113389506D01*
X132426276Y-113315008D01*
X132412772Y-113294798D01*
X132331877Y-113143453D01*
X132322575Y-113120998D01*
X132272757Y-112956769D01*
X132268018Y-112932941D01*
X132250597Y-112756061D01*
X132250000Y-112743907D01*
X132250000Y-112699986D01*
X132650001Y-112699986D01*
X132660494Y-112802697D01*
X132715641Y-112969119D01*
X132715643Y-112969124D01*
X132807684Y-113118345D01*
X132931654Y-113242315D01*
X133080875Y-113334356D01*
X133080880Y-113334358D01*
X133247302Y-113389505D01*
X133247309Y-113389506D01*
X133350019Y-113399999D01*
X133474999Y-113399999D01*
X133975000Y-113399999D01*
X134099972Y-113399999D01*
X134099986Y-113399998D01*
X134202697Y-113389505D01*
X134369119Y-113334358D01*
X134369124Y-113334356D01*
X134518345Y-113242315D01*
X134642315Y-113118345D01*
X134734356Y-112969124D01*
X134734358Y-112969119D01*
X134789505Y-112802697D01*
X134789506Y-112802690D01*
X134799999Y-112699986D01*
X134800000Y-112699973D01*
X134800000Y-112250000D01*
X133975000Y-112250000D01*
X133975000Y-113399999D01*
X133474999Y-113399999D01*
X133475000Y-113399998D01*
X133475000Y-112250000D01*
X132650001Y-112250000D01*
X132650001Y-112699986D01*
X132250000Y-112699986D01*
X132250000Y-111300013D01*
X132650000Y-111300013D01*
X132650000Y-111750000D01*
X133475000Y-111750000D01*
X133975000Y-111750000D01*
X134799999Y-111750000D01*
X134799999Y-111300028D01*
X134799998Y-111300013D01*
X134789505Y-111197302D01*
X134734358Y-111030880D01*
X134734356Y-111030875D01*
X134642315Y-110881654D01*
X134518345Y-110757684D01*
X134369124Y-110665643D01*
X134369119Y-110665641D01*
X134202697Y-110610494D01*
X134202690Y-110610493D01*
X134099986Y-110600000D01*
X133975000Y-110600000D01*
X133975000Y-111750000D01*
X133475000Y-111750000D01*
X133475000Y-110600000D01*
X133350027Y-110600000D01*
X133350012Y-110600001D01*
X133247302Y-110610494D01*
X133080880Y-110665641D01*
X133080875Y-110665643D01*
X132931654Y-110757684D01*
X132807684Y-110881654D01*
X132715643Y-111030875D01*
X132715641Y-111030880D01*
X132660494Y-111197302D01*
X132660493Y-111197309D01*
X132650000Y-111300013D01*
X132250000Y-111300013D01*
X132250000Y-110271499D01*
X132269685Y-110204460D01*
X132322489Y-110158705D01*
X132374000Y-110147499D01*
X132750000Y-110147499D01*
X133250000Y-110147499D01*
X134823911Y-110147499D01*
X134823917Y-110147498D01*
X134865423Y-110144685D01*
X134865425Y-110144685D01*
X135044849Y-110100064D01*
X135210481Y-110017918D01*
X135354584Y-109902085D01*
X135354585Y-109902084D01*
X135470418Y-109757981D01*
X135552564Y-109592349D01*
X135597184Y-109412931D01*
X135600000Y-109371411D01*
X135600000Y-109197500D01*
X133250000Y-109197500D01*
X133250000Y-110147499D01*
X132750000Y-110147499D01*
X132750000Y-108697500D01*
X133250000Y-108697500D01*
X135599999Y-108697500D01*
X135599999Y-108523589D01*
X135599998Y-108523582D01*
X135597185Y-108482076D01*
X135597185Y-108482074D01*
X135552564Y-108302650D01*
X135470418Y-108137018D01*
X135354585Y-107992915D01*
X135354584Y-107992914D01*
X135210481Y-107877081D01*
X135044849Y-107794935D01*
X134865431Y-107750315D01*
X134823912Y-107747500D01*
X133250000Y-107747500D01*
X133250000Y-108697500D01*
X132750000Y-108697500D01*
X132750000Y-107747500D01*
X131176089Y-107747500D01*
X131176082Y-107747501D01*
X131134576Y-107750314D01*
X131134574Y-107750314D01*
X130955150Y-107794936D01*
X130935811Y-107804527D01*
X130926576Y-107806157D01*
X130918826Y-107811437D01*
X130892723Y-107812136D01*
X130867006Y-107816678D01*
X130858354Y-107813056D01*
X130848981Y-107813308D01*
X130826643Y-107799783D01*
X130802555Y-107789701D01*
X130797235Y-107781978D01*
X130789213Y-107777121D01*
X130777733Y-107753667D01*
X130762919Y-107732161D01*
X130762618Y-107722786D01*
X130758497Y-107714365D01*
X130761519Y-107688430D01*
X130760684Y-107662327D01*
X130765714Y-107652433D01*
X130766585Y-107644965D01*
X130784863Y-107614776D01*
X130836112Y-107552328D01*
X130853291Y-107535149D01*
X130985958Y-107426272D01*
X131006158Y-107412775D01*
X131157512Y-107331875D01*
X131179957Y-107322577D01*
X131344195Y-107272757D01*
X131368019Y-107268018D01*
X131544902Y-107250597D01*
X131557056Y-107250000D01*
X136001154Y-107250000D01*
X136013318Y-107250598D01*
G37*
%TD.AperFunction*%
%TD*%
%TA.AperFunction,Conductor*%
%TO.N,-15V*%
G36*
X129618561Y-107278097D02*
G01*
X129795441Y-107295518D01*
X129819269Y-107300257D01*
X129983501Y-107350076D01*
X130005953Y-107359377D01*
X130157298Y-107440272D01*
X130177510Y-107453777D01*
X130310166Y-107562645D01*
X130327354Y-107579833D01*
X130436222Y-107712489D01*
X130449727Y-107732701D01*
X130530621Y-107884043D01*
X130539924Y-107906501D01*
X130589740Y-108070724D01*
X130594482Y-108094565D01*
X130611903Y-108271438D01*
X130612500Y-108283592D01*
X130612500Y-110250000D01*
X131299289Y-110250000D01*
X131313172Y-110250779D01*
X131446739Y-110265829D01*
X131473808Y-110272008D01*
X131594071Y-110314090D01*
X131619088Y-110326137D01*
X131726968Y-110393922D01*
X131748677Y-110411235D01*
X131838764Y-110501322D01*
X131856077Y-110523031D01*
X131923862Y-110630911D01*
X131935909Y-110655928D01*
X131977991Y-110776191D01*
X131984170Y-110803262D01*
X131999220Y-110936827D01*
X132000000Y-110950711D01*
X132000000Y-114000000D01*
X135493907Y-114000000D01*
X135506061Y-114000597D01*
X135682941Y-114018018D01*
X135706769Y-114022757D01*
X135871001Y-114072576D01*
X135893453Y-114081877D01*
X136044798Y-114162772D01*
X136065010Y-114176277D01*
X136197666Y-114285145D01*
X136214854Y-114302333D01*
X136323722Y-114434989D01*
X136337227Y-114455201D01*
X136418121Y-114606543D01*
X136427424Y-114629001D01*
X136477240Y-114793224D01*
X136481982Y-114817065D01*
X136499403Y-114993938D01*
X136500000Y-115006092D01*
X136500000Y-119243907D01*
X136499403Y-119256061D01*
X136481982Y-119432934D01*
X136477240Y-119456775D01*
X136427424Y-119620998D01*
X136418121Y-119643456D01*
X136337227Y-119794798D01*
X136323722Y-119815010D01*
X136214854Y-119947666D01*
X136197666Y-119964854D01*
X136065010Y-120073722D01*
X136044798Y-120087227D01*
X135893456Y-120168121D01*
X135870998Y-120177424D01*
X135706775Y-120227240D01*
X135682934Y-120231982D01*
X135506061Y-120249403D01*
X135493907Y-120250000D01*
X130294372Y-120250000D01*
X130282273Y-120249408D01*
X130231509Y-120244430D01*
X130106172Y-120232141D01*
X130082432Y-120227440D01*
X129918874Y-120178058D01*
X129896500Y-120168836D01*
X129745645Y-120088624D01*
X129725493Y-120075235D01*
X129593093Y-119967250D01*
X129575924Y-119950200D01*
X129467013Y-119818547D01*
X129453482Y-119798487D01*
X129372222Y-119648194D01*
X129362846Y-119625886D01*
X129323879Y-119499999D01*
X129312325Y-119462672D01*
X129307460Y-119438969D01*
X129304904Y-119414642D01*
X129288966Y-119262975D01*
X129288291Y-119250911D01*
X129285284Y-118818995D01*
X132049499Y-118818995D01*
X132076418Y-118954322D01*
X132076421Y-118954332D01*
X132129221Y-119081804D01*
X132129228Y-119081817D01*
X132205885Y-119196541D01*
X132205888Y-119196545D01*
X132303454Y-119294111D01*
X132303458Y-119294114D01*
X132418182Y-119370771D01*
X132418195Y-119370778D01*
X132545667Y-119423578D01*
X132545672Y-119423580D01*
X132545676Y-119423580D01*
X132545677Y-119423581D01*
X132681004Y-119450500D01*
X132681007Y-119450500D01*
X132818995Y-119450500D01*
X132910041Y-119432389D01*
X132954328Y-119423580D01*
X133081811Y-119370775D01*
X133196542Y-119294114D01*
X133227681Y-119262975D01*
X133263023Y-119227634D01*
X133294111Y-119196545D01*
X133294114Y-119196542D01*
X133370775Y-119081811D01*
X133423580Y-118954328D01*
X133436055Y-118891614D01*
X133450500Y-118818995D01*
X133450500Y-118681006D01*
X133450499Y-118681003D01*
X133449529Y-118676126D01*
X134000000Y-118676126D01*
X134000000Y-118823873D01*
X134028820Y-118968759D01*
X134028822Y-118968767D01*
X134085358Y-119105256D01*
X134138473Y-119184749D01*
X134138474Y-119184750D01*
X134506881Y-118816342D01*
X134538060Y-118891614D01*
X134608386Y-118961940D01*
X134683657Y-118993118D01*
X134315249Y-119361525D01*
X134315249Y-119361526D01*
X134394743Y-119414642D01*
X134531232Y-119471177D01*
X134531240Y-119471179D01*
X134676126Y-119499999D01*
X134676129Y-119500000D01*
X134823871Y-119500000D01*
X134823873Y-119499999D01*
X134968759Y-119471179D01*
X134968767Y-119471177D01*
X135105255Y-119414642D01*
X135184749Y-119361525D01*
X134816342Y-118993117D01*
X134891614Y-118961940D01*
X134961940Y-118891614D01*
X134993118Y-118816342D01*
X135361525Y-119184749D01*
X135414642Y-119105255D01*
X135471177Y-118968767D01*
X135471179Y-118968759D01*
X135499999Y-118823873D01*
X135500000Y-118823871D01*
X135500000Y-118676128D01*
X135499999Y-118676126D01*
X135471179Y-118531240D01*
X135471177Y-118531232D01*
X135414642Y-118394743D01*
X135361525Y-118315249D01*
X134993117Y-118683656D01*
X134961940Y-118608386D01*
X134891614Y-118538060D01*
X134816342Y-118506882D01*
X135184750Y-118138474D01*
X135184749Y-118138473D01*
X135105256Y-118085358D01*
X134968767Y-118028822D01*
X134968759Y-118028820D01*
X134823872Y-118000000D01*
X134676128Y-118000000D01*
X134531240Y-118028820D01*
X134531232Y-118028822D01*
X134394741Y-118085359D01*
X134315249Y-118138472D01*
X134315248Y-118138473D01*
X134683657Y-118506881D01*
X134608386Y-118538060D01*
X134538060Y-118608386D01*
X134506882Y-118683657D01*
X134138473Y-118315248D01*
X134138472Y-118315249D01*
X134085359Y-118394741D01*
X134028822Y-118531232D01*
X134028820Y-118531240D01*
X134000000Y-118676126D01*
X133449529Y-118676126D01*
X133423581Y-118545677D01*
X133423580Y-118545676D01*
X133423580Y-118545672D01*
X133404662Y-118500000D01*
X133370778Y-118418195D01*
X133370771Y-118418182D01*
X133294114Y-118303458D01*
X133294111Y-118303454D01*
X133196545Y-118205888D01*
X133196541Y-118205885D01*
X133081817Y-118129228D01*
X133081804Y-118129221D01*
X132954332Y-118076421D01*
X132954322Y-118076418D01*
X132818995Y-118049500D01*
X132818993Y-118049500D01*
X132681007Y-118049500D01*
X132681005Y-118049500D01*
X132545677Y-118076418D01*
X132545667Y-118076421D01*
X132418195Y-118129221D01*
X132418182Y-118129228D01*
X132303458Y-118205885D01*
X132303454Y-118205888D01*
X132205888Y-118303454D01*
X132205885Y-118303458D01*
X132129228Y-118418182D01*
X132129221Y-118418195D01*
X132076421Y-118545667D01*
X132076418Y-118545677D01*
X132049500Y-118681004D01*
X132049500Y-118681006D01*
X132049500Y-118681007D01*
X132049500Y-118818993D01*
X132049500Y-118818995D01*
X132049499Y-118818995D01*
X129285284Y-118818995D01*
X129256037Y-114617317D01*
X129242676Y-112697844D01*
X129950000Y-112697844D01*
X129956401Y-112757372D01*
X129956403Y-112757379D01*
X130006645Y-112892086D01*
X130006649Y-112892093D01*
X130092809Y-113007187D01*
X130092812Y-113007190D01*
X130207906Y-113093350D01*
X130207913Y-113093354D01*
X130342620Y-113143596D01*
X130342627Y-113143598D01*
X130402155Y-113149999D01*
X130402172Y-113150000D01*
X130650000Y-113150000D01*
X130900000Y-113150000D01*
X131147828Y-113150000D01*
X131147844Y-113149999D01*
X131207372Y-113143598D01*
X131207379Y-113143596D01*
X131342086Y-113093354D01*
X131342093Y-113093350D01*
X131457187Y-113007190D01*
X131457190Y-113007187D01*
X131543350Y-112892093D01*
X131543354Y-112892086D01*
X131593596Y-112757379D01*
X131593598Y-112757372D01*
X131599999Y-112697844D01*
X131600000Y-112697827D01*
X131600000Y-112125000D01*
X130900000Y-112125000D01*
X130900000Y-113150000D01*
X130650000Y-113150000D01*
X130650000Y-112125000D01*
X129950000Y-112125000D01*
X129950000Y-112697844D01*
X129242676Y-112697844D01*
X129234587Y-111535826D01*
X129234675Y-111530266D01*
X129235209Y-111516375D01*
X129250500Y-111459309D01*
X129250500Y-111340691D01*
X129240174Y-111302155D01*
X129950000Y-111302155D01*
X129950000Y-111875000D01*
X130650000Y-111875000D01*
X130900000Y-111875000D01*
X131600000Y-111875000D01*
X131600000Y-111302172D01*
X131599999Y-111302155D01*
X131593598Y-111242627D01*
X131593596Y-111242620D01*
X131543354Y-111107913D01*
X131543350Y-111107906D01*
X131457190Y-110992812D01*
X131457187Y-110992809D01*
X131342093Y-110906649D01*
X131342086Y-110906645D01*
X131207379Y-110856403D01*
X131207372Y-110856401D01*
X131147844Y-110850000D01*
X130900000Y-110850000D01*
X130900000Y-111875000D01*
X130650000Y-111875000D01*
X130650000Y-110850000D01*
X130402155Y-110850000D01*
X130342627Y-110856401D01*
X130342620Y-110856403D01*
X130207913Y-110906645D01*
X130207906Y-110906649D01*
X130092812Y-110992809D01*
X130092809Y-110992812D01*
X130006649Y-111107906D01*
X130006645Y-111107913D01*
X129956403Y-111242620D01*
X129956401Y-111242627D01*
X129950000Y-111302155D01*
X129240174Y-111302155D01*
X129236878Y-111289855D01*
X129232657Y-111258631D01*
X129229117Y-110750000D01*
X129229116Y-110750000D01*
X128401519Y-110750000D01*
X128387637Y-110749220D01*
X128348295Y-110744787D01*
X128222737Y-110730640D01*
X128195667Y-110724462D01*
X128045644Y-110671967D01*
X128020626Y-110659919D01*
X127886048Y-110575358D01*
X127864339Y-110558045D01*
X127751954Y-110445660D01*
X127734641Y-110423951D01*
X127720442Y-110401354D01*
X127650079Y-110289371D01*
X127638032Y-110264355D01*
X127585537Y-110114332D01*
X127579359Y-110087261D01*
X127560780Y-109922363D01*
X127560000Y-109908480D01*
X127560000Y-109715964D01*
X127579685Y-109648925D01*
X127596319Y-109628283D01*
X127670489Y-109554113D01*
X127729799Y-109451386D01*
X127760500Y-109336809D01*
X127760500Y-109218191D01*
X127729799Y-109103614D01*
X127670489Y-109000887D01*
X127646819Y-108977217D01*
X127632115Y-108950289D01*
X127630605Y-108947939D01*
X128150001Y-108947939D01*
X128156081Y-109004507D01*
X128203813Y-109132481D01*
X128203815Y-109132484D01*
X128285670Y-109241829D01*
X128395015Y-109323684D01*
X128395016Y-109323685D01*
X128522991Y-109371417D01*
X128522994Y-109371418D01*
X128579556Y-109377499D01*
X128874999Y-109377499D01*
X129125000Y-109377499D01*
X129420433Y-109377499D01*
X129420439Y-109377498D01*
X129477007Y-109371418D01*
X129604981Y-109323686D01*
X129604984Y-109323684D01*
X129714329Y-109241829D01*
X129796184Y-109132484D01*
X129796185Y-109132483D01*
X129843916Y-109004510D01*
X129849999Y-108947928D01*
X129850000Y-108947927D01*
X129850000Y-108802500D01*
X129125000Y-108802500D01*
X129125000Y-109377499D01*
X128874999Y-109377499D01*
X128875000Y-109377498D01*
X128875000Y-108802500D01*
X128150001Y-108802500D01*
X128150001Y-108947939D01*
X127630605Y-108947939D01*
X127615523Y-108924471D01*
X127614631Y-108918270D01*
X127613334Y-108915894D01*
X127610500Y-108889536D01*
X127610500Y-108407071D01*
X128150000Y-108407071D01*
X128150000Y-108552500D01*
X128875000Y-108552500D01*
X129125000Y-108552500D01*
X129849999Y-108552500D01*
X129849999Y-108407066D01*
X129849998Y-108407060D01*
X129843918Y-108350492D01*
X129796186Y-108222518D01*
X129796184Y-108222515D01*
X129714329Y-108113170D01*
X129604984Y-108031315D01*
X129604983Y-108031314D01*
X129477010Y-107983583D01*
X129420428Y-107977500D01*
X129125000Y-107977500D01*
X129125000Y-108552500D01*
X128875000Y-108552500D01*
X128875000Y-107977500D01*
X128579566Y-107977500D01*
X128579559Y-107977501D01*
X128522992Y-107983581D01*
X128395018Y-108031313D01*
X128395015Y-108031315D01*
X128285670Y-108113170D01*
X128203815Y-108222515D01*
X128203814Y-108222516D01*
X128156083Y-108350489D01*
X128150000Y-108407071D01*
X127610500Y-108407071D01*
X127610500Y-107997669D01*
X127610609Y-107996930D01*
X127610505Y-107996563D01*
X127615839Y-107961675D01*
X127632575Y-107906502D01*
X127632576Y-107906501D01*
X127632576Y-107906498D01*
X127641875Y-107884049D01*
X127722775Y-107732695D01*
X127736272Y-107712495D01*
X127845149Y-107579828D01*
X127862328Y-107562649D01*
X127994995Y-107453772D01*
X128015195Y-107440275D01*
X128166549Y-107359375D01*
X128188994Y-107350077D01*
X128353232Y-107300257D01*
X128377056Y-107295518D01*
X128553939Y-107278097D01*
X128566093Y-107277500D01*
X129606407Y-107277500D01*
X129618561Y-107278097D01*
G37*
%TD.AperFunction*%
%TD*%
%TA.AperFunction,Conductor*%
%TO.N,Net-(D109-K)*%
G36*
X134941061Y-103348097D02*
G01*
X135117941Y-103365518D01*
X135141769Y-103370257D01*
X135306001Y-103420076D01*
X135328453Y-103429377D01*
X135421771Y-103479256D01*
X135479798Y-103510272D01*
X135500010Y-103523777D01*
X135632666Y-103632645D01*
X135649854Y-103649833D01*
X135758722Y-103782489D01*
X135772227Y-103802701D01*
X135853121Y-103954043D01*
X135862424Y-103976501D01*
X135912240Y-104140724D01*
X135916982Y-104164565D01*
X135934403Y-104341438D01*
X135935000Y-104353592D01*
X135935000Y-106021407D01*
X135934403Y-106033561D01*
X135916982Y-106210434D01*
X135912240Y-106234275D01*
X135862424Y-106398498D01*
X135853121Y-106420956D01*
X135772227Y-106572298D01*
X135758722Y-106592510D01*
X135649854Y-106725166D01*
X135632666Y-106742354D01*
X135500010Y-106851222D01*
X135479798Y-106864727D01*
X135328456Y-106945621D01*
X135305998Y-106954924D01*
X135141775Y-107004740D01*
X135117934Y-107009482D01*
X134941061Y-107026903D01*
X134928907Y-107027500D01*
X128959620Y-107027500D01*
X128947015Y-107026858D01*
X128763654Y-107008122D01*
X128738967Y-107003023D01*
X128569257Y-106949506D01*
X128546110Y-106939521D01*
X128385165Y-106849681D01*
X128374473Y-106842976D01*
X127572737Y-106281501D01*
X127572724Y-106281491D01*
X127310001Y-106097500D01*
X127310000Y-106097500D01*
X126994658Y-106097500D01*
X125999000Y-106097500D01*
X125931961Y-106077815D01*
X125886206Y-106025011D01*
X125875000Y-105973500D01*
X125875000Y-105875000D01*
X125374000Y-105875000D01*
X125365314Y-105872449D01*
X125356353Y-105873738D01*
X125332312Y-105862759D01*
X125306961Y-105855315D01*
X125301033Y-105848474D01*
X125292797Y-105844713D01*
X125278507Y-105822478D01*
X125261206Y-105802511D01*
X125258918Y-105791996D01*
X125255023Y-105785935D01*
X125250000Y-105751000D01*
X125250000Y-105750000D01*
X125249000Y-105750000D01*
X125181961Y-105730315D01*
X125136206Y-105677511D01*
X125130400Y-105650822D01*
X127900001Y-105650822D01*
X127910144Y-105750107D01*
X127963452Y-105910981D01*
X127963457Y-105910992D01*
X128052424Y-106055228D01*
X128052427Y-106055232D01*
X128172267Y-106175072D01*
X128172271Y-106175075D01*
X128316507Y-106264042D01*
X128316518Y-106264047D01*
X128477393Y-106317355D01*
X128576683Y-106327499D01*
X128749999Y-106327499D01*
X129250000Y-106327499D01*
X129423308Y-106327499D01*
X129423322Y-106327498D01*
X129522607Y-106317355D01*
X129683481Y-106264047D01*
X129683492Y-106264042D01*
X129827728Y-106175075D01*
X129827732Y-106175072D01*
X129947572Y-106055232D01*
X129947575Y-106055228D01*
X130036542Y-105910992D01*
X130036547Y-105910981D01*
X130089855Y-105750106D01*
X130097895Y-105671417D01*
X130400001Y-105671417D01*
X130402814Y-105712923D01*
X130402814Y-105712925D01*
X130447435Y-105892349D01*
X130529581Y-106057981D01*
X130645414Y-106202084D01*
X130645415Y-106202085D01*
X130789518Y-106317918D01*
X130955150Y-106400064D01*
X131134568Y-106444684D01*
X131176088Y-106447499D01*
X132749999Y-106447499D01*
X133250000Y-106447499D01*
X134823911Y-106447499D01*
X134823917Y-106447498D01*
X134865423Y-106444685D01*
X134865425Y-106444685D01*
X135044849Y-106400064D01*
X135210481Y-106317918D01*
X135354584Y-106202085D01*
X135354585Y-106202084D01*
X135470418Y-106057981D01*
X135552564Y-105892349D01*
X135597184Y-105712931D01*
X135600000Y-105671411D01*
X135600000Y-105497500D01*
X133250000Y-105497500D01*
X133250000Y-106447499D01*
X132749999Y-106447499D01*
X132750000Y-106447498D01*
X132750000Y-105497500D01*
X130400001Y-105497500D01*
X130400001Y-105671417D01*
X130097895Y-105671417D01*
X130099999Y-105650822D01*
X130100000Y-105650809D01*
X130100000Y-105627500D01*
X129250000Y-105627500D01*
X129250000Y-106327499D01*
X128749999Y-106327499D01*
X128750000Y-106327498D01*
X128750000Y-105627500D01*
X127900001Y-105627500D01*
X127900001Y-105650822D01*
X125130400Y-105650822D01*
X125125000Y-105626000D01*
X125125000Y-105625000D01*
X125375000Y-105625000D01*
X125875000Y-105625000D01*
X125875000Y-105388136D01*
X125874999Y-105388122D01*
X125860521Y-105278158D01*
X125860521Y-105278157D01*
X125806808Y-105148481D01*
X125803842Y-105141323D01*
X125775339Y-105104177D01*
X127900000Y-105104177D01*
X127900000Y-105127500D01*
X128750000Y-105127500D01*
X129250000Y-105127500D01*
X130099999Y-105127500D01*
X130099999Y-105104192D01*
X130099998Y-105104177D01*
X130089855Y-105004892D01*
X130042006Y-104860492D01*
X130042005Y-104860490D01*
X130036548Y-104844020D01*
X130036542Y-104844007D01*
X130023947Y-104823588D01*
X130400000Y-104823588D01*
X130400000Y-104997500D01*
X132750000Y-104997500D01*
X133250000Y-104997500D01*
X135599999Y-104997500D01*
X135599999Y-104823589D01*
X135599998Y-104823582D01*
X135597185Y-104782076D01*
X135597185Y-104782074D01*
X135552564Y-104602650D01*
X135470418Y-104437018D01*
X135354585Y-104292915D01*
X135354584Y-104292914D01*
X135210481Y-104177081D01*
X135044849Y-104094935D01*
X134865431Y-104050315D01*
X134823912Y-104047500D01*
X133250000Y-104047500D01*
X133250000Y-104997500D01*
X132750000Y-104997500D01*
X132750000Y-104047500D01*
X131176089Y-104047500D01*
X131176082Y-104047501D01*
X131134576Y-104050314D01*
X131134574Y-104050314D01*
X130955150Y-104094935D01*
X130789518Y-104177081D01*
X130645415Y-104292914D01*
X130645414Y-104292915D01*
X130529581Y-104437018D01*
X130447435Y-104602650D01*
X130402815Y-104782068D01*
X130400000Y-104823588D01*
X130023947Y-104823588D01*
X129947575Y-104699771D01*
X129947572Y-104699767D01*
X129827732Y-104579927D01*
X129827728Y-104579924D01*
X129683492Y-104490957D01*
X129683481Y-104490952D01*
X129522606Y-104437644D01*
X129423322Y-104427500D01*
X129250000Y-104427500D01*
X129250000Y-105127500D01*
X128750000Y-105127500D01*
X128750000Y-104427500D01*
X128576693Y-104427500D01*
X128576676Y-104427501D01*
X128477392Y-104437644D01*
X128316518Y-104490952D01*
X128316507Y-104490957D01*
X128172271Y-104579924D01*
X128172267Y-104579927D01*
X128052427Y-104699767D01*
X128052424Y-104699771D01*
X127963457Y-104844007D01*
X127963452Y-104844018D01*
X127910144Y-105004893D01*
X127900000Y-105104177D01*
X125775339Y-105104177D01*
X125713679Y-105023820D01*
X125596175Y-104933656D01*
X125459341Y-104876978D01*
X125375000Y-104865873D01*
X125375000Y-105625000D01*
X125125000Y-105625000D01*
X125125000Y-104865873D01*
X125040659Y-104876978D01*
X125032807Y-104879082D01*
X125032220Y-104876894D01*
X125023666Y-104881323D01*
X125000753Y-104879172D01*
X124977874Y-104881612D01*
X124967735Y-104877058D01*
X124967193Y-104879082D01*
X124959340Y-104876978D01*
X124875000Y-104865873D01*
X124875000Y-105626000D01*
X124872449Y-105634685D01*
X124873738Y-105643647D01*
X124862759Y-105667687D01*
X124855315Y-105693039D01*
X124848474Y-105698966D01*
X124844713Y-105707203D01*
X124822478Y-105721492D01*
X124802511Y-105738794D01*
X124791996Y-105741081D01*
X124785935Y-105744977D01*
X124751000Y-105750000D01*
X124749000Y-105750000D01*
X124681961Y-105730315D01*
X124636206Y-105677511D01*
X124625000Y-105626000D01*
X124625000Y-104863414D01*
X124591091Y-104809954D01*
X124591507Y-104740086D01*
X124605281Y-104709756D01*
X124618465Y-104688774D01*
X124635773Y-104667069D01*
X124754568Y-104548274D01*
X124756151Y-104547011D01*
X124756529Y-104546356D01*
X124757797Y-104545699D01*
X124776269Y-104530968D01*
X124918523Y-104441584D01*
X124943537Y-104429539D01*
X125102109Y-104374052D01*
X125129178Y-104367873D01*
X125267631Y-104352273D01*
X125303078Y-104348280D01*
X125316961Y-104347500D01*
X127310000Y-104347500D01*
X128824782Y-103481909D01*
X128834276Y-103477016D01*
X128976580Y-103411300D01*
X128996721Y-103404037D01*
X129142990Y-103365194D01*
X129164086Y-103361507D01*
X129296757Y-103349998D01*
X129320216Y-103347964D01*
X129330931Y-103347500D01*
X134928907Y-103347500D01*
X134941061Y-103348097D01*
G37*
%TD.AperFunction*%
%TD*%
%TA.AperFunction,Conductor*%
%TO.N,Net-(F101-Pad1)*%
G36*
X108418039Y-113769685D02*
G01*
X108463794Y-113822489D01*
X108475000Y-113874000D01*
X108475000Y-114000000D01*
X109476000Y-114000000D01*
X109543039Y-114019685D01*
X109588794Y-114072489D01*
X109600000Y-114124000D01*
X109600000Y-114250000D01*
X109726000Y-114250000D01*
X109793039Y-114269685D01*
X109838794Y-114322489D01*
X109850000Y-114374000D01*
X109850000Y-115624999D01*
X110024972Y-115624999D01*
X110024986Y-115624998D01*
X110127695Y-115614506D01*
X110194495Y-115592370D01*
X110264323Y-115589968D01*
X110324365Y-115625699D01*
X110355558Y-115688219D01*
X110357500Y-115710076D01*
X110357500Y-116993907D01*
X110356903Y-117006061D01*
X110339482Y-117182934D01*
X110334740Y-117206775D01*
X110284924Y-117370998D01*
X110275621Y-117393456D01*
X110194727Y-117544798D01*
X110181222Y-117565010D01*
X110072354Y-117697666D01*
X110055166Y-117714854D01*
X109922510Y-117823722D01*
X109902298Y-117837227D01*
X109750956Y-117918121D01*
X109728498Y-117927424D01*
X109564275Y-117977240D01*
X109540434Y-117981982D01*
X109363561Y-117999403D01*
X109351407Y-118000000D01*
X107719065Y-118000000D01*
X107652026Y-117980315D01*
X107606271Y-117927511D01*
X107596327Y-117858353D01*
X107600680Y-117839109D01*
X107623681Y-117765294D01*
X107623682Y-117765287D01*
X107629616Y-117700000D01*
X105430384Y-117700000D01*
X105434181Y-117741789D01*
X105432303Y-117751298D01*
X105434448Y-117760751D01*
X105425644Y-117785014D01*
X105420644Y-117810334D01*
X105413923Y-117817317D01*
X105410617Y-117826431D01*
X105390092Y-117842083D01*
X105372197Y-117860680D01*
X105362766Y-117862922D01*
X105355059Y-117868800D01*
X105329332Y-117870871D01*
X105304223Y-117876841D01*
X105293222Y-117873778D01*
X105285415Y-117874407D01*
X105252237Y-117862368D01*
X105205201Y-117837227D01*
X105184989Y-117823722D01*
X105052333Y-117714854D01*
X105035145Y-117697666D01*
X104926277Y-117565010D01*
X104912772Y-117544798D01*
X104831878Y-117393456D01*
X104822575Y-117370998D01*
X104772757Y-117206769D01*
X104771411Y-117200000D01*
X105430384Y-117200000D01*
X107629615Y-117200000D01*
X107623682Y-117134712D01*
X107623681Y-117134705D01*
X107573833Y-116974738D01*
X107573831Y-116974732D01*
X107487149Y-116831342D01*
X107487146Y-116831338D01*
X107366819Y-116711011D01*
X107333334Y-116649688D01*
X107330500Y-116623330D01*
X107330500Y-116219369D01*
X107330500Y-116219364D01*
X107319866Y-116146375D01*
X107317518Y-116141572D01*
X107264827Y-116033789D01*
X107248719Y-116017681D01*
X107215234Y-115956358D01*
X107220218Y-115886666D01*
X107248719Y-115842319D01*
X107264825Y-115826212D01*
X107264827Y-115826210D01*
X107298661Y-115757000D01*
X107319866Y-115713625D01*
X107330500Y-115640636D01*
X107330500Y-115236670D01*
X107350185Y-115169631D01*
X107366819Y-115148989D01*
X107487146Y-115028661D01*
X107487149Y-115028657D01*
X107549820Y-114924986D01*
X108475001Y-114924986D01*
X108485494Y-115027697D01*
X108540641Y-115194119D01*
X108540643Y-115194124D01*
X108632684Y-115343345D01*
X108756654Y-115467315D01*
X108905875Y-115559356D01*
X108905880Y-115559358D01*
X109072302Y-115614505D01*
X109072309Y-115614506D01*
X109175019Y-115624999D01*
X109349999Y-115624999D01*
X109350000Y-115624998D01*
X109350000Y-114500000D01*
X108475001Y-114500000D01*
X108475001Y-114924986D01*
X107549820Y-114924986D01*
X107573831Y-114885267D01*
X107573833Y-114885261D01*
X107623681Y-114725294D01*
X107623682Y-114725287D01*
X107629616Y-114660000D01*
X105430384Y-114660000D01*
X105436317Y-114725287D01*
X105436318Y-114725294D01*
X105486166Y-114885261D01*
X105486168Y-114885267D01*
X105572850Y-115028657D01*
X105572853Y-115028661D01*
X105693181Y-115148989D01*
X105726666Y-115210312D01*
X105729500Y-115236670D01*
X105729500Y-115640636D01*
X105740134Y-115713625D01*
X105740134Y-115713626D01*
X105740135Y-115713628D01*
X105795172Y-115826210D01*
X105811281Y-115842319D01*
X105844766Y-115903642D01*
X105839782Y-115973334D01*
X105811281Y-116017681D01*
X105795174Y-116033787D01*
X105795172Y-116033789D01*
X105740135Y-116146371D01*
X105740134Y-116146373D01*
X105740134Y-116146375D01*
X105729500Y-116219364D01*
X105729500Y-116219369D01*
X105729500Y-116623329D01*
X105709815Y-116690368D01*
X105693182Y-116711010D01*
X105572850Y-116831342D01*
X105486168Y-116974732D01*
X105486166Y-116974738D01*
X105436318Y-117134705D01*
X105436317Y-117134712D01*
X105430384Y-117200000D01*
X104771411Y-117200000D01*
X104768018Y-117182941D01*
X104750597Y-117006061D01*
X104750000Y-116993907D01*
X104750000Y-114756092D01*
X104750597Y-114743938D01*
X104764320Y-114604607D01*
X104764320Y-114604606D01*
X104768018Y-114567060D01*
X104772757Y-114543232D01*
X104822577Y-114378994D01*
X104831875Y-114356549D01*
X104912775Y-114205195D01*
X104926272Y-114184995D01*
X105035149Y-114052328D01*
X105052328Y-114035149D01*
X105184995Y-113926272D01*
X105205195Y-113912775D01*
X105283671Y-113870829D01*
X105352072Y-113856588D01*
X105417315Y-113881588D01*
X105458686Y-113937893D01*
X105463048Y-114007626D01*
X105460508Y-114017077D01*
X105436317Y-114094707D01*
X105436317Y-114094712D01*
X105430384Y-114160000D01*
X107629615Y-114160000D01*
X107623682Y-114094712D01*
X107623681Y-114094705D01*
X107573833Y-113934738D01*
X107570755Y-113927899D01*
X107572930Y-113926919D01*
X107558060Y-113870596D01*
X107579577Y-113804122D01*
X107633618Y-113759834D01*
X107682013Y-113750000D01*
X108351000Y-113750000D01*
X108418039Y-113769685D01*
G37*
%TD.AperFunction*%
%TD*%
%TA.AperFunction,Conductor*%
%TO.N,GND*%
G36*
X103957017Y-106219759D02*
G01*
X103903631Y-106273145D01*
X103895685Y-106277483D01*
X103890260Y-106284731D01*
X103865500Y-106293965D01*
X103842308Y-106306630D01*
X103833278Y-106305984D01*
X103824796Y-106309148D01*
X103798975Y-106303531D01*
X103772616Y-106301646D01*
X103763562Y-106295827D01*
X103756523Y-106294296D01*
X103728269Y-106273145D01*
X103726854Y-106271730D01*
X103693369Y-106210407D01*
X103698353Y-106140715D01*
X103726854Y-106096368D01*
X103780239Y-106042981D01*
X103957017Y-106219759D01*
G37*
%TD.AperFunction*%
%TA.AperFunction,Conductor*%
G36*
X106273145Y-106096368D02*
G01*
X106277483Y-106104313D01*
X106284731Y-106109739D01*
X106293965Y-106134498D01*
X106306630Y-106157691D01*
X106305984Y-106166720D01*
X106309148Y-106175203D01*
X106303531Y-106201023D01*
X106301646Y-106227382D01*
X106295827Y-106236435D01*
X106294296Y-106243476D01*
X106273145Y-106271730D01*
X106271730Y-106273145D01*
X106210407Y-106306630D01*
X106140715Y-106301646D01*
X106096368Y-106273145D01*
X106042982Y-106219759D01*
X106219759Y-106042982D01*
X106273145Y-106096368D01*
G37*
%TD.AperFunction*%
%TA.AperFunction,Conductor*%
G36*
X103859285Y-103698354D02*
G01*
X103903632Y-103726855D01*
X103957017Y-103780240D01*
X103780240Y-103957017D01*
X103726855Y-103903632D01*
X103722516Y-103895686D01*
X103715269Y-103890261D01*
X103706034Y-103865501D01*
X103693370Y-103842309D01*
X103694015Y-103833279D01*
X103690852Y-103824797D01*
X103696468Y-103798976D01*
X103698354Y-103772617D01*
X103704172Y-103763563D01*
X103705704Y-103756524D01*
X103726855Y-103728270D01*
X103728270Y-103726855D01*
X103789593Y-103693370D01*
X103859285Y-103698354D01*
G37*
%TD.AperFunction*%
%TA.AperFunction,Conductor*%
G36*
X106227382Y-103698353D02*
G01*
X106271730Y-103726854D01*
X106273145Y-103728269D01*
X106306630Y-103789592D01*
X106301646Y-103859284D01*
X106273145Y-103903631D01*
X106219759Y-103957017D01*
X106042982Y-103780240D01*
X106096368Y-103726854D01*
X106157691Y-103693369D01*
X106227382Y-103698353D01*
G37*
%TD.AperFunction*%
%TA.AperFunction,Conductor*%
G36*
X121802732Y-100520185D02*
G01*
X121844984Y-100565923D01*
X121880910Y-100632957D01*
X121890229Y-100655377D01*
X121940209Y-100819365D01*
X121944980Y-100843176D01*
X121949301Y-100886380D01*
X121936386Y-100955045D01*
X121913599Y-100986401D01*
X121887500Y-101012500D01*
X121887500Y-101588500D01*
X121867815Y-101655539D01*
X121815011Y-101701294D01*
X121763500Y-101712500D01*
X121762500Y-101712500D01*
X121762500Y-101713500D01*
X121742815Y-101780539D01*
X121690011Y-101826294D01*
X121638500Y-101837500D01*
X121037501Y-101837500D01*
X121037501Y-101982939D01*
X121043581Y-102039507D01*
X121091313Y-102167481D01*
X121091315Y-102167484D01*
X121173170Y-102276829D01*
X121282515Y-102358684D01*
X121282518Y-102358686D01*
X121380070Y-102395071D01*
X121436004Y-102436942D01*
X121460421Y-102502407D01*
X121445569Y-102570680D01*
X121396164Y-102620085D01*
X121385217Y-102624804D01*
X121259278Y-102688973D01*
X121259274Y-102688976D01*
X121163976Y-102784274D01*
X121163973Y-102784278D01*
X121102779Y-102904378D01*
X121087000Y-103004006D01*
X121087000Y-103520993D01*
X121102779Y-103620621D01*
X121102780Y-103620624D01*
X121102781Y-103620626D01*
X121163972Y-103740720D01*
X121163973Y-103740721D01*
X121163976Y-103740725D01*
X121259274Y-103836023D01*
X121259278Y-103836026D01*
X121259280Y-103836028D01*
X121379374Y-103897219D01*
X121379376Y-103897219D01*
X121379378Y-103897220D01*
X121479007Y-103913000D01*
X121844127Y-103913000D01*
X121852716Y-103915522D01*
X121861576Y-103914234D01*
X121885720Y-103925213D01*
X121911166Y-103932685D01*
X121917027Y-103939449D01*
X121925178Y-103943156D01*
X121939555Y-103965448D01*
X121956921Y-103985489D01*
X121959194Y-103995897D01*
X121963048Y-104001873D01*
X121968127Y-104036800D01*
X121968169Y-104062800D01*
X121948593Y-104129871D01*
X121895863Y-104175711D01*
X121844169Y-104187000D01*
X120812000Y-104187000D01*
X120744961Y-104167315D01*
X120699206Y-104114511D01*
X120688000Y-104063000D01*
X120688000Y-103704006D01*
X120672220Y-103604378D01*
X120672219Y-103604376D01*
X120672219Y-103604374D01*
X120611028Y-103484280D01*
X120611026Y-103484278D01*
X120611023Y-103484274D01*
X120515725Y-103388976D01*
X120515721Y-103388973D01*
X120515720Y-103388972D01*
X120395626Y-103327781D01*
X120395624Y-103327780D01*
X120395621Y-103327779D01*
X120295993Y-103312000D01*
X120295988Y-103312000D01*
X119779012Y-103312000D01*
X119779007Y-103312000D01*
X119679378Y-103327779D01*
X119559278Y-103388973D01*
X119559274Y-103388976D01*
X119463976Y-103484274D01*
X119463973Y-103484278D01*
X119463972Y-103484280D01*
X119402781Y-103604374D01*
X119402780Y-103604376D01*
X119398351Y-103613070D01*
X119396079Y-103611912D01*
X119364733Y-103657741D01*
X119300371Y-103684931D01*
X119231526Y-103673007D01*
X119180057Y-103625756D01*
X119170071Y-103605070D01*
X119133686Y-103507518D01*
X119133684Y-103507515D01*
X119051829Y-103398170D01*
X118942484Y-103316315D01*
X118942483Y-103316314D01*
X118814510Y-103268583D01*
X118757928Y-103262500D01*
X118612500Y-103262500D01*
X118612500Y-104641910D01*
X118634666Y-104682504D01*
X118637500Y-104708862D01*
X118637500Y-106212499D01*
X118782933Y-106212499D01*
X118782939Y-106212498D01*
X118839507Y-106206418D01*
X118967481Y-106158686D01*
X118967484Y-106158684D01*
X119076829Y-106076829D01*
X119158684Y-105967484D01*
X119158686Y-105967481D01*
X119195071Y-105869929D01*
X119236942Y-105813995D01*
X119302406Y-105789578D01*
X119370679Y-105804430D01*
X119420085Y-105853835D01*
X119424804Y-105864781D01*
X119427780Y-105870621D01*
X119427781Y-105870626D01*
X119487841Y-105988500D01*
X119488973Y-105990721D01*
X119488976Y-105990725D01*
X119584274Y-106086023D01*
X119584276Y-106086024D01*
X119584280Y-106086028D01*
X119694296Y-106142084D01*
X119745091Y-106190058D01*
X119762000Y-106252568D01*
X119762000Y-106577062D01*
X119774194Y-106622569D01*
X119782479Y-106653490D01*
X119796203Y-106677260D01*
X119808499Y-106698557D01*
X119813185Y-106706672D01*
X119813187Y-106706679D01*
X119813188Y-106706679D01*
X119822037Y-106722008D01*
X119822041Y-106722013D01*
X120575348Y-107475319D01*
X120585960Y-107494755D01*
X120600461Y-107511489D01*
X120602377Y-107524820D01*
X120608833Y-107536642D01*
X120607253Y-107558728D01*
X120610405Y-107580647D01*
X120604809Y-107592898D01*
X120603849Y-107606333D01*
X120590579Y-107624058D01*
X120581380Y-107644203D01*
X120570047Y-107651485D01*
X120561977Y-107662267D01*
X120541231Y-107670004D01*
X120522602Y-107681977D01*
X120500683Y-107685128D01*
X120496513Y-107686684D01*
X120487667Y-107687000D01*
X120438333Y-107687000D01*
X120371294Y-107667315D01*
X120350652Y-107650681D01*
X119872012Y-107172041D01*
X119872004Y-107172035D01*
X119836564Y-107151574D01*
X119836560Y-107151573D01*
X119813395Y-107138198D01*
X119803490Y-107132479D01*
X119803491Y-107132479D01*
X119765275Y-107122239D01*
X119727062Y-107112000D01*
X119727060Y-107112000D01*
X116761772Y-107112000D01*
X116694733Y-107092315D01*
X116651288Y-107044296D01*
X116618489Y-106979926D01*
X116615550Y-106974158D01*
X116615547Y-106974155D01*
X116615545Y-106974152D01*
X116525847Y-106884454D01*
X116525843Y-106884451D01*
X116525842Y-106884450D01*
X116480683Y-106861440D01*
X116454273Y-106847983D01*
X116403478Y-106800008D01*
X116386683Y-106732187D01*
X116409221Y-106666053D01*
X116454271Y-106627017D01*
X116525842Y-106590550D01*
X116615550Y-106500842D01*
X116673146Y-106387804D01*
X116673146Y-106387802D01*
X116673147Y-106387801D01*
X116686493Y-106303531D01*
X116688000Y-106294019D01*
X116687999Y-105782939D01*
X117812501Y-105782939D01*
X117818581Y-105839507D01*
X117866313Y-105967481D01*
X117866315Y-105967484D01*
X117948170Y-106076829D01*
X118057515Y-106158684D01*
X118057516Y-106158685D01*
X118185491Y-106206417D01*
X118185494Y-106206418D01*
X118242055Y-106212499D01*
X118387499Y-106212499D01*
X118387500Y-106212498D01*
X118387500Y-105612500D01*
X117812501Y-105612500D01*
X117812501Y-105782939D01*
X116687999Y-105782939D01*
X116687999Y-105680982D01*
X116673146Y-105587196D01*
X116615550Y-105474158D01*
X116615546Y-105474154D01*
X116615545Y-105474152D01*
X116525847Y-105384454D01*
X116525844Y-105384452D01*
X116525842Y-105384450D01*
X116429494Y-105335358D01*
X116412801Y-105326852D01*
X116319024Y-105312000D01*
X115855982Y-105312000D01*
X115775019Y-105324823D01*
X115762196Y-105326854D01*
X115649158Y-105384450D01*
X115649157Y-105384451D01*
X115649152Y-105384454D01*
X115559454Y-105474152D01*
X115559451Y-105474157D01*
X115559450Y-105474158D01*
X115549266Y-105494145D01*
X115501852Y-105587198D01*
X115487000Y-105680975D01*
X115487000Y-106294017D01*
X115495408Y-106347104D01*
X115501854Y-106387804D01*
X115559450Y-106500842D01*
X115649158Y-106590550D01*
X115649160Y-106590551D01*
X115649163Y-106590554D01*
X115657057Y-106596290D01*
X115655416Y-106598547D01*
X115669203Y-106604844D01*
X115680240Y-106622019D01*
X115695084Y-106636035D01*
X115699327Y-106651719D01*
X115706977Y-106663622D01*
X115712000Y-106698557D01*
X115712000Y-106705140D01*
X115692315Y-106772179D01*
X115639511Y-106817934D01*
X115621342Y-106823411D01*
X115621481Y-106823837D01*
X115612199Y-106826852D01*
X115574251Y-106846188D01*
X115499158Y-106884450D01*
X115499157Y-106884451D01*
X115499152Y-106884454D01*
X115409454Y-106974152D01*
X115409451Y-106974157D01*
X115409450Y-106974158D01*
X115368804Y-107053930D01*
X115368145Y-107055224D01*
X115320170Y-107106020D01*
X115252349Y-107122815D01*
X115186214Y-107100277D01*
X115147176Y-107055226D01*
X115111028Y-106984280D01*
X115111026Y-106984278D01*
X115111023Y-106984274D01*
X115015725Y-106888976D01*
X115015721Y-106888973D01*
X115015720Y-106888972D01*
X114916905Y-106838623D01*
X114866111Y-106790651D01*
X114849316Y-106722830D01*
X114871853Y-106656695D01*
X114899569Y-106628369D01*
X114959292Y-106584291D01*
X115039846Y-106475145D01*
X115084649Y-106347104D01*
X115084649Y-106347100D01*
X115087500Y-106316706D01*
X115087500Y-106112500D01*
X114561500Y-106112500D01*
X114552814Y-106109949D01*
X114543853Y-106111238D01*
X114519812Y-106100259D01*
X114494461Y-106092815D01*
X114488533Y-106085974D01*
X114480297Y-106082213D01*
X114466007Y-106059978D01*
X114448706Y-106040011D01*
X114446418Y-106029496D01*
X114442523Y-106023435D01*
X114437500Y-105988500D01*
X114437500Y-105987500D01*
X114436500Y-105987500D01*
X114369461Y-105967815D01*
X114323706Y-105915011D01*
X114312500Y-105863500D01*
X114312500Y-105862500D01*
X114562500Y-105862500D01*
X115087499Y-105862500D01*
X115087499Y-105658303D01*
X115084648Y-105627893D01*
X115039846Y-105499854D01*
X114959292Y-105390707D01*
X114850145Y-105310153D01*
X114722102Y-105265350D01*
X114691707Y-105262500D01*
X114562500Y-105262500D01*
X114562500Y-105862500D01*
X114312500Y-105862500D01*
X114312500Y-105262500D01*
X114183304Y-105262500D01*
X114152893Y-105265351D01*
X114024854Y-105310153D01*
X113915707Y-105390707D01*
X113835154Y-105499854D01*
X113792338Y-105622216D01*
X113751616Y-105678992D01*
X113686663Y-105704739D01*
X113618102Y-105691283D01*
X113576030Y-105655572D01*
X113519690Y-105580312D01*
X113519687Y-105580309D01*
X113404593Y-105494149D01*
X113404586Y-105494145D01*
X113269879Y-105443903D01*
X113269872Y-105443901D01*
X113210344Y-105437500D01*
X112637500Y-105437500D01*
X112637500Y-106138500D01*
X112634949Y-106147185D01*
X112636238Y-106156147D01*
X112625259Y-106180187D01*
X112617815Y-106205539D01*
X112610974Y-106211466D01*
X112607213Y-106219703D01*
X112584978Y-106233992D01*
X112565011Y-106251294D01*
X112554496Y-106253581D01*
X112548435Y-106257477D01*
X112513500Y-106262500D01*
X112512500Y-106262500D01*
X112512500Y-106263500D01*
X112492815Y-106330539D01*
X112440011Y-106376294D01*
X112388500Y-106387500D01*
X111362500Y-106387500D01*
X111362500Y-106635344D01*
X111368901Y-106694872D01*
X111368903Y-106694879D01*
X111419145Y-106829586D01*
X111419147Y-106829589D01*
X111431573Y-106846188D01*
X111455991Y-106911653D01*
X111441140Y-106979926D01*
X111391735Y-107029332D01*
X111332307Y-107044500D01*
X110095692Y-107044500D01*
X110088634Y-107044672D01*
X110085604Y-107044747D01*
X110073448Y-107045344D01*
X110063400Y-107046085D01*
X109886523Y-107063505D01*
X109886501Y-107063508D01*
X109866579Y-107066464D01*
X109866561Y-107066467D01*
X109842746Y-107071204D01*
X109842736Y-107071206D01*
X109823192Y-107076101D01*
X109823158Y-107076110D01*
X109658942Y-107125923D01*
X109658930Y-107125928D01*
X109639968Y-107132713D01*
X109639922Y-107132731D01*
X109617507Y-107142018D01*
X109617500Y-107142021D01*
X109610161Y-107145492D01*
X109599259Y-107150648D01*
X109447935Y-107231532D01*
X109430630Y-107241904D01*
X109410428Y-107255402D01*
X109410406Y-107255418D01*
X109394240Y-107267406D01*
X109394228Y-107267416D01*
X109261577Y-107376279D01*
X109261548Y-107376305D01*
X109246613Y-107389842D01*
X109229441Y-107407014D01*
X109215904Y-107421949D01*
X109215878Y-107421978D01*
X109146055Y-107507057D01*
X109146056Y-107507058D01*
X109107009Y-107554638D01*
X109095022Y-107570800D01*
X109094994Y-107570839D01*
X109081506Y-107591026D01*
X109071135Y-107608329D01*
X109071117Y-107608360D01*
X109012805Y-107717456D01*
X108990243Y-107759667D01*
X108981620Y-107777901D01*
X108981604Y-107777938D01*
X108972324Y-107800341D01*
X108972306Y-107800389D01*
X108965521Y-107819352D01*
X108958686Y-107841885D01*
X108952194Y-107870496D01*
X108946860Y-107905382D01*
X108946860Y-107905393D01*
X108948590Y-107933065D01*
X108948592Y-107933077D01*
X108949655Y-107950073D01*
X108949165Y-107950067D01*
X108948931Y-107967611D01*
X108950035Y-107991798D01*
X108964688Y-108034726D01*
X108965198Y-108037942D01*
X108966386Y-108042124D01*
X108966386Y-108042125D01*
X108970760Y-108057527D01*
X108971403Y-108059789D01*
X108971407Y-108059803D01*
X108979736Y-108083508D01*
X108979737Y-108083510D01*
X108979738Y-108083511D01*
X109007898Y-108122666D01*
X109007216Y-108123088D01*
X109016301Y-108137795D01*
X109030795Y-108158333D01*
X109066797Y-108186893D01*
X109068944Y-108189348D01*
X109071754Y-108191826D01*
X109071754Y-108191827D01*
X109085531Y-108203981D01*
X109085540Y-108203988D01*
X109105360Y-108219425D01*
X109105361Y-108219425D01*
X109105362Y-108219426D01*
X109150225Y-108237142D01*
X109149879Y-108237866D01*
X109165472Y-108245326D01*
X109188773Y-108254769D01*
X109234527Y-108259332D01*
X109237665Y-108260238D01*
X109241325Y-108260797D01*
X109241325Y-108260798D01*
X109259486Y-108263575D01*
X109284531Y-108265848D01*
X109284536Y-108265847D01*
X109292365Y-108264300D01*
X109361949Y-108270611D01*
X109404091Y-108298265D01*
X109513181Y-108407355D01*
X109527884Y-108434282D01*
X109544477Y-108460101D01*
X109545368Y-108466301D01*
X109546666Y-108468678D01*
X109549500Y-108495036D01*
X109549500Y-108504961D01*
X109529815Y-108572000D01*
X109513179Y-108592644D01*
X109489947Y-108615875D01*
X109428623Y-108649359D01*
X109358932Y-108644373D01*
X109350756Y-108640986D01*
X109316620Y-108625396D01*
X109293148Y-108616368D01*
X109293145Y-108616367D01*
X109202002Y-108608914D01*
X109202000Y-108608914D01*
X109132844Y-108618858D01*
X109108226Y-108623951D01*
X109108225Y-108623951D01*
X109027515Y-108666960D01*
X109027512Y-108666962D01*
X108974703Y-108712721D01*
X108956759Y-108730303D01*
X108956753Y-108730310D01*
X108912110Y-108810120D01*
X108912108Y-108810125D01*
X108892425Y-108877157D01*
X108892424Y-108877162D01*
X108892424Y-108877163D01*
X108884099Y-108935061D01*
X108884099Y-109282541D01*
X108884099Y-109668000D01*
X108884099Y-111044500D01*
X108884099Y-111955500D01*
X108884099Y-111993907D01*
X108884346Y-112003989D01*
X108884347Y-112004001D01*
X108884943Y-112016158D01*
X108885684Y-112026188D01*
X108903105Y-112203069D01*
X108903108Y-112203095D01*
X108906061Y-112223008D01*
X108906063Y-112223018D01*
X108910802Y-112246845D01*
X108910813Y-112246891D01*
X108915696Y-112266389D01*
X108915707Y-112266430D01*
X108965522Y-112430649D01*
X108972322Y-112449653D01*
X108981621Y-112472099D01*
X108981628Y-112472116D01*
X108990242Y-112490330D01*
X108990247Y-112490339D01*
X109071115Y-112641632D01*
X109071132Y-112641663D01*
X109081506Y-112658971D01*
X109094993Y-112679157D01*
X109095022Y-112679197D01*
X109107010Y-112695363D01*
X109107020Y-112695375D01*
X109210097Y-112820976D01*
X109215890Y-112828034D01*
X109229434Y-112842976D01*
X109246622Y-112860164D01*
X109261564Y-112873708D01*
X109261578Y-112873720D01*
X109261582Y-112873723D01*
X109360188Y-112954647D01*
X109399522Y-113012393D01*
X109401393Y-113082237D01*
X109365205Y-113142006D01*
X109302449Y-113172721D01*
X109281523Y-113174500D01*
X109170730Y-113174500D01*
X109140300Y-113177353D01*
X109140298Y-113177353D01*
X109012119Y-113222206D01*
X109012117Y-113222207D01*
X108902850Y-113302850D01*
X108822206Y-113412119D01*
X108815425Y-113431497D01*
X108774702Y-113488272D01*
X108709749Y-113514017D01*
X108698178Y-113514539D01*
X107503793Y-113512543D01*
X107436786Y-113492746D01*
X107391120Y-113439866D01*
X107380000Y-113388543D01*
X107380000Y-113305000D01*
X105680001Y-113305000D01*
X105680001Y-113385286D01*
X105660316Y-113452325D01*
X105607512Y-113498080D01*
X105555794Y-113509286D01*
X101284805Y-113502147D01*
X101004415Y-113501679D01*
X100992274Y-113501063D01*
X100815613Y-113483383D01*
X100791805Y-113478611D01*
X100627827Y-113428626D01*
X100605403Y-113419304D01*
X100565920Y-113398141D01*
X100516133Y-113349121D01*
X100500500Y-113288851D01*
X100500500Y-111484999D01*
X101559190Y-111484999D01*
X101559190Y-111485000D01*
X102075758Y-111485000D01*
X102070444Y-111494204D01*
X102050000Y-111570504D01*
X102050000Y-111649496D01*
X102070444Y-111725796D01*
X102075758Y-111735000D01*
X101559190Y-111735000D01*
X101580741Y-111843343D01*
X101580743Y-111843351D01*
X101641047Y-111988939D01*
X101641052Y-111988948D01*
X101728598Y-112119969D01*
X101728601Y-112119973D01*
X101840026Y-112231398D01*
X101840030Y-112231401D01*
X101971051Y-112318947D01*
X101971060Y-112318952D01*
X102116648Y-112379256D01*
X102116656Y-112379258D01*
X102271202Y-112409999D01*
X102271206Y-112410000D01*
X102525000Y-112410000D01*
X102525000Y-111910000D01*
X102775000Y-111910000D01*
X102775000Y-112410000D01*
X103028794Y-112410000D01*
X103028797Y-112409999D01*
X103183343Y-112379258D01*
X103183351Y-112379256D01*
X103328939Y-112318952D01*
X103328948Y-112318947D01*
X103459969Y-112231401D01*
X103459973Y-112231398D01*
X103571398Y-112119973D01*
X103571401Y-112119969D01*
X103658947Y-111988948D01*
X103658952Y-111988939D01*
X103719256Y-111843351D01*
X103719258Y-111843343D01*
X103740809Y-111735000D01*
X103224242Y-111735000D01*
X103229556Y-111725796D01*
X103250000Y-111649496D01*
X103250000Y-111570504D01*
X103229556Y-111494204D01*
X103224242Y-111485000D01*
X103740810Y-111485000D01*
X103740809Y-111484999D01*
X105359190Y-111484999D01*
X105359190Y-111485000D01*
X105875758Y-111485000D01*
X105870444Y-111494204D01*
X105850000Y-111570504D01*
X105850000Y-111649496D01*
X105870444Y-111725796D01*
X105875758Y-111735000D01*
X105359190Y-111735000D01*
X105380741Y-111843343D01*
X105380743Y-111843351D01*
X105441047Y-111988939D01*
X105441052Y-111988948D01*
X105528598Y-112119969D01*
X105528601Y-112119973D01*
X105640026Y-112231398D01*
X105640030Y-112231401D01*
X105771051Y-112318947D01*
X105771064Y-112318954D01*
X105886501Y-112366769D01*
X105940905Y-112410610D01*
X105962970Y-112476904D01*
X105945691Y-112544603D01*
X105912684Y-112581099D01*
X105808208Y-112658207D01*
X105727653Y-112767354D01*
X105682850Y-112895395D01*
X105682850Y-112895399D01*
X105680000Y-112925793D01*
X105680000Y-113055000D01*
X106405000Y-113055000D01*
X106405000Y-112527080D01*
X106381961Y-112520315D01*
X106336206Y-112467511D01*
X106325000Y-112416000D01*
X106325000Y-111910000D01*
X106575000Y-111910000D01*
X106575000Y-112412919D01*
X106598039Y-112419685D01*
X106643794Y-112472489D01*
X106655000Y-112524000D01*
X106655000Y-113055000D01*
X107379999Y-113055000D01*
X107379999Y-112925803D01*
X107377148Y-112895393D01*
X107332346Y-112767354D01*
X107251792Y-112658207D01*
X107142645Y-112577653D01*
X107142640Y-112577651D01*
X107103274Y-112563876D01*
X107046498Y-112523154D01*
X107020751Y-112458201D01*
X107034208Y-112389640D01*
X107082595Y-112339237D01*
X107096778Y-112332273D01*
X107128941Y-112318951D01*
X107128948Y-112318947D01*
X107259969Y-112231401D01*
X107259973Y-112231398D01*
X107371398Y-112119973D01*
X107371401Y-112119969D01*
X107458947Y-111988948D01*
X107458952Y-111988939D01*
X107519256Y-111843351D01*
X107519258Y-111843343D01*
X107540809Y-111735000D01*
X107024242Y-111735000D01*
X107029556Y-111725796D01*
X107050000Y-111649496D01*
X107050000Y-111570504D01*
X107029556Y-111494204D01*
X107024242Y-111485000D01*
X107540810Y-111485000D01*
X107540809Y-111484999D01*
X107519258Y-111376656D01*
X107519256Y-111376648D01*
X107458952Y-111231060D01*
X107458947Y-111231051D01*
X107371401Y-111100030D01*
X107371398Y-111100026D01*
X107259973Y-110988601D01*
X107259969Y-110988598D01*
X107128948Y-110901052D01*
X107128939Y-110901047D01*
X106983351Y-110840743D01*
X106983343Y-110840741D01*
X106828797Y-110810000D01*
X106575000Y-110810000D01*
X106575000Y-111310000D01*
X106325000Y-111310000D01*
X106325000Y-110810000D01*
X106071202Y-110810000D01*
X105916656Y-110840741D01*
X105916648Y-110840743D01*
X105771060Y-110901047D01*
X105771051Y-110901052D01*
X105640030Y-110988598D01*
X105640026Y-110988601D01*
X105528601Y-111100026D01*
X105528598Y-111100030D01*
X105441052Y-111231051D01*
X105441047Y-111231060D01*
X105380743Y-111376648D01*
X105380741Y-111376656D01*
X105359190Y-111484999D01*
X103740809Y-111484999D01*
X103719258Y-111376656D01*
X103719256Y-111376648D01*
X103658952Y-111231060D01*
X103658947Y-111231051D01*
X103571401Y-111100030D01*
X103571398Y-111100026D01*
X103459973Y-110988601D01*
X103459969Y-110988598D01*
X103328948Y-110901052D01*
X103328939Y-110901047D01*
X103183351Y-110840743D01*
X103183343Y-110840741D01*
X103028797Y-110810000D01*
X102775000Y-110810000D01*
X102775000Y-111310000D01*
X102525000Y-111310000D01*
X102525000Y-110810000D01*
X102271202Y-110810000D01*
X102116656Y-110840741D01*
X102116648Y-110840743D01*
X101971060Y-110901047D01*
X101971051Y-110901052D01*
X101840030Y-110988598D01*
X101840026Y-110988601D01*
X101728601Y-111100026D01*
X101728598Y-111100030D01*
X101641052Y-111231051D01*
X101641047Y-111231060D01*
X101580743Y-111376648D01*
X101580741Y-111376656D01*
X101559190Y-111484999D01*
X100500500Y-111484999D01*
X100500500Y-105002706D01*
X100500618Y-104997297D01*
X100505347Y-104888976D01*
X100507899Y-104830515D01*
X101550000Y-104830515D01*
X101550000Y-105169484D01*
X101583224Y-105506830D01*
X101649350Y-105839272D01*
X101649353Y-105839283D01*
X101747755Y-106163673D01*
X101877476Y-106476846D01*
X101877478Y-106476851D01*
X102037260Y-106775782D01*
X102037271Y-106775800D01*
X102225586Y-107057632D01*
X102225596Y-107057646D01*
X102440635Y-107319672D01*
X102472093Y-107351129D01*
X102702255Y-107120966D01*
X102710202Y-107116626D01*
X102715627Y-107109380D01*
X102740383Y-107100146D01*
X102763578Y-107087481D01*
X102772608Y-107088126D01*
X102781091Y-107084963D01*
X102806911Y-107090579D01*
X102833270Y-107092465D01*
X102842323Y-107098283D01*
X102849364Y-107099815D01*
X102877618Y-107120966D01*
X102879032Y-107122380D01*
X102912517Y-107183703D01*
X102907533Y-107253395D01*
X102879032Y-107297742D01*
X102648869Y-107527905D01*
X102680327Y-107559364D01*
X102942353Y-107774403D01*
X102942367Y-107774413D01*
X103224199Y-107962728D01*
X103224217Y-107962739D01*
X103523148Y-108122521D01*
X103523153Y-108122523D01*
X103836326Y-108252244D01*
X104160716Y-108350646D01*
X104160727Y-108350649D01*
X104493169Y-108416775D01*
X104830515Y-108450000D01*
X105169485Y-108450000D01*
X105506830Y-108416775D01*
X105839272Y-108350649D01*
X105839283Y-108350646D01*
X106163673Y-108252244D01*
X106476846Y-108122523D01*
X106476851Y-108122521D01*
X106775782Y-107962739D01*
X106775800Y-107962728D01*
X107057632Y-107774413D01*
X107057646Y-107774403D01*
X107319677Y-107559360D01*
X107351130Y-107527906D01*
X107351130Y-107527905D01*
X107120967Y-107297743D01*
X107116628Y-107289797D01*
X107109381Y-107284372D01*
X107100146Y-107259612D01*
X107087482Y-107236420D01*
X107088127Y-107227390D01*
X107084964Y-107218908D01*
X107090580Y-107193087D01*
X107092466Y-107166729D01*
X107098284Y-107157675D01*
X107099816Y-107150635D01*
X107120967Y-107122381D01*
X107122381Y-107120967D01*
X107183704Y-107087482D01*
X107253396Y-107092466D01*
X107297743Y-107120967D01*
X107527905Y-107351130D01*
X107527907Y-107351130D01*
X107559360Y-107319677D01*
X107774403Y-107057646D01*
X107774413Y-107057632D01*
X107962728Y-106775800D01*
X107962739Y-106775782D01*
X108106480Y-106506862D01*
X108106480Y-106506861D01*
X108122524Y-106476844D01*
X108252244Y-106163673D01*
X108324303Y-105926126D01*
X109500000Y-105926126D01*
X109500000Y-106073873D01*
X109528820Y-106218759D01*
X109528822Y-106218767D01*
X109585358Y-106355256D01*
X109638473Y-106434749D01*
X109638474Y-106434750D01*
X110006881Y-106066342D01*
X110038060Y-106141614D01*
X110108386Y-106211940D01*
X110183657Y-106243118D01*
X109815249Y-106611525D01*
X109815249Y-106611526D01*
X109894743Y-106664642D01*
X110031232Y-106721177D01*
X110031240Y-106721179D01*
X110176126Y-106749999D01*
X110176129Y-106750000D01*
X110323871Y-106750000D01*
X110323873Y-106749999D01*
X110468759Y-106721179D01*
X110468767Y-106721177D01*
X110605255Y-106664642D01*
X110684749Y-106611525D01*
X110316342Y-106243117D01*
X110391614Y-106211940D01*
X110461940Y-106141614D01*
X110493118Y-106066342D01*
X110861525Y-106434749D01*
X110914642Y-106355255D01*
X110971177Y-106218767D01*
X110971179Y-106218759D01*
X110999999Y-106073873D01*
X111000000Y-106073871D01*
X111000000Y-105926128D01*
X110999999Y-105926126D01*
X110992744Y-105889655D01*
X111362500Y-105889655D01*
X111362500Y-106137500D01*
X112387500Y-106137500D01*
X112387500Y-105437500D01*
X111814655Y-105437500D01*
X111755127Y-105443901D01*
X111755120Y-105443903D01*
X111620413Y-105494145D01*
X111620406Y-105494149D01*
X111505312Y-105580309D01*
X111505309Y-105580312D01*
X111419149Y-105695406D01*
X111419145Y-105695413D01*
X111368903Y-105830120D01*
X111368901Y-105830127D01*
X111362500Y-105889655D01*
X110992744Y-105889655D01*
X110971179Y-105781240D01*
X110971177Y-105781232D01*
X110914642Y-105644743D01*
X110861525Y-105565249D01*
X110493117Y-105933656D01*
X110461940Y-105858386D01*
X110391614Y-105788060D01*
X110316342Y-105756882D01*
X110684750Y-105388474D01*
X110684749Y-105388473D01*
X110605256Y-105335358D01*
X110468767Y-105278822D01*
X110468759Y-105278820D01*
X110323872Y-105250000D01*
X110176128Y-105250000D01*
X110031240Y-105278820D01*
X110031232Y-105278822D01*
X109894741Y-105335359D01*
X109815249Y-105388472D01*
X109815248Y-105388473D01*
X110183657Y-105756881D01*
X110108386Y-105788060D01*
X110038060Y-105858386D01*
X110006882Y-105933657D01*
X109638473Y-105565248D01*
X109638472Y-105565249D01*
X109585359Y-105644741D01*
X109528822Y-105781232D01*
X109528820Y-105781240D01*
X109500000Y-105926126D01*
X108324303Y-105926126D01*
X108337068Y-105884044D01*
X108337069Y-105884042D01*
X108350643Y-105839296D01*
X108350649Y-105839272D01*
X108416775Y-105506830D01*
X108425078Y-105422530D01*
X108450000Y-105169484D01*
X108450000Y-104830515D01*
X108416775Y-104493169D01*
X108374958Y-104282939D01*
X117787501Y-104282939D01*
X117793581Y-104339507D01*
X117841313Y-104467481D01*
X117841315Y-104467484D01*
X117923170Y-104576829D01*
X118017695Y-104647590D01*
X118059566Y-104703524D01*
X118064550Y-104773215D01*
X118031065Y-104834538D01*
X118017695Y-104846123D01*
X117948172Y-104898167D01*
X117866315Y-105007515D01*
X117866314Y-105007516D01*
X117818583Y-105135489D01*
X117812500Y-105192071D01*
X117812500Y-105362500D01*
X118387500Y-105362500D01*
X118387500Y-104833089D01*
X118365334Y-104792496D01*
X118362500Y-104766138D01*
X118362500Y-104112500D01*
X117787501Y-104112500D01*
X117787501Y-104282939D01*
X108374958Y-104282939D01*
X108350649Y-104160727D01*
X108350644Y-104160710D01*
X108331359Y-104097132D01*
X108252244Y-103836326D01*
X108210768Y-103736195D01*
X108192491Y-103692071D01*
X117787500Y-103692071D01*
X117787500Y-103862500D01*
X118362500Y-103862500D01*
X118362500Y-103262500D01*
X118217066Y-103262500D01*
X118217059Y-103262501D01*
X118160492Y-103268581D01*
X118032518Y-103316313D01*
X118032515Y-103316315D01*
X117923170Y-103398170D01*
X117841315Y-103507515D01*
X117841314Y-103507516D01*
X117793583Y-103635489D01*
X117787500Y-103692071D01*
X108192491Y-103692071D01*
X108122523Y-103523153D01*
X108122521Y-103523148D01*
X107962739Y-103224217D01*
X107962728Y-103224199D01*
X107774413Y-102942367D01*
X107774403Y-102942353D01*
X107559364Y-102680327D01*
X107527906Y-102648869D01*
X107527905Y-102648869D01*
X107297742Y-102879032D01*
X107289796Y-102883370D01*
X107284371Y-102890618D01*
X107259611Y-102899852D01*
X107236419Y-102912517D01*
X107227389Y-102911871D01*
X107218907Y-102915035D01*
X107193086Y-102909418D01*
X107166727Y-102907533D01*
X107157673Y-102901714D01*
X107150634Y-102900183D01*
X107122380Y-102879032D01*
X107120966Y-102877618D01*
X107087481Y-102816295D01*
X107092465Y-102746603D01*
X107120966Y-102702255D01*
X107351129Y-102472093D01*
X107319672Y-102440635D01*
X107057646Y-102225596D01*
X107057632Y-102225586D01*
X106775800Y-102037271D01*
X106775782Y-102037260D01*
X106476851Y-101877478D01*
X106476846Y-101877476D01*
X106163673Y-101747755D01*
X105839283Y-101649353D01*
X105839272Y-101649350D01*
X105506830Y-101583224D01*
X105169485Y-101550000D01*
X104830515Y-101550000D01*
X104493169Y-101583224D01*
X104160727Y-101649350D01*
X104160716Y-101649353D01*
X103836326Y-101747755D01*
X103523153Y-101877476D01*
X103523148Y-101877478D01*
X103224217Y-102037260D01*
X103224199Y-102037271D01*
X102942367Y-102225586D01*
X102942353Y-102225596D01*
X102680322Y-102440639D01*
X102648869Y-102472092D01*
X102879033Y-102702256D01*
X102883371Y-102710201D01*
X102890619Y-102715627D01*
X102899853Y-102740386D01*
X102912518Y-102763579D01*
X102911872Y-102772608D01*
X102915036Y-102781091D01*
X102909419Y-102806911D01*
X102907534Y-102833270D01*
X102901715Y-102842323D01*
X102900184Y-102849364D01*
X102879033Y-102877618D01*
X102877618Y-102879033D01*
X102816295Y-102912518D01*
X102746603Y-102907534D01*
X102702256Y-102879033D01*
X102472093Y-102648869D01*
X102472092Y-102648869D01*
X102440639Y-102680322D01*
X102225596Y-102942353D01*
X102225586Y-102942367D01*
X102037271Y-103224199D01*
X102037260Y-103224217D01*
X101877478Y-103523148D01*
X101877476Y-103523153D01*
X101747755Y-103836326D01*
X101649353Y-104160716D01*
X101649350Y-104160727D01*
X101583224Y-104493169D01*
X101550000Y-104830515D01*
X100507899Y-104830515D01*
X100517386Y-104613228D01*
X100518326Y-104602495D01*
X100568152Y-104224025D01*
X100570025Y-104213405D01*
X100652649Y-103840709D01*
X100655440Y-103830295D01*
X100770230Y-103466227D01*
X100773917Y-103456095D01*
X100920003Y-103103412D01*
X100924561Y-103093638D01*
X101100822Y-102755045D01*
X101106217Y-102745700D01*
X101311325Y-102423744D01*
X101317515Y-102414905D01*
X101549896Y-102112060D01*
X101556834Y-102103791D01*
X101814726Y-101822352D01*
X101822352Y-101814726D01*
X102103791Y-101556834D01*
X102112060Y-101549896D01*
X102252580Y-101442071D01*
X121037500Y-101442071D01*
X121037500Y-101587500D01*
X121637500Y-101587500D01*
X121637500Y-101012500D01*
X121467066Y-101012500D01*
X121467059Y-101012501D01*
X121410492Y-101018581D01*
X121282518Y-101066313D01*
X121282515Y-101066315D01*
X121173170Y-101148170D01*
X121091315Y-101257515D01*
X121091314Y-101257516D01*
X121043583Y-101385489D01*
X121037500Y-101442071D01*
X102252580Y-101442071D01*
X102414905Y-101317515D01*
X102423744Y-101311325D01*
X102745700Y-101106217D01*
X102755045Y-101100822D01*
X103093638Y-100924561D01*
X103103412Y-100920003D01*
X103456095Y-100773917D01*
X103466227Y-100770230D01*
X103830295Y-100655440D01*
X103840709Y-100652649D01*
X104213405Y-100570025D01*
X104224025Y-100568152D01*
X104602495Y-100518326D01*
X104613226Y-100517386D01*
X104997297Y-100500617D01*
X105002706Y-100500500D01*
X121735693Y-100500500D01*
X121802732Y-100520185D01*
G37*
%TD.AperFunction*%
%TA.AperFunction,Conductor*%
G36*
X121912582Y-104807685D02*
G01*
X121958337Y-104860489D01*
X121969543Y-104911799D01*
X121971284Y-105988299D01*
X121951708Y-106055371D01*
X121898978Y-106101211D01*
X121847285Y-106112500D01*
X121650885Y-106112500D01*
X121605369Y-106118492D01*
X121505490Y-106165067D01*
X121427566Y-106242991D01*
X121380991Y-106342870D01*
X121380990Y-106342875D01*
X121378406Y-106362498D01*
X121378408Y-106362500D01*
X121888500Y-106362500D01*
X121897185Y-106365050D01*
X121906147Y-106363762D01*
X121930187Y-106374740D01*
X121955539Y-106382185D01*
X121961466Y-106389025D01*
X121969703Y-106392787D01*
X121971944Y-106396274D01*
X121972230Y-106573375D01*
X121940011Y-106601294D01*
X121888500Y-106612500D01*
X121378408Y-106612500D01*
X121378406Y-106612501D01*
X121380990Y-106632124D01*
X121380991Y-106632129D01*
X121431561Y-106740575D01*
X121442053Y-106809652D01*
X121440796Y-106817171D01*
X121424500Y-106899095D01*
X121424500Y-106899098D01*
X121424500Y-106899099D01*
X121424500Y-106984280D01*
X121424501Y-107062999D01*
X121421950Y-107071685D01*
X121423239Y-107080647D01*
X121412261Y-107104684D01*
X121404817Y-107130039D01*
X121397974Y-107135967D01*
X121394214Y-107144203D01*
X121371982Y-107158489D01*
X121352013Y-107175794D01*
X121341497Y-107178081D01*
X121335436Y-107181977D01*
X121300501Y-107187000D01*
X121188333Y-107187000D01*
X121121294Y-107167315D01*
X121100652Y-107150681D01*
X120399319Y-106449348D01*
X120365834Y-106388025D01*
X120363000Y-106361667D01*
X120363000Y-106252568D01*
X120382685Y-106185529D01*
X120430703Y-106142084D01*
X120540720Y-106086028D01*
X120636028Y-105990720D01*
X120697219Y-105870626D01*
X120697220Y-105870621D01*
X120713000Y-105770993D01*
X120713000Y-105204006D01*
X120697220Y-105104378D01*
X120697219Y-105104376D01*
X120697219Y-105104374D01*
X120636028Y-104984280D01*
X120636026Y-104984278D01*
X120631597Y-104975585D01*
X120632909Y-104974916D01*
X120612988Y-104919074D01*
X120628816Y-104851020D01*
X120678924Y-104802328D01*
X120736786Y-104788000D01*
X121845543Y-104788000D01*
X121912582Y-104807685D01*
G37*
%TD.AperFunction*%
%TD*%
%TA.AperFunction,Conductor*%
%TO.N,GND*%
G36*
X123318039Y-109744685D02*
G01*
X123363794Y-109797489D01*
X123375000Y-109849000D01*
X123375000Y-110359091D01*
X123375001Y-110359091D01*
X123394626Y-110356509D01*
X123394629Y-110356508D01*
X123447593Y-110331810D01*
X123516671Y-110321317D01*
X123552407Y-110331810D01*
X123605370Y-110356508D01*
X123605375Y-110356509D01*
X123624998Y-110359093D01*
X123625000Y-110359092D01*
X123625000Y-109849000D01*
X123627550Y-109840314D01*
X123626262Y-109831353D01*
X123637240Y-109807312D01*
X123644685Y-109781961D01*
X123651525Y-109776033D01*
X123655287Y-109767797D01*
X123677521Y-109753507D01*
X123697489Y-109736206D01*
X123708003Y-109733918D01*
X123714065Y-109730023D01*
X123749000Y-109725000D01*
X123751000Y-109725000D01*
X123818039Y-109744685D01*
X123863794Y-109797489D01*
X123875000Y-109849000D01*
X123875000Y-110359091D01*
X123907261Y-110387385D01*
X123944684Y-110446388D01*
X123949500Y-110480611D01*
X123949500Y-110612036D01*
X123929815Y-110679075D01*
X123913181Y-110699717D01*
X123889513Y-110723384D01*
X123889511Y-110723387D01*
X123830201Y-110826114D01*
X123799500Y-110940691D01*
X123799500Y-111059309D01*
X123830201Y-111173886D01*
X123889511Y-111276613D01*
X123889513Y-111276615D01*
X123976181Y-111363283D01*
X123990884Y-111390210D01*
X124007477Y-111416029D01*
X124008368Y-111422229D01*
X124009666Y-111424606D01*
X124012500Y-111450964D01*
X124012500Y-111499975D01*
X123992815Y-111567014D01*
X123940011Y-111612769D01*
X123931835Y-111616156D01*
X123910409Y-111624147D01*
X123910407Y-111624148D01*
X123795312Y-111710309D01*
X123795309Y-111710312D01*
X123709149Y-111825406D01*
X123709145Y-111825413D01*
X123658903Y-111960120D01*
X123658901Y-111960127D01*
X123652500Y-112019655D01*
X123652500Y-112592500D01*
X124353500Y-112592500D01*
X124362185Y-112595050D01*
X124371147Y-112593762D01*
X124395187Y-112604740D01*
X124420539Y-112612185D01*
X124426466Y-112619025D01*
X124434703Y-112622787D01*
X124448992Y-112645021D01*
X124466294Y-112664989D01*
X124468581Y-112675503D01*
X124472477Y-112681565D01*
X124477500Y-112716500D01*
X124477500Y-112717500D01*
X124478500Y-112717500D01*
X124545539Y-112737185D01*
X124591294Y-112789989D01*
X124602500Y-112841500D01*
X124602500Y-114943500D01*
X124599949Y-114952185D01*
X124601238Y-114961147D01*
X124590259Y-114985187D01*
X124582815Y-115010539D01*
X124575974Y-115016466D01*
X124572213Y-115024703D01*
X124549978Y-115038992D01*
X124530011Y-115056294D01*
X124519496Y-115058581D01*
X124513435Y-115062477D01*
X124478500Y-115067500D01*
X124477500Y-115067500D01*
X124477500Y-115068500D01*
X124457815Y-115135539D01*
X124405011Y-115181294D01*
X124353500Y-115192500D01*
X123652500Y-115192500D01*
X123652500Y-115765344D01*
X123659568Y-115831073D01*
X123659927Y-115831881D01*
X123655502Y-115860567D01*
X123653943Y-115889546D01*
X123650240Y-115894677D01*
X123649276Y-115900934D01*
X123630042Y-115922676D01*
X123613066Y-115946210D01*
X123607177Y-115948525D01*
X123602983Y-115953267D01*
X123575051Y-115961158D01*
X123548042Y-115971779D01*
X123540301Y-115970975D01*
X123535745Y-115972263D01*
X123500863Y-115966883D01*
X123377865Y-115929395D01*
X123355442Y-115920075D01*
X123204343Y-115839095D01*
X123184166Y-115825584D01*
X123051744Y-115716706D01*
X123034587Y-115699521D01*
X122990502Y-115645726D01*
X122925923Y-115566923D01*
X122912447Y-115546727D01*
X122831710Y-115395493D01*
X122822427Y-115373056D01*
X122772713Y-115208994D01*
X122767980Y-115185175D01*
X122767598Y-115181294D01*
X122752192Y-115024703D01*
X122750596Y-115008482D01*
X122750000Y-114996341D01*
X122750000Y-113415344D01*
X123652500Y-113415344D01*
X123658901Y-113474872D01*
X123658903Y-113474879D01*
X123709145Y-113609586D01*
X123709149Y-113609593D01*
X123795309Y-113724687D01*
X123795312Y-113724690D01*
X123886874Y-113793234D01*
X123928745Y-113849168D01*
X123933729Y-113918859D01*
X123900243Y-113980182D01*
X123886874Y-113991766D01*
X123795312Y-114060309D01*
X123795309Y-114060312D01*
X123709149Y-114175406D01*
X123709145Y-114175413D01*
X123658903Y-114310120D01*
X123658901Y-114310127D01*
X123652500Y-114369655D01*
X123652500Y-114942500D01*
X124352500Y-114942500D01*
X124352500Y-112842500D01*
X123652500Y-112842500D01*
X123652500Y-113415344D01*
X122750000Y-113415344D01*
X122750000Y-111364899D01*
X122750595Y-111352767D01*
X122763593Y-111220556D01*
X122768319Y-111196754D01*
X122805046Y-111075454D01*
X122814313Y-111053035D01*
X122876845Y-110935801D01*
X122883076Y-110925384D01*
X123009401Y-110735897D01*
X123009528Y-110634547D01*
X123013692Y-110602845D01*
X123017917Y-110586953D01*
X123030021Y-110565989D01*
X123050500Y-110489562D01*
X123050500Y-110464408D01*
X123054664Y-110448748D01*
X123064723Y-110432172D01*
X123070185Y-110413572D01*
X123089911Y-110390668D01*
X123090913Y-110389018D01*
X123091637Y-110388664D01*
X123092741Y-110387383D01*
X123125000Y-110359092D01*
X123125000Y-109849000D01*
X123144685Y-109781961D01*
X123197489Y-109736206D01*
X123249000Y-109725000D01*
X123251000Y-109725000D01*
X123318039Y-109744685D01*
G37*
%TD.AperFunction*%
%TA.AperFunction,Conductor*%
G36*
X125447926Y-113473133D02*
G01*
X125497332Y-113522538D01*
X125512500Y-113581966D01*
X125512500Y-114203033D01*
X125492815Y-114270072D01*
X125440011Y-114315827D01*
X125370853Y-114325771D01*
X125307297Y-114296746D01*
X125272318Y-114246366D01*
X125245854Y-114175413D01*
X125245850Y-114175406D01*
X125159690Y-114060313D01*
X125068125Y-113991767D01*
X125026254Y-113935833D01*
X125021270Y-113866141D01*
X125054755Y-113804818D01*
X125068125Y-113793233D01*
X125159690Y-113724686D01*
X125245850Y-113609593D01*
X125245854Y-113609586D01*
X125272318Y-113538633D01*
X125314189Y-113482699D01*
X125379653Y-113458282D01*
X125447926Y-113473133D01*
G37*
%TD.AperFunction*%
%TD*%
%TA.AperFunction,Conductor*%
%TO.N,Net-(D108-A)*%
G36*
X121323927Y-108807685D02*
G01*
X121350115Y-108830240D01*
X121378407Y-108862500D01*
X122450500Y-108862500D01*
X122458707Y-108864910D01*
X122467165Y-108863625D01*
X122491728Y-108874606D01*
X122517539Y-108882185D01*
X122523139Y-108888648D01*
X122530950Y-108892140D01*
X122545679Y-108914660D01*
X122563294Y-108934989D01*
X122565509Y-108944980D01*
X122569194Y-108950614D01*
X122572961Y-108976094D01*
X122573885Y-108976002D01*
X122573901Y-108976162D01*
X122573380Y-108978928D01*
X122574067Y-108983576D01*
X122574496Y-108985508D01*
X122574512Y-108987508D01*
X122574500Y-108987550D01*
X122574500Y-108988340D01*
X122574275Y-108988340D01*
X122566433Y-109015855D01*
X122560984Y-109044827D01*
X122556966Y-109049077D01*
X122555364Y-109054703D01*
X122533239Y-109074185D01*
X122512995Y-109095609D01*
X122507103Y-109097201D01*
X122502928Y-109100879D01*
X122481404Y-109104149D01*
X122450516Y-109112500D01*
X122137500Y-109112500D01*
X122137500Y-109362499D01*
X122251000Y-109362499D01*
X122318039Y-109382184D01*
X122363794Y-109434988D01*
X122375000Y-109486499D01*
X122375000Y-109600000D01*
X122625000Y-109600000D01*
X122625000Y-109286984D01*
X122627690Y-109277820D01*
X122626407Y-109268356D01*
X122637375Y-109244838D01*
X122644685Y-109219945D01*
X122651902Y-109213691D01*
X122655940Y-109205034D01*
X122677882Y-109191178D01*
X122697489Y-109174190D01*
X122708514Y-109171837D01*
X122715018Y-109167731D01*
X122736918Y-109165777D01*
X122749160Y-109163165D01*
X122749160Y-109163000D01*
X122749936Y-109163000D01*
X122749992Y-109162988D01*
X122751992Y-109163004D01*
X122755640Y-109164107D01*
X122761338Y-109163599D01*
X122761498Y-109163615D01*
X122761278Y-109165811D01*
X122785022Y-109172990D01*
X122818039Y-109182685D01*
X122818376Y-109183074D01*
X122818872Y-109183224D01*
X122841281Y-109209507D01*
X122863794Y-109235489D01*
X122863917Y-109236058D01*
X122864203Y-109236393D01*
X122864554Y-109238985D01*
X122875000Y-109287000D01*
X122875000Y-110326176D01*
X122865081Y-110374773D01*
X122863081Y-110379468D01*
X122838868Y-110408905D01*
X122847188Y-110434932D01*
X122847008Y-110436432D01*
X122847221Y-110437141D01*
X122842997Y-110469977D01*
X122839865Y-110481665D01*
X122834700Y-110496906D01*
X122819315Y-110534153D01*
X122815091Y-110550042D01*
X122815091Y-110550044D01*
X122809941Y-110576089D01*
X122805778Y-110607783D01*
X122805777Y-110607787D01*
X122804029Y-110634261D01*
X122804028Y-110634285D01*
X122804026Y-110636106D01*
X122784254Y-110703120D01*
X122783200Y-110704727D01*
X122712098Y-110811379D01*
X122706717Y-110819895D01*
X122700487Y-110830309D01*
X122695518Y-110839099D01*
X122632996Y-110956316D01*
X122624395Y-110974539D01*
X122624394Y-110974541D01*
X122615134Y-110996942D01*
X122615125Y-110996965D01*
X122608366Y-111015894D01*
X122571642Y-111137185D01*
X122571626Y-111137242D01*
X122566756Y-111156720D01*
X122562029Y-111180528D01*
X122559079Y-111200449D01*
X122546078Y-111332681D01*
X122545341Y-111342694D01*
X122544748Y-111354799D01*
X122544747Y-111354826D01*
X122544747Y-111354833D01*
X122544563Y-111362352D01*
X122544500Y-111364918D01*
X122544500Y-111395704D01*
X122524815Y-111462743D01*
X122523675Y-111464485D01*
X122500000Y-111499998D01*
X122500000Y-114731407D01*
X122499403Y-114743561D01*
X122481982Y-114920434D01*
X122477240Y-114944275D01*
X122427424Y-115108498D01*
X122418121Y-115130956D01*
X122337227Y-115282298D01*
X122323722Y-115302510D01*
X122214854Y-115435166D01*
X122197666Y-115452354D01*
X122065010Y-115561222D01*
X122044798Y-115574727D01*
X121893456Y-115655621D01*
X121870998Y-115664924D01*
X121706775Y-115714740D01*
X121682934Y-115719482D01*
X121506061Y-115736903D01*
X121493907Y-115737500D01*
X117518593Y-115737500D01*
X117506439Y-115736903D01*
X117329565Y-115719482D01*
X117305724Y-115714740D01*
X117141501Y-115664924D01*
X117119043Y-115655621D01*
X116967701Y-115574727D01*
X116947489Y-115561222D01*
X116814833Y-115452354D01*
X116797645Y-115435166D01*
X116688777Y-115302510D01*
X116675272Y-115282298D01*
X116594378Y-115130956D01*
X116585075Y-115108498D01*
X116577813Y-115084557D01*
X116535257Y-114944269D01*
X116530518Y-114920441D01*
X116513097Y-114743561D01*
X116512500Y-114731407D01*
X116512500Y-114539324D01*
X117150001Y-114539324D01*
X117165442Y-114656628D01*
X117165444Y-114656633D01*
X117225899Y-114802585D01*
X117322075Y-114927924D01*
X117447413Y-115024100D01*
X117593365Y-115084554D01*
X117593369Y-115084555D01*
X117710676Y-115099999D01*
X119374999Y-115099999D01*
X119625000Y-115099999D01*
X121289324Y-115099999D01*
X121406628Y-115084557D01*
X121406633Y-115084555D01*
X121552585Y-115024100D01*
X121677924Y-114927924D01*
X121774100Y-114802586D01*
X121834554Y-114656634D01*
X121834555Y-114656630D01*
X121849999Y-114539330D01*
X121850000Y-114539316D01*
X121850000Y-114275000D01*
X119625000Y-114275000D01*
X119625000Y-115099999D01*
X119374999Y-115099999D01*
X119375000Y-115099998D01*
X119375000Y-114275000D01*
X117150001Y-114275000D01*
X117150001Y-114539324D01*
X116512500Y-114539324D01*
X116512500Y-113760669D01*
X117150000Y-113760669D01*
X117150000Y-114025000D01*
X119375000Y-114025000D01*
X119625000Y-114025000D01*
X121849999Y-114025000D01*
X121849999Y-113760675D01*
X121834557Y-113643371D01*
X121834555Y-113643366D01*
X121774100Y-113497414D01*
X121677924Y-113372075D01*
X121552586Y-113275899D01*
X121406634Y-113215445D01*
X121406630Y-113215444D01*
X121289330Y-113200000D01*
X119625000Y-113200000D01*
X119625000Y-114025000D01*
X119375000Y-114025000D01*
X119375000Y-113200000D01*
X117710675Y-113200000D01*
X117593371Y-113215442D01*
X117593366Y-113215444D01*
X117447414Y-113275899D01*
X117322075Y-113372075D01*
X117225899Y-113497413D01*
X117165445Y-113643365D01*
X117165444Y-113643369D01*
X117150000Y-113760669D01*
X116512500Y-113760669D01*
X116512500Y-112548247D01*
X116526609Y-112491932D01*
X116526162Y-112491708D01*
X116526855Y-112490330D01*
X116535469Y-112472116D01*
X116535476Y-112472102D01*
X116544779Y-112449644D01*
X116551575Y-112430651D01*
X116601391Y-112266428D01*
X116606292Y-112246864D01*
X116611034Y-112223023D01*
X116613992Y-112203077D01*
X116631413Y-112026204D01*
X116632156Y-112016143D01*
X116632753Y-112003989D01*
X116633000Y-111993907D01*
X116633000Y-111920439D01*
X117700001Y-111920439D01*
X117706081Y-111977007D01*
X117753813Y-112104981D01*
X117753815Y-112104984D01*
X117835670Y-112214329D01*
X117945015Y-112296184D01*
X117945016Y-112296185D01*
X118072991Y-112343917D01*
X118072994Y-112343918D01*
X118129555Y-112349999D01*
X118274999Y-112349999D01*
X118525000Y-112349999D01*
X118670433Y-112349999D01*
X118670439Y-112349998D01*
X118727007Y-112343918D01*
X118854981Y-112296186D01*
X118854984Y-112296184D01*
X118964329Y-112214329D01*
X119046184Y-112104984D01*
X119046185Y-112104983D01*
X119093916Y-111977010D01*
X119099999Y-111920428D01*
X119100000Y-111920427D01*
X119100000Y-111625000D01*
X118525000Y-111625000D01*
X118525000Y-112349999D01*
X118274999Y-112349999D01*
X118275000Y-112349998D01*
X118275000Y-111625000D01*
X117700001Y-111625000D01*
X117700001Y-111920439D01*
X116633000Y-111920439D01*
X116633000Y-111079571D01*
X117700000Y-111079571D01*
X117700000Y-111375000D01*
X118275000Y-111375000D01*
X118525000Y-111375000D01*
X119099999Y-111375000D01*
X119099999Y-111079566D01*
X119099998Y-111079560D01*
X119093918Y-111022992D01*
X119046186Y-110895018D01*
X119046184Y-110895015D01*
X118964329Y-110785670D01*
X118854984Y-110703815D01*
X118854983Y-110703814D01*
X118727010Y-110656083D01*
X118670428Y-110650000D01*
X118525000Y-110650000D01*
X118525000Y-111375000D01*
X118275000Y-111375000D01*
X118275000Y-110650000D01*
X118129566Y-110650000D01*
X118129559Y-110650001D01*
X118072992Y-110656081D01*
X117945018Y-110703813D01*
X117945015Y-110703815D01*
X117835670Y-110785670D01*
X117753815Y-110895015D01*
X117753814Y-110895016D01*
X117706083Y-111022989D01*
X117700000Y-111079571D01*
X116633000Y-111079571D01*
X116633000Y-110086614D01*
X122375001Y-110086614D01*
X122380992Y-110132130D01*
X122427567Y-110232009D01*
X122505491Y-110309933D01*
X122605370Y-110356508D01*
X122605375Y-110356509D01*
X122624998Y-110359092D01*
X122630421Y-110354336D01*
X122625000Y-110330871D01*
X122625000Y-109850000D01*
X122375001Y-109850000D01*
X122375001Y-110086614D01*
X116633000Y-110086614D01*
X116633000Y-110086499D01*
X116628303Y-110042815D01*
X116624397Y-110024863D01*
X116617102Y-109991324D01*
X116616848Y-109990288D01*
X116614610Y-109981126D01*
X116571600Y-109900414D01*
X116571597Y-109900411D01*
X116571595Y-109900407D01*
X116542787Y-109867161D01*
X116531810Y-109843126D01*
X116517523Y-109820894D01*
X116515623Y-109807680D01*
X116513762Y-109803605D01*
X116512500Y-109785959D01*
X116512500Y-109743592D01*
X116513097Y-109731438D01*
X116522748Y-109633449D01*
X116548909Y-109568662D01*
X116558461Y-109557930D01*
X116615550Y-109500842D01*
X116654195Y-109424996D01*
X116702167Y-109374203D01*
X116732577Y-109361522D01*
X116803489Y-109342521D01*
X116872011Y-109302960D01*
X116927960Y-109247011D01*
X117062470Y-109112501D01*
X121378406Y-109112501D01*
X121380990Y-109132124D01*
X121380991Y-109132129D01*
X121427566Y-109232008D01*
X121505491Y-109309933D01*
X121605373Y-109356509D01*
X121605372Y-109356509D01*
X121650876Y-109362499D01*
X121887499Y-109362499D01*
X121887500Y-109362498D01*
X121887500Y-109112500D01*
X121378408Y-109112500D01*
X121378406Y-109112501D01*
X117062470Y-109112501D01*
X117350652Y-108824319D01*
X117411975Y-108790834D01*
X117438333Y-108788000D01*
X121256888Y-108788000D01*
X121323927Y-108807685D01*
G37*
%TD.AperFunction*%
%TD*%
%TA.AperFunction,Conductor*%
%TO.N,+5V*%
G36*
X126806121Y-109262185D02*
G01*
X126851876Y-109314989D01*
X126858857Y-109334407D01*
X126859500Y-109336806D01*
X126859500Y-109336809D01*
X126890201Y-109451386D01*
X126949511Y-109554113D01*
X127033387Y-109637989D01*
X127136114Y-109697299D01*
X127250691Y-109728000D01*
X127250694Y-109728000D01*
X127258542Y-109730103D01*
X127257915Y-109732442D01*
X127310571Y-109755730D01*
X127349049Y-109814050D01*
X127354500Y-109850411D01*
X127354500Y-109908478D01*
X127354823Y-109919995D01*
X127354824Y-109920008D01*
X127355604Y-109933891D01*
X127356572Y-109945371D01*
X127356574Y-109945393D01*
X127356575Y-109945399D01*
X127375147Y-110110247D01*
X127375151Y-110110276D01*
X127379010Y-110132984D01*
X127379012Y-110132994D01*
X127385185Y-110160044D01*
X127389172Y-110173886D01*
X127391569Y-110182204D01*
X127444064Y-110332227D01*
X127444070Y-110332243D01*
X127444071Y-110332244D01*
X127452877Y-110353505D01*
X127452881Y-110353514D01*
X127452883Y-110353518D01*
X127464930Y-110378534D01*
X127464937Y-110378548D01*
X127476069Y-110398689D01*
X127476077Y-110398703D01*
X127560639Y-110533283D01*
X127573977Y-110552081D01*
X127585690Y-110566768D01*
X127591286Y-110573785D01*
X127591290Y-110573790D01*
X127606642Y-110590968D01*
X127719030Y-110703356D01*
X127736208Y-110718708D01*
X127736222Y-110718720D01*
X127749130Y-110729013D01*
X127757918Y-110736022D01*
X127776715Y-110749360D01*
X127911293Y-110833921D01*
X127931463Y-110845068D01*
X127956481Y-110857116D01*
X127977772Y-110865935D01*
X128127795Y-110918430D01*
X128149943Y-110924811D01*
X128177013Y-110930989D01*
X128193632Y-110933812D01*
X128199720Y-110934847D01*
X128199749Y-110934851D01*
X128340514Y-110950711D01*
X128364628Y-110953428D01*
X128376109Y-110954396D01*
X128389991Y-110955176D01*
X128401519Y-110955500D01*
X128901902Y-110955500D01*
X128968941Y-110975185D01*
X129014696Y-111027989D01*
X129025899Y-111078637D01*
X129027162Y-111260058D01*
X129029009Y-111286165D01*
X129029011Y-111286184D01*
X129032659Y-111313168D01*
X129032660Y-111313168D01*
X129033230Y-111317385D01*
X129038380Y-111343043D01*
X129038381Y-111343047D01*
X129040774Y-111351976D01*
X129045000Y-111384074D01*
X129045000Y-111415926D01*
X129040776Y-111448016D01*
X129036710Y-111463188D01*
X129029861Y-111508477D01*
X129029860Y-111508484D01*
X129029327Y-111522361D01*
X129029201Y-111527013D01*
X129029113Y-111532536D01*
X129029092Y-111537270D01*
X129037094Y-112686826D01*
X129037181Y-112699274D01*
X129037181Y-112699278D01*
X129075535Y-118209394D01*
X129078959Y-118701247D01*
X129079789Y-118820425D01*
X129079789Y-118820426D01*
X129081092Y-119007741D01*
X129061874Y-119074916D01*
X129053054Y-119087140D01*
X128963307Y-119196796D01*
X128946113Y-119214031D01*
X128813373Y-119323200D01*
X128793143Y-119336743D01*
X128641623Y-119417878D01*
X128619136Y-119427208D01*
X128454698Y-119477170D01*
X128430823Y-119481927D01*
X128253683Y-119499401D01*
X128241510Y-119500000D01*
X126361428Y-119500000D01*
X126294389Y-119480315D01*
X126292536Y-119479101D01*
X126228231Y-119436132D01*
X126228229Y-119436131D01*
X126169752Y-119424500D01*
X126169748Y-119424500D01*
X123330252Y-119424500D01*
X123330247Y-119424500D01*
X123271770Y-119436131D01*
X123271768Y-119436132D01*
X123207464Y-119479101D01*
X123140787Y-119499980D01*
X123138572Y-119500000D01*
X116700000Y-119500000D01*
X116694863Y-120494837D01*
X116690172Y-121403252D01*
X116689516Y-121415370D01*
X116671280Y-121591675D01*
X116666441Y-121615428D01*
X116616050Y-121778980D01*
X116606682Y-121801339D01*
X116525433Y-121951961D01*
X116511893Y-121972069D01*
X116402895Y-122104001D01*
X116385703Y-122121090D01*
X116253113Y-122229300D01*
X116232924Y-122242719D01*
X116081820Y-122323062D01*
X116059405Y-122332296D01*
X115895551Y-122381705D01*
X115871770Y-122386401D01*
X115695368Y-122403578D01*
X115683246Y-122404162D01*
X112992086Y-122401913D01*
X112925063Y-122382172D01*
X112879353Y-122329330D01*
X112868285Y-122273068D01*
X112868826Y-122259213D01*
X112875500Y-122234309D01*
X112875500Y-122115691D01*
X112875000Y-122113824D01*
X112875000Y-121599500D01*
X112894685Y-121532461D01*
X112947489Y-121486706D01*
X112999000Y-121475500D01*
X113179270Y-121475500D01*
X113209699Y-121472646D01*
X113209701Y-121472646D01*
X113273790Y-121450219D01*
X113337882Y-121427793D01*
X113447150Y-121347150D01*
X113527793Y-121237882D01*
X113550219Y-121173790D01*
X113572646Y-121109701D01*
X113572646Y-121109699D01*
X113575500Y-121079269D01*
X113575500Y-120220730D01*
X113572646Y-120190300D01*
X113572646Y-120190298D01*
X113527793Y-120062119D01*
X113527792Y-120062117D01*
X113504891Y-120031087D01*
X113447150Y-119952850D01*
X113337882Y-119872207D01*
X113337880Y-119872206D01*
X113209700Y-119827353D01*
X113179270Y-119824500D01*
X113179266Y-119824500D01*
X111820734Y-119824500D01*
X111820730Y-119824500D01*
X111790300Y-119827353D01*
X111790298Y-119827353D01*
X111662119Y-119872206D01*
X111662117Y-119872207D01*
X111552850Y-119952850D01*
X111472207Y-120062117D01*
X111472206Y-120062119D01*
X111427353Y-120190298D01*
X111427353Y-120190300D01*
X111424500Y-120220730D01*
X111424500Y-121079269D01*
X111427353Y-121109699D01*
X111427353Y-121109701D01*
X111468362Y-121226895D01*
X111472207Y-121237882D01*
X111552850Y-121347150D01*
X111662118Y-121427793D01*
X111704845Y-121442744D01*
X111790299Y-121472646D01*
X111820730Y-121475500D01*
X111820734Y-121475500D01*
X112001000Y-121475500D01*
X112009685Y-121478050D01*
X112018647Y-121476762D01*
X112042687Y-121487740D01*
X112068039Y-121495185D01*
X112073966Y-121502025D01*
X112082203Y-121505787D01*
X112096492Y-121528021D01*
X112113794Y-121547989D01*
X112116081Y-121558503D01*
X112119977Y-121564565D01*
X112125000Y-121599500D01*
X112125000Y-121786536D01*
X112105315Y-121853575D01*
X112088681Y-121874217D01*
X112064513Y-121898384D01*
X112064511Y-121898387D01*
X112005201Y-122001114D01*
X111974500Y-122115691D01*
X111974500Y-122234309D01*
X111976753Y-122242719D01*
X111977331Y-122244873D01*
X111976734Y-122269917D01*
X111980279Y-122294715D01*
X111975917Y-122304244D01*
X111975668Y-122314722D01*
X111961626Y-122335469D01*
X111951201Y-122358247D01*
X111942380Y-122363905D01*
X111936506Y-122372585D01*
X111913476Y-122382446D01*
X111892392Y-122395972D01*
X111876630Y-122398224D01*
X111872277Y-122400089D01*
X111857453Y-122400966D01*
X111690554Y-122400827D01*
X111678520Y-122400232D01*
X111503389Y-122383008D01*
X111479779Y-122378339D01*
X111317078Y-122329355D01*
X111294818Y-122320214D01*
X111144640Y-122240720D01*
X111124570Y-122227455D01*
X110992582Y-122120452D01*
X110975445Y-122103552D01*
X110964810Y-122090802D01*
X110866614Y-121973067D01*
X110853066Y-121953178D01*
X110823077Y-121898384D01*
X110801843Y-121859586D01*
X110786926Y-121791328D01*
X110811280Y-121725841D01*
X110822925Y-121712387D01*
X110894351Y-121640962D01*
X110967458Y-121514338D01*
X111005300Y-121373107D01*
X111005300Y-121226893D01*
X110967458Y-121085662D01*
X110894351Y-120959038D01*
X110790962Y-120855649D01*
X110779521Y-120849043D01*
X110737160Y-120824585D01*
X110688945Y-120774017D01*
X110675176Y-120719033D01*
X110671866Y-120494837D01*
X110639086Y-118274986D01*
X111125001Y-118274986D01*
X111135494Y-118377697D01*
X111190641Y-118544119D01*
X111190643Y-118544124D01*
X111282684Y-118693345D01*
X111406654Y-118817315D01*
X111555875Y-118909356D01*
X111555880Y-118909358D01*
X111722302Y-118964505D01*
X111722309Y-118964506D01*
X111825019Y-118974999D01*
X112249999Y-118974999D01*
X112750000Y-118974999D01*
X113174972Y-118974999D01*
X113174986Y-118974998D01*
X113277697Y-118964505D01*
X113444119Y-118909358D01*
X113444124Y-118909356D01*
X113593345Y-118817315D01*
X113717315Y-118693345D01*
X113809356Y-118544124D01*
X113809358Y-118544119D01*
X113864505Y-118377697D01*
X113864506Y-118377690D01*
X113874999Y-118274986D01*
X113875000Y-118274973D01*
X113875000Y-118273917D01*
X116900001Y-118273917D01*
X116902814Y-118315423D01*
X116902814Y-118315425D01*
X116947435Y-118494849D01*
X117029581Y-118660481D01*
X117145414Y-118804584D01*
X117145415Y-118804585D01*
X117289518Y-118920418D01*
X117455150Y-119002564D01*
X117634568Y-119047184D01*
X117676088Y-119049999D01*
X119249999Y-119049999D01*
X119750000Y-119049999D01*
X121323911Y-119049999D01*
X121323917Y-119049998D01*
X121365423Y-119047185D01*
X121365425Y-119047185D01*
X121544849Y-119002564D01*
X121710481Y-118920418D01*
X121854584Y-118804585D01*
X121854585Y-118804584D01*
X121970418Y-118660481D01*
X122052564Y-118494849D01*
X122097184Y-118315431D01*
X122100000Y-118273911D01*
X122100000Y-118100000D01*
X119750000Y-118100000D01*
X119750000Y-119049999D01*
X119249999Y-119049999D01*
X119250000Y-119049998D01*
X119250000Y-118100000D01*
X116900001Y-118100000D01*
X116900001Y-118273917D01*
X113875000Y-118273917D01*
X113875000Y-118100000D01*
X112750000Y-118100000D01*
X112750000Y-118974999D01*
X112249999Y-118974999D01*
X112250000Y-118974998D01*
X112250000Y-118100000D01*
X111125001Y-118100000D01*
X111125001Y-118274986D01*
X110639086Y-118274986D01*
X110634888Y-117990691D01*
X124849500Y-117990691D01*
X124849500Y-118109309D01*
X124880201Y-118223886D01*
X124939511Y-118326613D01*
X125023387Y-118410489D01*
X125126114Y-118469799D01*
X125240691Y-118500500D01*
X125240694Y-118500500D01*
X125359306Y-118500500D01*
X125359309Y-118500500D01*
X125473886Y-118469799D01*
X125576613Y-118410489D01*
X125660489Y-118326613D01*
X125719799Y-118223886D01*
X125750500Y-118109309D01*
X125750500Y-117990691D01*
X125719799Y-117876114D01*
X125660489Y-117773387D01*
X125576613Y-117689511D01*
X125473886Y-117630201D01*
X125359309Y-117599500D01*
X125240691Y-117599500D01*
X125126114Y-117630201D01*
X125126112Y-117630201D01*
X125126112Y-117630202D01*
X125023387Y-117689511D01*
X125023384Y-117689513D01*
X124939513Y-117773384D01*
X124939511Y-117773387D01*
X124880201Y-117876114D01*
X124849500Y-117990691D01*
X110634888Y-117990691D01*
X110626535Y-117425013D01*
X111125000Y-117425013D01*
X111125000Y-117600000D01*
X112250000Y-117600000D01*
X112250000Y-116725000D01*
X112750000Y-116725000D01*
X112750000Y-117600000D01*
X113874999Y-117600000D01*
X113876760Y-117598238D01*
X113894684Y-117537199D01*
X113947488Y-117491444D01*
X114016646Y-117481500D01*
X114080202Y-117510525D01*
X114100276Y-117534839D01*
X114100701Y-117534513D01*
X114105647Y-117540959D01*
X114105649Y-117540962D01*
X114209038Y-117644351D01*
X114335662Y-117717458D01*
X114476893Y-117755300D01*
X114476895Y-117755300D01*
X114623105Y-117755300D01*
X114623107Y-117755300D01*
X114764338Y-117717458D01*
X114890962Y-117644351D01*
X114994351Y-117540962D01*
X115060674Y-117426088D01*
X116900000Y-117426088D01*
X116900000Y-117600000D01*
X119250000Y-117600000D01*
X119750000Y-117600000D01*
X122099999Y-117600000D01*
X122099999Y-117426089D01*
X122099998Y-117426082D01*
X122097185Y-117384576D01*
X122097185Y-117384574D01*
X122052564Y-117205150D01*
X121970418Y-117039518D01*
X121854585Y-116895415D01*
X121854584Y-116895414D01*
X121710481Y-116779581D01*
X121544849Y-116697435D01*
X121365431Y-116652815D01*
X121323912Y-116650000D01*
X119750000Y-116650000D01*
X119750000Y-117600000D01*
X119250000Y-117600000D01*
X119250000Y-116650000D01*
X117676089Y-116650000D01*
X117676082Y-116650001D01*
X117634576Y-116652814D01*
X117634574Y-116652814D01*
X117455150Y-116697435D01*
X117289518Y-116779581D01*
X117145415Y-116895414D01*
X117145414Y-116895415D01*
X117029581Y-117039518D01*
X116947435Y-117205150D01*
X116902815Y-117384568D01*
X116900000Y-117426088D01*
X115060674Y-117426088D01*
X115067458Y-117414338D01*
X115105300Y-117273107D01*
X115105300Y-117126893D01*
X115067458Y-116985662D01*
X114994351Y-116859038D01*
X114890962Y-116755649D01*
X114818175Y-116713625D01*
X114764339Y-116682542D01*
X114653389Y-116652814D01*
X114623107Y-116644700D01*
X114476893Y-116644700D01*
X114335660Y-116682542D01*
X114209038Y-116755649D01*
X114209035Y-116755651D01*
X114105651Y-116859035D01*
X114105649Y-116859038D01*
X114032542Y-116985660D01*
X114007556Y-117078913D01*
X113971191Y-117138574D01*
X113908344Y-117169103D01*
X113838969Y-117160808D01*
X113785091Y-117116323D01*
X113782242Y-117111917D01*
X113717315Y-117006654D01*
X113593345Y-116882684D01*
X113444124Y-116790643D01*
X113444119Y-116790641D01*
X113277697Y-116735494D01*
X113277690Y-116735493D01*
X113174986Y-116725000D01*
X112750000Y-116725000D01*
X112250000Y-116725000D01*
X111825028Y-116725000D01*
X111825012Y-116725001D01*
X111722302Y-116735494D01*
X111555880Y-116790641D01*
X111555875Y-116790643D01*
X111406654Y-116882684D01*
X111282684Y-117006654D01*
X111190643Y-117155875D01*
X111190641Y-117155880D01*
X111135494Y-117322302D01*
X111135493Y-117322309D01*
X111125000Y-117425013D01*
X110626535Y-117425013D01*
X110589617Y-114924986D01*
X111275001Y-114924986D01*
X111285494Y-115027697D01*
X111340641Y-115194119D01*
X111340643Y-115194124D01*
X111432684Y-115343345D01*
X111556654Y-115467315D01*
X111705875Y-115559356D01*
X111705880Y-115559358D01*
X111872302Y-115614505D01*
X111872309Y-115614506D01*
X111975019Y-115624999D01*
X112149999Y-115624999D01*
X112650000Y-115624999D01*
X112824972Y-115624999D01*
X112824986Y-115624998D01*
X112927697Y-115614505D01*
X113094119Y-115559358D01*
X113094124Y-115559356D01*
X113243345Y-115467315D01*
X113367315Y-115343345D01*
X113459356Y-115194124D01*
X113459358Y-115194119D01*
X113514505Y-115027697D01*
X113514506Y-115027690D01*
X113524999Y-114924986D01*
X113525000Y-114924973D01*
X113525000Y-114500000D01*
X112650000Y-114500000D01*
X112650000Y-115624999D01*
X112149999Y-115624999D01*
X112150000Y-115624998D01*
X112150000Y-114500000D01*
X111275001Y-114500000D01*
X111275001Y-114924986D01*
X110589617Y-114924986D01*
X110572575Y-113770898D01*
X110573001Y-113758655D01*
X110588113Y-113579878D01*
X110592588Y-113555759D01*
X110592835Y-113554910D01*
X110640878Y-113389409D01*
X110650015Y-113366641D01*
X110655282Y-113356543D01*
X110699291Y-113272159D01*
X110747746Y-113221821D01*
X110809237Y-113205500D01*
X111202184Y-113205500D01*
X111269223Y-113225185D01*
X111314978Y-113277989D01*
X111324922Y-113347147D01*
X111319890Y-113368504D01*
X111285494Y-113472302D01*
X111285493Y-113472309D01*
X111275000Y-113575013D01*
X111275000Y-114000000D01*
X113524999Y-114000000D01*
X113524999Y-113575028D01*
X113524998Y-113575013D01*
X113514505Y-113472302D01*
X113480110Y-113368504D01*
X113477708Y-113298676D01*
X113513440Y-113238634D01*
X113575960Y-113207441D01*
X113597816Y-113205500D01*
X114750565Y-113205500D01*
X114764014Y-113209449D01*
X114778004Y-113208574D01*
X114796875Y-113219098D01*
X114817604Y-113225185D01*
X114828009Y-113236461D01*
X114839026Y-113242605D01*
X114859918Y-113271040D01*
X114905624Y-113356549D01*
X114914924Y-113379001D01*
X114964740Y-113543224D01*
X114969482Y-113567065D01*
X114986903Y-113743938D01*
X114987500Y-113756092D01*
X114987500Y-116250000D01*
X125000000Y-116250000D01*
X126000000Y-116250000D01*
X126000000Y-115767486D01*
X126352501Y-115767486D01*
X126362994Y-115870197D01*
X126418141Y-116036619D01*
X126418143Y-116036624D01*
X126510184Y-116185845D01*
X126634154Y-116309815D01*
X126783375Y-116401856D01*
X126783380Y-116401858D01*
X126949802Y-116457005D01*
X126949809Y-116457006D01*
X127052519Y-116467499D01*
X127177499Y-116467499D01*
X127677500Y-116467499D01*
X127802472Y-116467499D01*
X127802486Y-116467498D01*
X127905197Y-116457005D01*
X128071619Y-116401858D01*
X128071624Y-116401856D01*
X128220845Y-116309815D01*
X128344815Y-116185845D01*
X128436856Y-116036624D01*
X128436858Y-116036619D01*
X128492005Y-115870197D01*
X128492006Y-115870190D01*
X128502499Y-115767486D01*
X128502500Y-115767473D01*
X128502500Y-115317500D01*
X127677500Y-115317500D01*
X127677500Y-116467499D01*
X127177499Y-116467499D01*
X127177500Y-116467498D01*
X127177500Y-115317500D01*
X126352501Y-115317500D01*
X126352501Y-115767486D01*
X126000000Y-115767486D01*
X126000000Y-114367513D01*
X126352500Y-114367513D01*
X126352500Y-114817500D01*
X127177500Y-114817500D01*
X127677500Y-114817500D01*
X128502499Y-114817500D01*
X128502499Y-114367528D01*
X128502498Y-114367513D01*
X128492005Y-114264802D01*
X128436858Y-114098380D01*
X128436853Y-114098369D01*
X128350023Y-113957597D01*
X128331582Y-113890205D01*
X128350023Y-113827403D01*
X128436853Y-113686630D01*
X128436858Y-113686619D01*
X128492005Y-113520197D01*
X128492006Y-113520190D01*
X128502499Y-113417486D01*
X128502500Y-113417473D01*
X128502500Y-112967500D01*
X127677500Y-112967500D01*
X127677500Y-114817500D01*
X127177500Y-114817500D01*
X127177500Y-112967500D01*
X126352501Y-112967500D01*
X126352501Y-113417486D01*
X126362994Y-113520197D01*
X126418141Y-113686619D01*
X126418143Y-113686624D01*
X126504977Y-113827403D01*
X126523417Y-113894796D01*
X126504977Y-113957597D01*
X126418143Y-114098375D01*
X126418141Y-114098380D01*
X126362994Y-114264802D01*
X126362993Y-114264809D01*
X126352500Y-114367513D01*
X126000000Y-114367513D01*
X126000000Y-113441403D01*
X126016613Y-113379403D01*
X126019799Y-113373886D01*
X126050500Y-113259309D01*
X126050500Y-113140691D01*
X126019799Y-113026114D01*
X126016610Y-113020591D01*
X126000000Y-112958595D01*
X126000000Y-112017513D01*
X126352500Y-112017513D01*
X126352500Y-112467500D01*
X127177500Y-112467500D01*
X127677500Y-112467500D01*
X128502499Y-112467500D01*
X128502499Y-112017528D01*
X128502498Y-112017513D01*
X128492005Y-111914802D01*
X128436858Y-111748380D01*
X128436856Y-111748375D01*
X128344815Y-111599154D01*
X128220845Y-111475184D01*
X128071624Y-111383143D01*
X128071619Y-111383141D01*
X127905197Y-111327994D01*
X127905190Y-111327993D01*
X127802486Y-111317500D01*
X127677500Y-111317500D01*
X127677500Y-112467500D01*
X127177500Y-112467500D01*
X127177500Y-111317500D01*
X127052527Y-111317500D01*
X127052512Y-111317501D01*
X126949802Y-111327994D01*
X126783380Y-111383141D01*
X126783375Y-111383143D01*
X126634154Y-111475184D01*
X126510184Y-111599154D01*
X126418143Y-111748375D01*
X126418141Y-111748380D01*
X126362994Y-111914802D01*
X126362993Y-111914809D01*
X126352500Y-112017513D01*
X126000000Y-112017513D01*
X126000000Y-111500000D01*
X125256961Y-111500000D01*
X125243077Y-111499220D01*
X125096994Y-111482760D01*
X125069924Y-111476582D01*
X124937774Y-111430341D01*
X124912756Y-111418293D01*
X124794211Y-111343806D01*
X124772502Y-111326493D01*
X124709875Y-111263866D01*
X124676390Y-111202543D01*
X124677781Y-111144093D01*
X124700500Y-111059309D01*
X124700500Y-110940691D01*
X124669799Y-110826114D01*
X124622453Y-110744110D01*
X124605981Y-110676210D01*
X124625000Y-110621257D01*
X124625000Y-109849000D01*
X124627550Y-109840314D01*
X124626262Y-109831353D01*
X124637240Y-109807312D01*
X124644685Y-109781961D01*
X124651525Y-109776033D01*
X124655287Y-109767797D01*
X124677521Y-109753507D01*
X124697489Y-109736206D01*
X124708003Y-109733918D01*
X124714065Y-109730023D01*
X124749000Y-109725000D01*
X124751000Y-109725000D01*
X124818039Y-109744685D01*
X124863794Y-109797489D01*
X124875000Y-109849000D01*
X124875000Y-110609124D01*
X124959344Y-110598021D01*
X124967196Y-110595918D01*
X124968070Y-110599182D01*
X125021919Y-110593350D01*
X125032648Y-110596500D01*
X125032804Y-110595918D01*
X125040655Y-110598021D01*
X125124999Y-110609124D01*
X125125000Y-110609124D01*
X125375000Y-110609124D01*
X125375001Y-110609125D01*
X125459334Y-110598023D01*
X125459342Y-110598021D01*
X125596175Y-110541343D01*
X125713679Y-110451179D01*
X125803843Y-110333675D01*
X125860521Y-110196842D01*
X125860521Y-110196841D01*
X125874999Y-110086877D01*
X125875000Y-110086863D01*
X125875000Y-109850000D01*
X125375000Y-109850000D01*
X125375000Y-110609124D01*
X125125000Y-110609124D01*
X125125000Y-109849000D01*
X125127550Y-109840314D01*
X125126262Y-109831353D01*
X125137240Y-109807312D01*
X125144685Y-109781961D01*
X125151525Y-109776033D01*
X125155287Y-109767797D01*
X125177521Y-109753507D01*
X125197489Y-109736206D01*
X125208003Y-109733918D01*
X125214065Y-109730023D01*
X125249000Y-109725000D01*
X125250000Y-109725000D01*
X125250000Y-109724000D01*
X125269685Y-109656961D01*
X125322489Y-109611206D01*
X125374000Y-109600000D01*
X125875000Y-109600000D01*
X125875000Y-109436999D01*
X125894685Y-109369960D01*
X125947489Y-109324205D01*
X125998997Y-109312999D01*
X126338400Y-109312999D01*
X126415117Y-109297740D01*
X126466514Y-109263397D01*
X126484559Y-109257747D01*
X126500469Y-109247523D01*
X126531428Y-109243071D01*
X126533190Y-109242520D01*
X126535404Y-109242500D01*
X126739082Y-109242500D01*
X126806121Y-109262185D01*
G37*
%TD.AperFunction*%
%TD*%
%TA.AperFunction,Conductor*%
%TO.N,+15V*%
G36*
X113780039Y-107269685D02*
G01*
X113825794Y-107322489D01*
X113837000Y-107374000D01*
X113837000Y-107720993D01*
X113852779Y-107820621D01*
X113852780Y-107820624D01*
X113852781Y-107820626D01*
X113913972Y-107940720D01*
X113913973Y-107940721D01*
X113913976Y-107940725D01*
X113932924Y-107959673D01*
X113941476Y-107975336D01*
X113954096Y-107987964D01*
X113957875Y-108005368D01*
X113966409Y-108020996D01*
X113965135Y-108038798D01*
X113968924Y-108056242D01*
X113962695Y-108072924D01*
X113961425Y-108090688D01*
X113950727Y-108104977D01*
X113944485Y-108121698D01*
X113924633Y-108139834D01*
X113919553Y-108146621D01*
X113919519Y-108146647D01*
X113747794Y-108275107D01*
X113723047Y-108284327D01*
X113699875Y-108296980D01*
X113690825Y-108296332D01*
X113682322Y-108299501D01*
X113656519Y-108293878D01*
X113630183Y-108291995D01*
X113615965Y-108285042D01*
X113614054Y-108284626D01*
X113613040Y-108283612D01*
X113608421Y-108281353D01*
X113481624Y-108203143D01*
X113481619Y-108203141D01*
X113315197Y-108147994D01*
X113315190Y-108147993D01*
X113212486Y-108137500D01*
X112762500Y-108137500D01*
X112762500Y-108962500D01*
X113407500Y-108962500D01*
X113407500Y-108886500D01*
X113427185Y-108819461D01*
X113479989Y-108773706D01*
X113531500Y-108762500D01*
X115516138Y-108762500D01*
X115583177Y-108782185D01*
X115603819Y-108798819D01*
X115617500Y-108812500D01*
X115888500Y-108812500D01*
X115955539Y-108832185D01*
X116001294Y-108884989D01*
X116012500Y-108936500D01*
X116012500Y-109062500D01*
X116138500Y-109062500D01*
X116205539Y-109082185D01*
X116251294Y-109134989D01*
X116262500Y-109186500D01*
X116262500Y-109962499D01*
X116303500Y-109962499D01*
X116370539Y-109982184D01*
X116416294Y-110034988D01*
X116427500Y-110086499D01*
X116427500Y-111993907D01*
X116426903Y-112006061D01*
X116409482Y-112182934D01*
X116404740Y-112206775D01*
X116354924Y-112370998D01*
X116345621Y-112393456D01*
X116264727Y-112544798D01*
X116251222Y-112565010D01*
X116142354Y-112697666D01*
X116125166Y-112714854D01*
X115992510Y-112823722D01*
X115972298Y-112837227D01*
X115820956Y-112918121D01*
X115798498Y-112927424D01*
X115634275Y-112977240D01*
X115610434Y-112981982D01*
X115433561Y-112999403D01*
X115421407Y-113000000D01*
X110095692Y-113000000D01*
X110083538Y-112999403D01*
X109906664Y-112981982D01*
X109882823Y-112977240D01*
X109718600Y-112927424D01*
X109696142Y-112918121D01*
X109544800Y-112837227D01*
X109524588Y-112823722D01*
X109391932Y-112714854D01*
X109374744Y-112697666D01*
X109265876Y-112565010D01*
X109252371Y-112544798D01*
X109171477Y-112393456D01*
X109162174Y-112370998D01*
X109149050Y-112327732D01*
X109112356Y-112206769D01*
X109107617Y-112182941D01*
X109090196Y-112006061D01*
X109089599Y-111993907D01*
X109089599Y-111923322D01*
X114150001Y-111923322D01*
X114160144Y-112022607D01*
X114213452Y-112183481D01*
X114213457Y-112183492D01*
X114302424Y-112327728D01*
X114302427Y-112327732D01*
X114422267Y-112447572D01*
X114422271Y-112447575D01*
X114566507Y-112536542D01*
X114566518Y-112536547D01*
X114727393Y-112589855D01*
X114826683Y-112599999D01*
X115350000Y-112599999D01*
X115373308Y-112599999D01*
X115373322Y-112599998D01*
X115472607Y-112589855D01*
X115633481Y-112536547D01*
X115633492Y-112536542D01*
X115777728Y-112447575D01*
X115777732Y-112447572D01*
X115897572Y-112327732D01*
X115897575Y-112327728D01*
X115986542Y-112183492D01*
X115986547Y-112183481D01*
X116039855Y-112022606D01*
X116049999Y-111923322D01*
X116050000Y-111923309D01*
X116050000Y-111750000D01*
X115350000Y-111750000D01*
X115350000Y-112599999D01*
X114826683Y-112599999D01*
X114850000Y-112599998D01*
X114850000Y-111750000D01*
X114150001Y-111750000D01*
X114150001Y-111923322D01*
X109089599Y-111923322D01*
X109089599Y-111076677D01*
X114150000Y-111076677D01*
X114150000Y-111250000D01*
X114850000Y-111250000D01*
X115350000Y-111250000D01*
X116049999Y-111250000D01*
X116049999Y-111076692D01*
X116049998Y-111076677D01*
X116039855Y-110977392D01*
X115986547Y-110816518D01*
X115986542Y-110816507D01*
X115897575Y-110672271D01*
X115897572Y-110672267D01*
X115777732Y-110552427D01*
X115777728Y-110552424D01*
X115633492Y-110463457D01*
X115633481Y-110463452D01*
X115472606Y-110410144D01*
X115373322Y-110400000D01*
X115350000Y-110400000D01*
X115350000Y-111250000D01*
X114850000Y-111250000D01*
X114850000Y-110399999D01*
X114826693Y-110400000D01*
X114826674Y-110400001D01*
X114727392Y-110410144D01*
X114566518Y-110463452D01*
X114566507Y-110463457D01*
X114422271Y-110552424D01*
X114422267Y-110552427D01*
X114302427Y-110672267D01*
X114302424Y-110672271D01*
X114213457Y-110816507D01*
X114213452Y-110816518D01*
X114160144Y-110977393D01*
X114150000Y-111076677D01*
X109089599Y-111076677D01*
X109089599Y-109587486D01*
X111112501Y-109587486D01*
X111122994Y-109690197D01*
X111178141Y-109856619D01*
X111178143Y-109856624D01*
X111270184Y-110005845D01*
X111394154Y-110129815D01*
X111543375Y-110221856D01*
X111543380Y-110221858D01*
X111709802Y-110277005D01*
X111709809Y-110277006D01*
X111812519Y-110287499D01*
X112262499Y-110287499D01*
X112262500Y-110287498D01*
X112262500Y-109462500D01*
X112762500Y-109462500D01*
X112762500Y-110287499D01*
X113212472Y-110287499D01*
X113212486Y-110287498D01*
X113315197Y-110277005D01*
X113481619Y-110221858D01*
X113481624Y-110221856D01*
X113630845Y-110129815D01*
X113754817Y-110005843D01*
X113792539Y-109944686D01*
X113844486Y-109897961D01*
X113913449Y-109886738D01*
X113950474Y-109897396D01*
X113954009Y-109899044D01*
X114114893Y-109952355D01*
X114214183Y-109962499D01*
X114762500Y-109962499D01*
X114810808Y-109962499D01*
X114810822Y-109962498D01*
X114910107Y-109952355D01*
X115070981Y-109899047D01*
X115070988Y-109899044D01*
X115187899Y-109826931D01*
X115255291Y-109808490D01*
X115317148Y-109826353D01*
X115448101Y-109905518D01*
X115448103Y-109905519D01*
X115610394Y-109956090D01*
X115610392Y-109956090D01*
X115680918Y-109962499D01*
X115762499Y-109962498D01*
X115762500Y-109962498D01*
X115762500Y-109312500D01*
X115008862Y-109312500D01*
X114941823Y-109292815D01*
X114921181Y-109276181D01*
X114907500Y-109262500D01*
X114762500Y-109262500D01*
X114762500Y-109962499D01*
X114214183Y-109962499D01*
X114262499Y-109962498D01*
X114262500Y-109962498D01*
X114262500Y-109262500D01*
X114042500Y-109262500D01*
X114042500Y-109338500D01*
X114022815Y-109405539D01*
X113970011Y-109451294D01*
X113918500Y-109462500D01*
X112762500Y-109462500D01*
X112262500Y-109462500D01*
X111112501Y-109462500D01*
X111112501Y-109587486D01*
X109089599Y-109587486D01*
X109089599Y-109362572D01*
X109740979Y-109362572D01*
X109776328Y-109386192D01*
X109958306Y-109461569D01*
X109958318Y-109461572D01*
X110151504Y-109499999D01*
X110151508Y-109500000D01*
X110348492Y-109500000D01*
X110348495Y-109499999D01*
X110541681Y-109461572D01*
X110541693Y-109461569D01*
X110723676Y-109386190D01*
X110723680Y-109386187D01*
X110759019Y-109362573D01*
X110759020Y-109362572D01*
X110250001Y-108853553D01*
X110250000Y-108853553D01*
X109740979Y-109362572D01*
X109089599Y-109362572D01*
X109089599Y-108935061D01*
X109109284Y-108868022D01*
X109162088Y-108822267D01*
X109231246Y-108812323D01*
X109294802Y-108841348D01*
X109328160Y-108887609D01*
X109363808Y-108973673D01*
X109363809Y-108973675D01*
X109387425Y-109009019D01*
X109896446Y-108500000D01*
X109896446Y-108499999D01*
X109846719Y-108450272D01*
X110000000Y-108450272D01*
X110000000Y-108549728D01*
X110038060Y-108641614D01*
X110108386Y-108711940D01*
X110200272Y-108750000D01*
X110299728Y-108750000D01*
X110391614Y-108711940D01*
X110461940Y-108641614D01*
X110500000Y-108549728D01*
X110500000Y-108499999D01*
X110603553Y-108499999D01*
X110603553Y-108500000D01*
X111066053Y-108962500D01*
X112262500Y-108962500D01*
X112262500Y-108137500D01*
X111812528Y-108137500D01*
X111812512Y-108137501D01*
X111709802Y-108147994D01*
X111543380Y-108203141D01*
X111543375Y-108203143D01*
X111398813Y-108292311D01*
X111331420Y-108310751D01*
X111264757Y-108289828D01*
X111219987Y-108236187D01*
X111212099Y-108210963D01*
X111211572Y-108208318D01*
X111211569Y-108208306D01*
X111136192Y-108026328D01*
X111112572Y-107990979D01*
X110603553Y-108499999D01*
X110500000Y-108499999D01*
X110500000Y-108450272D01*
X110461940Y-108358386D01*
X110391614Y-108288060D01*
X110299728Y-108250000D01*
X110200272Y-108250000D01*
X110108386Y-108288060D01*
X110038060Y-108358386D01*
X110000000Y-108450272D01*
X109846719Y-108450272D01*
X109387426Y-107990978D01*
X109387425Y-107990979D01*
X109377097Y-108006437D01*
X109363833Y-108017521D01*
X109354360Y-108031978D01*
X109337582Y-108039460D01*
X109323485Y-108051242D01*
X109306333Y-108053396D01*
X109290548Y-108060436D01*
X109272387Y-108057659D01*
X109254160Y-108059949D01*
X109238567Y-108052489D01*
X109221481Y-108049877D01*
X109207704Y-108037723D01*
X109191133Y-108029795D01*
X109182048Y-108015088D01*
X109169087Y-108003654D01*
X109164068Y-107985982D01*
X109154413Y-107970352D01*
X109154647Y-107952808D01*
X109150000Y-107936442D01*
X109155334Y-107901553D01*
X109162174Y-107879003D01*
X109171474Y-107856549D01*
X109252374Y-107705195D01*
X109265871Y-107684995D01*
X109304910Y-107637426D01*
X109740978Y-107637426D01*
X110250000Y-108146446D01*
X110250001Y-108146446D01*
X110759020Y-107637426D01*
X110723675Y-107613809D01*
X110723673Y-107613808D01*
X110541693Y-107538430D01*
X110541681Y-107538427D01*
X110348495Y-107500000D01*
X110151504Y-107500000D01*
X109958318Y-107538427D01*
X109958310Y-107538429D01*
X109776325Y-107613809D01*
X109776318Y-107613813D01*
X109740979Y-107637426D01*
X109740978Y-107637426D01*
X109304910Y-107637426D01*
X109374748Y-107552328D01*
X109391927Y-107535149D01*
X109524594Y-107426272D01*
X109544794Y-107412775D01*
X109696148Y-107331875D01*
X109718593Y-107322577D01*
X109882831Y-107272757D01*
X109906655Y-107268018D01*
X110083538Y-107250597D01*
X110095692Y-107250000D01*
X113713000Y-107250000D01*
X113780039Y-107269685D01*
G37*
%TD.AperFunction*%
%TD*%
%TA.AperFunction,Conductor*%
%TO.N,GND*%
G36*
X105106963Y-118017643D02*
G01*
X105108306Y-118018448D01*
X105108318Y-118018455D01*
X105108330Y-118018462D01*
X105155366Y-118043603D01*
X105182141Y-118055544D01*
X105182152Y-118055548D01*
X105182157Y-118055550D01*
X105195664Y-118060451D01*
X105215319Y-118067583D01*
X105238395Y-118070690D01*
X105238101Y-118071748D01*
X105249102Y-118074811D01*
X105260306Y-118077593D01*
X105287817Y-118077344D01*
X105292652Y-118077994D01*
X105301918Y-118079243D01*
X105309725Y-118078614D01*
X105309724Y-118078612D01*
X105325813Y-118077317D01*
X105325824Y-118077317D01*
X105330235Y-118076962D01*
X105351758Y-118076768D01*
X105361530Y-118074443D01*
X105371019Y-118073680D01*
X105371021Y-118073680D01*
X105371034Y-118073678D01*
X105371548Y-118073637D01*
X105380004Y-118072432D01*
X105396438Y-118070091D01*
X105396438Y-118070090D01*
X105396443Y-118070090D01*
X105404878Y-118066249D01*
X105420244Y-118060451D01*
X105431541Y-118057022D01*
X105443787Y-118053307D01*
X105459714Y-118042866D01*
X105461868Y-118041488D01*
X105468801Y-118037152D01*
X105479681Y-118032200D01*
X105487388Y-118026322D01*
X105486978Y-118025784D01*
X105498042Y-118018866D01*
X105526363Y-118010928D01*
X105553835Y-118000400D01*
X105563790Y-118000000D01*
X105679340Y-118000000D01*
X105746379Y-118019685D01*
X105792134Y-118072489D01*
X105802078Y-118141647D01*
X105779110Y-118197634D01*
X105727653Y-118267354D01*
X105682850Y-118395395D01*
X105682850Y-118395399D01*
X105680000Y-118425793D01*
X105680000Y-118555000D01*
X107379999Y-118555000D01*
X107379999Y-118425803D01*
X107377148Y-118395393D01*
X107337657Y-118282532D01*
X107334096Y-118212753D01*
X107368825Y-118152126D01*
X107430819Y-118119899D01*
X107500394Y-118126305D01*
X107515218Y-118133350D01*
X107594128Y-118177490D01*
X107661167Y-118197175D01*
X107719065Y-118205500D01*
X107719069Y-118205500D01*
X107884735Y-118205500D01*
X107908510Y-118212481D01*
X107933128Y-118215333D01*
X107947208Y-118223844D01*
X107951774Y-118225185D01*
X107963332Y-118233591D01*
X108025565Y-118284591D01*
X108042745Y-118301743D01*
X108119750Y-118395399D01*
X108151622Y-118434163D01*
X108165133Y-118454340D01*
X108246116Y-118605443D01*
X108255436Y-118627867D01*
X108305415Y-118791851D01*
X108310186Y-118815661D01*
X108327856Y-118992322D01*
X108328472Y-119004462D01*
X108334231Y-122564421D01*
X108333651Y-122576602D01*
X108316444Y-122753867D01*
X108311721Y-122777763D01*
X108261967Y-122942375D01*
X108252662Y-122964888D01*
X108171685Y-123116599D01*
X108158161Y-123136857D01*
X108049093Y-123269806D01*
X108031867Y-123287031D01*
X107898910Y-123396093D01*
X107878651Y-123409617D01*
X107726936Y-123490585D01*
X107704424Y-123499887D01*
X107539815Y-123549632D01*
X107515916Y-123554355D01*
X107338646Y-123571551D01*
X107326467Y-123572130D01*
X101897937Y-123563055D01*
X101354415Y-123562147D01*
X101342274Y-123561531D01*
X101165613Y-123543851D01*
X101141805Y-123539079D01*
X100977827Y-123489094D01*
X100955404Y-123479773D01*
X100804312Y-123398789D01*
X100784136Y-123385277D01*
X100651724Y-123276401D01*
X100634568Y-123259216D01*
X100528589Y-123129886D01*
X100501323Y-123065556D01*
X100500500Y-123051292D01*
X100500500Y-120124999D01*
X101559190Y-120124999D01*
X101559190Y-120125000D01*
X102075758Y-120125000D01*
X102070444Y-120134204D01*
X102050000Y-120210504D01*
X102050000Y-120289496D01*
X102070444Y-120365796D01*
X102075758Y-120375000D01*
X101559190Y-120375000D01*
X101580741Y-120483343D01*
X101580743Y-120483351D01*
X101641047Y-120628939D01*
X101641052Y-120628948D01*
X101728598Y-120759969D01*
X101728601Y-120759973D01*
X101840026Y-120871398D01*
X101840030Y-120871401D01*
X101971051Y-120958947D01*
X101971060Y-120958952D01*
X102116648Y-121019256D01*
X102116656Y-121019258D01*
X102271202Y-121049999D01*
X102271206Y-121050000D01*
X102525000Y-121050000D01*
X102525000Y-120550000D01*
X102775000Y-120550000D01*
X102775000Y-121050000D01*
X103028794Y-121050000D01*
X103028797Y-121049999D01*
X103183343Y-121019258D01*
X103183351Y-121019256D01*
X103328939Y-120958952D01*
X103328948Y-120958947D01*
X103459969Y-120871401D01*
X103459973Y-120871398D01*
X103571398Y-120759973D01*
X103571401Y-120759969D01*
X103658947Y-120628948D01*
X103658952Y-120628939D01*
X103719256Y-120483351D01*
X103719258Y-120483343D01*
X103740809Y-120375000D01*
X103224242Y-120375000D01*
X103229556Y-120365796D01*
X103250000Y-120289496D01*
X103250000Y-120210504D01*
X103229556Y-120134204D01*
X103224242Y-120125000D01*
X103740810Y-120125000D01*
X103740809Y-120124999D01*
X105359190Y-120124999D01*
X105359190Y-120125000D01*
X105875758Y-120125000D01*
X105870444Y-120134204D01*
X105850000Y-120210504D01*
X105850000Y-120289496D01*
X105870444Y-120365796D01*
X105875758Y-120375000D01*
X105359190Y-120375000D01*
X105380741Y-120483343D01*
X105380743Y-120483351D01*
X105441047Y-120628939D01*
X105441052Y-120628948D01*
X105528598Y-120759969D01*
X105528601Y-120759973D01*
X105640026Y-120871398D01*
X105640030Y-120871401D01*
X105771051Y-120958947D01*
X105771060Y-120958952D01*
X105916648Y-121019256D01*
X105916656Y-121019258D01*
X106071202Y-121049999D01*
X106071206Y-121050000D01*
X106325000Y-121050000D01*
X106325000Y-120550000D01*
X106575000Y-120550000D01*
X106575000Y-121050000D01*
X106828794Y-121050000D01*
X106828797Y-121049999D01*
X106983343Y-121019258D01*
X106983351Y-121019256D01*
X107128939Y-120958952D01*
X107128948Y-120958947D01*
X107259969Y-120871401D01*
X107259973Y-120871398D01*
X107371398Y-120759973D01*
X107371401Y-120759969D01*
X107458947Y-120628948D01*
X107458952Y-120628939D01*
X107519256Y-120483351D01*
X107519258Y-120483343D01*
X107540809Y-120375000D01*
X107024242Y-120375000D01*
X107029556Y-120365796D01*
X107050000Y-120289496D01*
X107050000Y-120210504D01*
X107029556Y-120134204D01*
X107024242Y-120125000D01*
X107540810Y-120125000D01*
X107540809Y-120124999D01*
X107519258Y-120016656D01*
X107519256Y-120016648D01*
X107458952Y-119871060D01*
X107458947Y-119871051D01*
X107371401Y-119740030D01*
X107371398Y-119740026D01*
X107259973Y-119628601D01*
X107259969Y-119628598D01*
X107128948Y-119541052D01*
X107128938Y-119541047D01*
X107096776Y-119527725D01*
X107042372Y-119483884D01*
X107020308Y-119417589D01*
X107037588Y-119349890D01*
X107088725Y-119302280D01*
X107103276Y-119296122D01*
X107142643Y-119282347D01*
X107142645Y-119282346D01*
X107251792Y-119201792D01*
X107332346Y-119092645D01*
X107377149Y-118964604D01*
X107377149Y-118964600D01*
X107380000Y-118934206D01*
X107380000Y-118805000D01*
X106655000Y-118805000D01*
X106655000Y-119336000D01*
X106652449Y-119344685D01*
X106653738Y-119353647D01*
X106642759Y-119377687D01*
X106635315Y-119403039D01*
X106628474Y-119408966D01*
X106624713Y-119417203D01*
X106602478Y-119431492D01*
X106582511Y-119448794D01*
X106575000Y-119450427D01*
X106575000Y-119950000D01*
X106325000Y-119950000D01*
X106325000Y-119444000D01*
X106327550Y-119435314D01*
X106326262Y-119426353D01*
X106337240Y-119402312D01*
X106344685Y-119376961D01*
X106351525Y-119371033D01*
X106355287Y-119362797D01*
X106377521Y-119348507D01*
X106397489Y-119331206D01*
X106405000Y-119329572D01*
X106405000Y-118805000D01*
X105680001Y-118805000D01*
X105680001Y-118934196D01*
X105682851Y-118964606D01*
X105727653Y-119092645D01*
X105808207Y-119201792D01*
X105912683Y-119278899D01*
X105954934Y-119334547D01*
X105960392Y-119404203D01*
X105927324Y-119465752D01*
X105886502Y-119493230D01*
X105771061Y-119541047D01*
X105771051Y-119541052D01*
X105640030Y-119628598D01*
X105640026Y-119628601D01*
X105528601Y-119740026D01*
X105528598Y-119740030D01*
X105441052Y-119871051D01*
X105441047Y-119871060D01*
X105380743Y-120016648D01*
X105380741Y-120016656D01*
X105359190Y-120124999D01*
X103740809Y-120124999D01*
X103719258Y-120016656D01*
X103719256Y-120016648D01*
X103658952Y-119871060D01*
X103658947Y-119871051D01*
X103571401Y-119740030D01*
X103571398Y-119740026D01*
X103459973Y-119628601D01*
X103459969Y-119628598D01*
X103328948Y-119541052D01*
X103328939Y-119541047D01*
X103183351Y-119480743D01*
X103183343Y-119480741D01*
X103028797Y-119450000D01*
X102775000Y-119450000D01*
X102775000Y-119950000D01*
X102525000Y-119950000D01*
X102525000Y-119450000D01*
X102271202Y-119450000D01*
X102116656Y-119480741D01*
X102116648Y-119480743D01*
X101971060Y-119541047D01*
X101971051Y-119541052D01*
X101840030Y-119628598D01*
X101840026Y-119628601D01*
X101728601Y-119740026D01*
X101728598Y-119740030D01*
X101641052Y-119871051D01*
X101641047Y-119871060D01*
X101580743Y-120016648D01*
X101580741Y-120016656D01*
X101559190Y-120124999D01*
X100500500Y-120124999D01*
X100500500Y-118510767D01*
X100520185Y-118443728D01*
X100528646Y-118432103D01*
X100635149Y-118302328D01*
X100652328Y-118285149D01*
X100784995Y-118176272D01*
X100805195Y-118162775D01*
X100956549Y-118081875D01*
X100978994Y-118072577D01*
X101143232Y-118022757D01*
X101167056Y-118018018D01*
X101343939Y-118000597D01*
X101356093Y-118000000D01*
X105043212Y-118000000D01*
X105106963Y-118017643D01*
G37*
%TD.AperFunction*%
%TD*%
M02*
